<?xml version="1.0" encoding="utf-8" standalone="no"?>
<!DOCTYPE svg PUBLIC "-//W3C//DTD SVG 1.1//EN"
  "http://www.w3.org/Graphics/SVG/1.1/DTD/svg11.dtd">
<svg xmlns:xlink="http://www.w3.org/1999/xlink" width="602.927656pt" height="329.521687pt" viewBox="0 0 602.927656 329.521687" xmlns="http://www.w3.org/2000/svg" version="1.1">
 <metadata>
  <rdf:RDF xmlns:dc="http://purl.org/dc/elements/1.1/" xmlns:cc="http://creativecommons.org/ns#" xmlns:rdf="http://www.w3.org/1999/02/22-rdf-syntax-ns#">
   <cc:Work>
    <dc:type rdf:resource="http://purl.org/dc/dcmitype/StillImage"/>
    <dc:format>image/svg+xml</dc:format>
    <dc:creator>
     <cc:Agent>
      <dc:title>Matplotlib v3.8.3, https://matplotlib.org/</dc:title>
     </cc:Agent>
    </dc:creator>
   </cc:Work>
  </rdf:RDF>
 </metadata>
 <defs>
  <style type="text/css">*{stroke-linejoin: round; stroke-linecap: butt}</style>
 </defs>
 <g id="figure_1">
  <g id="patch_1">
   <path d="M 0 329.521687 
L 602.927656 329.521687 
L 602.927656 0 
L 0 0 
z
" style="fill: #ffffff"/>
  </g>
  <g id="axes_1">
   <g id="patch_2">
    <path d="M 43.642656 289.851063 
L 595.727656 289.851063 
L 595.727656 24.644813 
L 43.642656 24.644813 
z
" style="fill: #ffffff"/>
   </g>
   <g id="matplotlib.axis_1">
    <g id="xtick_1">
     <g id="line2d_1">
      <path d="M 68.737429 289.851063 
L 68.737429 24.644813 
" clip-path="url(#p027905373d)" style="fill: none; stroke: #b0b0b0; stroke-opacity: 0.25; stroke-width: 0.8; stroke-linecap: square"/>
     </g>
     <g id="line2d_2">
      <defs>
       <path id="mdc63961c8c" d="M 0 0 
L 0 3.5 
" style="stroke: #000000; stroke-width: 0.8"/>
      </defs>
      <g>
       <use xlink:href="#mdc63961c8c" x="68.737429" y="289.851063" style="stroke: #000000; stroke-width: 0.8"/>
      </g>
     </g>
     <g id="text_1">
      <!-- 0.0 -->
      <g transform="translate(59.959773 305.331375) scale(0.11 -0.11)">
       <defs>
        <path id="HiraginoSans-W4-30" d="M 2144 -90 
C 2758 -90 3232 141 3565 602 
C 3846 998 4019 1696 4019 2464 
C 4019 3002 3936 3501 3770 3949 
C 3693 4160 3558 4371 3379 4550 
C 3078 4858 2650 5024 2157 5024 
C 1498 5024 986 4742 666 4205 
C 435 3834 288 3142 288 2458 
C 288 1939 371 1434 538 986 
C 614 768 749 563 928 384 
C 1242 70 1651 -90 2144 -90 
z
M 2144 4499 
C 2592 4499 2918 4307 3123 3923 
C 3283 3629 3398 3014 3398 2470 
C 3398 2022 3341 1619 3213 1235 
C 3155 1043 3046 870 2912 730 
C 2726 538 2458 435 2150 435 
C 1734 435 1414 614 1197 973 
C 1024 1261 902 1875 902 2451 
C 902 2906 966 3328 1088 3699 
C 1139 3866 1235 4026 1370 4173 
C 1568 4397 1818 4499 2144 4499 
z
" transform="scale(0.015625)"/>
        <path id="HiraginoSans-W4-2e" d="M 442 723 
L 442 0 
L 1165 0 
L 1165 723 
L 442 723 
z
" transform="scale(0.015625)"/>
       </defs>
       <use xlink:href="#HiraginoSans-W4-30"/>
       <use xlink:href="#HiraginoSans-W4-2e" x="67.299988"/>
       <use xlink:href="#HiraginoSans-W4-30" x="92.299973"/>
      </g>
     </g>
    </g>
    <g id="xtick_2">
     <g id="line2d_3">
      <path d="M 169.11652 289.851063 
L 169.11652 24.644813 
" clip-path="url(#p027905373d)" style="fill: none; stroke: #b0b0b0; stroke-opacity: 0.25; stroke-width: 0.8; stroke-linecap: square"/>
     </g>
     <g id="line2d_4">
      <g>
       <use xlink:href="#mdc63961c8c" x="169.11652" y="289.851063" style="stroke: #000000; stroke-width: 0.8"/>
      </g>
     </g>
     <g id="text_2">
      <!-- 0.2 -->
      <g transform="translate(160.338864 305.331375) scale(0.11 -0.11)">
       <defs>
        <path id="HiraginoSans-W4-32" d="M 3078 0 
C 3424 0 3642 -6 3917 -32 
L 3917 589 
C 3693 557 3430 544 3091 544 
L 1114 544 
C 1280 1114 1606 1478 2451 2042 
C 3181 2528 3341 2656 3546 2912 
C 3738 3142 3846 3443 3846 3744 
C 3846 4525 3200 5030 2202 5030 
C 1613 5030 1158 4858 858 4518 
C 640 4269 531 4026 442 3565 
L 1088 3469 
C 1139 3782 1190 3936 1306 4102 
C 1491 4371 1792 4506 2208 4506 
C 2816 4506 3206 4211 3206 3744 
C 3206 3360 2995 3085 2387 2675 
C 1754 2246 1600 2138 1389 1952 
C 979 1594 710 1229 544 806 
C 448 563 429 461 365 -26 
C 576 -6 678 0 1107 0 
L 3078 0 
z
" transform="scale(0.015625)"/>
       </defs>
       <use xlink:href="#HiraginoSans-W4-30"/>
       <use xlink:href="#HiraginoSans-W4-2e" x="67.299988"/>
       <use xlink:href="#HiraginoSans-W4-32" x="92.299973"/>
      </g>
     </g>
    </g>
    <g id="xtick_3">
     <g id="line2d_5">
      <path d="M 269.495611 289.851063 
L 269.495611 24.644813 
" clip-path="url(#p027905373d)" style="fill: none; stroke: #b0b0b0; stroke-opacity: 0.25; stroke-width: 0.8; stroke-linecap: square"/>
     </g>
     <g id="line2d_6">
      <g>
       <use xlink:href="#mdc63961c8c" x="269.495611" y="289.851063" style="stroke: #000000; stroke-width: 0.8"/>
      </g>
     </g>
     <g id="text_3">
      <!-- 0.4 -->
      <g transform="translate(260.706783 305.331375) scale(0.11 -0.11)">
       <defs>
        <path id="HiraginoSans-W4-34" d="M 179 1210 
C 403 1229 589 1235 954 1235 
L 2688 1235 
L 2688 710 
C 2688 410 2675 218 2630 0 
L 3309 0 
C 3270 230 3258 390 3258 704 
L 3258 1235 
L 3494 1235 
C 3763 1235 3910 1222 4154 1190 
L 4154 1798 
C 3917 1766 3750 1754 3494 1754 
L 3258 1754 
L 3258 3853 
C 3258 4358 3264 4544 3296 4934 
L 2701 4934 
C 2560 4704 2445 4550 2214 4269 
L 621 2298 
C 467 2099 326 1939 179 1773 
L 179 1210 
z
M 2688 1747 
L 858 1747 
L 2259 3514 
C 2464 3763 2592 3936 2720 4128 
C 2694 3814 2688 3622 2688 3283 
L 2688 1747 
z
" transform="scale(0.015625)"/>
       </defs>
       <use xlink:href="#HiraginoSans-W4-30"/>
       <use xlink:href="#HiraginoSans-W4-2e" x="67.299988"/>
       <use xlink:href="#HiraginoSans-W4-34" x="92.299973"/>
      </g>
     </g>
    </g>
    <g id="xtick_4">
     <g id="line2d_7">
      <path d="M 369.874702 289.851063 
L 369.874702 24.644813 
" clip-path="url(#p027905373d)" style="fill: none; stroke: #b0b0b0; stroke-opacity: 0.25; stroke-width: 0.8; stroke-linecap: square"/>
     </g>
     <g id="line2d_8">
      <g>
       <use xlink:href="#mdc63961c8c" x="369.874702" y="289.851063" style="stroke: #000000; stroke-width: 0.8"/>
      </g>
     </g>
     <g id="text_4">
      <!-- 0.6 -->
      <g transform="translate(361.097045 305.331375) scale(0.11 -0.11)">
       <defs>
        <path id="HiraginoSans-W4-36" d="M 3846 3994 
C 3706 4301 3616 4442 3462 4602 
C 3187 4877 2784 5024 2304 5024 
C 1683 5024 1222 4794 864 4307 
C 557 3891 371 3162 371 2355 
C 371 1446 614 704 1043 320 
C 1331 58 1773 -90 2253 -90 
C 3277 -90 3968 589 3968 1587 
C 3968 2586 3334 3213 2323 3213 
C 1894 3213 1568 3104 1274 2854 
C 1133 2739 1062 2656 941 2458 
C 979 3085 1043 3392 1210 3763 
C 1434 4262 1798 4518 2285 4518 
C 2765 4518 3040 4314 3238 3821 
L 3846 3994 
z
M 2266 2714 
C 2950 2714 3366 2285 3366 1574 
C 3366 1325 3309 1088 3206 922 
C 3008 614 2643 422 2234 422 
C 1568 422 1069 915 1069 1574 
C 1069 2234 1574 2714 2266 2714 
z
" transform="scale(0.015625)"/>
       </defs>
       <use xlink:href="#HiraginoSans-W4-30"/>
       <use xlink:href="#HiraginoSans-W4-2e" x="67.299988"/>
       <use xlink:href="#HiraginoSans-W4-36" x="92.299973"/>
      </g>
     </g>
    </g>
    <g id="xtick_5">
     <g id="line2d_9">
      <path d="M 470.253793 289.851063 
L 470.253793 24.644813 
" clip-path="url(#p027905373d)" style="fill: none; stroke: #b0b0b0; stroke-opacity: 0.25; stroke-width: 0.8; stroke-linecap: square"/>
     </g>
     <g id="line2d_10">
      <g>
       <use xlink:href="#mdc63961c8c" x="470.253793" y="289.851063" style="stroke: #000000; stroke-width: 0.8"/>
      </g>
     </g>
     <g id="text_5">
      <!-- 0.8 -->
      <g transform="translate(461.476136 305.331375) scale(0.11 -0.11)">
       <defs>
        <path id="HiraginoSans-W4-38" d="M 1446 2586 
C 1203 2547 1056 2490 851 2355 
C 480 2106 294 1754 294 1299 
C 294 397 966 -102 2163 -102 
C 3347 -102 4006 397 4006 1299 
C 4006 1728 3853 2061 3539 2304 
C 3322 2470 3136 2547 2867 2586 
C 3437 2714 3789 3162 3789 3757 
C 3789 4550 3162 5043 2150 5043 
C 1146 5043 512 4544 512 3750 
C 512 3162 877 2701 1446 2586 
z
M 2150 4538 
C 2784 4538 3187 4211 3187 3699 
C 3187 3155 2797 2829 2157 2829 
C 1510 2829 1114 3162 1114 3699 
C 1114 4211 1523 4538 2150 4538 
z
M 2157 2304 
C 2912 2304 3373 1939 3373 1344 
C 3373 749 2925 410 2144 410 
C 1376 410 928 749 928 1338 
C 928 1939 1389 2304 2157 2304 
z
" transform="scale(0.015625)"/>
       </defs>
       <use xlink:href="#HiraginoSans-W4-30"/>
       <use xlink:href="#HiraginoSans-W4-2e" x="67.299988"/>
       <use xlink:href="#HiraginoSans-W4-38" x="92.299973"/>
      </g>
     </g>
    </g>
    <g id="xtick_6">
     <g id="line2d_11">
      <path d="M 570.632884 289.851063 
L 570.632884 24.644813 
" clip-path="url(#p027905373d)" style="fill: none; stroke: #b0b0b0; stroke-opacity: 0.25; stroke-width: 0.8; stroke-linecap: square"/>
     </g>
     <g id="line2d_12">
      <g>
       <use xlink:href="#mdc63961c8c" x="570.632884" y="289.851063" style="stroke: #000000; stroke-width: 0.8"/>
      </g>
     </g>
     <g id="text_6">
      <!-- 1.0 -->
      <g transform="translate(561.855227 305.331375) scale(0.11 -0.11)">
       <defs>
        <path id="HiraginoSans-W4-31" d="M 1018 4371 
C 1222 4397 1389 4410 1606 4410 
L 1939 4410 
L 1939 755 
C 1939 454 1926 237 1888 0 
L 2598 0 
C 2560 250 2547 448 2547 755 
L 2547 3904 
C 2547 4256 2566 4582 2605 4966 
C 2387 4941 2278 4934 2035 4934 
L 1581 4934 
C 1325 4934 1197 4941 1018 4966 
L 1018 4371 
z
" transform="scale(0.015625)"/>
       </defs>
       <use xlink:href="#HiraginoSans-W4-31"/>
       <use xlink:href="#HiraginoSans-W4-2e" x="67.299988"/>
       <use xlink:href="#HiraginoSans-W4-30" x="92.299973"/>
      </g>
     </g>
    </g>
    <g id="text_7">
     <!-- x -->
     <g transform="translate(316.610312 320.066688) scale(0.11 -0.11)">
      <defs>
       <path id="HiraginoSans-W4-78" d="M 3469 0 
C 3238 294 3078 512 3008 614 
L 2138 1824 
L 2963 2982 
C 3021 3072 3168 3270 3206 3322 
C 3315 3462 3315 3462 3354 3520 
L 2630 3520 
C 2566 3386 2483 3238 2368 3072 
L 1792 2227 
L 1203 3072 
C 1088 3238 1024 3360 947 3520 
L 211 3520 
C 474 3174 557 3072 608 3002 
L 1440 1830 
L 531 563 
C 422 410 237 160 109 0 
L 858 0 
C 966 205 1018 294 1114 435 
L 1786 1421 
L 2426 486 
C 2566 288 2624 192 2720 0 
L 3469 0 
z
" transform="scale(0.015625)"/>
      </defs>
      <use xlink:href="#HiraginoSans-W4-78"/>
     </g>
    </g>
   </g>
   <g id="matplotlib.axis_2">
    <g id="ytick_1">
     <g id="line2d_13">
      <path d="M 43.642656 277.796233 
L 595.727656 277.796233 
" clip-path="url(#p027905373d)" style="fill: none; stroke: #b0b0b0; stroke-opacity: 0.25; stroke-width: 0.8; stroke-linecap: square"/>
     </g>
     <g id="line2d_14">
      <defs>
       <path id="mb3b38a01bc" d="M 0 0 
L -3.5 0 
" style="stroke: #000000; stroke-width: 0.8"/>
      </defs>
      <g>
       <use xlink:href="#mb3b38a01bc" x="43.642656" y="277.796233" style="stroke: #000000; stroke-width: 0.8"/>
      </g>
     </g>
     <g id="text_8">
      <!-- −3 -->
      <g transform="translate(21.935313 282.036389) scale(0.11 -0.11)">
       <defs>
        <path id="HiraginoSans-W4-2212" d="M 320 1498 
L 3930 1498 
L 3930 2022 
L 320 2022 
L 320 1498 
z
" transform="scale(0.015625)"/>
        <path id="HiraginoSans-W4-33" d="M 282 1101 
C 397 768 474 621 621 448 
C 934 90 1434 -96 2112 -96 
C 2720 -96 3213 70 3533 384 
C 3770 614 3904 954 3904 1306 
C 3904 1677 3802 1958 3597 2182 
C 3379 2419 3130 2528 2688 2586 
C 2995 2650 3130 2701 3290 2816 
C 3578 3021 3738 3366 3738 3757 
C 3738 4538 3117 5043 2157 5043 
C 1594 5043 1146 4883 845 4576 
C 666 4390 582 4237 467 3891 
L 1107 3757 
C 1171 3981 1216 4083 1306 4192 
C 1478 4416 1741 4525 2125 4525 
C 2746 4525 3110 4224 3110 3725 
C 3110 3482 3021 3264 2867 3110 
C 2669 2918 2374 2829 1965 2829 
C 1779 2829 1613 2842 1459 2861 
L 1459 2272 
C 1651 2298 1811 2310 2003 2310 
C 2829 2310 3264 1990 3264 1376 
C 3264 794 2816 429 2106 429 
C 1779 429 1510 506 1293 666 
C 1107 800 1024 928 928 1248 
L 282 1101 
z
" transform="scale(0.015625)"/>
       </defs>
       <use xlink:href="#HiraginoSans-W4-2212"/>
       <use xlink:href="#HiraginoSans-W4-33" x="66.399994"/>
      </g>
     </g>
    </g>
    <g id="ytick_2">
     <g id="line2d_15">
      <path d="M 43.642656 237.613468 
L 595.727656 237.613468 
" clip-path="url(#p027905373d)" style="fill: none; stroke: #b0b0b0; stroke-opacity: 0.25; stroke-width: 0.8; stroke-linecap: square"/>
     </g>
     <g id="line2d_16">
      <g>
       <use xlink:href="#mb3b38a01bc" x="43.642656" y="237.613468" style="stroke: #000000; stroke-width: 0.8"/>
      </g>
     </g>
     <g id="text_9">
      <!-- −2 -->
      <g transform="translate(21.935313 241.853624) scale(0.11 -0.11)">
       <use xlink:href="#HiraginoSans-W4-2212"/>
       <use xlink:href="#HiraginoSans-W4-32" x="66.399994"/>
      </g>
     </g>
    </g>
    <g id="ytick_3">
     <g id="line2d_17">
      <path d="M 43.642656 197.430703 
L 595.727656 197.430703 
" clip-path="url(#p027905373d)" style="fill: none; stroke: #b0b0b0; stroke-opacity: 0.25; stroke-width: 0.8; stroke-linecap: square"/>
     </g>
     <g id="line2d_18">
      <g>
       <use xlink:href="#mb3b38a01bc" x="43.642656" y="197.430703" style="stroke: #000000; stroke-width: 0.8"/>
      </g>
     </g>
     <g id="text_10">
      <!-- −1 -->
      <g transform="translate(21.935313 201.670859) scale(0.11 -0.11)">
       <use xlink:href="#HiraginoSans-W4-2212"/>
       <use xlink:href="#HiraginoSans-W4-31" x="66.399994"/>
      </g>
     </g>
    </g>
    <g id="ytick_4">
     <g id="line2d_19">
      <path d="M 43.642656 157.247938 
L 595.727656 157.247938 
" clip-path="url(#p027905373d)" style="fill: none; stroke: #b0b0b0; stroke-opacity: 0.25; stroke-width: 0.8; stroke-linecap: square"/>
     </g>
     <g id="line2d_20">
      <g>
       <use xlink:href="#mb3b38a01bc" x="43.642656" y="157.247938" style="stroke: #000000; stroke-width: 0.8"/>
      </g>
     </g>
     <g id="text_11">
      <!-- 0 -->
      <g transform="translate(29.24 161.488094) scale(0.11 -0.11)">
       <use xlink:href="#HiraginoSans-W4-30"/>
      </g>
     </g>
    </g>
    <g id="ytick_5">
     <g id="line2d_21">
      <path d="M 43.642656 117.065172 
L 595.727656 117.065172 
" clip-path="url(#p027905373d)" style="fill: none; stroke: #b0b0b0; stroke-opacity: 0.25; stroke-width: 0.8; stroke-linecap: square"/>
     </g>
     <g id="line2d_22">
      <g>
       <use xlink:href="#mb3b38a01bc" x="43.642656" y="117.065172" style="stroke: #000000; stroke-width: 0.8"/>
      </g>
     </g>
     <g id="text_12">
      <!-- 1 -->
      <g transform="translate(29.24 121.305329) scale(0.11 -0.11)">
       <use xlink:href="#HiraginoSans-W4-31"/>
      </g>
     </g>
    </g>
    <g id="ytick_6">
     <g id="line2d_23">
      <path d="M 43.642656 76.882407 
L 595.727656 76.882407 
" clip-path="url(#p027905373d)" style="fill: none; stroke: #b0b0b0; stroke-opacity: 0.25; stroke-width: 0.8; stroke-linecap: square"/>
     </g>
     <g id="line2d_24">
      <g>
       <use xlink:href="#mb3b38a01bc" x="43.642656" y="76.882407" style="stroke: #000000; stroke-width: 0.8"/>
      </g>
     </g>
     <g id="text_13">
      <!-- 2 -->
      <g transform="translate(29.24 81.122563) scale(0.11 -0.11)">
       <use xlink:href="#HiraginoSans-W4-32"/>
      </g>
     </g>
    </g>
    <g id="ytick_7">
     <g id="line2d_25">
      <path d="M 43.642656 36.699642 
L 595.727656 36.699642 
" clip-path="url(#p027905373d)" style="fill: none; stroke: #b0b0b0; stroke-opacity: 0.25; stroke-width: 0.8; stroke-linecap: square"/>
     </g>
     <g id="line2d_26">
      <g>
       <use xlink:href="#mb3b38a01bc" x="43.642656" y="36.699642" style="stroke: #000000; stroke-width: 0.8"/>
      </g>
     </g>
     <g id="text_14">
      <!-- 3 -->
      <g transform="translate(29.24 40.939798) scale(0.11 -0.11)">
       <use xlink:href="#HiraginoSans-W4-33"/>
      </g>
     </g>
    </g>
    <g id="text_15">
     <!-- t -->
     <g transform="translate(15.680313 159.475437) rotate(-90) scale(0.11 -0.11)">
      <defs>
       <path id="HiraginoSans-W4-74" d="M 851 4480 
C 877 4262 896 4006 896 3750 
L 896 3520 
L 646 3520 
C 378 3520 250 3526 70 3558 
L 70 2995 
C 275 3021 416 3034 640 3034 
L 896 3034 
L 896 787 
C 896 461 954 269 1094 134 
C 1235 6 1466 -64 1773 -64 
C 2042 -64 2246 -26 2515 83 
L 2374 602 
C 2176 486 2048 448 1875 448 
C 1741 448 1632 486 1568 544 
C 1504 608 1478 698 1478 883 
L 1478 3034 
L 1779 3034 
C 2074 3034 2221 3027 2426 2995 
L 2426 3558 
C 2214 3526 2074 3520 1773 3520 
L 1478 3520 
L 1478 3750 
C 1478 4026 1498 4275 1523 4480 
L 851 4480 
z
" transform="scale(0.015625)"/>
      </defs>
      <use xlink:href="#HiraginoSans-W4-74"/>
     </g>
    </g>
   </g>
   <g id="line2d_27">
    <path d="M 68.737429 157.247938 
L 88.863562 147.230376 
L 100.184513 141.834129 
L 110.247579 137.293709 
L 119.052763 133.577938 
L 126.600063 130.620057 
L 134.147363 127.899713 
L 141.694663 125.441172 
L 147.98408 123.608274 
L 154.273496 121.983815 
L 160.562913 120.577863 
L 166.85233 119.399128 
L 173.141747 118.454914 
L 179.431163 117.751071 
L 185.72058 117.291962 
L 192.009997 117.080429 
L 198.299413 117.117786 
L 204.58883 117.403799 
L 210.878247 117.936696 
L 217.167664 118.713177 
L 223.45708 119.728428 
L 229.746497 120.976161 
L 236.035914 122.448642 
L 242.325331 124.136749 
L 248.614747 126.030022 
L 256.162047 128.556164 
L 263.709347 131.338254 
L 271.256647 134.351474 
L 280.061831 138.123055 
L 290.124898 142.714896 
L 301.445848 148.152274 
L 317.798331 156.298869 
L 340.440231 167.571581 
L 351.761182 172.953448 
L 361.824248 177.476163 
L 370.629432 181.172869 
L 378.176732 184.111935 
L 385.724032 186.811359 
L 393.271332 189.247059 
L 399.560749 191.059604 
L 405.850165 192.662642 
L 412.139582 194.046242 
L 418.428999 195.20183 
L 424.718416 196.122246 
L 431.007832 196.801787 
L 437.297249 197.236241 
L 443.586666 197.422918 
L 449.876082 197.36066 
L 456.165499 197.049854 
L 462.454916 196.492424 
L 468.744333 195.691826 
L 475.033749 194.653019 
L 481.323166 193.38244 
L 487.612583 191.887963 
L 493.901999 190.178847 
L 500.191416 188.265683 
L 507.738716 185.717318 
L 515.286016 182.914989 
L 522.833316 179.883695 
L 531.6385 176.093977 
L 541.701567 171.485564 
L 553.022517 166.035148 
L 569.375 157.880683 
L 570.632884 157.247938 
L 570.632884 157.247938 
" clip-path="url(#p027905373d)" style="fill: none; stroke-dasharray: 5.18,2.24; stroke-dashoffset: 0; stroke: #2ca02c; stroke-width: 1.4"/>
   </g>
   <g id="line2d_28">
    <path d="M 68.737429 174.710025 
L 69.995312 154.256 
L 71.253196 136.065165 
L 72.511079 119.985005 
L 73.768962 105.870197 
L 75.026846 93.582371 
L 76.284729 82.989861 
L 77.542612 73.967477 
L 78.800496 66.396275 
L 80.058379 60.163329 
L 81.316262 55.161521 
L 82.574146 51.289324 
L 83.832029 48.4506 
L 85.089912 46.554395 
L 86.347796 45.514746 
L 87.605679 45.250493 
L 88.863562 45.685089 
L 90.121446 46.746424 
L 91.379329 48.366649 
L 92.637213 50.482002 
L 93.895096 53.032651 
L 95.152979 55.962524 
L 97.668746 62.753546 
L 100.184513 70.475957 
L 103.958163 83.100263 
L 111.505463 108.985481 
L 115.279113 120.995109 
L 117.794879 128.359673 
L 120.310646 135.110999 
L 122.826413 141.18906 
L 125.342179 146.553622 
L 127.857946 151.181852 
L 130.373713 155.066101 
L 132.88948 158.21185 
L 134.147363 159.512624 
L 135.405246 160.635825 
L 136.66313 161.585015 
L 137.921013 162.364248 
L 139.178896 162.978025 
L 140.43678 163.431248 
L 141.694663 163.729178 
L 142.952546 163.877395 
L 144.21043 163.88176 
L 145.468313 163.748374 
L 146.726196 163.48355 
L 147.98408 163.093772 
L 150.499846 161.965988 
L 153.015613 160.419247 
L 155.53138 158.508723 
L 158.047146 156.289756 
L 160.562913 153.817154 
L 164.336563 149.749662 
L 169.368097 143.924437 
L 178.17328 133.655565 
L 181.94693 129.570275 
L 185.72058 125.831267 
L 188.236347 123.57348 
L 190.752113 121.528126 
L 193.26788 119.712247 
L 195.783647 118.139426 
L 198.299413 116.819894 
L 200.81518 115.760654 
L 203.330947 114.965625 
L 205.846714 114.435807 
L 208.36248 114.169452 
L 210.878247 114.162257 
L 213.394014 114.407559 
L 215.90978 114.896544 
L 218.425547 115.618451 
L 220.941314 116.560793 
L 223.45708 117.709568 
L 225.972847 119.049475 
L 229.746497 121.381625 
L 233.520147 124.047991 
L 237.293797 126.986938 
L 242.325331 131.220602 
L 249.872631 137.9456 
L 259.935697 146.885901 
L 264.967231 151.073482 
L 269.998764 154.943355 
L 273.772414 157.59328 
L 277.546064 160.001414 
L 281.319714 162.152528 
L 285.093364 164.038415 
L 288.867014 165.657748 
L 292.640664 167.015813 
L 296.414314 168.124139 
L 300.187964 169.000011 
L 303.961614 169.665897 
L 308.993148 170.27432 
L 314.024681 170.631993 
L 321.571981 170.880886 
L 332.892931 171.197167 
L 337.924465 171.537141 
L 342.955998 172.108496 
L 346.729648 172.72679 
L 350.503298 173.531401 
L 354.276948 174.537916 
L 358.050598 175.756108 
L 361.824248 177.189524 
L 365.597898 178.83518 
L 369.371548 180.683378 
L 374.403082 183.433261 
L 379.434615 186.455662 
L 385.724032 190.496834 
L 398.302865 198.686861 
L 403.334399 201.663262 
L 407.108049 203.658994 
L 410.881699 205.3882 
L 414.655349 206.795041 
L 417.171115 207.527566 
L 419.686882 208.078607 
L 422.202649 208.434636 
L 424.718416 208.583423 
L 427.234182 208.514253 
L 429.749949 208.218128 
L 432.265716 207.687978 
L 434.781482 206.918864 
L 437.297249 205.908177 
L 439.813016 204.655822 
L 442.328782 203.164407 
L 444.844549 201.439398 
L 447.360316 199.489284 
L 449.876082 197.3257 
L 453.649732 193.713583 
L 457.423382 189.719994 
L 462.454916 183.945897 
L 477.549516 166.124619 
L 480.065283 163.523347 
L 482.581049 161.156702 
L 485.096816 159.077145 
L 487.612583 157.337935 
L 490.128349 155.992503 
L 492.644116 155.09373 
L 493.901999 154.828019 
L 495.159883 154.693139 
L 496.417766 154.69517 
L 497.67565 154.839985 
L 498.933533 155.133222 
L 500.191416 155.580241 
L 501.4493 156.186092 
L 502.707183 156.955474 
L 503.965066 157.89269 
L 505.22295 159.001607 
L 506.480833 160.285608 
L 507.738716 161.747549 
L 510.254483 165.213703 
L 512.77025 169.410331 
L 515.286016 174.335776 
L 517.801783 179.974529 
L 520.31755 186.295137 
L 522.833316 193.247942 
L 525.349083 200.762644 
L 529.122733 212.876529 
L 540.443683 250.410088 
L 542.95945 257.554038 
L 544.217333 260.736651 
L 545.475217 263.596524 
L 546.7331 266.082078 
L 547.990983 268.138192 
L 549.248867 269.706043 
L 550.50675 270.722958 
L 551.764633 271.12224 
L 553.022517 270.833008 
L 554.2804 269.780023 
L 555.538283 267.883509 
L 556.796167 265.05897 
L 558.05405 261.217007 
L 559.311933 256.26312 
L 560.569817 250.097515 
L 561.8277 242.614898 
L 563.085583 233.704267 
L 564.343467 223.248698 
L 565.60135 211.125126 
L 566.859233 197.204118 
L 568.117117 181.349642 
L 569.375 163.418832 
L 570.632884 143.261741 
L 570.632884 143.261741 
" clip-path="url(#p027905373d)" style="fill: none; stroke: #d62728; stroke-width: 1.6; stroke-linecap: square"/>
   </g>
   <g id="line2d_29">
    <path d="M 68.737429 167.208961 
L 76.284729 163.592553 
L 83.832029 160.195103 
L 91.379329 157.019556 
L 98.926629 154.068666 
L 106.473929 151.34497 
L 114.021229 148.850755 
L 121.568529 146.588038 
L 129.11583 144.55853 
L 136.66313 142.763603 
L 144.21043 141.20426 
L 151.75773 139.881096 
L 159.30503 138.794257 
L 166.85233 137.943405 
L 174.39963 137.327676 
L 181.94693 136.94563 
L 189.49423 136.795214 
L 197.04153 136.873714 
L 204.58883 137.177705 
L 212.13613 137.703009 
L 219.68343 138.444643 
L 227.23073 139.396772 
L 234.77803 140.552666 
L 243.583214 142.148449 
L 252.388397 143.997194 
L 261.193581 146.083087 
L 269.998764 148.388306 
L 280.061831 151.265786 
L 290.124898 154.370549 
L 301.445848 158.089043 
L 315.282565 162.875641 
L 341.698115 172.33111 
L 358.050598 178.050607 
L 369.371548 181.788867 
L 379.434615 184.876965 
L 388.239799 187.345036 
L 395.787099 189.251944 
L 403.334399 190.937257 
L 410.881699 192.373698 
L 417.171115 193.361307 
L 423.460532 194.142471 
L 429.749949 194.702719 
L 436.039366 195.028297 
L 442.328782 195.106344 
L 448.618199 194.925083 
L 454.907616 194.474025 
L 459.939149 193.912835 
L 464.970683 193.169395 
L 470.002216 192.240706 
L 475.033749 191.124666 
L 480.065283 189.820156 
L 485.096816 188.32715 
L 491.386233 186.197727 
L 497.67565 183.780904 
L 503.965066 181.085447 
L 510.254483 178.124091 
L 516.5439 174.913951 
L 522.833316 171.476977 
L 530.380616 167.091979 
L 539.1858 161.691796 
L 551.764633 153.673531 
L 564.343467 145.70189 
L 570.632884 141.908019 
L 570.632884 141.908019 
" clip-path="url(#p027905373d)" style="fill: none; stroke: #1f77b4; stroke-width: 2; stroke-linecap: square"/>
   </g>
   <g id="patch_3">
    <path d="M 43.642656 289.851063 
L 43.642656 24.644813 
" style="fill: none; stroke: #000000; stroke-width: 0.8; stroke-linejoin: miter; stroke-linecap: square"/>
   </g>
   <g id="patch_4">
    <path d="M 43.642656 289.851063 
L 595.727656 289.851063 
" style="fill: none; stroke: #000000; stroke-width: 0.8; stroke-linejoin: miter; stroke-linecap: square"/>
   </g>
   <g id="PathCollection_1">
    <defs>
     <path id="md85efe336a" d="M 0 3.316625 
C 0.879579 3.316625 1.723251 2.967164 2.345208 2.345208 
C 2.967164 1.723251 3.316625 0.879579 3.316625 0 
C 3.316625 -0.879579 2.967164 -1.723251 2.345208 -2.345208 
C 1.723251 -2.967164 0.879579 -3.316625 0 -3.316625 
C -0.879579 -3.316625 -1.723251 -2.967164 -2.345208 -2.345208 
C -2.967164 -1.723251 -3.316625 -0.879579 -3.316625 0 
C -3.316625 0.879579 -2.967164 1.723251 -2.345208 2.345208 
C -1.723251 2.967164 -0.879579 3.316625 0 3.316625 
z
" style="stroke: #333333; stroke-width: 1.3"/>
    </defs>
    <g clip-path="url(#p027905373d)">
     <use xlink:href="#md85efe336a" x="68.737429" y="174.710025" style="fill: #ffffff; stroke: #333333; stroke-width: 1.3"/>
     <use xlink:href="#md85efe336a" x="124.503591" y="144.846455" style="fill: #ffffff; stroke: #333333; stroke-width: 1.3"/>
     <use xlink:href="#md85efe336a" x="180.269752" y="131.348897" style="fill: #ffffff; stroke: #333333; stroke-width: 1.3"/>
     <use xlink:href="#md85efe336a" x="236.035914" y="125.980879" style="fill: #ffffff; stroke: #333333; stroke-width: 1.3"/>
     <use xlink:href="#md85efe336a" x="291.802075" y="166.736103" style="fill: #ffffff; stroke: #333333; stroke-width: 1.3"/>
     <use xlink:href="#md85efe336a" x="347.568237" y="172.888856" style="fill: #ffffff; stroke: #333333; stroke-width: 1.3"/>
     <use xlink:href="#md85efe336a" x="403.334399" y="201.663262" style="fill: #ffffff; stroke: #333333; stroke-width: 1.3"/>
     <use xlink:href="#md85efe336a" x="459.10056" y="187.843405" style="fill: #ffffff; stroke: #333333; stroke-width: 1.3"/>
     <use xlink:href="#md85efe336a" x="514.866722" y="173.464729" style="fill: #ffffff; stroke: #333333; stroke-width: 1.3"/>
     <use xlink:href="#md85efe336a" x="570.632884" y="143.261741" style="fill: #ffffff; stroke: #333333; stroke-width: 1.3"/>
    </g>
   </g>
   <g id="text_16">
    <!-- §1.4 / §5.2 正則化（罰金）が係数の暴走を抑え、曲線をなめらかにする -->
    <g transform="translate(101.898562 18.644813) scale(0.132 -0.132)">
     <defs>
      <path id="HiraginoSans-W4-a7" d="M 557 -147 
C 627 -480 685 -634 819 -819 
C 1082 -1190 1536 -1395 2080 -1395 
C 2957 -1395 3552 -902 3552 -186 
C 3552 45 3488 250 3373 416 
C 3296 525 3226 589 3053 704 
C 3277 800 3373 858 3488 966 
C 3674 1152 3770 1389 3770 1677 
C 3770 2074 3597 2387 3258 2598 
C 3066 2720 2893 2803 2189 3117 
C 1670 3347 1517 3437 1389 3571 
C 1306 3667 1254 3802 1254 3936 
C 1254 4301 1626 4570 2118 4570 
C 2432 4570 2682 4467 2822 4282 
C 2918 4160 2963 4032 3008 3789 
L 3565 3898 
C 3501 4224 3424 4397 3270 4582 
C 3027 4870 2630 5024 2125 5024 
C 1293 5024 710 4563 710 3898 
C 710 3686 774 3482 890 3334 
C 954 3245 1018 3187 1178 3072 
C 672 2822 448 2509 448 2061 
C 448 1779 550 1530 755 1338 
C 928 1171 1126 1062 1715 800 
C 2387 506 2490 454 2675 339 
C 2899 198 2995 32 2995 -198 
C 2995 -621 2630 -915 2106 -915 
C 1754 -915 1453 -768 1299 -518 
C 1222 -397 1184 -275 1152 -38 
L 557 -147 
z
M 2611 960 
C 1997 1235 1664 1389 1491 1478 
C 1139 1670 998 1850 998 2125 
C 998 2426 1158 2611 1594 2822 
C 1914 2669 1933 2656 2112 2573 
C 2650 2317 2816 2234 2950 2138 
C 3155 1990 3238 1850 3238 1638 
C 3238 1338 3066 1152 2611 960 
z
" transform="scale(0.015625)"/>
      <path id="HiraginoSans-W4-20" transform="scale(0.015625)"/>
      <path id="HiraginoSans-W4-2f" d="M 2432 4934 
L 122 -979 
L 691 -979 
L 2995 4934 
L 2432 4934 
z
" transform="scale(0.015625)"/>
      <path id="HiraginoSans-W4-35" d="M 1331 4416 
L 2835 4416 
C 3155 4416 3366 4403 3622 4365 
L 3622 4986 
C 3360 4947 3206 4934 2829 4934 
L 1446 4934 
C 1082 4934 954 4941 762 4966 
C 774 4768 774 4762 774 4742 
C 774 4563 774 4518 749 4307 
L 608 2822 
C 589 2566 570 2445 518 2157 
L 1088 2106 
C 1146 2240 1178 2291 1261 2374 
C 1485 2605 1811 2739 2131 2739 
C 2842 2739 3264 2317 3264 1613 
C 3264 902 2803 435 2106 435 
C 1747 435 1440 563 1235 794 
C 1146 902 1101 986 1037 1171 
L 410 1005 
C 557 685 646 544 813 378 
C 1133 64 1562 -96 2099 -96 
C 3194 -96 3885 576 3885 1638 
C 3885 2605 3245 3238 2272 3238 
C 1830 3238 1472 3098 1158 2803 
C 1197 2982 1197 2982 1203 3091 
L 1331 4416 
z
" transform="scale(0.015625)"/>
      <path id="HiraginoSans-W4-6b63" d="M 3130 307 
L 1907 307 
L 1907 2483 
C 1907 2803 1920 3027 1952 3245 
L 1344 3245 
C 1376 3008 1389 2803 1389 2477 
L 1389 307 
L 1126 307 
C 755 307 570 320 358 352 
L 358 -205 
C 608 -173 826 -160 1133 -160 
L 5274 -160 
C 5587 -160 5818 -173 6042 -205 
L 6042 352 
C 5811 320 5594 307 5267 307 
L 3654 307 
L 3654 2323 
L 4877 2323 
C 5158 2323 5370 2310 5549 2285 
L 5549 2822 
C 5370 2797 5184 2784 4877 2784 
L 3654 2784 
L 3654 4531 
L 5082 4531 
C 5344 4531 5594 4518 5818 4493 
L 5818 5037 
C 5600 5011 5376 4998 5082 4998 
L 1344 4998 
C 1037 4998 813 5011 608 5037 
L 608 4493 
C 832 4518 1069 4531 1350 4531 
L 3130 4531 
L 3130 307 
z
" transform="scale(0.015625)"/>
      <path id="HiraginoSans-W4-5247" d="M 2554 1011 
C 2758 1011 2970 1005 3085 992 
C 3072 1101 3066 1331 3066 1581 
L 3066 4461 
C 3066 4691 3072 4922 3085 5043 
C 2944 5030 2778 5024 2528 5024 
L 1312 5024 
C 1126 5024 902 5030 749 5043 
C 768 4858 774 4672 774 4442 
L 774 1600 
C 774 1344 768 1165 755 992 
C 870 1005 1062 1011 1267 1011 
L 2554 1011 
z
M 1242 4595 
L 2611 4595 
L 2611 3834 
L 1242 3834 
L 1242 4595 
z
M 1242 3424 
L 2611 3424 
L 2611 2662 
L 1242 2662 
L 1242 3424 
z
M 1242 2253 
L 2611 2253 
L 2611 1434 
L 1242 1434 
L 1242 2253 
z
M 1293 877 
C 1018 384 794 147 307 -166 
C 486 -294 557 -358 685 -506 
C 1197 -115 1376 90 1722 646 
L 1293 877 
z
M 2208 646 
C 2547 160 2752 -70 3123 -410 
C 3258 -262 3341 -179 3494 -64 
C 3098 243 2931 422 2605 870 
L 2208 646 
z
M 3814 4922 
C 3840 4742 3853 4506 3853 4179 
L 3853 1728 
C 3853 1344 3846 1158 3821 986 
L 4371 986 
C 4346 1165 4339 1344 4339 1734 
L 4339 4179 
C 4339 4525 4352 4736 4378 4922 
L 3814 4922 
z
M 5766 4397 
C 5766 4755 5779 5011 5811 5222 
L 5229 5222 
C 5261 4986 5274 4762 5274 4397 
L 5274 256 
C 5274 90 5222 58 4954 58 
C 4755 58 4448 83 4154 122 
C 4243 -70 4275 -179 4307 -378 
C 4685 -397 4723 -397 4838 -397 
C 5613 -397 5766 -294 5766 211 
L 5766 4397 
z
" transform="scale(0.015625)"/>
      <path id="HiraginoSans-W4-5316" d="M 3578 2298 
C 4410 2752 5050 3194 5600 3699 
C 5882 3949 5882 3949 5958 4013 
L 5542 4422 
C 5325 4134 5094 3910 4691 3584 
C 4333 3302 3942 3046 3578 2861 
L 3578 4570 
C 3578 4858 3590 5101 3616 5280 
L 3040 5280 
C 3059 5114 3078 4851 3078 4570 
L 3078 333 
C 3078 -192 3251 -282 4294 -282 
C 5299 -282 5613 -224 5786 0 
C 5933 186 6016 570 6086 1306 
C 5926 1344 5805 1395 5600 1510 
C 5555 806 5498 486 5389 346 
C 5299 230 5056 192 4358 192 
C 3674 192 3578 224 3578 435 
L 3578 2298 
z
M 1318 314 
C 1318 19 1306 -224 1274 -486 
L 1856 -486 
C 1830 -230 1818 51 1818 301 
L 1818 3674 
C 2080 4256 2202 4550 2310 4845 
C 2413 5120 2413 5120 2451 5203 
L 1894 5363 
C 1862 5107 1818 4941 1683 4595 
C 1363 3795 915 3136 269 2490 
C 384 2349 480 2189 563 2010 
C 909 2387 1152 2701 1331 3021 
C 1318 2688 1318 2573 1318 2259 
L 1318 314 
z
" transform="scale(0.015625)"/>
      <path id="HiraginoSans-W4-ff08" d="M 6170 -531 
C 5690 -26 5491 256 5280 698 
C 5024 1235 4902 1805 4902 2432 
C 4902 3059 5024 3629 5280 4166 
C 5491 4608 5690 4890 6170 5395 
L 5517 5395 
C 5139 4947 4966 4685 4774 4275 
C 4499 3686 4365 3085 4365 2432 
C 4365 1779 4499 1178 4774 589 
C 4966 179 5139 -83 5517 -531 
L 6170 -531 
z
" transform="scale(0.015625)"/>
      <path id="HiraginoSans-W4-7f70" d="M 653 4301 
C 653 4128 646 3974 627 3846 
C 813 3859 973 3866 1344 3866 
L 5114 3866 
C 5491 3866 5645 3859 5830 3846 
C 5811 3987 5805 4115 5805 4301 
L 5805 4678 
C 5805 4870 5811 4992 5830 5139 
C 5651 5120 5446 5114 5114 5114 
L 1350 5114 
C 1011 5114 806 5120 627 5139 
C 646 5005 653 4864 653 4678 
L 653 4301 
z
M 1126 4755 
L 2214 4755 
L 2214 4211 
L 1126 4211 
L 1126 4755 
z
M 2656 4755 
L 3763 4755 
L 3763 4211 
L 2656 4211 
L 2656 4755 
z
M 4205 4755 
L 5331 4755 
L 5331 4211 
L 4205 4211 
L 4205 4755 
z
M 749 3187 
C 883 3200 1024 3206 1197 3206 
L 2835 3206 
C 3002 3206 3149 3200 3270 3187 
L 3270 3571 
C 3142 3552 3034 3546 2829 3546 
L 1197 3546 
C 992 3546 890 3552 749 3571 
L 749 3187 
z
M 358 2509 
C 538 2534 685 2541 902 2541 
L 3040 2541 
C 3251 2541 3418 2534 3590 2509 
L 3590 2944 
C 3430 2918 3277 2906 3040 2906 
L 909 2906 
C 685 2906 531 2918 358 2944 
L 358 2509 
z
M 762 1894 
C 902 1914 1005 1920 1184 1920 
L 2822 1920 
C 3008 1920 3098 1914 3251 1894 
L 3251 2272 
C 3123 2253 3014 2246 2816 2246 
L 1184 2246 
C 986 2246 877 2253 762 2272 
L 762 1894 
z
M 762 1261 
C 890 1280 998 1286 1184 1286 
L 2822 1286 
C 3008 1286 3098 1280 3251 1261 
L 3251 1638 
C 3123 1619 3008 1613 2816 1613 
L 1184 1613 
C 986 1613 877 1619 762 1638 
L 762 1261 
z
M 717 0 
C 717 -198 710 -339 685 -493 
L 1184 -493 
L 1184 -211 
L 2822 -211 
L 2822 -454 
L 3315 -454 
C 3290 -288 3283 -179 3283 -19 
L 3283 634 
C 3283 800 3290 890 3302 998 
C 3200 986 3072 979 2899 979 
L 1082 979 
C 909 979 819 986 691 998 
C 710 877 717 774 717 595 
L 717 0 
z
M 1184 627 
L 2822 627 
L 2822 141 
L 1184 141 
L 1184 627 
z
M 3891 3341 
C 3910 3155 3923 2982 3923 2726 
L 3923 1376 
C 3923 1126 3910 954 3891 768 
L 4416 768 
C 4397 979 4384 1158 4384 1376 
L 4384 2726 
C 4384 2950 4397 3130 4416 3341 
L 3891 3341 
z
M 5734 2880 
C 5734 3232 5747 3418 5773 3610 
L 5216 3610 
C 5248 3379 5254 3200 5254 2880 
L 5254 211 
C 5254 77 5203 51 4966 51 
C 4749 51 4486 70 4147 109 
C 4224 -96 4243 -166 4275 -371 
C 4627 -384 4845 -390 4934 -390 
C 5286 -390 5427 -371 5542 -314 
C 5683 -243 5734 -115 5734 134 
L 5734 2880 
z
" transform="scale(0.015625)"/>
      <path id="HiraginoSans-W4-91d1" d="M 2886 3078 
L 2886 2278 
L 1267 2278 
C 979 2278 794 2291 621 2317 
L 621 1798 
C 813 1824 1011 1837 1261 1837 
L 2886 1837 
L 2886 224 
L 1171 224 
C 870 224 640 237 422 262 
L 422 -282 
C 678 -250 915 -237 1178 -237 
L 5210 -237 
C 5472 -237 5722 -250 5933 -282 
L 5933 262 
C 5734 237 5517 224 5216 224 
L 3379 224 
L 3379 1837 
L 5114 1837 
C 5395 1837 5574 1824 5766 1798 
L 5766 2317 
C 5600 2291 5421 2278 5120 2278 
L 3379 2278 
L 3379 3078 
L 4077 3078 
C 4352 3078 4512 3072 4678 3046 
L 4678 3456 
C 5133 3162 5421 3014 5939 2797 
C 6016 2976 6099 3130 6221 3290 
C 5555 3514 5075 3757 4538 4147 
C 4032 4518 3699 4851 3437 5254 
L 2861 5254 
C 2355 4422 1421 3731 186 3270 
C 346 3085 397 3002 480 2816 
C 947 3008 1229 3162 1645 3430 
L 1645 3046 
C 1830 3072 1984 3078 2253 3078 
L 2886 3078 
z
M 2240 3501 
C 2035 3501 1933 3507 1779 3514 
C 2426 3974 2778 4307 3155 4826 
C 3539 4320 3994 3904 4576 3520 
C 4435 3507 4314 3501 4083 3501 
L 2240 3501 
z
M 1229 1485 
C 1459 1139 1626 800 1773 365 
L 2221 544 
C 2035 1011 1901 1293 1677 1677 
L 1229 1485 
z
M 4614 1664 
C 4448 1190 4256 813 4013 486 
L 4442 320 
C 4717 736 4730 762 5094 1472 
L 4614 1664 
z
" transform="scale(0.015625)"/>
      <path id="HiraginoSans-W4-ff09" d="M 890 -531 
C 1261 -83 1434 179 1626 589 
C 1901 1178 2035 1773 2035 2432 
C 2035 3091 1901 3686 1626 4275 
C 1434 4685 1261 4947 890 5395 
L 230 5395 
C 710 4890 909 4608 1120 4166 
C 1376 3629 1498 3072 1498 2432 
C 1498 1792 1376 1235 1120 698 
C 909 256 710 -26 230 -531 
L 890 -531 
z
" transform="scale(0.015625)"/>
      <path id="HiraginoSans-W4-304c" d="M 531 3002 
C 813 3072 1082 3123 1773 3226 
C 1568 2406 1389 1888 1094 1254 
C 877 781 621 326 429 83 
L 954 -218 
L 1370 589 
C 1792 1459 2067 2234 2310 3270 
C 2496 3290 2611 3296 2746 3296 
C 3315 3296 3494 3091 3494 2438 
C 3494 1722 3398 1075 3232 685 
C 3155 499 3034 403 2880 403 
C 2656 403 2291 512 1939 685 
C 1965 531 1971 448 1971 333 
C 1971 256 1965 218 1958 109 
C 2374 -58 2656 -122 2925 -122 
C 3232 -122 3418 -45 3578 173 
C 3853 538 4026 1395 4026 2413 
C 4026 2957 3936 3251 3718 3475 
C 3514 3674 3232 3757 2797 3757 
C 2656 3757 2560 3757 2406 3744 
C 2438 3891 2509 4301 2541 4467 
C 2598 4826 2618 4934 2656 5062 
L 2054 5133 
L 2054 5043 
C 2054 4781 1978 4224 1875 3699 
C 1338 3616 698 3546 467 3546 
L 531 3002 
z
M 4262 3898 
C 4864 3270 5312 2451 5549 1530 
L 6048 1805 
C 5760 2726 5363 3424 4717 4134 
L 4262 3898 
z
M 5357 5357 
C 5638 5024 5830 4736 6016 4365 
L 6387 4576 
C 6157 4998 6016 5197 5715 5549 
L 5357 5357 
z
M 4614 5011 
C 4877 4717 5082 4397 5280 4000 
L 5658 4211 
C 5434 4627 5286 4845 4986 5203 
L 4614 5011 
z
" transform="scale(0.015625)"/>
      <path id="HiraginoSans-W4-4fc2" d="M 1792 1805 
C 1914 1824 1914 1824 2669 1843 
L 3584 1882 
L 3584 166 
C 3584 -134 3571 -314 3546 -512 
L 4102 -512 
C 4077 -314 4064 -134 4064 173 
L 4064 1907 
C 4883 1952 4883 1952 5459 2010 
C 5542 1856 5581 1779 5696 1555 
L 6118 1792 
C 5715 2451 5517 2720 5075 3213 
L 4704 3021 
C 4966 2707 5069 2586 5210 2387 
C 4666 2336 4358 2323 3526 2298 
C 3923 2624 4563 3258 4909 3680 
C 5203 4045 5203 4045 5248 4083 
L 4768 4339 
C 4614 4019 4198 3514 3686 3014 
C 3475 3194 3392 3258 3149 3430 
C 3462 3738 3686 4000 4051 4493 
C 4538 4557 5146 4672 5459 4749 
C 5664 4800 5696 4813 5811 4838 
L 5523 5267 
C 5120 5030 3341 4768 2010 4742 
C 2118 4512 2118 4512 2170 4301 
C 2662 4326 2867 4346 3398 4410 
C 3213 4115 3072 3949 2790 3680 
C 2643 3782 2560 3834 2323 3974 
L 2042 3629 
C 2586 3309 2963 3040 3354 2701 
C 3130 2496 3085 2458 2854 2278 
C 2464 2272 2426 2272 2291 2272 
C 2022 2272 1888 2278 1741 2298 
L 1792 1805 
z
M 934 269 
C 934 -83 922 -269 896 -512 
L 1434 -512 
C 1414 -301 1408 -90 1408 275 
L 1408 3789 
C 1600 4211 1747 4595 1856 4928 
C 1914 5107 1920 5120 1971 5248 
L 1440 5382 
C 1414 5165 1325 4845 1197 4486 
C 934 3789 582 3194 166 2733 
C 237 2630 378 2374 422 2253 
C 659 2541 787 2733 954 3072 
C 941 2682 934 2432 934 2163 
L 934 269 
z
M 2650 1619 
C 2515 1235 2426 1056 2253 774 
C 2086 518 1965 378 1696 122 
C 1837 45 1850 32 2029 -109 
C 2042 -122 2074 -147 2106 -173 
C 2592 371 2778 678 3091 1427 
L 2650 1619 
z
M 4602 1434 
C 4979 691 5203 358 5690 -173 
C 5914 6 6048 109 6093 141 
C 5837 378 5734 493 5562 723 
C 5331 1030 5216 1222 5018 1645 
L 4602 1434 
z
" transform="scale(0.015625)"/>
      <path id="HiraginoSans-W4-6570" d="M 6170 4173 
C 6003 4141 5862 4134 5568 4134 
L 4288 4134 
C 4365 4384 4435 4627 4512 4947 
C 4557 5126 4563 5152 4595 5235 
L 4077 5344 
C 4070 5158 4032 4934 3974 4672 
C 3782 3853 3437 3130 2995 2598 
C 3142 2509 3226 2438 3354 2291 
C 3526 2515 3610 2643 3770 2931 
C 3904 2176 4070 1702 4397 1158 
C 4013 653 3526 275 2803 -77 
C 2944 -218 3021 -326 3110 -506 
C 3776 -141 4256 250 4666 755 
C 5069 230 5485 -141 6035 -467 
C 6138 -237 6202 -128 6317 13 
C 5747 314 5338 653 4954 1158 
C 5171 1523 5325 1875 5440 2304 
C 5562 2739 5613 3078 5651 3699 
C 5920 3699 6035 3693 6170 3667 
L 6170 4173 
z
M 5184 3699 
C 5133 2797 4992 2214 4672 1600 
C 4358 2170 4192 2707 4064 3539 
C 4096 3610 4102 3629 4128 3699 
L 5184 3699 
z
M 3046 339 
C 2752 512 2656 570 2419 685 
C 2643 992 2746 1190 2880 1626 
L 2963 1626 
C 3187 1626 3309 1619 3443 1594 
L 3443 2067 
C 3328 2042 3206 2035 2989 2035 
L 1862 2035 
C 1926 2176 1958 2234 2029 2426 
L 1562 2528 
C 1485 2285 1453 2202 1382 2035 
L 832 2035 
C 608 2035 493 2042 365 2067 
L 365 1594 
C 499 1619 614 1626 832 1626 
L 1165 1626 
C 1005 1344 941 1248 723 954 
C 1203 774 1402 691 1702 550 
C 1376 294 902 83 326 -58 
C 429 -205 493 -314 563 -480 
C 1325 -224 1715 -19 2112 346 
C 2432 173 2502 122 2778 -77 
L 3046 339 
z
M 2419 1626 
C 2310 1306 2214 1120 2022 870 
C 1818 960 1709 1005 1357 1146 
C 1504 1370 1549 1440 1651 1626 
L 2419 1626 
z
M 2163 4070 
L 2163 4902 
C 2163 5075 2170 5203 2189 5325 
L 1696 5325 
C 1722 5184 1728 5075 1728 4896 
L 1728 4070 
L 915 4070 
C 666 4070 531 4077 390 4102 
L 390 3642 
C 518 3667 678 3674 902 3674 
L 1434 3674 
C 1133 3258 864 3034 269 2688 
C 410 2566 486 2477 589 2317 
C 1184 2739 1408 2963 1747 3494 
C 1734 3366 1728 3258 1728 3162 
L 1728 2835 
C 1728 2752 1722 2662 1702 2586 
L 2182 2586 
C 2170 2662 2163 2758 2163 2848 
L 2163 3168 
C 2163 3258 2157 3347 2138 3494 
C 2355 3162 2490 3014 2848 2739 
C 2989 2970 3002 2982 3130 3110 
C 2816 3277 2566 3469 2406 3674 
L 2989 3674 
C 3200 3674 3309 3667 3418 3648 
L 3418 4096 
C 3322 4077 3200 4070 2995 4070 
L 2163 4070 
z
M 570 5056 
C 774 4768 896 4550 1024 4211 
L 1427 4371 
C 1286 4704 1190 4883 960 5210 
L 570 5056 
z
M 2918 5235 
C 2784 4883 2643 4634 2406 4333 
L 2790 4147 
C 3008 4442 3104 4608 3328 5050 
L 2918 5235 
z
" transform="scale(0.015625)"/>
      <path id="HiraginoSans-W4-306e" d="M 3053 422 
C 3200 243 3245 160 3328 -96 
C 3821 6 4090 90 4397 237 
C 5293 666 5798 1459 5798 2451 
C 5798 3802 4832 4698 3379 4698 
C 2509 4698 1792 4403 1274 3834 
C 832 3347 589 2707 589 2042 
C 589 1107 1062 422 1709 422 
C 2189 422 2573 806 2938 1645 
C 3238 2323 3469 3264 3578 4205 
C 3891 4186 4070 4141 4294 4032 
C 4902 3738 5242 3174 5242 2477 
C 5242 1734 4870 1107 4230 768 
C 3917 602 3610 512 3053 422 
z
M 3027 4192 
C 2944 3398 2714 2483 2458 1888 
C 2195 1286 1952 992 1702 992 
C 1370 992 1114 1453 1114 2035 
C 1114 2797 1491 3501 2112 3891 
C 2394 4077 2656 4160 3027 4192 
z
" transform="scale(0.015625)"/>
      <path id="HiraginoSans-W4-66b4" d="M 998 -320 
C 1107 -275 1107 -275 1235 -224 
C 1574 -96 1632 -70 1779 -13 
C 2093 122 2406 275 2707 429 
L 2579 710 
L 2746 858 
C 2515 1120 2374 1254 2125 1459 
C 2266 1587 2317 1638 2490 1824 
L 3955 1824 
C 4109 1651 4179 1587 4326 1453 
C 4102 1254 3942 1146 3629 966 
L 3859 710 
L 3680 499 
C 4294 77 4608 -83 5414 -365 
C 5491 -211 5568 -90 5690 38 
C 4909 262 4544 422 4051 749 
C 4256 883 4454 1024 4653 1197 
C 5056 922 5344 774 5907 570 
C 5978 723 6054 851 6163 986 
C 5440 1178 4896 1453 4493 1824 
L 5421 1824 
C 5677 1824 5888 1811 6080 1786 
L 6080 2234 
C 5901 2208 5690 2195 5421 2195 
L 4269 2195 
L 4269 2605 
L 5094 2605 
C 5350 2605 5542 2592 5734 2566 
L 5734 3008 
C 5542 2982 5363 2970 5094 2970 
L 4269 2970 
L 4269 3322 
L 4768 3322 
C 5018 3322 5216 3315 5414 3302 
C 5395 3456 5389 3571 5389 3821 
L 5389 4621 
C 5389 4864 5395 4992 5414 5146 
C 5197 5126 5011 5120 4723 5120 
L 1715 5120 
C 1421 5120 1235 5126 1018 5146 
C 1037 4992 1043 4858 1043 4621 
L 1043 3821 
C 1043 3584 1037 3462 1018 3296 
C 1222 3315 1440 3322 1702 3322 
L 2086 3322 
L 2086 2970 
L 1325 2970 
C 1069 2970 864 2982 685 3008 
L 685 2566 
C 864 2592 1075 2605 1325 2605 
L 2086 2605 
L 2086 2195 
L 998 2195 
C 736 2195 518 2208 339 2234 
L 339 1786 
C 538 1811 742 1824 998 1824 
L 1926 1824 
C 1510 1434 1011 1178 243 954 
C 371 806 435 704 506 538 
C 1101 768 1434 941 1811 1210 
C 2022 1043 2125 934 2336 678 
C 1805 410 1318 243 806 134 
L 998 -320 
z
M 2528 3322 
L 3827 3322 
L 3827 2970 
L 2528 2970 
L 2528 3322 
z
M 2528 2605 
L 3827 2605 
L 3827 2195 
L 2528 2195 
L 2528 2605 
z
M 1498 4749 
L 4934 4749 
L 4934 4397 
L 1498 4397 
L 1498 4749 
z
M 1498 4051 
L 4934 4051 
L 4934 3674 
L 1498 3674 
L 1498 4051 
z
M 2976 1677 
C 2995 1549 3002 1440 3002 1254 
L 3002 141 
C 3002 -13 2976 -45 2842 -45 
C 2630 -45 2477 -26 2157 32 
C 2221 -128 2253 -256 2266 -442 
C 2458 -461 2688 -474 2848 -474 
C 3341 -474 3469 -365 3469 70 
L 3469 1267 
C 3469 1453 3475 1568 3494 1677 
L 2976 1677 
z
" transform="scale(0.015625)"/>
      <path id="HiraginoSans-W4-8d70" d="M 2925 358 
C 2400 557 2029 909 1754 1472 
C 1792 1613 1818 1715 1856 1875 
C 1926 2189 1926 2189 1952 2291 
L 1421 2374 
C 1402 2010 1312 1594 1165 1216 
C 973 698 691 275 288 -122 
C 486 -237 570 -307 710 -474 
C 1101 -32 1363 403 1581 954 
C 1843 480 2240 122 2720 -70 
C 3155 -237 3923 -326 4998 -326 
C 5242 -326 5453 -320 5971 -301 
C 5997 -109 6022 -13 6118 230 
C 5478 179 5152 160 4659 160 
C 4147 160 3750 186 3411 237 
L 3411 1427 
L 4749 1427 
C 5018 1427 5190 1421 5363 1395 
L 5363 1914 
C 5197 1888 5075 1882 4749 1882 
L 3411 1882 
L 3411 2771 
L 5306 2771 
C 5542 2771 5760 2758 5984 2733 
L 5984 3258 
C 5798 3232 5600 3219 5306 3219 
L 3405 3219 
L 3405 4032 
L 4851 4032 
C 5120 4032 5293 4026 5466 4000 
L 5466 4506 
C 5293 4480 5146 4474 4851 4474 
L 3405 4474 
L 3405 4742 
C 3405 4992 3418 5139 3450 5299 
L 2874 5299 
C 2899 5152 2912 5011 2912 4742 
L 2912 4474 
L 1510 4474 
C 1222 4474 1069 4480 896 4506 
L 896 4000 
C 1062 4026 1242 4032 1510 4032 
L 2912 4032 
L 2912 3219 
L 1075 3219 
C 794 3219 595 3232 410 3258 
L 410 2733 
C 621 2758 845 2771 1075 2771 
L 2925 2771 
L 2925 358 
z
" transform="scale(0.015625)"/>
      <path id="HiraginoSans-W4-3092" d="M 2189 4365 
C 1491 4365 1088 4390 813 4442 
L 800 3917 
C 864 3930 902 3930 934 3930 
C 966 3930 998 3930 1062 3923 
C 1197 3917 1830 3904 1958 3904 
C 1984 3904 2054 3910 2074 3910 
C 2035 3840 2035 3840 2016 3808 
C 1581 3046 1037 2362 614 2042 
L 1037 1619 
C 1152 1798 1293 1952 1549 2163 
C 2054 2598 2547 2835 2938 2835 
C 3226 2835 3373 2694 3411 2381 
C 2982 2189 2707 2042 2470 1869 
C 2016 1542 1792 1197 1792 832 
C 1792 499 1952 218 2227 64 
C 2534 -109 2944 -186 3539 -186 
C 4058 -186 4646 -141 5133 -64 
C 5267 -38 5293 -38 5395 -32 
L 5338 557 
C 4954 403 4250 301 3597 301 
C 2694 301 2330 467 2330 870 
C 2330 1088 2445 1267 2707 1472 
C 2874 1600 3085 1715 3475 1894 
C 3475 1818 3475 1798 3475 1696 
C 3475 1350 3456 973 3437 845 
L 3962 851 
C 3949 954 3949 1005 3949 1114 
C 3949 1165 3949 1254 3949 1376 
C 3955 1504 3955 1638 3955 1709 
C 3955 1850 3955 1869 3949 2080 
C 4800 2406 5299 2566 5645 2624 
L 5414 3149 
C 5312 3085 5293 3078 4966 2963 
C 4653 2854 4390 2758 3891 2566 
C 3802 3027 3507 3264 3027 3264 
C 2726 3264 2413 3174 2144 3002 
C 2080 2963 2042 2938 1926 2842 
C 1907 2829 1875 2810 1837 2778 
C 1837 2778 1830 2784 1824 2797 
C 1830 2803 1830 2803 1837 2810 
C 1837 2816 1862 2835 1901 2861 
C 1920 2874 2054 3021 2106 3098 
C 2310 3354 2438 3565 2624 3910 
C 3251 3930 4070 3987 4512 4045 
C 4883 4096 4883 4096 5005 4109 
L 4966 4621 
C 4627 4518 4032 4442 3238 4397 
C 2880 4378 2880 4378 2835 4371 
C 2874 4435 2944 4595 3027 4800 
C 3130 5050 3130 5050 3181 5126 
L 2579 5216 
C 2560 5011 2490 4813 2291 4365 
L 2189 4365 
z
" transform="scale(0.015625)"/>
      <path id="HiraginoSans-W4-6291" d="M 1062 3622 
L 1062 2278 
C 646 2131 448 2074 256 2054 
L 352 1536 
C 422 1568 576 1632 710 1677 
C 826 1715 909 1741 1062 1798 
L 1062 160 
C 1062 51 1024 19 896 19 
C 723 19 531 38 326 77 
C 390 -102 416 -224 429 -403 
C 634 -422 774 -429 922 -429 
C 1402 -429 1536 -320 1536 64 
L 1536 1984 
C 1747 2080 1837 2118 2106 2246 
L 2106 2714 
C 1830 2579 1734 2541 1536 2458 
L 1536 3622 
L 1722 3622 
C 1869 3622 1971 3616 2086 3597 
L 2086 4090 
C 1965 4077 1882 4070 1722 4070 
L 1536 4070 
L 1536 4646 
C 1536 4947 1542 5133 1568 5299 
L 1024 5299 
C 1050 5114 1062 4954 1062 4640 
L 1062 4070 
L 787 4070 
C 589 4070 474 4077 333 4102 
L 333 3590 
C 512 3616 640 3622 781 3622 
L 1062 3622 
z
M 2362 1050 
C 2144 992 1971 947 1798 922 
L 1926 403 
C 1978 435 2003 442 2170 499 
C 2195 512 2240 525 2304 550 
C 2784 710 2784 710 2880 749 
C 3194 858 3418 947 3738 1082 
L 3731 1562 
C 3360 1395 3149 1312 2835 1203 
L 2835 4346 
C 3200 4467 3443 4563 3795 4736 
C 3821 4749 3866 4774 3930 4800 
C 3936 4678 3942 4589 3942 4339 
L 3942 218 
C 3942 -109 3930 -294 3904 -512 
L 4448 -512 
C 4422 -314 4416 -109 4416 224 
L 4416 4422 
L 5421 4422 
L 5421 1158 
C 5421 998 5382 973 5152 973 
C 4979 973 4794 986 4576 1024 
C 4653 858 4685 717 4704 518 
C 4992 499 5037 499 5139 499 
C 5747 499 5894 608 5894 1062 
L 5894 4314 
C 5894 4563 5901 4710 5920 4883 
C 5766 4864 5638 4858 5350 4858 
L 4480 4858 
C 4262 4858 4134 4864 3994 4877 
L 3667 5254 
C 3354 5005 2835 4794 2330 4691 
C 2355 4557 2362 4442 2362 4134 
L 2362 1050 
z
" transform="scale(0.015625)"/>
      <path id="HiraginoSans-W4-3048" d="M 1798 4640 
C 2630 4397 3117 4314 4262 4224 
L 4358 4730 
C 3469 4755 2682 4883 1978 5114 
L 1798 4640 
z
M 1261 2957 
C 1434 2982 1498 2989 1696 3002 
C 3181 3117 3251 3123 3712 3213 
C 3142 2669 2822 2362 2746 2285 
C 2310 1856 1875 1440 1280 883 
C 922 550 826 474 595 314 
L 1018 -160 
C 1248 102 1645 512 1965 813 
C 2490 1306 2797 1485 3123 1485 
C 3251 1485 3360 1427 3405 1338 
C 3443 1261 3456 1178 3475 902 
C 3507 474 3533 352 3616 205 
C 3757 -51 4045 -166 4544 -166 
C 4826 -166 5056 -147 5427 -83 
C 5875 -13 5875 -13 5958 -6 
L 5882 570 
C 5542 422 5050 333 4589 333 
C 4326 333 4186 378 4102 486 
C 4032 582 4006 704 3981 1056 
C 3949 1421 3917 1549 3802 1677 
C 3686 1805 3526 1875 3341 1875 
C 3181 1875 3053 1837 2765 1709 
C 3046 1920 3501 2330 3987 2810 
C 4326 3142 4422 3232 4550 3328 
L 4224 3731 
C 4134 3699 4058 3680 3904 3654 
C 3328 3578 2182 3501 1613 3501 
C 1478 3501 1389 3507 1222 3514 
L 1261 2957 
z
" transform="scale(0.015625)"/>
      <path id="HiraginoSans-W4-3001" d="M 275 966 
C 781 557 1139 173 1574 -448 
L 2010 -32 
C 1555 563 1222 902 678 1338 
L 275 966 
z
" transform="scale(0.015625)"/>
      <path id="HiraginoSans-W4-66f2" d="M 2630 4128 
L 2630 4646 
C 2630 4902 2643 5082 2669 5293 
L 2118 5293 
C 2150 5062 2163 4890 2163 4646 
L 2163 4128 
L 1197 4128 
C 954 4128 787 4134 582 4160 
C 602 3994 608 3814 608 3610 
L 608 141 
C 608 -70 595 -269 570 -467 
L 1094 -467 
L 1094 -141 
L 5312 -141 
L 5312 -467 
L 5837 -467 
C 5811 -275 5798 -90 5798 141 
L 5798 3610 
C 5798 3840 5805 3981 5824 4160 
C 5613 4134 5453 4128 5210 4128 
L 4154 4128 
L 4154 4646 
C 4154 4890 4166 5094 4198 5293 
L 3648 5293 
C 3674 5082 3686 4896 3686 4646 
L 3686 4128 
L 2630 4128 
z
M 2630 307 
L 2630 1856 
L 3686 1856 
L 3686 307 
L 2630 307 
z
M 2630 2298 
L 2630 3674 
L 3686 3674 
L 3686 2298 
L 2630 2298 
z
M 2163 3674 
L 2163 2298 
L 1094 2298 
L 1094 3674 
L 2163 3674 
z
M 2163 1856 
L 2163 307 
L 1094 307 
L 1094 1856 
L 2163 1856 
z
M 4154 307 
L 4154 1856 
L 5312 1856 
L 5312 307 
L 4154 307 
z
M 4154 2298 
L 4154 3674 
L 5312 3674 
L 5312 2298 
L 4154 2298 
z
" transform="scale(0.015625)"/>
      <path id="HiraginoSans-W4-7dda" d="M 397 2125 
C 506 2144 570 2157 678 2163 
C 1222 2195 1222 2195 1370 2208 
L 1370 160 
C 1370 -102 1357 -288 1331 -493 
L 1850 -493 
C 1818 -307 1811 -134 1811 154 
L 1811 2246 
C 2003 2266 2074 2272 2170 2285 
C 2291 2304 2291 2304 2362 2310 
C 2381 2227 2400 2163 2432 2022 
L 2797 2195 
C 2650 2701 2579 2886 2362 3360 
L 2016 3213 
C 2131 2976 2170 2886 2240 2688 
C 1939 2650 1728 2630 1338 2605 
C 1709 3098 1920 3392 2125 3712 
C 2400 4147 2400 4147 2573 4403 
L 2138 4627 
C 2054 4390 1850 4026 1510 3507 
C 1370 3680 1312 3744 1165 3917 
C 1421 4288 1594 4589 1779 4954 
C 1850 5094 1882 5152 1926 5216 
L 1466 5395 
C 1408 5126 1216 4730 883 4211 
C 768 4326 742 4352 595 4499 
L 333 4128 
C 698 3808 934 3558 1267 3155 
C 1088 2899 1088 2899 845 2586 
C 691 2579 691 2579 582 2579 
C 480 2579 422 2586 333 2598 
L 397 2125 
z
M 3475 4826 
C 3181 4826 3027 4832 2867 4851 
C 2880 4685 2893 4486 2893 4243 
L 2893 3181 
C 2893 2938 2880 2739 2867 2579 
C 3040 2598 3226 2605 3482 2605 
L 4070 2605 
L 4070 186 
C 4070 77 4026 51 3859 51 
C 3693 51 3501 70 3264 102 
C 3334 -51 3366 -154 3398 -371 
C 3501 -384 3744 -390 3866 -390 
C 4358 -390 4525 -269 4525 96 
L 4525 832 
C 4518 1094 4506 1427 4461 1907 
C 4678 1280 4851 954 5190 512 
C 5427 211 5613 26 5952 -243 
C 6054 -32 6138 77 6266 198 
C 5805 506 5491 819 5158 1286 
C 5466 1549 5696 1766 6035 2131 
L 5702 2438 
C 5427 2093 5235 1888 4941 1632 
C 4723 2016 4640 2221 4544 2605 
L 5158 2605 
C 5414 2605 5581 2598 5760 2579 
C 5741 2752 5734 2899 5734 3174 
L 5734 4237 
C 5734 4525 5741 4672 5760 4851 
C 5600 4832 5446 4826 5152 4826 
L 4365 4826 
C 4448 4992 4506 5126 4582 5318 
L 4064 5408 
C 4032 5235 3987 5094 3872 4826 
L 3475 4826 
z
M 3334 4435 
L 5286 4435 
L 5286 3917 
L 3334 3917 
L 3334 4435 
z
M 3334 3526 
L 5286 3526 
L 5286 2989 
L 3334 2989 
L 3334 3526 
z
M 666 1818 
C 602 966 531 576 346 64 
L 742 -141 
C 928 422 947 538 1075 1754 
L 666 1818 
z
M 2029 1741 
C 2138 1325 2208 941 2253 480 
L 2630 602 
C 2566 1050 2502 1370 2374 1843 
L 2029 1741 
z
M 3750 2067 
C 3674 2054 3590 2048 3430 2048 
L 3072 2048 
C 2861 2048 2771 2054 2643 2080 
L 2643 1613 
C 2778 1632 2874 1638 3059 1638 
L 3437 1638 
C 3174 998 2829 563 2240 147 
C 2394 26 2483 -77 2560 -211 
C 2848 32 3027 211 3213 442 
C 3430 710 3654 1101 3782 1414 
C 3878 1677 3878 1677 3955 1837 
L 3750 2067 
z
" transform="scale(0.015625)"/>
      <path id="HiraginoSans-W4-306a" d="M 2074 5229 
C 2054 4941 1971 4454 1862 4051 
C 1760 4045 1594 4045 1421 4045 
C 1062 4045 870 4058 646 4096 
L 646 3571 
C 678 3571 704 3571 717 3571 
C 755 3571 806 3571 870 3571 
C 1062 3565 1114 3565 1267 3565 
C 1536 3565 1562 3565 1728 3571 
C 1434 2586 922 1530 467 954 
L 986 653 
C 1018 710 1056 781 1114 877 
C 1357 1306 1414 1414 1568 1722 
C 1850 2310 2080 2925 2272 3590 
C 2707 3622 3072 3674 3315 3718 
C 3462 3744 3462 3744 3533 3750 
L 3514 4282 
C 3238 4192 2835 4122 2406 4083 
C 2483 4384 2522 4525 2566 4742 
C 2624 5018 2624 5037 2662 5152 
L 2074 5229 
z
M 5933 3488 
C 5408 3827 4954 4051 4211 4339 
L 3936 3904 
C 4627 3654 5133 3398 5670 3027 
L 5933 3488 
z
M 5939 640 
C 5901 672 5901 672 5843 717 
C 5786 774 5760 794 5664 870 
C 5280 1171 5050 1299 4576 1510 
C 4538 1792 4506 2182 4506 2451 
C 4506 2694 4525 2822 4595 3066 
L 4070 3110 
C 4026 2893 4006 2726 4006 2515 
C 4006 2304 4026 1958 4051 1645 
C 3782 1709 3622 1728 3405 1728 
C 2618 1728 2067 1312 2067 717 
C 2067 333 2304 6 2682 -122 
C 2886 -198 3142 -237 3379 -237 
C 3827 -237 4198 -96 4390 147 
C 4518 307 4602 563 4602 806 
C 4602 858 4602 890 4589 973 
C 5037 730 5434 422 5670 128 
L 5939 640 
z
M 4077 1152 
C 4083 1152 4096 966 4096 896 
C 4096 454 3853 243 3347 243 
C 2867 243 2579 429 2579 736 
C 2579 1062 2899 1274 3405 1274 
C 3648 1274 3821 1242 4077 1152 
z
" transform="scale(0.015625)"/>
      <path id="HiraginoSans-W4-3081" d="M 3808 5082 
C 3795 4890 3738 4570 3616 4064 
C 3533 4064 3475 4064 3437 4064 
C 2950 4064 2522 3968 2080 3770 
C 1997 4141 1920 4640 1914 4858 
L 1357 4749 
C 1395 4640 1402 4627 1440 4403 
C 1498 4083 1581 3674 1626 3507 
C 1331 3290 1152 3110 986 2854 
C 742 2483 608 2042 608 1613 
C 608 832 998 307 1574 307 
C 1965 307 2362 563 2784 1075 
C 3258 1658 3725 2611 4000 3546 
C 4819 3366 5261 2874 5261 2138 
C 5261 1414 4851 877 4058 557 
C 3725 422 3456 352 3078 320 
C 3258 109 3302 26 3373 -198 
C 3853 -96 4058 -32 4352 90 
C 5286 486 5805 1203 5805 2106 
C 5805 3085 5190 3776 4128 4000 
C 4154 4102 4160 4134 4211 4326 
C 4339 4870 4339 4870 4384 4966 
L 3808 5082 
z
M 1760 2989 
C 1888 2426 2074 1901 2336 1338 
C 2067 1005 1818 832 1600 832 
C 1306 832 1107 1146 1107 1606 
C 1107 2131 1318 2586 1760 2989 
z
M 2682 1760 
C 2669 1805 2662 1824 2643 1875 
C 2413 2451 2323 2720 2182 3283 
C 2547 3494 2938 3597 3366 3597 
C 3392 3597 3437 3597 3488 3597 
C 3264 2880 3053 2400 2746 1882 
C 2726 1850 2720 1843 2701 1805 
C 2701 1798 2694 1786 2688 1773 
L 2682 1760 
z
" transform="scale(0.015625)"/>
      <path id="HiraginoSans-W4-3089" d="M 1978 4627 
C 2541 4365 2541 4365 2989 4211 
C 3379 4083 3635 4006 4282 3846 
L 4486 4371 
C 3795 4480 2707 4826 2253 5082 
L 1978 4627 
z
M 1453 3968 
C 1446 3846 1440 3789 1408 3616 
C 1293 2893 1203 2310 1139 1824 
C 1114 1606 1107 1562 1088 1446 
L 1677 1427 
C 1773 1555 1830 1613 1939 1696 
C 2406 2029 3040 2227 3674 2227 
C 4422 2227 4870 1933 4870 1440 
C 4870 819 4205 403 3213 403 
C 2662 403 2067 518 1542 723 
C 1587 506 1600 416 1600 275 
L 1600 205 
C 1600 173 1600 147 1600 122 
C 2355 -70 2662 -115 3226 -115 
C 3910 -115 4429 19 4838 307 
C 5216 570 5446 1005 5446 1446 
C 5446 2208 4768 2714 3750 2714 
C 3040 2714 2342 2522 1907 2202 
C 1811 2131 1773 2099 1683 2003 
L 1677 2010 
C 1690 2067 1696 2080 1709 2157 
C 1824 2995 1946 3642 2029 3930 
L 1453 3968 
z
" transform="scale(0.015625)"/>
      <path id="HiraginoSans-W4-304b" d="M 582 3027 
C 864 3104 1133 3155 1824 3251 
C 1619 2438 1440 1920 1146 1286 
C 928 806 672 358 480 115 
L 1005 -186 
C 1197 173 1331 442 1421 621 
C 1843 1485 2118 2266 2362 3296 
C 2547 3315 2662 3322 2797 3322 
C 3366 3322 3546 3117 3546 2464 
C 3546 1754 3450 1101 3290 717 
C 3206 525 3085 429 2931 429 
C 2707 429 2342 544 1990 717 
C 2016 563 2022 480 2022 358 
C 2022 282 2022 250 2010 141 
C 2426 -26 2707 -96 2976 -96 
C 3283 -96 3469 -13 3629 198 
C 3904 563 4077 1421 4077 2438 
C 4077 2982 3994 3277 3770 3501 
C 3571 3699 3283 3789 2848 3789 
C 2707 3789 2611 3782 2458 3770 
C 2490 3923 2560 4326 2592 4499 
C 2650 4858 2669 4966 2707 5094 
L 2106 5158 
C 2106 5120 2106 5088 2106 5075 
C 2106 4813 2029 4256 1926 3731 
C 1389 3648 749 3578 518 3571 
L 582 3027 
z
M 4346 3942 
C 4954 3309 5395 2496 5632 1574 
L 6138 1843 
C 5850 2765 5446 3462 4806 4173 
L 4346 3942 
z
" transform="scale(0.015625)"/>
      <path id="HiraginoSans-W4-306b" d="M 1382 838 
C 1382 947 1376 973 1376 1114 
C 1370 1286 1363 1594 1363 1722 
C 1363 2451 1414 3117 1510 3680 
C 1600 4179 1715 4653 1830 4954 
L 1222 5037 
C 1210 4877 1197 4813 1133 4493 
C 928 3546 851 2854 851 1958 
C 851 1312 896 838 1018 134 
C 1037 6 1043 -32 1056 -134 
L 1613 -96 
C 1606 -45 1606 0 1606 26 
C 1606 416 1824 1152 2144 1830 
L 1760 2010 
C 1555 1504 1453 1197 1389 838 
L 1382 838 
z
M 2592 3763 
C 2643 3757 2656 3757 2694 3750 
C 2790 3738 2790 3738 2810 3738 
C 3136 3706 3341 3693 3667 3693 
C 4141 3693 4640 3725 5030 3776 
C 5306 3814 5453 3834 5472 3834 
L 5440 4378 
C 5050 4269 4435 4205 3686 4205 
C 3194 4205 2899 4230 2605 4301 
L 2592 3763 
z
M 3053 2566 
C 2656 2106 2483 1734 2483 1357 
C 2483 1126 2554 902 2675 742 
C 2944 397 3424 237 4179 237 
C 4608 237 5037 275 5498 358 
C 5632 384 5645 384 5728 397 
L 5670 979 
C 5306 838 4755 755 4179 755 
C 3405 755 3008 973 3008 1408 
C 3008 1690 3155 1984 3488 2349 
L 3053 2566 
z
" transform="scale(0.015625)"/>
      <path id="HiraginoSans-W4-3059" d="M 3507 4326 
C 2790 4307 2509 4301 1965 4282 
C 998 4243 960 4243 787 4243 
C 691 4243 640 4243 512 4250 
L 531 3699 
C 928 3763 2419 3846 3514 3866 
C 3514 3514 3520 3181 3526 3123 
L 3526 3078 
C 3366 3245 3117 3334 2816 3334 
C 2131 3334 1632 2874 1632 2246 
C 1632 1645 2093 1203 2720 1203 
C 3053 1203 3334 1318 3526 1536 
C 3597 1613 3635 1683 3699 1818 
C 3680 1562 3629 1376 3514 1171 
C 3238 672 2746 358 1920 134 
C 2074 -32 2118 -102 2246 -358 
C 2765 -166 3034 -32 3302 160 
C 3885 589 4179 1158 4179 1850 
C 4179 2157 4134 2368 4019 2643 
C 4019 3494 4019 3494 4019 3872 
C 4531 3878 4640 3878 4730 3878 
C 5434 3878 5664 3872 5907 3846 
L 5907 4384 
C 5696 4358 5210 4346 4013 4339 
C 4013 4883 4019 4979 4045 5178 
L 3469 5178 
C 3488 5043 3494 4979 3501 4806 
L 3507 4326 
z
M 2861 2906 
C 3059 2906 3238 2842 3366 2720 
C 3456 2630 3494 2534 3494 2381 
C 3494 1965 3200 1677 2784 1677 
C 2413 1677 2157 1926 2157 2285 
C 2157 2637 2458 2906 2861 2906 
z
" transform="scale(0.015625)"/>
      <path id="HiraginoSans-W4-308b" d="M 1485 4262 
C 1626 4282 1690 4288 1824 4294 
C 2758 4333 3482 4371 3718 4410 
C 3738 4410 3750 4410 3770 4416 
L 3776 4403 
C 3725 4352 3725 4352 3706 4333 
C 3686 4314 3680 4307 3654 4282 
C 2694 3334 1242 2131 678 1818 
L 1005 1331 
C 1760 2022 2746 2419 3693 2419 
C 4531 2419 5037 2067 5037 1478 
C 5037 1146 4883 858 4602 659 
C 4454 550 4314 486 4077 416 
C 3987 704 3917 851 3789 1024 
C 3533 1363 3149 1549 2720 1549 
C 2157 1549 1741 1210 1741 755 
C 1741 563 1818 352 1933 218 
C 2170 -58 2605 -198 3232 -198 
C 4646 -198 5587 480 5587 1491 
C 5587 2323 4896 2861 3821 2861 
C 3283 2861 2835 2752 2317 2490 
L 2304 2515 
C 2739 2784 3507 3430 4371 4262 
C 4563 4454 4602 4480 4698 4531 
L 4390 4947 
C 4301 4896 4243 4883 4058 4870 
C 3488 4826 2643 4787 2106 4787 
C 1779 4787 1645 4794 1459 4826 
L 1485 4262 
z
M 3578 288 
C 3373 256 3302 250 3155 250 
C 2598 250 2246 442 2246 742 
C 2246 966 2432 1107 2720 1107 
C 3155 1107 3443 826 3578 288 
z
" transform="scale(0.015625)"/>
     </defs>
     <use xlink:href="#HiraginoSans-W4-a7"/>
     <use xlink:href="#HiraginoSans-W4-31" x="65.899994"/>
     <use xlink:href="#HiraginoSans-W4-2e" x="133.199982"/>
     <use xlink:href="#HiraginoSans-W4-34" x="158.199966"/>
     <use xlink:href="#HiraginoSans-W4-20" x="225.699951"/>
     <use xlink:href="#HiraginoSans-W4-2f" x="258.999939"/>
     <use xlink:href="#HiraginoSans-W4-20" x="307.699936"/>
     <use xlink:href="#HiraginoSans-W4-a7" x="340.999924"/>
     <use xlink:href="#HiraginoSans-W4-35" x="406.899918"/>
     <use xlink:href="#HiraginoSans-W4-2e" x="474.199905"/>
     <use xlink:href="#HiraginoSans-W4-32" x="499.19989"/>
     <use xlink:href="#HiraginoSans-W4-20" x="566.499878"/>
     <use xlink:href="#HiraginoSans-W4-6b63" x="599.799866"/>
     <use xlink:href="#HiraginoSans-W4-5247" x="699.79985"/>
     <use xlink:href="#HiraginoSans-W4-5316" x="799.799835"/>
     <use xlink:href="#HiraginoSans-W4-ff08" x="899.79982"/>
     <use xlink:href="#HiraginoSans-W4-7f70" x="999.799805"/>
     <use xlink:href="#HiraginoSans-W4-91d1" x="1099.799789"/>
     <use xlink:href="#HiraginoSans-W4-ff09" x="1199.799774"/>
     <use xlink:href="#HiraginoSans-W4-304c" x="1299.799759"/>
     <use xlink:href="#HiraginoSans-W4-4fc2" x="1399.799744"/>
     <use xlink:href="#HiraginoSans-W4-6570" x="1499.799728"/>
     <use xlink:href="#HiraginoSans-W4-306e" x="1599.799713"/>
     <use xlink:href="#HiraginoSans-W4-66b4" x="1699.799698"/>
     <use xlink:href="#HiraginoSans-W4-8d70" x="1799.799683"/>
     <use xlink:href="#HiraginoSans-W4-3092" x="1899.799667"/>
     <use xlink:href="#HiraginoSans-W4-6291" x="1999.799652"/>
     <use xlink:href="#HiraginoSans-W4-3048" x="2099.799637"/>
     <use xlink:href="#HiraginoSans-W4-3001" x="2199.799622"/>
     <use xlink:href="#HiraginoSans-W4-66f2" x="2299.799606"/>
     <use xlink:href="#HiraginoSans-W4-7dda" x="2399.799591"/>
     <use xlink:href="#HiraginoSans-W4-3092" x="2499.799576"/>
     <use xlink:href="#HiraginoSans-W4-306a" x="2599.799561"/>
     <use xlink:href="#HiraginoSans-W4-3081" x="2699.799545"/>
     <use xlink:href="#HiraginoSans-W4-3089" x="2799.79953"/>
     <use xlink:href="#HiraginoSans-W4-304b" x="2899.799515"/>
     <use xlink:href="#HiraginoSans-W4-306b" x="2999.7995"/>
     <use xlink:href="#HiraginoSans-W4-3059" x="3099.799484"/>
     <use xlink:href="#HiraginoSans-W4-308b" x="3199.799469"/>
    </g>
   </g>
   <g id="legend_1">
    <g id="patch_5">
     <path d="M 410.984375 85.230281 
L 589.427656 85.230281 
Q 591.227656 85.230281 591.227656 83.430281 
L 591.227656 30.944813 
Q 591.227656 29.144813 589.427656 29.144813 
L 410.984375 29.144813 
Q 409.184375 29.144813 409.184375 30.944813 
L 409.184375 83.430281 
Q 409.184375 85.230281 410.984375 85.230281 
z
" style="fill: #ffffff; opacity: 0.8; stroke: #cccccc; stroke-linejoin: miter"/>
    </g>
    <g id="line2d_30">
     <path d="M 412.784375 36.784969 
L 421.784375 36.784969 
L 430.784375 36.784969 
" style="fill: none; stroke-dasharray: 5.18,2.24; stroke-dashoffset: 0; stroke: #2ca02c; stroke-width: 1.4"/>
    </g>
    <g id="text_17">
     <!-- 真の関数 sin(2πx) -->
     <g transform="translate(437.984375 39.934969) scale(0.09 -0.09)">
      <defs>
       <path id="HiraginoSans-W4-771f" d="M 1158 4845 
C 845 4845 666 4858 454 4883 
L 454 4390 
C 653 4416 851 4429 1158 4429 
L 2938 4429 
L 2938 4026 
L 1946 4026 
C 1594 4026 1402 4032 1197 4051 
C 1216 3840 1222 3648 1222 3347 
L 1222 2131 
C 1222 1843 1216 1638 1197 1434 
C 1408 1453 1626 1459 1939 1459 
L 4480 1459 
C 4806 1459 5005 1453 5222 1434 
C 5203 1632 5197 1798 5197 2131 
L 5197 3347 
C 5197 3680 5203 3853 5222 4051 
C 5024 4032 4826 4026 4480 4026 
L 3405 4026 
L 3405 4429 
L 5235 4429 
C 5536 4429 5728 4416 5952 4390 
L 5952 4883 
C 5734 4858 5542 4845 5235 4845 
L 3405 4845 
C 3411 5107 3418 5190 3443 5363 
L 2899 5363 
C 2925 5203 2938 5088 2938 4845 
L 1158 4845 
z
M 1683 3648 
L 4736 3648 
L 4736 3290 
L 1683 3290 
L 1683 3648 
z
M 1683 2938 
L 4736 2938 
L 4736 2573 
L 1683 2573 
L 1683 2938 
z
M 1683 2221 
L 4736 2221 
L 4736 1837 
L 1683 1837 
L 1683 2221 
z
M 6061 1152 
C 5862 1126 5664 1114 5370 1114 
L 1030 1114 
C 742 1114 563 1126 365 1152 
L 365 646 
C 563 672 762 685 1030 685 
L 5402 685 
C 5658 685 5850 672 6061 646 
L 6061 1152 
z
M 2266 646 
C 1786 288 1261 83 416 -83 
C 557 -224 640 -339 723 -506 
C 1530 -301 2048 -70 2618 326 
L 2266 646 
z
M 3782 333 
C 4410 -77 4922 -301 5722 -506 
C 5811 -339 5888 -237 6042 -70 
C 5664 0 5453 51 5152 154 
C 4723 294 4512 403 4134 646 
L 3782 333 
z
" transform="scale(0.015625)"/>
       <path id="HiraginoSans-W4-95a2" d="M 4365 1216 
C 4614 1216 4774 1210 4922 1184 
L 4922 1619 
C 4762 1594 4634 1587 4365 1587 
L 3322 1587 
C 3347 1766 3354 1862 3366 2112 
L 4275 2112 
C 4499 2112 4666 2106 4794 2086 
L 4794 2509 
C 4640 2483 4512 2477 4269 2477 
L 3949 2477 
C 4083 2669 4166 2803 4282 3014 
L 3853 3130 
C 3725 2848 3654 2714 3494 2477 
L 2874 2477 
C 2758 2694 2637 2874 2458 3123 
L 2054 2982 
C 2234 2771 2317 2650 2419 2477 
L 2125 2477 
C 1875 2477 1760 2483 1606 2509 
L 1606 2086 
C 1747 2106 1894 2112 2131 2112 
L 2925 2112 
C 2918 1862 2912 1773 2893 1587 
L 2022 1587 
C 1754 1587 1613 1594 1466 1619 
L 1466 1184 
C 1638 1210 1792 1216 2042 1216 
L 2803 1216 
C 2682 909 2541 723 2272 544 
C 2042 384 1811 294 1357 166 
C 1472 45 1542 -64 1632 -230 
C 2125 -58 2387 77 2650 294 
C 2886 486 3034 691 3155 973 
C 3494 499 3910 186 4499 -32 
C 4570 147 4614 230 4723 390 
C 4115 563 3750 800 3430 1216 
L 4365 1216 
z
M 1056 3245 
L 2253 3245 
C 2515 3245 2714 3238 2886 3226 
C 2874 3379 2867 3539 2867 3814 
L 2867 4576 
C 2867 4826 2874 5011 2886 5178 
C 2707 5158 2554 5152 2234 5152 
L 1222 5152 
C 902 5152 736 5158 557 5178 
C 576 4973 582 4794 582 4474 
L 582 269 
C 582 -90 570 -288 544 -467 
L 1094 -467 
C 1069 -307 1056 -96 1056 262 
L 1056 3245 
z
M 1056 4800 
L 2426 4800 
L 2426 4384 
L 1056 4384 
L 1056 4800 
z
M 1056 4038 
L 2426 4038 
L 2426 3603 
L 1056 3603 
L 1056 4038 
z
M 5830 4474 
C 5830 4762 5837 4928 5862 5178 
C 5677 5158 5517 5152 5190 5152 
L 4064 5152 
C 3744 5152 3590 5158 3411 5178 
C 3424 4973 3430 4806 3430 4576 
L 3430 3814 
C 3430 3565 3424 3405 3411 3226 
C 3590 3238 3770 3245 4045 3245 
L 5357 3245 
L 5357 205 
C 5357 64 5312 26 5126 26 
C 4928 26 4838 32 4550 77 
C 4621 -83 4640 -173 4659 -397 
C 4806 -403 4928 -410 5011 -410 
C 5357 -410 5510 -397 5606 -352 
C 5779 -275 5830 -147 5830 166 
L 5830 4474 
z
M 3872 4800 
L 5357 4800 
L 5357 4384 
L 3872 4384 
L 3872 4800 
z
M 3872 4038 
L 5357 4038 
L 5357 3603 
L 3872 3603 
L 3872 4038 
z
" transform="scale(0.015625)"/>
       <path id="HiraginoSans-W4-73" d="M 262 973 
C 326 704 378 589 480 448 
C 730 109 1184 -70 1786 -70 
C 2707 -70 3270 339 3270 1011 
C 3270 1293 3136 1555 2912 1722 
C 2720 1862 2483 1946 1894 2074 
C 1510 2157 1357 2208 1210 2285 
C 1075 2355 998 2483 998 2624 
C 998 2944 1312 3162 1760 3162 
C 2042 3162 2259 3078 2400 2925 
C 2483 2835 2515 2758 2554 2598 
L 3155 2688 
C 3066 2982 2982 3136 2810 3283 
C 2573 3494 2208 3610 1754 3610 
C 1299 3610 941 3494 698 3258 
C 518 3091 416 2861 416 2618 
C 416 2310 557 2054 819 1888 
C 1043 1747 1261 1677 1760 1574 
C 2246 1466 2349 1440 2490 1350 
C 2618 1274 2682 1139 2682 973 
C 2682 621 2342 397 1818 397 
C 1504 397 1267 474 1107 614 
C 986 730 934 832 890 1069 
L 262 973 
z
" transform="scale(0.015625)"/>
       <path id="HiraginoSans-W4-69" d="M 442 4934 
L 442 4294 
L 1152 4294 
L 1152 4934 
L 442 4934 
z
M 454 3520 
C 486 3296 499 3085 499 2765 
L 499 755 
C 499 461 486 282 454 0 
L 1133 0 
C 1101 269 1088 448 1088 755 
L 1088 2758 
C 1088 3104 1101 3290 1133 3520 
L 454 3520 
z
" transform="scale(0.015625)"/>
       <path id="HiraginoSans-W4-6e" d="M 1114 0 
C 1082 256 1069 474 1069 755 
L 1069 2010 
C 1139 2272 1222 2426 1395 2630 
C 1658 2944 1933 3085 2266 3085 
C 2752 3085 3002 2797 3002 2234 
L 3002 755 
C 3002 454 2989 269 2957 0 
L 3629 0 
C 3597 218 3584 416 3584 749 
L 3584 2323 
C 3584 2662 3520 2912 3392 3110 
C 3181 3418 2816 3584 2349 3584 
C 1779 3584 1376 3360 1056 2867 
C 1069 3027 1069 3059 1069 3142 
L 1069 3520 
L 442 3520 
C 480 3264 493 3078 493 2765 
L 493 755 
C 493 429 480 256 442 0 
L 1114 0 
z
" transform="scale(0.015625)"/>
       <path id="HiraginoSans-W4-28" d="M 2195 -749 
C 1830 -198 1683 90 1542 538 
C 1402 986 1331 1472 1331 1978 
C 1331 2483 1402 2963 1542 3411 
C 1683 3859 1830 4147 2195 4698 
L 1715 5018 
C 1350 4461 1197 4173 1037 3712 
C 838 3155 742 2579 742 1978 
C 742 1376 838 794 1037 243 
C 1197 -218 1350 -512 1715 -1062 
L 2195 -749 
z
" transform="scale(0.015625)"/>
       <path id="HiraginoSans-W4-3c0" d="M 4666 717 
C 4435 506 4256 416 4064 416 
C 3910 416 3834 486 3834 627 
C 3834 704 3846 794 3866 877 
L 4442 2982 
L 4589 2982 
C 4858 2982 5024 2970 5222 2938 
L 5376 3526 
C 5152 3494 4986 3482 4608 3482 
L 2317 3482 
C 2067 3482 1830 3430 1651 3341 
C 1421 3232 1293 3110 1126 2848 
L 1459 2445 
C 1555 2643 1619 2733 1754 2822 
C 1894 2931 2029 2963 2362 2982 
L 1600 691 
C 1478 326 1402 147 1299 -32 
L 1984 -32 
C 2029 211 2074 371 2182 698 
L 2938 2982 
L 3866 2982 
L 3290 832 
C 3258 710 3245 595 3245 480 
C 3245 96 3482 -122 3898 -122 
C 4256 -122 4531 -19 4851 230 
L 4666 717 
z
" transform="scale(0.015625)"/>
       <path id="HiraginoSans-W4-29" d="M 653 -1062 
C 1018 -512 1171 -218 1331 243 
C 1530 794 1626 1370 1626 1978 
C 1626 2579 1530 3155 1331 3712 
C 1171 4173 1018 4461 653 5018 
L 173 4698 
C 538 4147 685 3859 826 3411 
C 966 2963 1037 2490 1037 1978 
C 1037 1466 966 986 826 538 
C 685 90 538 -198 173 -749 
L 653 -1062 
z
" transform="scale(0.015625)"/>
      </defs>
      <use xlink:href="#HiraginoSans-W4-771f"/>
      <use xlink:href="#HiraginoSans-W4-306e" x="99.999985"/>
      <use xlink:href="#HiraginoSans-W4-95a2" x="199.999969"/>
      <use xlink:href="#HiraginoSans-W4-6570" x="299.999954"/>
      <use xlink:href="#HiraginoSans-W4-20" x="399.999939"/>
      <use xlink:href="#HiraginoSans-W4-73" x="433.299927"/>
      <use xlink:href="#HiraginoSans-W4-69" x="488.599915"/>
      <use xlink:href="#HiraginoSans-W4-6e" x="513.399902"/>
      <use xlink:href="#HiraginoSans-W4-28" x="576.799896"/>
      <use xlink:href="#HiraginoSans-W4-32" x="613.799881"/>
      <use xlink:href="#HiraginoSans-W4-3c0" x="681.099869"/>
      <use xlink:href="#HiraginoSans-W4-78" x="781.099854"/>
      <use xlink:href="#HiraginoSans-W4-29" x="836.999847"/>
     </g>
    </g>
    <g id="line2d_31">
     <path d="M 412.784375 50.068406 
L 421.784375 50.068406 
L 430.784375 50.068406 
" style="fill: none; stroke: #d62728; stroke-width: 1.6; stroke-linecap: square"/>
    </g>
    <g id="text_18">
     <!-- M=9 正則化なし（暴れる＝過学習） -->
     <g transform="translate(437.984375 53.218406) scale(0.09 -0.09)">
      <defs>
       <path id="HiraginoSans-W4-4d" d="M 5018 806 
C 5018 480 4998 211 4966 0 
L 5638 0 
C 5600 230 5587 422 5587 806 
L 5587 4122 
C 5587 4486 5600 4672 5638 4934 
L 4774 4934 
C 4736 4723 4672 4531 4557 4262 
L 3059 838 
L 1562 4262 
C 1466 4486 1389 4730 1344 4934 
L 480 4934 
C 518 4691 531 4467 531 4122 
L 531 806 
C 531 442 518 243 480 0 
L 1152 0 
C 1114 224 1101 442 1101 806 
L 1101 3059 
C 1101 3251 1082 3776 1056 4243 
C 1242 3667 1293 3533 1478 3117 
L 2534 723 
C 2669 435 2752 186 2784 0 
L 3322 0 
C 3386 250 3443 422 3578 717 
L 4666 3155 
C 4883 3648 4960 3846 5062 4237 
C 5043 3949 5018 3334 5018 3104 
L 5018 806 
z
" transform="scale(0.015625)"/>
       <path id="HiraginoSans-W4-3d" d="M 333 2720 
L 333 2195 
L 3923 2195 
L 3923 2720 
L 333 2720 
z
M 333 1376 
L 333 851 
L 3923 851 
L 3923 1376 
L 333 1376 
z
" transform="scale(0.015625)"/>
       <path id="HiraginoSans-W4-39" d="M 410 934 
C 582 576 698 422 896 262 
C 1178 32 1542 -77 2003 -77 
C 2586 -77 3014 102 3341 486 
C 3712 928 3910 1664 3910 2624 
C 3910 3302 3814 3821 3610 4186 
C 3315 4723 2765 5037 2118 5037 
C 1030 5037 326 4358 326 3315 
C 326 2861 486 2438 768 2157 
C 1050 1875 1472 1722 1958 1722 
C 2426 1722 2765 1843 3085 2125 
C 3213 2240 3270 2310 3366 2483 
C 3354 2189 3334 1958 3315 1818 
C 3270 1517 3168 1216 3046 1011 
C 2816 621 2496 435 2042 435 
C 1702 435 1427 538 1254 723 
C 1158 826 1114 915 1037 1120 
L 410 934 
z
M 2029 2221 
C 1357 2221 928 2662 928 3360 
C 928 3706 1030 3981 1248 4192 
C 1459 4403 1754 4525 2067 4525 
C 2733 4525 3232 4032 3232 3366 
C 3232 2707 2720 2221 2029 2221 
z
" transform="scale(0.015625)"/>
       <path id="HiraginoSans-W4-3057" d="M 1440 5030 
C 1453 4890 1459 4813 1459 4672 
C 1459 4576 1459 4429 1453 4243 
C 1408 2234 1402 2035 1402 1645 
C 1402 1306 1434 992 1491 800 
C 1574 525 1747 275 1965 115 
C 2208 -58 2592 -160 3034 -160 
C 3776 -160 4390 109 4851 640 
C 5139 973 5325 1363 5574 2144 
C 5331 2266 5242 2323 5030 2509 
C 4947 2061 4870 1798 4717 1485 
C 4378 768 3789 371 3072 371 
C 2630 371 2304 506 2138 749 
C 2003 960 1958 1203 1958 1786 
C 1958 2214 1997 3763 2022 4230 
C 2042 4685 2061 4858 2093 5024 
L 1440 5030 
z
" transform="scale(0.015625)"/>
       <path id="HiraginoSans-W4-308c" d="M 678 742 
C 730 819 755 851 838 947 
C 947 1069 1030 1165 1101 1235 
C 1280 1434 1280 1434 1389 1568 
C 1453 1645 1472 1664 1510 1728 
L 1523 1722 
C 1504 1581 1498 1478 1498 1331 
C 1498 -19 1498 -32 1453 -301 
L 2048 -301 
C 2029 -102 2022 384 2022 1491 
C 2022 1638 2022 1811 2029 2138 
C 2957 3091 3738 3635 4160 3635 
C 4371 3635 4486 3520 4486 3309 
C 4486 3149 4448 2906 4339 2419 
C 4096 1293 4083 1203 4083 877 
C 4083 518 4179 282 4397 128 
C 4518 38 4698 -13 4883 -13 
C 5216 -13 5510 141 5773 448 
C 5926 627 5997 742 6182 1082 
C 6010 1299 5958 1382 5843 1606 
C 5766 1363 5632 1094 5478 877 
C 5331 666 5126 531 4973 531 
C 4742 531 4621 678 4621 941 
C 4621 1133 4666 1408 4755 1818 
C 5030 3053 5043 3117 5043 3392 
C 5043 3859 4730 4166 4256 4166 
C 3872 4166 3418 3955 2835 3494 
C 2368 3130 2118 2899 2029 2765 
L 2016 2771 
C 2029 2899 2029 2906 2035 3162 
C 2035 3181 2042 3232 2042 3309 
C 2042 3341 2048 3386 2048 3450 
C 2221 3686 2291 3776 2381 3846 
L 2195 4070 
C 2144 4051 2131 4045 2080 4038 
C 2106 4730 2125 4992 2157 5146 
L 1568 5158 
C 1574 5037 1581 4966 1581 4883 
C 1581 4742 1574 4448 1562 3994 
C 1114 3962 838 3949 742 3949 
C 666 3949 627 3949 525 3962 
L 550 3437 
C 704 3469 806 3475 1549 3526 
C 1536 3162 1536 3162 1530 2976 
C 1523 2675 1517 2477 1517 2381 
C 1382 2240 1024 1875 781 1638 
C 595 1453 506 1382 384 1299 
L 678 742 
z
" transform="scale(0.015625)"/>
       <path id="HiraginoSans-W4-ff1d" d="M 992 2016 
L 992 1485 
L 5408 1485 
L 5408 2016 
L 992 2016 
z
M 992 3373 
L 992 2842 
L 5408 2842 
L 5408 3373 
L 992 3373 
z
" transform="scale(0.015625)"/>
       <path id="HiraginoSans-W4-904e" d="M 5408 4608 
C 5408 4883 5414 5024 5434 5152 
C 5274 5133 5152 5126 4845 5126 
L 3162 5126 
C 2931 5126 2765 5133 2586 5152 
C 2598 5005 2611 4858 2611 4608 
L 2611 3270 
L 2566 3270 
C 2336 3270 2202 3277 2093 3296 
C 2112 3136 2118 3021 2118 2784 
L 2118 1069 
C 2118 813 2106 666 2086 493 
L 2611 493 
C 2592 646 2586 800 2586 1069 
L 2586 2874 
L 5408 2874 
L 5408 1005 
C 5408 928 5344 896 5184 896 
C 5005 896 4832 909 4576 947 
C 4634 787 4659 678 4685 506 
C 4915 499 5018 499 5120 499 
C 5741 499 5875 576 5875 928 
L 5875 2778 
C 5875 3014 5882 3149 5901 3296 
C 5786 3277 5683 3270 5408 3270 
L 5408 4608 
z
M 3699 3270 
L 3078 3270 
L 3078 4717 
L 4954 4717 
L 4954 4288 
L 4173 4288 
C 3962 4288 3795 4294 3680 4307 
C 3693 4179 3699 4058 3699 3840 
L 3699 3270 
z
M 4141 3270 
L 4141 3904 
L 4954 3904 
L 4954 3270 
L 4141 3270 
z
M 4890 2144 
C 4890 2323 4890 2406 4902 2522 
C 4819 2509 4723 2502 4467 2502 
L 3526 2502 
C 3290 2502 3168 2509 3098 2522 
C 3110 2400 3117 2298 3117 2131 
L 3117 1280 
C 3117 1101 3110 998 3098 883 
L 3526 883 
L 3526 1197 
L 4474 1197 
C 4653 1197 4762 1190 4902 1178 
C 4890 1280 4890 1350 4890 1555 
L 4890 2144 
z
M 3526 2144 
L 4474 2144 
L 4474 1568 
L 3526 1568 
L 3526 2144 
z
M 358 4902 
C 806 4474 979 4269 1357 3712 
L 1747 4058 
C 1357 4582 1184 4774 717 5216 
L 358 4902 
z
M 282 2317 
C 442 2342 538 2349 736 2349 
L 1107 2349 
L 1107 851 
C 710 474 422 256 141 128 
L 384 -384 
C 538 -250 595 -205 608 -192 
C 973 102 1088 205 1331 454 
C 1504 205 1664 51 1894 -77 
C 2285 -288 2656 -346 3680 -346 
C 4493 -346 5382 -326 6022 -301 
C 6067 -45 6080 -13 6189 237 
C 5498 147 4646 109 3322 109 
C 2586 109 2202 198 1882 442 
C 1741 550 1670 640 1581 838 
L 1581 2131 
C 1581 2496 1581 2605 1606 2810 
C 1446 2790 1325 2784 1120 2784 
L 781 2784 
C 531 2784 422 2790 282 2816 
L 282 2317 
z
" transform="scale(0.015625)"/>
       <path id="HiraginoSans-W4-5b66" d="M 1229 4307 
C 864 4307 749 4314 486 4333 
C 506 4179 512 4045 512 3808 
L 512 3296 
C 512 3130 499 2982 480 2835 
L 986 2835 
L 986 3891 
L 5395 3891 
L 5395 2835 
L 5901 2835 
C 5882 2989 5869 3136 5869 3296 
L 5869 3808 
C 5869 4045 5875 4179 5894 4333 
C 5658 4314 5530 4307 5139 4307 
L 4704 4307 
C 4896 4538 5056 4768 5280 5139 
L 4794 5312 
C 4614 4902 4461 4646 4173 4307 
L 3520 4307 
C 3386 4678 3283 4890 3046 5325 
L 2573 5197 
C 2778 4883 2912 4602 3014 4307 
L 2157 4307 
C 1926 4710 1792 4915 1523 5242 
L 1069 5101 
C 1350 4774 1466 4608 1632 4307 
L 1229 4307 
z
M 3462 1338 
L 5299 1338 
C 5600 1338 5837 1325 6010 1299 
L 6010 1818 
C 5811 1792 5600 1779 5299 1779 
L 3462 1779 
L 3462 1926 
C 4038 2227 4429 2490 4877 2861 
C 5011 2976 5011 2976 5101 3046 
L 4826 3341 
C 4710 3322 4582 3315 4346 3315 
L 2093 3315 
C 1856 3315 1638 3328 1466 3347 
L 1466 2861 
C 1638 2880 1856 2893 2080 2893 
L 4262 2893 
C 3878 2598 3616 2432 3219 2240 
L 2950 2240 
C 2963 2112 2970 1997 2970 1869 
L 2970 1779 
L 1101 1779 
C 819 1779 602 1792 403 1818 
L 403 1299 
C 595 1325 806 1338 1101 1338 
L 2970 1338 
L 2970 147 
C 2970 19 2931 0 2643 0 
C 2400 0 2157 19 1811 64 
C 1888 -102 1920 -192 1965 -422 
C 2189 -442 2509 -454 2675 -454 
C 3334 -454 3462 -371 3462 58 
L 3462 1338 
z
" transform="scale(0.015625)"/>
       <path id="HiraginoSans-W4-7fd2" d="M 3277 2214 
C 3379 2374 3424 2451 3539 2656 
L 3034 2752 
C 2989 2618 2874 2381 2771 2214 
L 1907 2214 
C 1581 2214 1408 2221 1203 2240 
C 1222 2016 1229 1894 1229 1523 
L 1229 186 
C 1229 -141 1216 -320 1190 -499 
L 1709 -499 
L 1709 -218 
L 4774 -218 
L 4774 -499 
L 5293 -499 
C 5261 -333 5254 -154 5254 186 
L 5254 1530 
C 5254 1914 5261 2042 5280 2240 
C 5075 2221 4915 2214 4582 2214 
L 3277 2214 
z
M 1709 1805 
L 4774 1805 
L 4774 1242 
L 1709 1242 
L 1709 1805 
z
M 1709 832 
L 4774 832 
L 4774 192 
L 1709 192 
L 1709 832 
z
M 2605 4730 
L 2605 3162 
C 2605 3014 2573 2989 2381 2989 
C 2170 2989 1952 3008 1734 3046 
C 1792 2899 1824 2771 1843 2605 
C 2016 2592 2227 2579 2374 2579 
C 2650 2579 2790 2605 2906 2675 
C 3021 2752 3059 2861 3059 3110 
L 3059 4550 
C 3059 4870 3066 5024 3085 5178 
C 2944 5158 2778 5152 2458 5152 
L 1126 5152 
C 851 5152 640 5165 461 5190 
L 461 4691 
C 653 4723 774 4730 1062 4730 
L 2605 4730 
z
M 1952 4045 
C 1613 4307 1434 4416 1050 4621 
L 742 4339 
C 1139 4128 1331 4000 1632 3731 
L 1952 4045 
z
M 5376 4730 
L 5376 3155 
C 5376 2989 5363 2982 5114 2982 
C 4941 2982 4723 3002 4467 3046 
C 4531 2880 4557 2758 4563 2586 
C 4819 2566 5011 2560 5190 2560 
C 5459 2560 5600 2586 5690 2650 
C 5811 2733 5837 2810 5837 3098 
L 5837 4544 
C 5837 4845 5843 5024 5862 5178 
C 5754 5158 5574 5152 5261 5152 
L 3942 5152 
C 3654 5152 3450 5165 3270 5190 
L 3270 4691 
C 3450 4723 3597 4730 3872 4730 
L 5376 4730 
z
M 4672 4032 
C 4307 4294 4128 4410 3731 4614 
L 3437 4326 
C 3808 4134 4019 4000 4365 3718 
L 4672 4032 
z
M 2304 3898 
C 1542 3469 890 3187 448 3098 
L 621 2637 
C 710 2682 755 2701 870 2752 
C 1549 3046 1818 3181 2336 3475 
L 2304 3898 
z
M 5082 3891 
C 4358 3507 3757 3277 3315 3213 
L 3482 2739 
C 3578 2790 3629 2810 3763 2867 
C 4294 3066 4672 3232 5107 3462 
L 5082 3891 
z
" transform="scale(0.015625)"/>
      </defs>
      <use xlink:href="#HiraginoSans-W4-4d"/>
      <use xlink:href="#HiraginoSans-W4-3d" x="95.699982"/>
      <use xlink:href="#HiraginoSans-W4-39" x="162.099976"/>
      <use xlink:href="#HiraginoSans-W4-20" x="229.399963"/>
      <use xlink:href="#HiraginoSans-W4-6b63" x="262.699951"/>
      <use xlink:href="#HiraginoSans-W4-5247" x="362.699936"/>
      <use xlink:href="#HiraginoSans-W4-5316" x="462.699921"/>
      <use xlink:href="#HiraginoSans-W4-306a" x="562.699905"/>
      <use xlink:href="#HiraginoSans-W4-3057" x="662.69989"/>
      <use xlink:href="#HiraginoSans-W4-ff08" x="762.699875"/>
      <use xlink:href="#HiraginoSans-W4-66b4" x="862.69986"/>
      <use xlink:href="#HiraginoSans-W4-308c" x="962.699844"/>
      <use xlink:href="#HiraginoSans-W4-308b" x="1062.699829"/>
      <use xlink:href="#HiraginoSans-W4-ff1d" x="1162.699814"/>
      <use xlink:href="#HiraginoSans-W4-904e" x="1262.699799"/>
      <use xlink:href="#HiraginoSans-W4-5b66" x="1362.699783"/>
      <use xlink:href="#HiraginoSans-W4-7fd2" x="1462.699768"/>
      <use xlink:href="#HiraginoSans-W4-ff09" x="1562.699753"/>
     </g>
    </g>
    <g id="line2d_32">
     <path d="M 412.784375 63.351844 
L 421.784375 63.351844 
L 430.784375 63.351844 
" style="fill: none; stroke: #1f77b4; stroke-width: 2; stroke-linecap: square"/>
    </g>
    <g id="text_19">
     <!-- M=9 正則化あり（なめらか） -->
     <g transform="translate(437.984375 66.501844) scale(0.09 -0.09)">
      <defs>
       <path id="HiraginoSans-W4-3042" d="M 851 3891 
C 902 3898 941 3898 966 3898 
C 979 3898 1024 3898 1082 3891 
C 1600 3872 1894 3866 1965 3866 
L 2176 3866 
C 2150 3418 2150 3418 2144 2957 
C 1210 2547 653 1824 653 1011 
C 653 422 1011 0 1517 0 
C 1978 0 2458 250 2963 755 
C 3482 1267 3840 1830 4211 2675 
C 4838 2502 5178 2138 5178 1626 
C 5178 1082 4781 634 4090 390 
C 3782 288 3520 243 3136 230 
C 3277 19 3315 -70 3379 -282 
C 3949 -218 4314 -115 4691 77 
C 5370 422 5722 941 5722 1594 
C 5722 2336 5216 2899 4365 3098 
C 4486 3398 4550 3558 4563 3584 
L 4038 3738 
C 4013 3565 3968 3386 3891 3187 
C 3731 3200 3654 3206 3533 3206 
C 3213 3206 2963 3174 2630 3091 
C 2630 3341 2637 3392 2669 3878 
C 3264 3898 4211 4000 4934 4122 
C 5050 4141 5075 4147 5165 4154 
L 5133 4685 
C 4646 4518 3731 4384 2701 4333 
C 2746 4813 2771 5024 2829 5197 
L 2246 5235 
C 2253 5184 2259 5152 2259 5133 
C 2259 5075 2246 4845 2240 4768 
C 2214 4454 2214 4454 2202 4314 
C 2093 4314 2067 4314 2048 4314 
C 1478 4314 1133 4339 858 4410 
L 851 3891 
z
M 2150 2458 
C 2150 1741 2189 1267 2272 806 
C 2010 589 1805 499 1587 499 
C 1325 499 1152 717 1152 1050 
C 1152 1357 1280 1670 1517 1952 
C 1683 2150 1850 2285 2150 2458 
z
M 2694 1126 
C 2694 1146 2694 1152 2694 1165 
C 2694 1190 2688 1248 2682 1312 
C 2637 1766 2630 1850 2618 2630 
C 2880 2726 3181 2778 3462 2778 
C 3590 2778 3622 2778 3738 2765 
C 3482 2170 3258 1805 2861 1325 
C 2752 1190 2752 1190 2707 1126 
L 2694 1126 
z
" transform="scale(0.015625)"/>
       <path id="HiraginoSans-W4-308a" d="M 1875 2963 
C 1894 3187 1907 3328 1965 3731 
C 2125 4851 2144 4941 2221 5165 
L 1632 5210 
C 1632 5133 1632 5101 1619 5005 
C 1453 3827 1408 3283 1408 2637 
C 1408 2560 1421 1875 1421 1811 
C 1427 1747 1427 1709 1427 1690 
C 1427 1677 1427 1651 1421 1619 
L 1971 1632 
C 1971 1715 1971 1754 1971 1786 
C 1971 2266 2086 2746 2323 3213 
C 2675 3923 3085 4282 3539 4282 
C 4141 4282 4486 3712 4486 2714 
C 4486 1702 4141 1050 3392 634 
C 3008 422 2675 326 2061 243 
C 2208 51 2253 -26 2349 -282 
C 2816 -186 3206 -58 3520 90 
C 4518 570 5050 1459 5050 2637 
C 5050 3347 4928 3827 4646 4237 
C 4384 4614 4026 4806 3590 4806 
C 3104 4806 2682 4544 2330 4032 
C 2150 3763 2029 3482 1946 3136 
C 1914 3008 1914 3008 1901 2963 
L 1875 2963 
z
" transform="scale(0.015625)"/>
      </defs>
      <use xlink:href="#HiraginoSans-W4-4d"/>
      <use xlink:href="#HiraginoSans-W4-3d" x="95.699982"/>
      <use xlink:href="#HiraginoSans-W4-39" x="162.099976"/>
      <use xlink:href="#HiraginoSans-W4-20" x="229.399963"/>
      <use xlink:href="#HiraginoSans-W4-6b63" x="262.699951"/>
      <use xlink:href="#HiraginoSans-W4-5247" x="362.699936"/>
      <use xlink:href="#HiraginoSans-W4-5316" x="462.699921"/>
      <use xlink:href="#HiraginoSans-W4-3042" x="562.699905"/>
      <use xlink:href="#HiraginoSans-W4-308a" x="662.69989"/>
      <use xlink:href="#HiraginoSans-W4-ff08" x="762.699875"/>
      <use xlink:href="#HiraginoSans-W4-306a" x="862.69986"/>
      <use xlink:href="#HiraginoSans-W4-3081" x="962.699844"/>
      <use xlink:href="#HiraginoSans-W4-3089" x="1062.699829"/>
      <use xlink:href="#HiraginoSans-W4-304b" x="1162.699814"/>
      <use xlink:href="#HiraginoSans-W4-ff09" x="1262.699799"/>
     </g>
    </g>
    <g id="PathCollection_2">
     <g>
      <use xlink:href="#md85efe336a" x="421.784375" y="77.422781" style="fill: #ffffff; stroke: #333333; stroke-width: 1.3"/>
     </g>
    </g>
    <g id="text_20">
     <!-- 観測データ -->
     <g transform="translate(437.984375 79.785281) scale(0.09 -0.09)">
      <defs>
       <path id="HiraginoSans-W4-89b3" d="M 2784 -160 
C 2938 -250 2995 -314 3142 -512 
C 3526 -250 3731 -45 3930 301 
C 4154 678 4237 979 4288 1581 
L 4691 1581 
L 4691 64 
C 4691 -288 4832 -384 5370 -384 
C 5798 -384 5997 -326 6086 -186 
C 6182 -32 6214 154 6259 787 
C 6099 832 6010 877 5850 986 
C 5843 499 5818 237 5773 154 
C 5734 90 5626 64 5389 64 
C 5184 64 5133 90 5133 198 
L 5133 1581 
L 5248 1581 
C 5542 1581 5677 1574 5830 1555 
C 5811 1722 5805 1875 5805 2176 
L 5805 4448 
C 5805 4742 5811 4928 5830 5126 
C 5638 5101 5517 5094 5210 5094 
L 3949 5094 
C 3674 5094 3533 5101 3328 5126 
C 3354 4954 3360 4806 3360 4493 
L 3360 2202 
C 3360 1843 3354 1734 3341 1562 
C 3475 1574 3590 1581 3763 1581 
L 3846 1581 
C 3814 1133 3757 896 3597 614 
C 3456 365 3277 173 3008 -19 
L 3008 314 
C 2899 294 2803 288 2490 288 
L 2278 288 
L 2278 813 
L 2509 813 
C 2758 813 2906 806 3008 787 
L 3008 1190 
C 2899 1171 2790 1165 2509 1165 
L 2278 1165 
L 2278 1638 
L 2509 1638 
C 2726 1638 2886 1632 3014 1619 
L 3014 2016 
C 2912 1997 2784 1990 2509 1990 
L 2278 1990 
L 2278 2451 
L 2618 2451 
C 2842 2451 2989 2445 3130 2426 
L 3130 2835 
C 3021 2816 2906 2810 2618 2810 
L 2317 2810 
C 2413 2957 2483 3078 2566 3226 
L 2157 3341 
C 2074 3117 2022 3008 1901 2810 
L 1293 2810 
C 1485 3098 1542 3206 1664 3437 
L 2643 3437 
C 2848 3437 3002 3430 3162 3405 
L 3162 3853 
C 3034 3827 2899 3821 2650 3821 
L 1830 3821 
C 1914 4051 1926 4096 2022 4416 
L 2458 4416 
C 2720 4416 2854 4410 3040 4384 
L 3040 4838 
C 2893 4813 2726 4800 2438 4800 
L 1267 4800 
C 1344 4947 1382 5024 1472 5216 
L 1018 5338 
C 883 4864 666 4506 269 4109 
C 429 4045 518 3987 640 3878 
C 813 4070 877 4147 1043 4416 
L 1568 4416 
C 1491 4141 1466 4070 1370 3821 
L 781 3821 
C 544 3821 422 3827 269 3853 
L 269 3398 
C 403 3424 563 3437 813 3437 
L 1190 3437 
C 896 2880 570 2483 64 2086 
C 160 1984 224 1888 307 1715 
C 538 1926 634 2029 781 2214 
C 768 1990 768 1882 768 1690 
L 768 218 
C 768 -70 755 -262 730 -442 
L 1197 -442 
L 1197 -77 
L 2464 -77 
C 2650 -77 2752 -77 2906 -90 
L 2784 -160 
z
M 1197 1990 
L 1197 2451 
L 1888 2451 
L 1888 1990 
L 1197 1990 
z
M 1197 1638 
L 1888 1638 
L 1888 1165 
L 1197 1165 
L 1197 1638 
z
M 1197 813 
L 1888 813 
L 1888 288 
L 1197 288 
L 1197 813 
z
M 3802 4678 
L 5363 4678 
L 5363 4051 
L 3802 4051 
L 3802 4678 
z
M 3802 3654 
L 5363 3654 
L 5363 3027 
L 3802 3027 
L 3802 3654 
z
M 3802 2630 
L 5363 2630 
L 5363 1971 
L 3802 1971 
L 3802 2630 
z
" transform="scale(0.015625)"/>
       <path id="HiraginoSans-W4-6e2c" d="M 474 4941 
C 877 4659 1120 4442 1408 4090 
L 1741 4448 
C 1453 4781 1229 4979 800 5274 
L 474 4941 
z
M 256 3354 
C 672 3098 922 2893 1267 2522 
L 1574 2918 
C 1235 3245 979 3437 557 3699 
L 256 3354 
z
M 1222 1875 
C 941 960 627 288 326 -38 
L 755 -410 
C 794 -326 813 -282 896 -128 
C 1197 416 1402 902 1619 1594 
L 1222 1875 
z
M 3328 1146 
C 3526 1146 3648 1139 3866 1126 
C 3853 1261 3846 1472 3846 1728 
L 3846 4538 
C 3846 4813 3853 4986 3872 5158 
C 3680 5146 3558 5139 3360 5139 
L 2438 5139 
C 2202 5139 2061 5146 1926 5158 
C 1939 4973 1946 4806 1946 4595 
L 1946 1766 
C 1946 1414 1946 1312 1926 1126 
C 2061 1139 2214 1146 2438 1146 
L 3328 1146 
z
M 2387 4730 
L 3411 4730 
L 3411 3955 
L 2387 3955 
L 2387 4730 
z
M 2387 3552 
L 3411 3552 
L 3411 2778 
L 2387 2778 
L 2387 3552 
z
M 2387 2374 
L 3411 2374 
L 3411 1555 
L 2387 1555 
L 2387 2374 
z
M 3034 755 
C 3309 269 3501 6 3878 -390 
C 4038 -218 4109 -147 4237 -58 
C 3859 269 3674 499 3411 973 
L 3034 755 
z
M 4890 1088 
C 4864 1248 4858 1408 4858 1715 
L 4858 4314 
C 4858 4614 4864 4749 4890 4941 
L 4365 4941 
C 4390 4768 4397 4602 4397 4320 
L 4397 1715 
C 4397 1434 4384 1254 4365 1088 
L 4890 1088 
z
M 2323 979 
C 2099 480 1926 250 1485 -115 
C 1619 -218 1696 -288 1837 -448 
C 2266 -38 2464 237 2714 768 
L 2323 979 
z
M 5914 4512 
C 5914 4870 5926 5082 5952 5261 
L 5408 5261 
C 5434 5024 5446 4826 5446 4512 
L 5446 269 
C 5446 128 5402 102 5146 102 
C 4947 102 4749 122 4499 154 
C 4570 -13 4589 -109 4621 -333 
C 5011 -352 5024 -352 5152 -352 
C 5773 -352 5914 -250 5914 186 
L 5914 4512 
z
" transform="scale(0.015625)"/>
       <path id="HiraginoSans-W4-30c7" d="M 5030 2714 
C 5370 2714 5619 2701 5818 2682 
L 5818 3251 
C 5600 3219 5402 3206 5024 3206 
L 1338 3206 
C 966 3206 787 3219 544 3251 
L 544 2682 
C 774 2707 941 2714 1331 2714 
L 2989 2714 
C 2970 2208 2874 1741 2726 1427 
C 2458 870 1952 486 1133 224 
C 1325 38 1389 -45 1498 -275 
C 2022 -64 2336 115 2624 352 
C 3091 749 3366 1267 3488 1978 
C 3539 2253 3571 2509 3578 2714 
L 5030 2714 
z
M 1190 4262 
C 1382 4288 1587 4294 1971 4294 
L 3795 4294 
C 4128 4294 4403 4288 4582 4262 
L 4582 4838 
C 4365 4800 4211 4794 3789 4794 
L 1978 4794 
C 1562 4794 1408 4800 1190 4838 
L 1190 4262 
z
M 5357 5427 
C 5638 5094 5830 4806 6016 4435 
L 6387 4646 
C 6157 5069 6016 5267 5715 5619 
L 5357 5427 
z
M 4550 5178 
C 4813 4883 5018 4563 5216 4166 
L 5594 4378 
C 5370 4794 5222 5011 4922 5370 
L 4550 5178 
z
" transform="scale(0.015625)"/>
       <path id="HiraginoSans-W4-30fc" d="M 531 2131 
C 755 2157 915 2163 1421 2163 
L 5005 2163 
C 5446 2163 5632 2157 5875 2131 
L 5875 2765 
C 5651 2733 5523 2726 5011 2726 
L 1414 2726 
C 973 2726 736 2739 531 2765 
L 531 2131 
z
" transform="scale(0.015625)"/>
       <path id="HiraginoSans-W4-30bf" d="M 2650 5299 
C 2592 5069 2470 4787 2272 4422 
C 1862 3693 1344 3110 646 2598 
C 864 2470 941 2413 1094 2234 
C 1728 2746 2176 3245 2611 3930 
L 4774 3955 
C 4563 3309 4288 2746 3942 2208 
C 3424 2630 3098 2854 2560 3162 
L 2208 2771 
C 2707 2496 3149 2176 3610 1766 
C 3290 1376 3008 1120 2522 787 
C 2099 506 1760 326 1216 109 
C 1395 -51 1459 -128 1594 -365 
C 2938 262 3802 973 4448 1984 
C 4736 2438 5069 3130 5299 3750 
C 5402 4045 5414 4064 5485 4173 
L 5158 4499 
C 5043 4454 4922 4435 4736 4435 
C 2944 4416 2944 4416 2848 4397 
C 2899 4486 2963 4595 3034 4736 
C 3174 5030 3174 5030 3245 5146 
L 2650 5299 
z
" transform="scale(0.015625)"/>
      </defs>
      <use xlink:href="#HiraginoSans-W4-89b3"/>
      <use xlink:href="#HiraginoSans-W4-6e2c" x="99.999985"/>
      <use xlink:href="#HiraginoSans-W4-30c7" x="199.999969"/>
      <use xlink:href="#HiraginoSans-W4-30fc" x="299.999954"/>
      <use xlink:href="#HiraginoSans-W4-30bf" x="399.999939"/>
     </g>
    </g>
   </g>
  </g>
 </g>
 <defs>
  <clipPath id="p027905373d">
   <rect x="43.642656" y="24.644813" width="552.085" height="265.20625"/>
  </clipPath>
 </defs>
</svg>
