<?xml version="1.0" encoding="utf-8" standalone="no"?>
<!DOCTYPE svg PUBLIC "-//W3C//DTD SVG 1.1//EN"
  "http://www.w3.org/Graphics/SVG/1.1/DTD/svg11.dtd">
<svg xmlns:xlink="http://www.w3.org/1999/xlink" width="530.64pt" height="300.381094pt" viewBox="0 0 530.64 300.381094" xmlns="http://www.w3.org/2000/svg" version="1.1">
 <metadata>
  <rdf:RDF xmlns:dc="http://purl.org/dc/elements/1.1/" xmlns:cc="http://creativecommons.org/ns#" xmlns:rdf="http://www.w3.org/1999/02/22-rdf-syntax-ns#">
   <cc:Work>
    <dc:type rdf:resource="http://purl.org/dc/dcmitype/StillImage"/>
    <dc:format>image/svg+xml</dc:format>
    <dc:creator>
     <cc:Agent>
      <dc:title>Matplotlib v3.8.3, https://matplotlib.org/</dc:title>
     </cc:Agent>
    </dc:creator>
   </cc:Work>
  </rdf:RDF>
 </metadata>
 <defs>
  <style type="text/css">*{stroke-linejoin: round; stroke-linecap: butt}</style>
 </defs>
 <g id="figure_1">
  <g id="patch_1">
   <path d="M 0 300.381094 
L 530.64 300.381094 
L 530.64 0 
L 0 0 
z
" style="fill: #ffffff"/>
  </g>
  <g id="axes_1">
   <g id="patch_2">
    <path d="M 213.696 259.647289 
C 254.768535 259.647289 294.164374 250.813956 323.207041 235.09273 
C 352.249709 219.371503 368.568 198.045951 368.568 175.812779 
C 368.568 153.579606 352.249709 132.254054 323.207041 116.532827 
C 294.164374 100.811601 254.768535 91.978268 213.696 91.978268 
C 172.623465 91.978268 133.227626 100.811601 104.184959 116.532827 
C 75.142291 132.254054 58.824 153.579606 58.824 175.812779 
C 58.824 198.045951 75.142291 219.371503 104.184959 235.09273 
C 133.227626 250.813956 172.623465 259.647289 213.696 259.647289 
z
" clip-path="url(#p3b1c066842)" style="fill: #1f77b4; opacity: 0.3; stroke: #1f77b4; stroke-width: 1.6; stroke-linejoin: miter"/>
   </g>
   <g id="patch_3">
    <path d="M 316.944 259.647289 
C 358.016535 259.647289 397.412374 250.813956 426.455041 235.09273 
C 455.497709 219.371503 471.816 198.045951 471.816 175.812779 
C 471.816 153.579606 455.497709 132.254054 426.455041 116.532827 
C 397.412374 100.811601 358.016535 91.978268 316.944 91.978268 
C 275.871465 91.978268 236.475626 100.811601 207.432959 116.532827 
C 178.390291 132.254054 162.072 153.579606 162.072 175.812779 
C 162.072 198.045951 178.390291 219.371503 207.432959 235.09273 
C 236.475626 250.813956 275.871465 259.647289 316.944 259.647289 
z
" clip-path="url(#p3b1c066842)" style="fill: #d62728; opacity: 0.3; stroke: #d62728; stroke-width: 1.6; stroke-linejoin: miter"/>
   </g>
   <g id="text_1">
    <!-- H[x|y] -->
    <g transform="translate(129.863941 178.897935) scale(0.11 -0.11)">
     <defs>
      <path id="HiraginoSans-W4-48" d="M 3885 4934 
C 3923 4710 3936 4506 3936 4186 
L 3936 2867 
L 1126 2867 
L 1126 4198 
C 1126 4512 1139 4691 1178 4934 
L 480 4934 
C 518 4698 531 4518 531 4186 
L 531 749 
C 531 416 518 218 480 0 
L 1178 0 
C 1139 237 1126 416 1126 749 
L 1126 2323 
L 3936 2323 
L 3936 749 
C 3936 422 3923 237 3885 0 
L 4582 0 
C 4544 250 4531 416 4531 749 
L 4531 4198 
C 4531 4518 4544 4685 4582 4934 
L 3885 4934 
z
" transform="scale(0.015625)"/>
      <path id="HiraginoSans-W4-5b" d="M 2176 -480 
L 1382 -480 
L 1382 4435 
L 2176 4435 
L 2176 4934 
L 813 4934 
L 813 -979 
L 2176 -979 
L 2176 -480 
z
" transform="scale(0.015625)"/>
      <path id="HiraginoSans-W4-78" d="M 3469 0 
C 3238 294 3078 512 3008 614 
L 2138 1824 
L 2963 2982 
C 3021 3072 3168 3270 3206 3322 
C 3315 3462 3315 3462 3354 3520 
L 2630 3520 
C 2566 3386 2483 3238 2368 3072 
L 1792 2227 
L 1203 3072 
C 1088 3238 1024 3360 947 3520 
L 211 3520 
C 474 3174 557 3072 608 3002 
L 1440 1830 
L 531 563 
C 422 410 237 160 109 0 
L 858 0 
C 966 205 1018 294 1114 435 
L 1786 1421 
L 2426 486 
C 2566 288 2624 192 2720 0 
L 3469 0 
z
" transform="scale(0.015625)"/>
      <path id="HiraginoSans-W4-7c" d="M 966 4934 
L 966 -1312 
L 1530 -1312 
L 1530 4934 
L 966 4934 
z
" transform="scale(0.015625)"/>
      <path id="HiraginoSans-W4-79" d="M 1600 154 
L 1325 -486 
C 1229 -710 1069 -832 858 -832 
C 730 -832 621 -800 442 -717 
L 301 -1274 
C 550 -1325 710 -1344 864 -1344 
C 1357 -1344 1664 -1146 1843 -717 
L 3283 2758 
C 3462 3181 3571 3437 3603 3520 
L 2912 3520 
C 2880 3334 2829 3168 2694 2816 
L 1901 768 
L 1011 2822 
C 902 3072 819 3341 787 3520 
L 64 3520 
C 134 3386 134 3386 422 2758 
L 1600 154 
z
" transform="scale(0.015625)"/>
      <path id="HiraginoSans-W4-5d" d="M 141 -480 
L 141 -979 
L 1504 -979 
L 1504 4934 
L 141 4934 
L 141 4435 
L 934 4435 
L 934 -480 
L 141 -480 
z
" transform="scale(0.015625)"/>
     </defs>
     <use xlink:href="#HiraginoSans-W4-48"/>
     <use xlink:href="#HiraginoSans-W4-5b" x="79.199982"/>
     <use xlink:href="#HiraginoSans-W4-78" x="115.499969"/>
     <use xlink:href="#HiraginoSans-W4-7c" x="171.399963"/>
     <use xlink:href="#HiraginoSans-W4-79" x="210.299957"/>
     <use xlink:href="#HiraginoSans-W4-5d" x="267.699951"/>
    </g>
   </g>
   <g id="text_2">
    <!-- H[y|x] -->
    <g transform="translate(367.334341 178.897935) scale(0.11 -0.11)">
     <use xlink:href="#HiraginoSans-W4-48"/>
     <use xlink:href="#HiraginoSans-W4-5b" x="79.199982"/>
     <use xlink:href="#HiraginoSans-W4-79" x="115.499969"/>
     <use xlink:href="#HiraginoSans-W4-7c" x="172.899963"/>
     <use xlink:href="#HiraginoSans-W4-78" x="211.799957"/>
     <use xlink:href="#HiraginoSans-W4-5d" x="267.699951"/>
    </g>
   </g>
   <g id="text_3">
    <!-- I[x,y] -->
    <g transform="translate(249.924297 179.019107) scale(0.11 -0.11)">
     <defs>
      <path id="HiraginoSans-W7-49" d="M 429 5069 
C 467 4794 480 4627 480 4186 
L 480 749 
C 480 352 467 115 429 -134 
L 1606 -134 
C 1568 115 1555 339 1555 749 
L 1555 4186 
C 1555 4614 1568 4813 1606 5069 
L 429 5069 
z
" transform="scale(0.015625)"/>
      <path id="HiraginoSans-W7-5b" d="M 2611 -243 
L 1766 -243 
L 1766 4237 
L 2611 4237 
L 2611 5069 
L 826 5069 
L 826 -1075 
L 2611 -1075 
L 2611 -243 
z
" transform="scale(0.015625)"/>
      <path id="HiraginoSans-W7-78" d="M 4154 -134 
C 4006 51 3846 256 3680 480 
L 2701 1856 
L 3584 3098 
C 3680 3232 3840 3443 4006 3654 
L 2810 3654 
C 2746 3501 2650 3328 2522 3142 
L 2118 2534 
L 1709 3142 
C 1606 3296 1510 3475 1434 3654 
L 218 3654 
C 442 3373 563 3219 640 3104 
L 1530 1856 
L 538 454 
C 416 288 218 32 77 -134 
L 1312 -134 
C 1427 90 1498 205 1619 390 
L 2112 1139 
L 2598 416 
C 2720 237 2784 122 2906 -134 
L 4154 -134 
z
" transform="scale(0.015625)"/>
      <path id="HiraginoSans-W7-2c" d="M 1472 973 
L 365 973 
L 365 -134 
L 998 -134 
C 992 -371 954 -480 851 -570 
C 742 -666 634 -717 416 -762 
L 672 -1171 
C 973 -1069 1114 -992 1248 -838 
C 1402 -653 1472 -442 1472 -134 
L 1472 973 
z
" transform="scale(0.015625)"/>
      <path id="HiraginoSans-W7-79" d="M 1619 179 
L 1459 -173 
C 1357 -384 1190 -486 947 -486 
C 787 -486 672 -454 461 -358 
L 320 -1248 
C 646 -1312 864 -1338 1088 -1338 
C 1754 -1338 2163 -1088 2400 -550 
L 3859 2835 
C 4045 3283 4045 3283 4090 3373 
C 4179 3558 4179 3558 4224 3654 
L 3059 3654 
C 3021 3437 2957 3245 2803 2854 
L 2157 1229 
L 1453 2912 
C 1344 3155 1254 3469 1222 3654 
L 51 3654 
C 128 3501 160 3437 429 2835 
L 1619 179 
z
" transform="scale(0.015625)"/>
      <path id="HiraginoSans-W7-5d" d="M 166 -243 
L 166 -1075 
L 1952 -1075 
L 1952 5069 
L 166 5069 
L 166 4237 
L 1011 4237 
L 1011 -243 
L 166 -243 
z
" transform="scale(0.015625)"/>
     </defs>
     <use xlink:href="#HiraginoSans-W7-49"/>
     <use xlink:href="#HiraginoSans-W7-5b" x="31.699997"/>
     <use xlink:href="#HiraginoSans-W7-78" x="75.099991"/>
     <use xlink:href="#HiraginoSans-W7-2c" x="141.099976"/>
     <use xlink:href="#HiraginoSans-W7-79" x="169.799973"/>
     <use xlink:href="#HiraginoSans-W7-5d" x="236.499969"/>
    </g>
   </g>
   <g id="text_4">
    <!-- H[x] -->
    <g style="fill: #1f77b4" transform="translate(147.80325 69.622398) scale(0.12 -0.12)">
     <defs>
      <path id="HiraginoSans-W7-48" d="M 3853 5069 
C 3891 4832 3904 4589 3904 4186 
L 3904 3040 
L 1530 3040 
L 1530 4192 
C 1530 4557 1542 4794 1581 5069 
L 429 5069 
C 467 4806 480 4595 480 4186 
L 480 749 
C 480 333 467 122 429 -134 
L 1581 -134 
C 1542 147 1530 358 1530 749 
L 1530 2099 
L 3904 2099 
L 3904 749 
C 3904 339 3891 128 3853 -134 
L 5011 -134 
C 4973 154 4960 358 4960 749 
L 4960 4192 
C 4960 4589 4973 4864 5011 5069 
L 3853 5069 
z
" transform="scale(0.015625)"/>
     </defs>
     <use xlink:href="#HiraginoSans-W7-48"/>
     <use xlink:href="#HiraginoSans-W7-5b" x="84.999985"/>
     <use xlink:href="#HiraginoSans-W7-78" x="128.399979"/>
     <use xlink:href="#HiraginoSans-W7-5d" x="194.399963"/>
    </g>
   </g>
   <g id="text_5">
    <!-- H[y] -->
    <g style="fill: #d62728" transform="translate(354.257062 69.622398) scale(0.12 -0.12)">
     <use xlink:href="#HiraginoSans-W7-48"/>
     <use xlink:href="#HiraginoSans-W7-5b" x="84.999985"/>
     <use xlink:href="#HiraginoSans-W7-79" x="128.399979"/>
     <use xlink:href="#HiraginoSans-W7-5d" x="195.099976"/>
    </g>
   </g>
   <g id="text_6">
    <!-- §9.4 相互情報量 I[x,y] = 2つのエントロピーの「重なり」 -->
    <g transform="translate(120.692344 16.615312) scale(0.11 -0.11)">
     <defs>
      <path id="HiraginoSans-W4-a7" d="M 557 -147 
C 627 -480 685 -634 819 -819 
C 1082 -1190 1536 -1395 2080 -1395 
C 2957 -1395 3552 -902 3552 -186 
C 3552 45 3488 250 3373 416 
C 3296 525 3226 589 3053 704 
C 3277 800 3373 858 3488 966 
C 3674 1152 3770 1389 3770 1677 
C 3770 2074 3597 2387 3258 2598 
C 3066 2720 2893 2803 2189 3117 
C 1670 3347 1517 3437 1389 3571 
C 1306 3667 1254 3802 1254 3936 
C 1254 4301 1626 4570 2118 4570 
C 2432 4570 2682 4467 2822 4282 
C 2918 4160 2963 4032 3008 3789 
L 3565 3898 
C 3501 4224 3424 4397 3270 4582 
C 3027 4870 2630 5024 2125 5024 
C 1293 5024 710 4563 710 3898 
C 710 3686 774 3482 890 3334 
C 954 3245 1018 3187 1178 3072 
C 672 2822 448 2509 448 2061 
C 448 1779 550 1530 755 1338 
C 928 1171 1126 1062 1715 800 
C 2387 506 2490 454 2675 339 
C 2899 198 2995 32 2995 -198 
C 2995 -621 2630 -915 2106 -915 
C 1754 -915 1453 -768 1299 -518 
C 1222 -397 1184 -275 1152 -38 
L 557 -147 
z
M 2611 960 
C 1997 1235 1664 1389 1491 1478 
C 1139 1670 998 1850 998 2125 
C 998 2426 1158 2611 1594 2822 
C 1914 2669 1933 2656 2112 2573 
C 2650 2317 2816 2234 2950 2138 
C 3155 1990 3238 1850 3238 1638 
C 3238 1338 3066 1152 2611 960 
z
" transform="scale(0.015625)"/>
      <path id="HiraginoSans-W4-39" d="M 410 934 
C 582 576 698 422 896 262 
C 1178 32 1542 -77 2003 -77 
C 2586 -77 3014 102 3341 486 
C 3712 928 3910 1664 3910 2624 
C 3910 3302 3814 3821 3610 4186 
C 3315 4723 2765 5037 2118 5037 
C 1030 5037 326 4358 326 3315 
C 326 2861 486 2438 768 2157 
C 1050 1875 1472 1722 1958 1722 
C 2426 1722 2765 1843 3085 2125 
C 3213 2240 3270 2310 3366 2483 
C 3354 2189 3334 1958 3315 1818 
C 3270 1517 3168 1216 3046 1011 
C 2816 621 2496 435 2042 435 
C 1702 435 1427 538 1254 723 
C 1158 826 1114 915 1037 1120 
L 410 934 
z
M 2029 2221 
C 1357 2221 928 2662 928 3360 
C 928 3706 1030 3981 1248 4192 
C 1459 4403 1754 4525 2067 4525 
C 2733 4525 3232 4032 3232 3366 
C 3232 2707 2720 2221 2029 2221 
z
" transform="scale(0.015625)"/>
      <path id="HiraginoSans-W4-2e" d="M 442 723 
L 442 0 
L 1165 0 
L 1165 723 
L 442 723 
z
" transform="scale(0.015625)"/>
      <path id="HiraginoSans-W4-34" d="M 179 1210 
C 403 1229 589 1235 954 1235 
L 2688 1235 
L 2688 710 
C 2688 410 2675 218 2630 0 
L 3309 0 
C 3270 230 3258 390 3258 704 
L 3258 1235 
L 3494 1235 
C 3763 1235 3910 1222 4154 1190 
L 4154 1798 
C 3917 1766 3750 1754 3494 1754 
L 3258 1754 
L 3258 3853 
C 3258 4358 3264 4544 3296 4934 
L 2701 4934 
C 2560 4704 2445 4550 2214 4269 
L 621 2298 
C 467 2099 326 1939 179 1773 
L 179 1210 
z
M 2688 1747 
L 858 1747 
L 2259 3514 
C 2464 3763 2592 3936 2720 4128 
C 2694 3814 2688 3622 2688 3283 
L 2688 1747 
z
" transform="scale(0.015625)"/>
      <path id="HiraginoSans-W4-20" transform="scale(0.015625)"/>
      <path id="HiraginoSans-W4-76f8" d="M 2272 3686 
C 2426 3686 2560 3680 2688 3667 
L 2688 4147 
C 2566 4128 2445 4122 2272 4122 
L 1830 4122 
L 1830 4710 
C 1830 5018 1843 5222 1862 5370 
L 1318 5370 
C 1350 5216 1357 5069 1357 4710 
L 1357 4122 
L 870 4122 
C 653 4122 512 4128 403 4147 
L 403 3661 
C 518 3680 666 3686 864 3686 
L 1286 3686 
C 1075 2842 653 1971 218 1491 
C 352 1325 403 1235 499 1024 
C 902 1581 1158 2131 1395 2957 
C 1363 2349 1357 2176 1357 1920 
L 1357 250 
C 1357 -77 1344 -320 1318 -506 
L 1869 -506 
C 1843 -326 1830 -83 1830 250 
L 1830 2112 
C 1830 2310 1824 2547 1805 3098 
C 2010 2573 2176 2272 2509 1830 
C 2592 2016 2630 2086 2771 2278 
C 2330 2746 2086 3117 1869 3686 
L 2272 3686 
z
M 3405 -480 
L 3405 -38 
L 5325 -38 
L 5325 -454 
L 5837 -454 
C 5818 -288 5805 -26 5805 326 
L 5805 4429 
C 5805 4749 5811 4922 5824 5069 
C 5683 5056 5600 5050 5318 5050 
L 3418 5050 
C 3130 5050 3059 5050 2899 5062 
C 2918 4768 2925 4589 2925 4378 
L 2925 320 
C 2925 -6 2912 -250 2893 -480 
L 3405 -480 
z
M 3405 4595 
L 5325 4595 
L 5325 3533 
L 3405 3533 
L 3405 4595 
z
M 3405 3085 
L 5325 3085 
L 5325 1997 
L 3405 1997 
L 3405 3085 
z
M 3405 1549 
L 5325 1549 
L 5325 410 
L 3405 410 
L 3405 1549 
z
" transform="scale(0.015625)"/>
      <path id="HiraginoSans-W4-4e92" d="M 4051 1299 
C 3955 845 3949 826 3782 198 
L 1101 198 
C 736 198 550 211 326 243 
L 326 -301 
C 563 -269 813 -256 1114 -256 
L 5286 -256 
C 5613 -256 5843 -269 6067 -301 
L 6067 243 
C 5837 211 5651 198 5306 198 
L 4314 198 
C 4557 1184 4678 1786 4883 3059 
C 4947 3437 4960 3514 5005 3686 
C 4877 3667 4685 3661 4346 3661 
L 2477 3661 
C 2579 4096 2586 4109 2694 4646 
L 5146 4646 
C 5466 4646 5664 4634 5882 4608 
L 5882 5139 
C 5664 5114 5466 5101 5139 5101 
L 1222 5101 
C 896 5101 698 5114 486 5139 
L 486 4608 
C 698 4634 909 4646 1235 4646 
L 2170 4646 
C 2048 3955 2010 3814 1843 3206 
C 1587 2291 1395 1754 1037 973 
L 1606 934 
C 1677 1107 1696 1165 1747 1299 
L 4051 1299 
z
M 1907 1747 
C 2099 2310 2234 2746 2355 3213 
L 4397 3213 
C 4339 2714 4333 2688 4147 1747 
L 1907 1747 
z
" transform="scale(0.015625)"/>
      <path id="HiraginoSans-W4-60c5" d="M 3725 4480 
L 3725 4102 
L 2970 4102 
C 2707 4102 2560 4109 2394 4128 
L 2394 3699 
C 2586 3725 2707 3731 2970 3731 
L 3725 3731 
L 3725 3322 
L 2701 3322 
C 2368 3322 2202 3328 2048 3360 
L 2048 2886 
C 2221 2912 2400 2925 2701 2925 
L 5421 2925 
C 5664 2925 5856 2912 6061 2886 
L 6061 3360 
C 5894 3334 5722 3322 5421 3322 
L 4173 3322 
L 4173 3731 
L 5146 3731 
C 5402 3731 5542 3725 5722 3706 
L 5722 4128 
C 5562 4109 5421 4102 5146 4102 
L 4173 4102 
L 4173 4480 
L 5312 4480 
C 5600 4480 5779 4474 5946 4448 
L 5946 4909 
C 5773 4877 5632 4870 5306 4870 
L 4173 4870 
C 4173 5088 4179 5190 4211 5350 
L 3686 5350 
C 3718 5184 3725 5088 3725 4870 
L 2816 4870 
C 2496 4870 2368 4877 2189 4909 
L 2189 4448 
C 2349 4474 2502 4480 2797 4480 
L 3725 4480 
z
M 2880 570 
L 5114 570 
L 5114 160 
C 5114 26 5075 0 4858 0 
C 4685 0 4461 19 4166 64 
C 4230 -96 4256 -198 4288 -397 
C 4557 -416 4755 -422 4915 -422 
C 5440 -422 5581 -314 5581 102 
L 5581 1907 
C 5581 2246 5587 2432 5606 2592 
C 5466 2566 5318 2560 5018 2560 
L 2970 2560 
C 2733 2560 2573 2566 2400 2586 
C 2413 2413 2419 2304 2419 2029 
L 2419 218 
C 2419 -128 2413 -307 2387 -480 
L 2918 -480 
C 2893 -314 2880 -102 2880 218 
L 2880 570 
z
M 2880 954 
L 2880 1370 
L 5114 1370 
L 5114 954 
L 2880 954 
z
M 2880 1747 
L 2880 2176 
L 5114 2176 
L 5114 1747 
L 2880 1747 
z
M 602 2253 
C 762 2848 826 3270 858 4019 
L 461 4122 
C 435 3328 384 3008 205 2426 
L 602 2253 
z
M 1594 -493 
C 1562 -275 1549 -32 1549 256 
L 1549 4698 
C 1549 4960 1562 5146 1594 5357 
L 1030 5357 
C 1062 5139 1075 4954 1075 4698 
L 1075 269 
C 1075 -13 1062 -288 1030 -493 
L 1594 -493 
z
M 2253 3494 
C 2131 3885 2061 4058 1926 4339 
L 1594 4198 
C 1728 3910 1811 3674 1888 3328 
L 2253 3494 
z
" transform="scale(0.015625)"/>
      <path id="HiraginoSans-W4-5831" d="M 3962 2643 
C 4160 1824 4346 1350 4672 864 
C 4442 525 4192 269 3821 -26 
C 3962 -173 4038 -269 4141 -429 
C 4493 -122 4717 128 4966 480 
C 5293 90 5536 -128 5946 -435 
C 6029 -262 6099 -147 6234 13 
C 5766 320 5542 506 5216 890 
C 5478 1363 5696 1946 5837 2554 
C 5869 2701 5882 2739 5914 2822 
L 5651 3091 
C 5542 3072 5389 3066 5114 3066 
L 3789 3066 
L 3789 4640 
L 5453 4640 
C 5408 3962 5382 3898 5139 3898 
C 4979 3898 4704 3930 4429 3981 
C 4486 3808 4506 3718 4525 3533 
C 4794 3507 4973 3494 5126 3494 
C 5747 3494 5837 3622 5926 4685 
C 5946 4960 5946 4960 5965 5094 
C 5856 5075 5683 5069 5414 5069 
L 3910 5069 
C 3661 5069 3482 5075 3302 5101 
C 3322 4928 3334 4704 3334 4486 
L 3334 192 
C 3334 -90 3322 -243 3290 -486 
L 3834 -486 
C 3802 -250 3789 -77 3789 186 
L 3789 2643 
L 3962 2643 
z
M 5389 2643 
C 5261 2048 5133 1683 4922 1280 
C 4672 1670 4538 2010 4378 2643 
L 5389 2643 
z
M 2029 3565 
L 2029 4218 
L 2509 4218 
C 2726 4218 2848 4211 2995 4192 
L 2995 4672 
C 2861 4653 2746 4646 2509 4646 
L 2029 4646 
L 2029 4819 
C 2029 5030 2042 5158 2074 5350 
L 1542 5350 
C 1568 5216 1581 5018 1581 4819 
L 1581 4646 
L 1030 4646 
C 787 4646 666 4653 531 4672 
L 531 4192 
C 691 4211 813 4218 1030 4218 
L 1581 4218 
L 1581 3565 
L 870 3565 
C 627 3565 506 3571 346 3597 
L 346 3110 
C 506 3130 602 3136 832 3136 
C 986 2656 1011 2560 1075 2259 
L 864 2259 
C 602 2259 493 2266 339 2291 
L 339 1805 
C 493 1824 634 1830 864 1830 
L 1581 1830 
L 1581 1165 
L 979 1165 
C 749 1165 634 1171 486 1190 
L 486 710 
C 646 730 755 736 979 736 
L 1581 736 
L 1581 134 
C 1581 -96 1568 -262 1542 -486 
L 2074 -486 
C 2048 -275 2035 -90 2035 134 
L 2035 736 
L 2579 736 
C 2797 736 2906 730 3066 710 
L 3066 1190 
C 2918 1171 2803 1165 2579 1165 
L 2035 1165 
L 2035 1830 
L 2637 1830 
C 2874 1830 3014 1824 3155 1805 
L 3155 2291 
C 3014 2266 2912 2259 2637 2259 
L 2483 2259 
C 2579 2477 2643 2656 2784 3136 
C 2938 3136 3034 3130 3168 3110 
L 3168 3597 
C 3002 3571 2906 3565 2650 3565 
L 2029 3565 
z
M 1498 2259 
C 1421 2624 1421 2624 1261 3136 
L 2342 3136 
C 2227 2682 2189 2560 2054 2259 
L 1498 2259 
z
" transform="scale(0.015625)"/>
      <path id="HiraginoSans-W4-91cf" d="M 2957 1062 
L 2957 742 
L 1382 742 
C 1114 742 973 749 838 768 
L 838 365 
C 1005 384 1146 390 1402 390 
L 2957 390 
L 2957 64 
L 1024 64 
C 717 64 550 70 346 102 
L 346 -339 
C 544 -314 742 -301 1024 -301 
L 5382 -301 
C 5658 -301 5875 -314 6061 -339 
L 6061 102 
C 5850 70 5690 64 5382 64 
L 3405 64 
L 3405 390 
L 5050 390 
C 5299 390 5440 384 5606 365 
L 5606 768 
C 5472 749 5331 742 5069 742 
L 3405 742 
L 3405 1062 
L 4710 1062 
C 4928 1062 5069 1056 5312 1037 
C 5299 1152 5293 1312 5293 1549 
L 5293 2240 
C 5293 2438 5299 2554 5312 2682 
C 5126 2662 4973 2656 4723 2656 
L 1715 2656 
C 1427 2656 1242 2662 1107 2682 
C 1120 2522 1126 2406 1126 2227 
L 1126 1562 
C 1126 1286 1120 1197 1107 1037 
C 1299 1056 1459 1062 1709 1062 
L 2957 1062 
z
M 2957 2330 
L 2957 2016 
L 1568 2016 
L 1568 2330 
L 2957 2330 
z
M 3405 2330 
L 4851 2330 
L 4851 2016 
L 3405 2016 
L 3405 2330 
z
M 2957 1702 
L 2957 1382 
L 1568 1382 
L 1568 1702 
L 2957 1702 
z
M 3405 1702 
L 4851 1702 
L 4851 1382 
L 3405 1382 
L 3405 1702 
z
M 4781 3616 
C 5146 3616 5261 3610 5421 3597 
C 5402 3757 5395 3904 5395 4096 
L 5395 4691 
C 5395 4896 5402 5011 5421 5165 
C 5222 5146 5082 5139 4787 5139 
L 1632 5139 
C 1338 5139 1184 5146 986 5165 
C 1005 5005 1011 4896 1011 4691 
L 1011 4096 
C 1011 3866 1005 3738 986 3597 
C 1146 3610 1267 3616 1626 3616 
L 4781 3616 
z
M 1459 4813 
L 4947 4813 
L 4947 4538 
L 1459 4538 
L 1459 4813 
z
M 1453 4224 
L 4941 4224 
L 4941 3930 
L 1453 3930 
L 1453 4224 
z
M 346 2925 
C 512 2950 678 2957 986 2957 
L 5427 2957 
C 5747 2957 5894 2950 6061 2925 
L 6061 3366 
C 5888 3341 5709 3334 5421 3334 
L 992 3334 
C 704 3334 518 3341 346 3366 
L 346 2925 
z
" transform="scale(0.015625)"/>
      <path id="HiraginoSans-W4-49" d="M 480 4934 
C 518 4698 531 4531 531 4186 
L 531 749 
C 531 410 518 243 480 0 
L 1190 0 
C 1152 224 1139 442 1139 749 
L 1139 4186 
C 1139 4486 1152 4704 1190 4934 
L 480 4934 
z
" transform="scale(0.015625)"/>
      <path id="HiraginoSans-W4-2c" d="M 1165 723 
L 435 723 
L 435 0 
L 858 0 
C 851 -403 800 -499 493 -614 
L 685 -864 
C 1062 -672 1165 -493 1165 0 
L 1165 723 
z
" transform="scale(0.015625)"/>
      <path id="HiraginoSans-W4-3d" d="M 333 2720 
L 333 2195 
L 3923 2195 
L 3923 2720 
L 333 2720 
z
M 333 1376 
L 333 851 
L 3923 851 
L 3923 1376 
L 333 1376 
z
" transform="scale(0.015625)"/>
      <path id="HiraginoSans-W4-32" d="M 3078 0 
C 3424 0 3642 -6 3917 -32 
L 3917 589 
C 3693 557 3430 544 3091 544 
L 1114 544 
C 1280 1114 1606 1478 2451 2042 
C 3181 2528 3341 2656 3546 2912 
C 3738 3142 3846 3443 3846 3744 
C 3846 4525 3200 5030 2202 5030 
C 1613 5030 1158 4858 858 4518 
C 640 4269 531 4026 442 3565 
L 1088 3469 
C 1139 3782 1190 3936 1306 4102 
C 1491 4371 1792 4506 2208 4506 
C 2816 4506 3206 4211 3206 3744 
C 3206 3360 2995 3085 2387 2675 
C 1754 2246 1600 2138 1389 1952 
C 979 1594 710 1229 544 806 
C 448 563 429 461 365 -26 
C 576 -6 678 0 1107 0 
L 3078 0 
z
" transform="scale(0.015625)"/>
      <path id="HiraginoSans-W4-3064" d="M 659 3110 
C 787 3168 851 3187 1139 3270 
C 2234 3578 3066 3725 3738 3725 
C 4589 3725 5107 3302 5107 2605 
C 5107 1894 4608 1325 3712 1018 
C 3219 851 2669 762 1958 742 
C 2086 518 2125 429 2189 166 
C 3226 262 3757 384 4346 672 
C 5216 1094 5702 1786 5702 2605 
C 5702 3629 4941 4262 3718 4262 
C 3181 4262 2618 4192 1882 4032 
C 698 3763 698 3763 518 3757 
L 659 3110 
z
" transform="scale(0.015625)"/>
      <path id="HiraginoSans-W4-306e" d="M 3053 422 
C 3200 243 3245 160 3328 -96 
C 3821 6 4090 90 4397 237 
C 5293 666 5798 1459 5798 2451 
C 5798 3802 4832 4698 3379 4698 
C 2509 4698 1792 4403 1274 3834 
C 832 3347 589 2707 589 2042 
C 589 1107 1062 422 1709 422 
C 2189 422 2573 806 2938 1645 
C 3238 2323 3469 3264 3578 4205 
C 3891 4186 4070 4141 4294 4032 
C 4902 3738 5242 3174 5242 2477 
C 5242 1734 4870 1107 4230 768 
C 3917 602 3610 512 3053 422 
z
M 3027 4192 
C 2944 3398 2714 2483 2458 1888 
C 2195 1286 1952 992 1702 992 
C 1370 992 1114 1453 1114 2035 
C 1114 2797 1491 3501 2112 3891 
C 2394 4077 2656 4160 3027 4192 
z
" transform="scale(0.015625)"/>
      <path id="HiraginoSans-W4-30a8" d="M 3424 3827 
L 4614 3827 
C 4979 3827 5158 3821 5382 3795 
L 5382 4384 
C 5152 4346 5005 4339 4608 4339 
L 1786 4339 
C 1395 4339 1248 4346 1018 4384 
L 1018 3795 
C 1242 3821 1414 3827 1779 3827 
L 2854 3827 
L 2854 1056 
L 1306 1056 
C 909 1056 762 1062 531 1101 
L 531 506 
C 755 531 928 538 1293 538 
L 5107 538 
C 5472 538 5645 531 5869 506 
L 5869 1101 
C 5638 1062 5491 1056 5094 1056 
L 3424 1056 
L 3424 3827 
z
" transform="scale(0.015625)"/>
      <path id="HiraginoSans-W4-30f3" d="M 934 4160 
C 1504 3821 2016 3405 2496 2893 
L 2886 3373 
C 2419 3827 2022 4134 1312 4589 
L 934 4160 
z
M 1030 -19 
C 1171 26 1222 38 1427 83 
C 2458 314 3174 595 3827 1043 
C 4685 1626 5280 2368 5805 3507 
C 5581 3654 5510 3725 5331 3949 
C 4806 2573 3962 1645 2739 1101 
C 2144 838 1376 640 864 621 
L 1030 -19 
z
" transform="scale(0.015625)"/>
      <path id="HiraginoSans-W4-30c8" d="M 2483 -224 
C 2458 -26 2451 179 2451 518 
L 2451 2189 
C 2451 2445 2445 2554 2426 2714 
C 2515 2656 2541 2650 2637 2605 
C 3546 2221 4429 1747 4992 1350 
L 5312 1907 
C 4224 2534 3354 2938 2451 3258 
L 2451 4397 
C 2451 4755 2458 4934 2483 5120 
L 1837 5120 
C 1869 4954 1875 4800 1875 4416 
L 1875 518 
C 1875 154 1869 -13 1837 -224 
L 2483 -224 
z
" transform="scale(0.015625)"/>
      <path id="HiraginoSans-W4-30ed" d="M 4864 480 
L 4864 32 
L 5453 32 
C 5434 179 5427 371 5427 666 
L 5427 3994 
C 5427 4282 5434 4410 5453 4576 
C 5261 4557 5139 4550 4819 4550 
L 1587 4550 
C 1293 4550 1146 4557 947 4570 
C 966 4403 973 4282 973 3994 
L 973 659 
C 973 378 966 179 947 32 
L 1536 32 
L 1536 480 
L 4864 480 
z
M 4864 986 
L 1536 986 
L 1536 4045 
L 4864 4045 
L 4864 986 
z
" transform="scale(0.015625)"/>
      <path id="HiraginoSans-W4-30d4" d="M 5613 5478 
C 5210 5478 4883 5152 4883 4749 
C 4883 4346 5210 4019 5613 4019 
C 6016 4019 6342 4346 6342 4749 
C 6342 5152 6016 5478 5613 5478 
z
M 5613 5197 
C 5856 5197 6061 4992 6061 4749 
C 6061 4506 5856 4301 5613 4301 
C 5370 4301 5165 4506 5165 4749 
C 5165 4992 5370 5197 5613 5197 
z
M 1805 4256 
C 1805 4544 1818 4698 1843 4890 
L 1210 4890 
C 1235 4710 1242 4563 1242 4262 
L 1242 1382 
C 1242 1088 1248 960 1261 858 
C 1293 557 1376 365 1536 237 
C 1773 45 2195 -32 2989 -32 
C 3578 -32 4346 13 5018 90 
C 5216 115 5216 115 5299 115 
L 5261 723 
C 5005 653 4877 627 4614 595 
C 4141 531 3539 486 3130 486 
C 2445 486 2054 550 1926 685 
C 1830 787 1805 922 1805 1357 
L 1805 2368 
C 2394 2483 2592 2528 3040 2669 
C 3667 2867 4314 3136 4896 3450 
C 5050 3533 5062 3546 5178 3590 
L 4794 4109 
C 4589 3923 4314 3763 3808 3533 
C 3136 3226 2419 2995 1805 2886 
L 1805 4256 
z
" transform="scale(0.015625)"/>
      <path id="HiraginoSans-W4-30fc" d="M 531 2131 
C 755 2157 915 2163 1421 2163 
L 5005 2163 
C 5446 2163 5632 2157 5875 2131 
L 5875 2765 
C 5651 2733 5523 2726 5011 2726 
L 1414 2726 
C 973 2726 736 2739 531 2765 
L 531 2131 
z
" transform="scale(0.015625)"/>
      <path id="HiraginoSans-W4-300c" d="M 4870 2048 
L 4870 4922 
L 6106 4922 
L 6106 5395 
L 4346 5395 
L 4346 2048 
L 4870 2048 
z
" transform="scale(0.015625)"/>
      <path id="HiraginoSans-W4-91cd" d="M 2925 4224 
L 1062 4224 
C 800 4224 570 4237 397 4262 
L 397 3782 
C 589 3808 774 3821 1062 3821 
L 2925 3821 
L 2925 3424 
L 1549 3424 
C 1325 3424 1190 3430 1037 3450 
C 1056 3277 1062 3181 1062 3002 
L 1062 1843 
C 1062 1664 1056 1587 1037 1402 
C 1190 1421 1325 1427 1549 1427 
L 2925 1427 
L 2925 992 
L 1459 992 
C 1203 992 986 1005 800 1030 
L 800 544 
C 986 570 1184 582 1459 582 
L 2925 582 
L 2925 115 
L 1024 115 
C 762 115 544 128 365 154 
L 365 -358 
C 544 -333 742 -320 1024 -320 
L 5414 -320 
C 5702 -320 5875 -333 6080 -358 
L 6080 154 
C 5882 128 5696 115 5414 115 
L 3386 115 
L 3386 582 
L 4979 582 
C 5254 582 5459 570 5638 544 
L 5638 1030 
C 5453 1005 5261 992 4979 992 
L 3386 992 
L 3386 1427 
L 4883 1427 
C 5101 1427 5242 1421 5395 1402 
C 5376 1562 5370 1664 5370 1843 
L 5370 3002 
C 5370 3174 5376 3283 5395 3450 
C 5242 3430 5107 3424 4883 3424 
L 3386 3424 
L 3386 3821 
L 5376 3821 
C 5658 3821 5869 3808 6035 3782 
L 6035 4262 
C 5843 4237 5651 4224 5376 4224 
L 3386 4224 
L 3386 4704 
C 3872 4749 4346 4800 4634 4851 
C 5107 4928 5376 4979 5446 4986 
L 5126 5414 
C 4902 5331 4717 5286 4294 5222 
C 3430 5088 2118 4992 1088 4992 
C 1024 4992 909 4992 762 4992 
C 870 4832 890 4781 941 4576 
C 1613 4595 1613 4595 2925 4666 
L 2925 4224 
z
M 2925 3059 
L 2925 2611 
L 1530 2611 
L 1530 3059 
L 2925 3059 
z
M 3386 3059 
L 4909 3059 
L 4909 2611 
L 3386 2611 
L 3386 3059 
z
M 2925 2240 
L 2925 1792 
L 1530 1792 
L 1530 2240 
L 2925 2240 
z
M 3386 2240 
L 4909 2240 
L 4909 1792 
L 3386 1792 
L 3386 2240 
z
" transform="scale(0.015625)"/>
      <path id="HiraginoSans-W4-306a" d="M 2074 5229 
C 2054 4941 1971 4454 1862 4051 
C 1760 4045 1594 4045 1421 4045 
C 1062 4045 870 4058 646 4096 
L 646 3571 
C 678 3571 704 3571 717 3571 
C 755 3571 806 3571 870 3571 
C 1062 3565 1114 3565 1267 3565 
C 1536 3565 1562 3565 1728 3571 
C 1434 2586 922 1530 467 954 
L 986 653 
C 1018 710 1056 781 1114 877 
C 1357 1306 1414 1414 1568 1722 
C 1850 2310 2080 2925 2272 3590 
C 2707 3622 3072 3674 3315 3718 
C 3462 3744 3462 3744 3533 3750 
L 3514 4282 
C 3238 4192 2835 4122 2406 4083 
C 2483 4384 2522 4525 2566 4742 
C 2624 5018 2624 5037 2662 5152 
L 2074 5229 
z
M 5933 3488 
C 5408 3827 4954 4051 4211 4339 
L 3936 3904 
C 4627 3654 5133 3398 5670 3027 
L 5933 3488 
z
M 5939 640 
C 5901 672 5901 672 5843 717 
C 5786 774 5760 794 5664 870 
C 5280 1171 5050 1299 4576 1510 
C 4538 1792 4506 2182 4506 2451 
C 4506 2694 4525 2822 4595 3066 
L 4070 3110 
C 4026 2893 4006 2726 4006 2515 
C 4006 2304 4026 1958 4051 1645 
C 3782 1709 3622 1728 3405 1728 
C 2618 1728 2067 1312 2067 717 
C 2067 333 2304 6 2682 -122 
C 2886 -198 3142 -237 3379 -237 
C 3827 -237 4198 -96 4390 147 
C 4518 307 4602 563 4602 806 
C 4602 858 4602 890 4589 973 
C 5037 730 5434 422 5670 128 
L 5939 640 
z
M 4077 1152 
C 4083 1152 4096 966 4096 896 
C 4096 454 3853 243 3347 243 
C 2867 243 2579 429 2579 736 
C 2579 1062 2899 1274 3405 1274 
C 3648 1274 3821 1242 4077 1152 
z
" transform="scale(0.015625)"/>
      <path id="HiraginoSans-W4-308a" d="M 1875 2963 
C 1894 3187 1907 3328 1965 3731 
C 2125 4851 2144 4941 2221 5165 
L 1632 5210 
C 1632 5133 1632 5101 1619 5005 
C 1453 3827 1408 3283 1408 2637 
C 1408 2560 1421 1875 1421 1811 
C 1427 1747 1427 1709 1427 1690 
C 1427 1677 1427 1651 1421 1619 
L 1971 1632 
C 1971 1715 1971 1754 1971 1786 
C 1971 2266 2086 2746 2323 3213 
C 2675 3923 3085 4282 3539 4282 
C 4141 4282 4486 3712 4486 2714 
C 4486 1702 4141 1050 3392 634 
C 3008 422 2675 326 2061 243 
C 2208 51 2253 -26 2349 -282 
C 2816 -186 3206 -58 3520 90 
C 4518 570 5050 1459 5050 2637 
C 5050 3347 4928 3827 4646 4237 
C 4384 4614 4026 4806 3590 4806 
C 3104 4806 2682 4544 2330 4032 
C 2150 3763 2029 3482 1946 3136 
C 1914 3008 1914 3008 1901 2963 
L 1875 2963 
z
" transform="scale(0.015625)"/>
      <path id="HiraginoSans-W4-300d" d="M 1530 2816 
L 1530 -58 
L 294 -58 
L 294 -531 
L 2054 -531 
L 2054 2816 
L 1530 2816 
z
" transform="scale(0.015625)"/>
     </defs>
     <use xlink:href="#HiraginoSans-W4-a7"/>
     <use xlink:href="#HiraginoSans-W4-39" x="65.899994"/>
     <use xlink:href="#HiraginoSans-W4-2e" x="133.199982"/>
     <use xlink:href="#HiraginoSans-W4-34" x="158.199966"/>
     <use xlink:href="#HiraginoSans-W4-20" x="225.699951"/>
     <use xlink:href="#HiraginoSans-W4-76f8" x="258.999939"/>
     <use xlink:href="#HiraginoSans-W4-4e92" x="358.999924"/>
     <use xlink:href="#HiraginoSans-W4-60c5" x="458.999908"/>
     <use xlink:href="#HiraginoSans-W4-5831" x="558.999893"/>
     <use xlink:href="#HiraginoSans-W4-91cf" x="658.999878"/>
     <use xlink:href="#HiraginoSans-W4-20" x="758.999863"/>
     <use xlink:href="#HiraginoSans-W4-49" x="792.29985"/>
     <use xlink:href="#HiraginoSans-W4-5b" x="818.399841"/>
     <use xlink:href="#HiraginoSans-W4-78" x="854.699829"/>
     <use xlink:href="#HiraginoSans-W4-2c" x="910.599823"/>
     <use xlink:href="#HiraginoSans-W4-79" x="935.599808"/>
     <use xlink:href="#HiraginoSans-W4-5d" x="992.999802"/>
     <use xlink:href="#HiraginoSans-W4-20" x="1029.299789"/>
     <use xlink:href="#HiraginoSans-W4-3d" x="1062.599777"/>
     <use xlink:href="#HiraginoSans-W4-20" x="1128.999771"/>
     <use xlink:href="#HiraginoSans-W4-32" x="1162.299759"/>
     <use xlink:href="#HiraginoSans-W4-3064" x="1229.599747"/>
     <use xlink:href="#HiraginoSans-W4-306e" x="1329.599731"/>
     <use xlink:href="#HiraginoSans-W4-30a8" x="1429.599716"/>
     <use xlink:href="#HiraginoSans-W4-30f3" x="1529.599701"/>
     <use xlink:href="#HiraginoSans-W4-30c8" x="1629.599686"/>
     <use xlink:href="#HiraginoSans-W4-30ed" x="1729.59967"/>
     <use xlink:href="#HiraginoSans-W4-30d4" x="1829.599655"/>
     <use xlink:href="#HiraginoSans-W4-30fc" x="1929.59964"/>
     <use xlink:href="#HiraginoSans-W4-306e" x="2029.599625"/>
     <use xlink:href="#HiraginoSans-W4-300c" x="2129.599609"/>
     <use xlink:href="#HiraginoSans-W4-91cd" x="2229.599594"/>
     <use xlink:href="#HiraginoSans-W4-306a" x="2329.599579"/>
     <use xlink:href="#HiraginoSans-W4-308a" x="2429.599564"/>
     <use xlink:href="#HiraginoSans-W4-300d" x="2529.599548"/>
    </g>
    <!-- 全体 H[x,y] = H[x|y] + I[x,y] + H[y|x] -->
    <g transform="translate(168.110937 30.088594) scale(0.11 -0.11)">
     <defs>
      <path id="HiraginoSans-W4-5168" d="M 2899 2650 
L 2899 1741 
L 1862 1741 
C 1574 1741 1408 1747 1235 1773 
L 1235 1261 
C 1402 1286 1574 1293 1862 1293 
L 2899 1293 
L 2899 218 
L 1139 218 
C 826 218 582 230 403 256 
L 403 -288 
C 608 -256 851 -243 1133 -243 
L 5261 -243 
C 5536 -243 5786 -256 5990 -288 
L 5990 256 
C 5792 230 5562 218 5261 218 
L 3392 218 
L 3392 1293 
L 4544 1293 
C 4832 1293 5005 1286 5171 1261 
L 5171 1773 
C 5005 1747 4838 1741 4544 1741 
L 3392 1741 
L 3392 2650 
L 4397 2650 
C 4672 2650 4826 2643 5011 2618 
L 5011 3130 
C 4832 3104 4691 3098 4416 3098 
L 1933 3098 
C 1677 3098 1536 3104 1370 3130 
C 1690 3334 1971 3546 2266 3802 
C 2656 4147 2886 4410 3168 4826 
C 3539 4320 3827 4026 4333 3622 
C 4826 3238 5363 2899 5933 2624 
C 6029 2835 6112 2976 6246 3130 
C 5702 3334 5184 3622 4666 4006 
C 4147 4390 3795 4749 3450 5254 
L 2861 5254 
C 2586 4806 2246 4422 1792 4051 
C 1344 3686 755 3334 198 3110 
C 365 2938 442 2822 518 2650 
C 832 2797 992 2886 1338 3104 
L 1338 2618 
C 1510 2643 1683 2650 1958 2650 
L 2899 2650 
z
" transform="scale(0.015625)"/>
      <path id="HiraginoSans-W4-4f53" d="M 3648 774 
L 3648 179 
C 3648 -51 3635 -262 3603 -486 
L 4147 -486 
C 4122 -256 4109 -51 4109 179 
L 4109 774 
L 4672 774 
C 4896 774 5018 768 5171 749 
L 5171 1242 
C 5030 1216 4896 1210 4666 1210 
L 4109 1210 
L 4109 2406 
C 4109 2669 4102 2893 4090 3187 
C 4416 2477 4659 2074 5050 1594 
C 5331 1242 5594 979 5952 685 
C 6074 883 6163 1005 6298 1126 
C 5389 1786 4883 2406 4307 3578 
L 5440 3578 
C 5683 3578 5920 3565 6112 3539 
L 6112 4064 
C 5920 4038 5709 4026 5434 4026 
L 4109 4026 
L 4109 4698 
C 4109 4922 4128 5158 4154 5318 
L 3597 5318 
C 3629 5126 3642 4902 3642 4698 
L 3642 4026 
L 2554 4026 
C 2298 4026 2067 4038 1894 4058 
L 1894 3539 
C 2099 3565 2310 3578 2541 3578 
L 3443 3578 
C 3264 3155 3098 2848 2835 2470 
C 2445 1901 2086 1530 1542 1126 
C 1734 947 1792 883 1888 717 
C 2323 1082 2624 1408 2918 1811 
C 3238 2259 3405 2560 3667 3181 
C 3654 2899 3648 2707 3648 2394 
L 3648 1210 
L 3149 1210 
C 2918 1210 2778 1216 2637 1242 
L 2637 749 
C 2790 768 2918 774 3136 774 
L 3648 774 
z
M 1011 275 
C 1011 -58 1005 -250 973 -486 
L 1523 -486 
C 1504 -269 1491 -45 1491 262 
L 1491 3706 
C 1696 4122 1754 4250 1952 4787 
C 2022 4973 2042 5024 2118 5216 
L 1594 5370 
C 1542 5062 1485 4864 1350 4525 
C 1075 3814 698 3219 154 2624 
C 294 2419 333 2355 416 2144 
C 691 2458 832 2662 1030 3008 
C 1018 2726 1011 2547 1011 2240 
L 1011 275 
z
" transform="scale(0.015625)"/>
      <path id="HiraginoSans-W4-2b" d="M 2387 1498 
L 3930 1498 
L 3930 2022 
L 2387 2022 
L 2387 3558 
L 1856 3558 
L 1856 2022 
L 320 2022 
L 320 1498 
L 1856 1498 
L 1856 -38 
L 2387 -38 
L 2387 1498 
z
" transform="scale(0.015625)"/>
     </defs>
     <use xlink:href="#HiraginoSans-W4-5168"/>
     <use xlink:href="#HiraginoSans-W4-4f53" x="99.999985"/>
     <use xlink:href="#HiraginoSans-W4-20" x="199.999969"/>
     <use xlink:href="#HiraginoSans-W4-48" x="233.299957"/>
     <use xlink:href="#HiraginoSans-W4-5b" x="312.499939"/>
     <use xlink:href="#HiraginoSans-W4-78" x="348.799927"/>
     <use xlink:href="#HiraginoSans-W4-2c" x="404.699921"/>
     <use xlink:href="#HiraginoSans-W4-79" x="429.699905"/>
     <use xlink:href="#HiraginoSans-W4-5d" x="487.099899"/>
     <use xlink:href="#HiraginoSans-W4-20" x="523.399887"/>
     <use xlink:href="#HiraginoSans-W4-3d" x="556.699875"/>
     <use xlink:href="#HiraginoSans-W4-20" x="623.099869"/>
     <use xlink:href="#HiraginoSans-W4-48" x="656.399857"/>
     <use xlink:href="#HiraginoSans-W4-5b" x="735.599838"/>
     <use xlink:href="#HiraginoSans-W4-78" x="771.899826"/>
     <use xlink:href="#HiraginoSans-W4-7c" x="827.79982"/>
     <use xlink:href="#HiraginoSans-W4-79" x="866.699814"/>
     <use xlink:href="#HiraginoSans-W4-5d" x="924.099808"/>
     <use xlink:href="#HiraginoSans-W4-20" x="960.399796"/>
     <use xlink:href="#HiraginoSans-W4-2b" x="993.699783"/>
     <use xlink:href="#HiraginoSans-W4-20" x="1060.099777"/>
     <use xlink:href="#HiraginoSans-W4-49" x="1093.399765"/>
     <use xlink:href="#HiraginoSans-W4-5b" x="1119.499756"/>
     <use xlink:href="#HiraginoSans-W4-78" x="1155.799744"/>
     <use xlink:href="#HiraginoSans-W4-2c" x="1211.699738"/>
     <use xlink:href="#HiraginoSans-W4-79" x="1236.699722"/>
     <use xlink:href="#HiraginoSans-W4-5d" x="1294.099716"/>
     <use xlink:href="#HiraginoSans-W4-20" x="1330.399704"/>
     <use xlink:href="#HiraginoSans-W4-2b" x="1363.699692"/>
     <use xlink:href="#HiraginoSans-W4-20" x="1430.099686"/>
     <use xlink:href="#HiraginoSans-W4-48" x="1463.399673"/>
     <use xlink:href="#HiraginoSans-W4-5b" x="1542.599655"/>
     <use xlink:href="#HiraginoSans-W4-79" x="1578.899643"/>
     <use xlink:href="#HiraginoSans-W4-7c" x="1636.299637"/>
     <use xlink:href="#HiraginoSans-W4-78" x="1675.199631"/>
     <use xlink:href="#HiraginoSans-W4-5d" x="1731.099625"/>
    </g>
   </g>
  </g>
 </g>
 <defs>
  <clipPath id="p3b1c066842">
   <rect x="7.2" y="36.088594" width="516.24" height="257.0925"/>
  </clipPath>
 </defs>
</svg>
