<?xml version="1.0" encoding="utf-8" standalone="no"?>
<!DOCTYPE svg PUBLIC "-//W3C//DTD SVG 1.1//EN"
  "http://www.w3.org/Graphics/SVG/1.1/DTD/svg11.dtd">
<svg xmlns:xlink="http://www.w3.org/1999/xlink" width="602.64pt" height="249.805781pt" viewBox="0 0 602.64 249.805781" xmlns="http://www.w3.org/2000/svg" version="1.1">
 <metadata>
  <rdf:RDF xmlns:dc="http://purl.org/dc/elements/1.1/" xmlns:cc="http://creativecommons.org/ns#" xmlns:rdf="http://www.w3.org/1999/02/22-rdf-syntax-ns#">
   <cc:Work>
    <dc:type rdf:resource="http://purl.org/dc/dcmitype/StillImage"/>
    <dc:format>image/svg+xml</dc:format>
    <dc:creator>
     <cc:Agent>
      <dc:title>Matplotlib v3.8.3, https://matplotlib.org/</dc:title>
     </cc:Agent>
    </dc:creator>
   </cc:Work>
  </rdf:RDF>
 </metadata>
 <defs>
  <style type="text/css">*{stroke-linejoin: round; stroke-linecap: butt}</style>
 </defs>
 <g id="figure_1">
  <g id="patch_1">
   <path d="M 0 249.805781 
L 602.64 249.805781 
L 602.64 0 
L 0 0 
z
" style="fill: #ffffff"/>
  </g>
  <g id="axes_1">
   <g id="patch_2">
    <path d="M 149.803636 61.636737 
L 233.583273 61.636737 
L 233.583273 32.552426 
L 149.803636 32.552426 
z
" clip-path="url(#p39a7aee3f9)" style="fill: #ff7f0e; stroke: #ffffff; stroke-linejoin: miter"/>
   </g>
   <g id="patch_3">
    <path d="M 238.930909 61.636737 
L 322.710545 61.636737 
L 322.710545 32.552426 
L 238.930909 32.552426 
z
" clip-path="url(#p39a7aee3f9)" style="fill: #9ecae1; stroke: #ffffff; stroke-linejoin: miter"/>
   </g>
   <g id="patch_4">
    <path d="M 328.058182 61.636737 
L 411.837818 61.636737 
L 411.837818 32.552426 
L 328.058182 32.552426 
z
" clip-path="url(#p39a7aee3f9)" style="fill: #9ecae1; stroke: #ffffff; stroke-linejoin: miter"/>
   </g>
   <g id="patch_5">
    <path d="M 417.185455 61.636737 
L 500.965091 61.636737 
L 500.965091 32.552426 
L 417.185455 32.552426 
z
" clip-path="url(#p39a7aee3f9)" style="fill: #9ecae1; stroke: #ffffff; stroke-linejoin: miter"/>
   </g>
   <g id="patch_6">
    <path d="M 506.312727 61.636737 
L 590.092364 61.636737 
L 590.092364 32.552426 
L 506.312727 32.552426 
z
" clip-path="url(#p39a7aee3f9)" style="fill: #9ecae1; stroke: #ffffff; stroke-linejoin: miter"/>
   </g>
   <g id="patch_7">
    <path d="M 149.803636 93.952638 
L 233.583273 93.952638 
L 233.583273 64.868327 
L 149.803636 64.868327 
z
" clip-path="url(#p39a7aee3f9)" style="fill: #9ecae1; stroke: #ffffff; stroke-linejoin: miter"/>
   </g>
   <g id="patch_8">
    <path d="M 238.930909 93.952638 
L 322.710545 93.952638 
L 322.710545 64.868327 
L 238.930909 64.868327 
z
" clip-path="url(#p39a7aee3f9)" style="fill: #ff7f0e; stroke: #ffffff; stroke-linejoin: miter"/>
   </g>
   <g id="patch_9">
    <path d="M 328.058182 93.952638 
L 411.837818 93.952638 
L 411.837818 64.868327 
L 328.058182 64.868327 
z
" clip-path="url(#p39a7aee3f9)" style="fill: #9ecae1; stroke: #ffffff; stroke-linejoin: miter"/>
   </g>
   <g id="patch_10">
    <path d="M 417.185455 93.952638 
L 500.965091 93.952638 
L 500.965091 64.868327 
L 417.185455 64.868327 
z
" clip-path="url(#p39a7aee3f9)" style="fill: #9ecae1; stroke: #ffffff; stroke-linejoin: miter"/>
   </g>
   <g id="patch_11">
    <path d="M 506.312727 93.952638 
L 590.092364 93.952638 
L 590.092364 64.868327 
L 506.312727 64.868327 
z
" clip-path="url(#p39a7aee3f9)" style="fill: #9ecae1; stroke: #ffffff; stroke-linejoin: miter"/>
   </g>
   <g id="patch_12">
    <path d="M 149.803636 126.268539 
L 233.583273 126.268539 
L 233.583273 97.184228 
L 149.803636 97.184228 
z
" clip-path="url(#p39a7aee3f9)" style="fill: #9ecae1; stroke: #ffffff; stroke-linejoin: miter"/>
   </g>
   <g id="patch_13">
    <path d="M 238.930909 126.268539 
L 322.710545 126.268539 
L 322.710545 97.184228 
L 238.930909 97.184228 
z
" clip-path="url(#p39a7aee3f9)" style="fill: #9ecae1; stroke: #ffffff; stroke-linejoin: miter"/>
   </g>
   <g id="patch_14">
    <path d="M 328.058182 126.268539 
L 411.837818 126.268539 
L 411.837818 97.184228 
L 328.058182 97.184228 
z
" clip-path="url(#p39a7aee3f9)" style="fill: #ff7f0e; stroke: #ffffff; stroke-linejoin: miter"/>
   </g>
   <g id="patch_15">
    <path d="M 417.185455 126.268539 
L 500.965091 126.268539 
L 500.965091 97.184228 
L 417.185455 97.184228 
z
" clip-path="url(#p39a7aee3f9)" style="fill: #9ecae1; stroke: #ffffff; stroke-linejoin: miter"/>
   </g>
   <g id="patch_16">
    <path d="M 506.312727 126.268539 
L 590.092364 126.268539 
L 590.092364 97.184228 
L 506.312727 97.184228 
z
" clip-path="url(#p39a7aee3f9)" style="fill: #9ecae1; stroke: #ffffff; stroke-linejoin: miter"/>
   </g>
   <g id="patch_17">
    <path d="M 149.803636 158.584439 
L 233.583273 158.584439 
L 233.583273 129.500129 
L 149.803636 129.500129 
z
" clip-path="url(#p39a7aee3f9)" style="fill: #9ecae1; stroke: #ffffff; stroke-linejoin: miter"/>
   </g>
   <g id="patch_18">
    <path d="M 238.930909 158.584439 
L 322.710545 158.584439 
L 322.710545 129.500129 
L 238.930909 129.500129 
z
" clip-path="url(#p39a7aee3f9)" style="fill: #9ecae1; stroke: #ffffff; stroke-linejoin: miter"/>
   </g>
   <g id="patch_19">
    <path d="M 328.058182 158.584439 
L 411.837818 158.584439 
L 411.837818 129.500129 
L 328.058182 129.500129 
z
" clip-path="url(#p39a7aee3f9)" style="fill: #9ecae1; stroke: #ffffff; stroke-linejoin: miter"/>
   </g>
   <g id="patch_20">
    <path d="M 417.185455 158.584439 
L 500.965091 158.584439 
L 500.965091 129.500129 
L 417.185455 129.500129 
z
" clip-path="url(#p39a7aee3f9)" style="fill: #ff7f0e; stroke: #ffffff; stroke-linejoin: miter"/>
   </g>
   <g id="patch_21">
    <path d="M 506.312727 158.584439 
L 590.092364 158.584439 
L 590.092364 129.500129 
L 506.312727 129.500129 
z
" clip-path="url(#p39a7aee3f9)" style="fill: #9ecae1; stroke: #ffffff; stroke-linejoin: miter"/>
   </g>
   <g id="patch_22">
    <path d="M 149.803636 190.90034 
L 233.583273 190.90034 
L 233.583273 161.816029 
L 149.803636 161.816029 
z
" clip-path="url(#p39a7aee3f9)" style="fill: #9ecae1; stroke: #ffffff; stroke-linejoin: miter"/>
   </g>
   <g id="patch_23">
    <path d="M 238.930909 190.90034 
L 322.710545 190.90034 
L 322.710545 161.816029 
L 238.930909 161.816029 
z
" clip-path="url(#p39a7aee3f9)" style="fill: #9ecae1; stroke: #ffffff; stroke-linejoin: miter"/>
   </g>
   <g id="patch_24">
    <path d="M 328.058182 190.90034 
L 411.837818 190.90034 
L 411.837818 161.816029 
L 328.058182 161.816029 
z
" clip-path="url(#p39a7aee3f9)" style="fill: #9ecae1; stroke: #ffffff; stroke-linejoin: miter"/>
   </g>
   <g id="patch_25">
    <path d="M 417.185455 190.90034 
L 500.965091 190.90034 
L 500.965091 161.816029 
L 417.185455 161.816029 
z
" clip-path="url(#p39a7aee3f9)" style="fill: #9ecae1; stroke: #ffffff; stroke-linejoin: miter"/>
   </g>
   <g id="patch_26">
    <path d="M 506.312727 190.90034 
L 590.092364 190.90034 
L 590.092364 161.816029 
L 506.312727 161.816029 
z
" clip-path="url(#p39a7aee3f9)" style="fill: #ff7f0e; stroke: #ffffff; stroke-linejoin: miter"/>
   </g>
   <g id="patch_27">
    <path d="M 149.803636 236.142601 
L 233.583273 236.142601 
L 233.583273 216.753061 
L 149.803636 216.753061 
z
" clip-path="url(#p39a7aee3f9)" style="fill: #ff7f0e"/>
   </g>
   <g id="patch_28">
    <path d="M 363.709091 236.142601 
L 447.488727 236.142601 
L 447.488727 216.753061 
L 363.709091 216.753061 
z
" clip-path="url(#p39a7aee3f9)" style="fill: #9ecae1"/>
   </g>
   <g id="text_1">
    <!-- 1回目 -->
    <g transform="translate(106.584979 49.782785) scale(0.095 -0.095)">
     <defs>
      <path id="HiraginoSans-W4-31" d="M 1018 4371 
C 1222 4397 1389 4410 1606 4410 
L 1939 4410 
L 1939 755 
C 1939 454 1926 237 1888 0 
L 2598 0 
C 2560 250 2547 448 2547 755 
L 2547 3904 
C 2547 4256 2566 4582 2605 4966 
C 2387 4941 2278 4934 2035 4934 
L 1581 4934 
C 1325 4934 1197 4941 1018 4966 
L 1018 4371 
z
" transform="scale(0.015625)"/>
      <path id="HiraginoSans-W4-56de" d="M 2592 3654 
C 2285 3654 2112 3661 1939 3680 
C 1958 3520 1965 3386 1965 3181 
L 1965 1741 
C 1965 1542 1958 1414 1939 1248 
C 2125 1267 2240 1274 2592 1274 
L 3789 1274 
C 4077 1274 4256 1267 4442 1248 
C 4422 1402 4416 1517 4416 1741 
L 4416 3181 
C 4416 3405 4422 3546 4442 3680 
C 4262 3661 4096 3654 3789 3654 
L 2592 3654 
z
M 2438 3232 
L 3942 3232 
L 3942 1702 
L 2438 1702 
L 2438 3232 
z
M 5875 -499 
C 5850 -333 5837 -77 5837 282 
L 5837 4275 
C 5837 4602 5850 4813 5875 5056 
C 5645 5030 5434 5024 5114 5024 
L 1286 5024 
C 973 5024 762 5030 538 5056 
C 563 4806 576 4589 576 4275 
L 576 288 
C 576 -83 563 -307 538 -499 
L 1075 -499 
L 1075 -128 
L 5338 -128 
L 5338 -499 
L 5875 -499 
z
M 1075 4576 
L 5338 4576 
L 5338 320 
L 1075 320 
L 1075 4576 
z
" transform="scale(0.015625)"/>
      <path id="HiraginoSans-W4-76ee" d="M 1728 5024 
C 1434 5024 1242 5030 1037 5056 
C 1062 4851 1069 4672 1069 4410 
L 1069 237 
C 1069 -45 1056 -243 1030 -442 
L 1581 -442 
L 1581 -32 
L 4800 -32 
L 4800 -442 
L 5350 -442 
C 5325 -237 5312 -45 5312 269 
L 5312 4454 
C 5312 4685 5318 4858 5344 5056 
C 5158 5030 4973 5024 4678 5024 
L 1728 5024 
z
M 1581 3533 
L 1581 4550 
L 4800 4550 
L 4800 3533 
L 1581 3533 
z
M 1581 3066 
L 4800 3066 
L 4800 2016 
L 1581 2016 
L 1581 3066 
z
M 1581 1549 
L 4800 1549 
L 4800 442 
L 1581 442 
L 1581 1549 
z
" transform="scale(0.015625)"/>
     </defs>
     <use xlink:href="#HiraginoSans-W4-31"/>
     <use xlink:href="#HiraginoSans-W4-56de" x="67.299988"/>
     <use xlink:href="#HiraginoSans-W4-76ee" x="167.299973"/>
    </g>
   </g>
   <g id="text_2">
    <!-- 2回目 -->
    <g transform="translate(106.584979 82.098686) scale(0.095 -0.095)">
     <defs>
      <path id="HiraginoSans-W4-32" d="M 3078 0 
C 3424 0 3642 -6 3917 -32 
L 3917 589 
C 3693 557 3430 544 3091 544 
L 1114 544 
C 1280 1114 1606 1478 2451 2042 
C 3181 2528 3341 2656 3546 2912 
C 3738 3142 3846 3443 3846 3744 
C 3846 4525 3200 5030 2202 5030 
C 1613 5030 1158 4858 858 4518 
C 640 4269 531 4026 442 3565 
L 1088 3469 
C 1139 3782 1190 3936 1306 4102 
C 1491 4371 1792 4506 2208 4506 
C 2816 4506 3206 4211 3206 3744 
C 3206 3360 2995 3085 2387 2675 
C 1754 2246 1600 2138 1389 1952 
C 979 1594 710 1229 544 806 
C 448 563 429 461 365 -26 
C 576 -6 678 0 1107 0 
L 3078 0 
z
" transform="scale(0.015625)"/>
     </defs>
     <use xlink:href="#HiraginoSans-W4-32"/>
     <use xlink:href="#HiraginoSans-W4-56de" x="67.299988"/>
     <use xlink:href="#HiraginoSans-W4-76ee" x="167.299973"/>
    </g>
   </g>
   <g id="text_3">
    <!-- 3回目 -->
    <g transform="translate(106.584979 114.414586) scale(0.095 -0.095)">
     <defs>
      <path id="HiraginoSans-W4-33" d="M 282 1101 
C 397 768 474 621 621 448 
C 934 90 1434 -96 2112 -96 
C 2720 -96 3213 70 3533 384 
C 3770 614 3904 954 3904 1306 
C 3904 1677 3802 1958 3597 2182 
C 3379 2419 3130 2528 2688 2586 
C 2995 2650 3130 2701 3290 2816 
C 3578 3021 3738 3366 3738 3757 
C 3738 4538 3117 5043 2157 5043 
C 1594 5043 1146 4883 845 4576 
C 666 4390 582 4237 467 3891 
L 1107 3757 
C 1171 3981 1216 4083 1306 4192 
C 1478 4416 1741 4525 2125 4525 
C 2746 4525 3110 4224 3110 3725 
C 3110 3482 3021 3264 2867 3110 
C 2669 2918 2374 2829 1965 2829 
C 1779 2829 1613 2842 1459 2861 
L 1459 2272 
C 1651 2298 1811 2310 2003 2310 
C 2829 2310 3264 1990 3264 1376 
C 3264 794 2816 429 2106 429 
C 1779 429 1510 506 1293 666 
C 1107 800 1024 928 928 1248 
L 282 1101 
z
" transform="scale(0.015625)"/>
     </defs>
     <use xlink:href="#HiraginoSans-W4-33"/>
     <use xlink:href="#HiraginoSans-W4-56de" x="67.299988"/>
     <use xlink:href="#HiraginoSans-W4-76ee" x="167.299973"/>
    </g>
   </g>
   <g id="text_4">
    <!-- 4回目 -->
    <g transform="translate(106.565682 146.730487) scale(0.095 -0.095)">
     <defs>
      <path id="HiraginoSans-W4-34" d="M 179 1210 
C 403 1229 589 1235 954 1235 
L 2688 1235 
L 2688 710 
C 2688 410 2675 218 2630 0 
L 3309 0 
C 3270 230 3258 390 3258 704 
L 3258 1235 
L 3494 1235 
C 3763 1235 3910 1222 4154 1190 
L 4154 1798 
C 3917 1766 3750 1754 3494 1754 
L 3258 1754 
L 3258 3853 
C 3258 4358 3264 4544 3296 4934 
L 2701 4934 
C 2560 4704 2445 4550 2214 4269 
L 621 2298 
C 467 2099 326 1939 179 1773 
L 179 1210 
z
M 2688 1747 
L 858 1747 
L 2259 3514 
C 2464 3763 2592 3936 2720 4128 
C 2694 3814 2688 3622 2688 3283 
L 2688 1747 
z
" transform="scale(0.015625)"/>
     </defs>
     <use xlink:href="#HiraginoSans-W4-34"/>
     <use xlink:href="#HiraginoSans-W4-56de" x="67.499985"/>
     <use xlink:href="#HiraginoSans-W4-76ee" x="167.499969"/>
    </g>
   </g>
   <g id="text_5">
    <!-- 5回目 -->
    <g transform="translate(106.584979 179.046388) scale(0.095 -0.095)">
     <defs>
      <path id="HiraginoSans-W4-35" d="M 1331 4416 
L 2835 4416 
C 3155 4416 3366 4403 3622 4365 
L 3622 4986 
C 3360 4947 3206 4934 2829 4934 
L 1446 4934 
C 1082 4934 954 4941 762 4966 
C 774 4768 774 4762 774 4742 
C 774 4563 774 4518 749 4307 
L 608 2822 
C 589 2566 570 2445 518 2157 
L 1088 2106 
C 1146 2240 1178 2291 1261 2374 
C 1485 2605 1811 2739 2131 2739 
C 2842 2739 3264 2317 3264 1613 
C 3264 902 2803 435 2106 435 
C 1747 435 1440 563 1235 794 
C 1146 902 1101 986 1037 1171 
L 410 1005 
C 557 685 646 544 813 378 
C 1133 64 1562 -96 2099 -96 
C 3194 -96 3885 576 3885 1638 
C 3885 2605 3245 3238 2272 3238 
C 1830 3238 1472 3098 1158 2803 
C 1197 2982 1197 2982 1203 3091 
L 1331 4416 
z
" transform="scale(0.015625)"/>
     </defs>
     <use xlink:href="#HiraginoSans-W4-35"/>
     <use xlink:href="#HiraginoSans-W4-56de" x="67.299988"/>
     <use xlink:href="#HiraginoSans-W4-76ee" x="167.299973"/>
    </g>
   </g>
   <g id="text_6">
    <!-- 検証 (20%) -->
    <g transform="translate(247.843636 229.268886) scale(0.095 -0.095)">
     <defs>
      <path id="HiraginoSans-W4-691c" d="M 2989 3347 
C 3181 3360 3283 3366 3546 3366 
L 3821 3366 
L 3821 2854 
L 2995 2854 
C 2675 2854 2605 2854 2438 2874 
C 2451 2739 2458 2637 2458 2451 
L 2458 1651 
C 2458 1510 2451 1376 2438 1254 
C 2624 1274 2771 1280 3021 1280 
L 3629 1280 
C 3494 909 3315 666 3002 442 
C 2694 224 2406 96 1933 -26 
C 2074 -173 2138 -262 2227 -467 
C 3245 -90 3757 352 4026 1088 
C 4390 384 5018 -134 5920 -467 
C 6022 -230 6067 -166 6189 6 
C 5325 237 4717 666 4358 1280 
L 5094 1280 
C 5376 1280 5542 1274 5715 1254 
C 5696 1395 5696 1504 5696 1734 
L 5696 2406 
C 5696 2560 5702 2701 5715 2874 
C 5555 2861 5402 2854 5139 2854 
L 4250 2854 
C 4256 2976 4256 2989 4256 3085 
L 4256 3366 
L 4621 3366 
C 4870 3366 5011 3360 5178 3347 
L 5178 3712 
C 5472 3501 5645 3392 5984 3206 
C 6074 3411 6138 3507 6253 3654 
C 5741 3878 5389 4096 4998 4442 
C 4666 4730 4467 4954 4269 5280 
L 3750 5280 
C 3386 4621 2906 4122 2240 3712 
L 2240 4154 
C 2118 4134 2029 4128 1850 4128 
L 1619 4128 
L 1619 4710 
C 1619 5024 1626 5203 1651 5363 
L 1126 5363 
C 1152 5216 1158 5056 1158 4704 
L 1158 4128 
L 781 4128 
C 582 4128 461 4134 346 4154 
L 346 3661 
C 448 3680 595 3686 781 3686 
L 1101 3686 
C 941 2899 589 2054 192 1504 
C 320 1363 371 1280 480 1050 
C 781 1562 909 1875 1120 2618 
C 1139 2675 1165 2765 1197 2880 
C 1178 2502 1165 2195 1165 1920 
L 1165 250 
C 1165 -83 1152 -320 1126 -506 
L 1658 -506 
C 1632 -320 1619 -96 1619 250 
L 1619 2112 
C 1619 2432 1606 2861 1587 3091 
C 1773 2630 1875 2426 2118 2042 
C 2202 2214 2259 2310 2374 2445 
C 2003 2893 1798 3245 1645 3686 
L 1856 3686 
C 1971 3686 2054 3680 2176 3674 
C 2118 3642 2086 3622 2003 3578 
C 2125 3450 2195 3354 2298 3187 
C 2573 3354 2746 3482 2989 3680 
L 2989 3347 
z
M 3546 3782 
C 3354 3782 3251 3782 3110 3795 
C 3494 4134 3725 4410 4026 4883 
C 4397 4371 4602 4160 5069 3795 
C 4934 3782 4826 3782 4621 3782 
L 3546 3782 
z
M 3808 2451 
C 3789 2093 3770 1920 3731 1677 
L 2899 1677 
L 2899 2451 
L 3808 2451 
z
M 5254 2451 
L 5254 1677 
L 4173 1677 
C 4218 1939 4224 2074 4243 2451 
L 5254 2451 
z
" transform="scale(0.015625)"/>
      <path id="HiraginoSans-W4-8a3c" d="M 4237 262 
L 3501 262 
L 3501 2835 
C 3501 3142 3514 3315 3539 3501 
L 2995 3501 
C 3027 3290 3034 3123 3034 2835 
L 3034 262 
C 2784 262 2688 269 2554 288 
L 2554 -224 
C 2714 -205 2912 -192 3219 -192 
L 5498 -192 
C 5773 -192 5978 -205 6170 -230 
L 6170 301 
C 5978 275 5773 262 5504 262 
L 4710 262 
L 4710 2381 
L 5338 2381 
C 5613 2381 5792 2368 5965 2342 
L 5965 2867 
C 5792 2842 5619 2829 5338 2829 
L 4710 2829 
L 4710 4582 
L 5389 4582 
C 5664 4582 5869 4570 6061 4544 
L 6061 5069 
C 5882 5043 5670 5030 5382 5030 
L 3411 5030 
C 3123 5030 2912 5043 2733 5069 
L 2733 4544 
C 2925 4570 3136 4582 3411 4582 
L 4237 4582 
L 4237 262 
z
M 506 4678 
C 666 4698 794 4704 1005 4704 
L 1914 4704 
C 2118 4704 2259 4698 2413 4678 
L 2413 5146 
C 2246 5120 2144 5114 1914 5114 
L 1005 5114 
C 768 5114 672 5120 506 5146 
L 506 4678 
z
M 288 3770 
C 448 3789 576 3795 800 3795 
L 2106 3795 
C 2349 3795 2432 3789 2579 3770 
L 2579 4250 
C 2438 4230 2323 4224 2067 4224 
L 800 4224 
C 557 4224 435 4230 288 4256 
L 288 3770 
z
M 531 2874 
C 672 2893 768 2899 979 2899 
L 1939 2899 
C 2144 2899 2227 2893 2381 2874 
L 2381 3328 
C 2266 3309 2163 3302 1939 3302 
L 979 3302 
C 755 3302 659 3309 531 3328 
L 531 2874 
z
M 531 1984 
C 666 2003 768 2010 979 2010 
L 1933 2010 
C 2144 2010 2234 2003 2381 1984 
L 2381 2438 
C 2259 2419 2157 2413 1939 2413 
L 979 2413 
C 768 2413 646 2419 531 2438 
L 531 1984 
z
M 966 -493 
L 966 -160 
L 1907 -160 
L 1907 -410 
L 2355 -410 
C 2342 -282 2336 -147 2336 109 
L 2336 1043 
C 2336 1274 2342 1395 2355 1536 
C 2240 1517 2170 1517 1901 1517 
L 1005 1517 
C 819 1517 672 1523 499 1542 
C 525 1376 531 1222 531 1011 
L 531 128 
C 531 -122 518 -301 493 -493 
L 966 -493 
z
M 966 1120 
L 1907 1120 
L 1907 237 
L 966 237 
L 966 1120 
z
" transform="scale(0.015625)"/>
      <path id="HiraginoSans-W4-20" transform="scale(0.015625)"/>
      <path id="HiraginoSans-W4-28" d="M 2195 -749 
C 1830 -198 1683 90 1542 538 
C 1402 986 1331 1472 1331 1978 
C 1331 2483 1402 2963 1542 3411 
C 1683 3859 1830 4147 2195 4698 
L 1715 5018 
C 1350 4461 1197 4173 1037 3712 
C 838 3155 742 2579 742 1978 
C 742 1376 838 794 1037 243 
C 1197 -218 1350 -512 1715 -1062 
L 2195 -749 
z
" transform="scale(0.015625)"/>
      <path id="HiraginoSans-W4-30" d="M 2144 -90 
C 2758 -90 3232 141 3565 602 
C 3846 998 4019 1696 4019 2464 
C 4019 3002 3936 3501 3770 3949 
C 3693 4160 3558 4371 3379 4550 
C 3078 4858 2650 5024 2157 5024 
C 1498 5024 986 4742 666 4205 
C 435 3834 288 3142 288 2458 
C 288 1939 371 1434 538 986 
C 614 768 749 563 928 384 
C 1242 70 1651 -90 2144 -90 
z
M 2144 4499 
C 2592 4499 2918 4307 3123 3923 
C 3283 3629 3398 3014 3398 2470 
C 3398 2022 3341 1619 3213 1235 
C 3155 1043 3046 870 2912 730 
C 2726 538 2458 435 2150 435 
C 1734 435 1414 614 1197 973 
C 1024 1261 902 1875 902 2451 
C 902 2906 966 3328 1088 3699 
C 1139 3866 1235 4026 1370 4173 
C 1568 4397 1818 4499 2144 4499 
z
" transform="scale(0.015625)"/>
      <path id="HiraginoSans-W4-25" d="M 1408 2259 
C 1722 2259 1997 2362 2195 2560 
C 2432 2790 2554 3162 2554 3648 
C 2554 4518 2131 5024 1408 5024 
C 1094 5024 813 4915 621 4723 
C 384 4480 262 4115 262 3629 
C 262 3162 390 2784 621 2560 
C 813 2362 1094 2259 1408 2259 
z
M 1408 4595 
C 1818 4595 2054 4250 2054 3654 
C 2054 3027 1824 2682 1408 2682 
C 992 2682 762 3027 762 3654 
C 762 4250 998 4595 1408 4595 
z
M 762 96 
L 1043 -128 
L 4966 4851 
L 4678 5075 
L 762 96 
z
M 4314 -83 
C 4627 -83 4902 19 5101 218 
C 5338 448 5459 819 5459 1306 
C 5459 2176 5043 2682 4314 2682 
C 3590 2682 3168 2170 3168 1306 
C 3168 819 3290 442 3526 218 
C 3725 19 4000 -83 4314 -83 
z
M 4314 2253 
C 4723 2253 4960 1907 4960 1312 
C 4960 685 4730 339 4314 339 
C 3898 339 3667 685 3667 1312 
C 3667 1907 3904 2253 4314 2253 
z
" transform="scale(0.015625)"/>
      <path id="HiraginoSans-W4-29" d="M 653 -1062 
C 1018 -512 1171 -218 1331 243 
C 1530 794 1626 1370 1626 1978 
C 1626 2579 1530 3155 1331 3712 
C 1171 4173 1018 4461 653 5018 
L 173 4698 
C 538 4147 685 3859 826 3411 
C 966 2963 1037 2490 1037 1978 
C 1037 1466 966 986 826 538 
C 685 90 538 -198 173 -749 
L 653 -1062 
z
" transform="scale(0.015625)"/>
     </defs>
     <use xlink:href="#HiraginoSans-W4-691c"/>
     <use xlink:href="#HiraginoSans-W4-8a3c" x="99.999985"/>
     <use xlink:href="#HiraginoSans-W4-20" x="199.999969"/>
     <use xlink:href="#HiraginoSans-W4-28" x="233.299957"/>
     <use xlink:href="#HiraginoSans-W4-32" x="270.299942"/>
     <use xlink:href="#HiraginoSans-W4-30" x="337.59993"/>
     <use xlink:href="#HiraginoSans-W4-25" x="404.899918"/>
     <use xlink:href="#HiraginoSans-W4-29" x="494.399902"/>
    </g>
   </g>
   <g id="text_7">
    <!-- 学習 (80%) -->
    <g transform="translate(461.749091 229.240682) scale(0.095 -0.095)">
     <defs>
      <path id="HiraginoSans-W4-5b66" d="M 1229 4307 
C 864 4307 749 4314 486 4333 
C 506 4179 512 4045 512 3808 
L 512 3296 
C 512 3130 499 2982 480 2835 
L 986 2835 
L 986 3891 
L 5395 3891 
L 5395 2835 
L 5901 2835 
C 5882 2989 5869 3136 5869 3296 
L 5869 3808 
C 5869 4045 5875 4179 5894 4333 
C 5658 4314 5530 4307 5139 4307 
L 4704 4307 
C 4896 4538 5056 4768 5280 5139 
L 4794 5312 
C 4614 4902 4461 4646 4173 4307 
L 3520 4307 
C 3386 4678 3283 4890 3046 5325 
L 2573 5197 
C 2778 4883 2912 4602 3014 4307 
L 2157 4307 
C 1926 4710 1792 4915 1523 5242 
L 1069 5101 
C 1350 4774 1466 4608 1632 4307 
L 1229 4307 
z
M 3462 1338 
L 5299 1338 
C 5600 1338 5837 1325 6010 1299 
L 6010 1818 
C 5811 1792 5600 1779 5299 1779 
L 3462 1779 
L 3462 1926 
C 4038 2227 4429 2490 4877 2861 
C 5011 2976 5011 2976 5101 3046 
L 4826 3341 
C 4710 3322 4582 3315 4346 3315 
L 2093 3315 
C 1856 3315 1638 3328 1466 3347 
L 1466 2861 
C 1638 2880 1856 2893 2080 2893 
L 4262 2893 
C 3878 2598 3616 2432 3219 2240 
L 2950 2240 
C 2963 2112 2970 1997 2970 1869 
L 2970 1779 
L 1101 1779 
C 819 1779 602 1792 403 1818 
L 403 1299 
C 595 1325 806 1338 1101 1338 
L 2970 1338 
L 2970 147 
C 2970 19 2931 0 2643 0 
C 2400 0 2157 19 1811 64 
C 1888 -102 1920 -192 1965 -422 
C 2189 -442 2509 -454 2675 -454 
C 3334 -454 3462 -371 3462 58 
L 3462 1338 
z
" transform="scale(0.015625)"/>
      <path id="HiraginoSans-W4-7fd2" d="M 3277 2214 
C 3379 2374 3424 2451 3539 2656 
L 3034 2752 
C 2989 2618 2874 2381 2771 2214 
L 1907 2214 
C 1581 2214 1408 2221 1203 2240 
C 1222 2016 1229 1894 1229 1523 
L 1229 186 
C 1229 -141 1216 -320 1190 -499 
L 1709 -499 
L 1709 -218 
L 4774 -218 
L 4774 -499 
L 5293 -499 
C 5261 -333 5254 -154 5254 186 
L 5254 1530 
C 5254 1914 5261 2042 5280 2240 
C 5075 2221 4915 2214 4582 2214 
L 3277 2214 
z
M 1709 1805 
L 4774 1805 
L 4774 1242 
L 1709 1242 
L 1709 1805 
z
M 1709 832 
L 4774 832 
L 4774 192 
L 1709 192 
L 1709 832 
z
M 2605 4730 
L 2605 3162 
C 2605 3014 2573 2989 2381 2989 
C 2170 2989 1952 3008 1734 3046 
C 1792 2899 1824 2771 1843 2605 
C 2016 2592 2227 2579 2374 2579 
C 2650 2579 2790 2605 2906 2675 
C 3021 2752 3059 2861 3059 3110 
L 3059 4550 
C 3059 4870 3066 5024 3085 5178 
C 2944 5158 2778 5152 2458 5152 
L 1126 5152 
C 851 5152 640 5165 461 5190 
L 461 4691 
C 653 4723 774 4730 1062 4730 
L 2605 4730 
z
M 1952 4045 
C 1613 4307 1434 4416 1050 4621 
L 742 4339 
C 1139 4128 1331 4000 1632 3731 
L 1952 4045 
z
M 5376 4730 
L 5376 3155 
C 5376 2989 5363 2982 5114 2982 
C 4941 2982 4723 3002 4467 3046 
C 4531 2880 4557 2758 4563 2586 
C 4819 2566 5011 2560 5190 2560 
C 5459 2560 5600 2586 5690 2650 
C 5811 2733 5837 2810 5837 3098 
L 5837 4544 
C 5837 4845 5843 5024 5862 5178 
C 5754 5158 5574 5152 5261 5152 
L 3942 5152 
C 3654 5152 3450 5165 3270 5190 
L 3270 4691 
C 3450 4723 3597 4730 3872 4730 
L 5376 4730 
z
M 4672 4032 
C 4307 4294 4128 4410 3731 4614 
L 3437 4326 
C 3808 4134 4019 4000 4365 3718 
L 4672 4032 
z
M 2304 3898 
C 1542 3469 890 3187 448 3098 
L 621 2637 
C 710 2682 755 2701 870 2752 
C 1549 3046 1818 3181 2336 3475 
L 2304 3898 
z
M 5082 3891 
C 4358 3507 3757 3277 3315 3213 
L 3482 2739 
C 3578 2790 3629 2810 3763 2867 
C 4294 3066 4672 3232 5107 3462 
L 5082 3891 
z
" transform="scale(0.015625)"/>
      <path id="HiraginoSans-W4-38" d="M 1446 2586 
C 1203 2547 1056 2490 851 2355 
C 480 2106 294 1754 294 1299 
C 294 397 966 -102 2163 -102 
C 3347 -102 4006 397 4006 1299 
C 4006 1728 3853 2061 3539 2304 
C 3322 2470 3136 2547 2867 2586 
C 3437 2714 3789 3162 3789 3757 
C 3789 4550 3162 5043 2150 5043 
C 1146 5043 512 4544 512 3750 
C 512 3162 877 2701 1446 2586 
z
M 2150 4538 
C 2784 4538 3187 4211 3187 3699 
C 3187 3155 2797 2829 2157 2829 
C 1510 2829 1114 3162 1114 3699 
C 1114 4211 1523 4538 2150 4538 
z
M 2157 2304 
C 2912 2304 3373 1939 3373 1344 
C 3373 749 2925 410 2144 410 
C 1376 410 928 749 928 1338 
C 928 1939 1389 2304 2157 2304 
z
" transform="scale(0.015625)"/>
     </defs>
     <use xlink:href="#HiraginoSans-W4-5b66"/>
     <use xlink:href="#HiraginoSans-W4-7fd2" x="99.999985"/>
     <use xlink:href="#HiraginoSans-W4-20" x="199.999969"/>
     <use xlink:href="#HiraginoSans-W4-28" x="233.299957"/>
     <use xlink:href="#HiraginoSans-W4-38" x="270.299942"/>
     <use xlink:href="#HiraginoSans-W4-30" x="337.59993"/>
     <use xlink:href="#HiraginoSans-W4-25" x="404.899918"/>
     <use xlink:href="#HiraginoSans-W4-29" x="494.399902"/>
    </g>
   </g>
   <g id="text_8">
    <!-- §6.1 5-fold 交差検証: 毎回ちがうブロックを検証に使い、5回ぶんの誤差を平均する -->
    <g transform="translate(91.215703 16.857656) scale(0.11 -0.11)">
     <defs>
      <path id="HiraginoSans-W4-a7" d="M 557 -147 
C 627 -480 685 -634 819 -819 
C 1082 -1190 1536 -1395 2080 -1395 
C 2957 -1395 3552 -902 3552 -186 
C 3552 45 3488 250 3373 416 
C 3296 525 3226 589 3053 704 
C 3277 800 3373 858 3488 966 
C 3674 1152 3770 1389 3770 1677 
C 3770 2074 3597 2387 3258 2598 
C 3066 2720 2893 2803 2189 3117 
C 1670 3347 1517 3437 1389 3571 
C 1306 3667 1254 3802 1254 3936 
C 1254 4301 1626 4570 2118 4570 
C 2432 4570 2682 4467 2822 4282 
C 2918 4160 2963 4032 3008 3789 
L 3565 3898 
C 3501 4224 3424 4397 3270 4582 
C 3027 4870 2630 5024 2125 5024 
C 1293 5024 710 4563 710 3898 
C 710 3686 774 3482 890 3334 
C 954 3245 1018 3187 1178 3072 
C 672 2822 448 2509 448 2061 
C 448 1779 550 1530 755 1338 
C 928 1171 1126 1062 1715 800 
C 2387 506 2490 454 2675 339 
C 2899 198 2995 32 2995 -198 
C 2995 -621 2630 -915 2106 -915 
C 1754 -915 1453 -768 1299 -518 
C 1222 -397 1184 -275 1152 -38 
L 557 -147 
z
M 2611 960 
C 1997 1235 1664 1389 1491 1478 
C 1139 1670 998 1850 998 2125 
C 998 2426 1158 2611 1594 2822 
C 1914 2669 1933 2656 2112 2573 
C 2650 2317 2816 2234 2950 2138 
C 3155 1990 3238 1850 3238 1638 
C 3238 1338 3066 1152 2611 960 
z
" transform="scale(0.015625)"/>
      <path id="HiraginoSans-W4-36" d="M 3846 3994 
C 3706 4301 3616 4442 3462 4602 
C 3187 4877 2784 5024 2304 5024 
C 1683 5024 1222 4794 864 4307 
C 557 3891 371 3162 371 2355 
C 371 1446 614 704 1043 320 
C 1331 58 1773 -90 2253 -90 
C 3277 -90 3968 589 3968 1587 
C 3968 2586 3334 3213 2323 3213 
C 1894 3213 1568 3104 1274 2854 
C 1133 2739 1062 2656 941 2458 
C 979 3085 1043 3392 1210 3763 
C 1434 4262 1798 4518 2285 4518 
C 2765 4518 3040 4314 3238 3821 
L 3846 3994 
z
M 2266 2714 
C 2950 2714 3366 2285 3366 1574 
C 3366 1325 3309 1088 3206 922 
C 3008 614 2643 422 2234 422 
C 1568 422 1069 915 1069 1574 
C 1069 2234 1574 2714 2266 2714 
z
" transform="scale(0.015625)"/>
      <path id="HiraginoSans-W4-2e" d="M 442 723 
L 442 0 
L 1165 0 
L 1165 723 
L 442 723 
z
" transform="scale(0.015625)"/>
      <path id="HiraginoSans-W4-2d" d="M 192 1581 
C 384 1606 525 1613 781 1613 
L 1606 1613 
C 1875 1613 2010 1606 2202 1581 
L 2202 2202 
C 2022 2176 1882 2170 1606 2170 
L 781 2170 
C 512 2170 371 2176 192 2202 
L 192 1581 
z
" transform="scale(0.015625)"/>
      <path id="HiraginoSans-W4-66" d="M 922 3034 
L 922 755 
C 922 467 909 237 877 0 
L 1549 0 
C 1517 224 1504 429 1504 755 
L 1504 3034 
L 1818 3034 
C 2131 3034 2291 3021 2509 2995 
L 2509 3558 
C 2266 3533 2080 3520 1818 3520 
L 1504 3520 
L 1504 3846 
C 1504 4198 1542 4333 1670 4429 
C 1760 4493 1882 4518 2048 4518 
C 2227 4518 2394 4474 2566 4378 
L 2714 4870 
C 2470 4960 2259 4998 2010 4998 
C 1626 4998 1318 4890 1152 4691 
C 986 4506 922 4282 922 3885 
L 922 3520 
L 659 3520 
C 416 3520 243 3533 70 3558 
L 70 2995 
C 269 3021 435 3034 659 3034 
L 922 3034 
z
" transform="scale(0.015625)"/>
      <path id="HiraginoSans-W4-6f" d="M 2054 -90 
C 3110 -90 3802 640 3802 1766 
C 3802 2893 3117 3610 2042 3610 
C 966 3610 282 2886 282 1760 
C 282 627 966 -90 2054 -90 
z
M 2054 3130 
C 2771 3130 3213 2605 3213 1754 
C 3213 909 2771 397 2042 397 
C 1318 397 870 922 870 1766 
C 870 2611 1325 3130 2054 3130 
z
" transform="scale(0.015625)"/>
      <path id="HiraginoSans-W4-6c" d="M 442 4934 
C 474 4704 486 4518 486 4179 
L 486 755 
C 486 429 474 250 442 0 
L 1120 0 
C 1088 262 1075 448 1075 755 
L 1075 4179 
C 1075 4512 1088 4698 1120 4934 
L 442 4934 
z
" transform="scale(0.015625)"/>
      <path id="HiraginoSans-W4-64" d="M 3187 0 
L 3802 0 
C 3770 250 3757 442 3757 774 
L 3757 4173 
C 3757 4467 3770 4666 3802 4934 
L 3142 4934 
C 3174 4691 3187 4486 3187 4173 
L 3187 3398 
C 3187 3296 3187 3194 3194 3149 
C 3200 3040 3200 3040 3206 2970 
C 2918 3379 2470 3597 1901 3597 
C 909 3597 282 2886 282 1766 
C 282 1171 461 672 794 339 
C 1069 70 1446 -64 1914 -64 
C 2483 -64 2880 128 3206 563 
C 3200 480 3187 365 3187 288 
L 3187 0 
z
M 1971 3098 
C 2310 3098 2618 2976 2842 2752 
C 3059 2541 3181 2189 3181 1786 
C 3181 966 2707 429 1978 429 
C 1709 429 1459 512 1274 672 
C 1024 890 883 1280 883 1786 
C 883 2598 1293 3098 1971 3098 
z
" transform="scale(0.015625)"/>
      <path id="HiraginoSans-W4-4ea4" d="M 4000 2829 
C 3866 2432 3578 1984 3206 1568 
C 2822 1978 2579 2349 2387 2822 
L 1939 2573 
C 2157 2195 2266 2003 2266 2003 
C 2445 1715 2598 1510 2861 1235 
C 2208 666 1389 256 384 -6 
C 531 -192 589 -294 653 -486 
C 1715 -147 2509 282 3200 896 
C 3898 269 4653 -128 5830 -474 
C 5907 -243 5946 -173 6093 32 
C 5414 198 4954 365 4448 634 
C 4109 813 3802 1024 3546 1242 
C 3846 1568 4070 1888 4467 2560 
L 4000 2829 
z
M 2906 4557 
L 1165 4557 
C 832 4557 614 4570 422 4602 
L 422 4064 
C 608 4090 800 4102 1165 4102 
L 5248 4102 
C 5587 4102 5850 4090 5997 4064 
L 5997 4602 
C 5811 4570 5587 4557 5248 4557 
L 3405 4557 
L 3405 4826 
C 3405 5050 3418 5222 3450 5344 
L 2867 5344 
C 2893 5184 2906 5018 2906 4826 
L 2906 4557 
z
M 2086 3917 
C 1843 3520 1664 3290 1363 3014 
C 1069 2739 813 2554 435 2342 
C 602 2208 691 2112 794 1952 
C 1152 2195 1370 2368 1658 2643 
C 2010 2963 2202 3206 2515 3680 
L 2086 3917 
z
M 3814 3674 
C 4134 3245 4320 3034 4627 2765 
C 4954 2477 5197 2304 5683 2016 
C 5779 2195 5869 2317 6003 2451 
C 5523 2694 5280 2848 4979 3091 
C 4666 3347 4493 3533 4211 3930 
L 3814 3674 
z
" transform="scale(0.015625)"/>
      <path id="HiraginoSans-W4-5dee" d="M 2931 4154 
L 2931 3622 
L 1517 3622 
C 1254 3622 1126 3629 954 3654 
L 954 3187 
C 1126 3213 1267 3219 1517 3219 
L 2931 3219 
L 2931 2669 
L 1050 2669 
C 749 2669 576 2675 397 2701 
L 397 2221 
C 595 2246 787 2259 1050 2259 
L 1773 2259 
C 1638 1754 1472 1370 1254 1056 
C 954 627 685 358 237 45 
C 403 -109 461 -186 570 -378 
C 1062 32 1350 352 1658 832 
C 1933 1254 2093 1638 2278 2259 
L 5382 2259 
C 5664 2259 5862 2246 6035 2221 
L 6035 2701 
C 5869 2675 5696 2669 5382 2669 
L 3392 2669 
L 3392 3219 
L 4941 3219 
C 5190 3219 5325 3213 5498 3187 
L 5498 3654 
C 5325 3629 5197 3622 4941 3622 
L 3392 3622 
L 3392 4154 
L 5133 4154 
C 5408 4154 5606 4141 5786 4115 
L 5786 4608 
C 5606 4582 5421 4570 5133 4570 
L 4211 4570 
C 4390 4768 4538 4960 4723 5254 
L 4224 5402 
C 4045 5030 3942 4864 3693 4570 
L 2701 4570 
C 2522 4890 2342 5146 2125 5395 
L 1658 5235 
C 1888 5005 2022 4826 2176 4570 
L 1299 4570 
C 1030 4570 826 4582 653 4608 
L 653 4115 
C 851 4141 1030 4154 1299 4154 
L 2931 4154 
z
M 3437 1203 
L 3437 160 
L 2048 160 
C 1779 160 1626 166 1440 198 
L 1440 -301 
C 1638 -275 1837 -262 2125 -262 
L 5312 -262 
C 5594 -262 5805 -275 5990 -301 
L 5990 198 
C 5798 173 5613 160 5331 160 
L 3923 160 
L 3923 1203 
L 5005 1203 
C 5248 1203 5427 1197 5581 1171 
L 5581 1651 
C 5414 1626 5274 1619 5005 1619 
L 2650 1619 
C 2400 1619 2272 1626 2118 1645 
L 2118 1178 
C 2266 1197 2419 1203 2650 1203 
L 3437 1203 
z
" transform="scale(0.015625)"/>
      <path id="HiraginoSans-W4-3a" d="M 1165 3520 
L 442 3520 
L 442 2797 
L 1165 2797 
L 1165 3520 
z
M 1165 0 
L 1165 723 
L 442 723 
L 442 0 
L 1165 0 
z
" transform="scale(0.015625)"/>
      <path id="HiraginoSans-W4-6bce" d="M 4467 397 
C 4416 166 4403 134 4365 83 
C 4314 13 4237 -13 4096 -13 
C 3904 -13 3699 6 3366 58 
C 3424 -128 3450 -256 3462 -448 
C 3757 -474 3910 -480 4070 -480 
C 4429 -480 4589 -435 4710 -307 
C 4819 -192 4870 -38 4960 397 
L 5197 397 
C 5485 397 5626 390 5792 365 
L 5792 864 
C 5651 838 5498 832 5210 832 
L 5030 832 
C 5094 1242 5107 1363 5152 1882 
L 5491 1882 
C 5779 1882 5920 1875 6099 1850 
L 6099 2355 
C 5946 2330 5786 2323 5498 2323 
L 5184 2323 
C 5203 2624 5210 2720 5216 2861 
C 5261 3622 5261 3622 5280 3776 
C 5126 3757 4966 3750 4736 3750 
L 1926 3750 
C 1606 3757 1606 3757 1504 3770 
C 1485 3770 1466 3770 1434 3776 
C 1440 3706 1440 3680 1440 3622 
C 1440 3315 1395 2861 1312 2323 
L 954 2323 
C 627 2323 467 2330 301 2362 
L 301 1850 
C 448 1875 614 1882 922 1882 
L 1242 1882 
C 1114 1171 973 666 742 51 
L 1261 0 
C 1325 192 1344 256 1382 397 
L 4467 397 
z
M 3418 2323 
C 3456 2669 3456 2669 3514 3315 
L 4755 3315 
C 4730 2707 4730 2656 4704 2323 
L 3418 2323 
z
M 4672 1882 
C 4627 1318 4614 1222 4550 832 
L 3187 832 
C 3290 1382 3290 1382 3360 1882 
L 4672 1882 
z
M 1504 832 
C 1613 1286 1638 1414 1722 1882 
L 2893 1882 
C 2829 1446 2829 1446 2707 832 
L 1504 832 
z
M 1792 2323 
C 1843 2669 1862 2835 1914 3315 
L 3053 3315 
C 3002 2688 3002 2688 2950 2323 
L 1792 2323 
z
M 5094 4294 
C 5434 4294 5638 4282 5894 4256 
L 5894 4787 
C 5677 4755 5453 4742 5094 4742 
L 1952 4742 
C 2010 4858 2035 4909 2112 5062 
C 2163 5171 2170 5184 2259 5338 
L 1722 5453 
C 1702 5350 1645 5216 1549 5005 
C 1242 4371 851 3891 275 3462 
C 410 3341 493 3238 602 3053 
C 1056 3443 1395 3834 1690 4294 
L 5094 4294 
z
" transform="scale(0.015625)"/>
      <path id="HiraginoSans-W4-3061" d="M 730 3674 
C 749 3674 768 3674 781 3674 
C 819 3674 883 3674 966 3667 
C 1318 3642 1670 3629 2003 3622 
C 1901 3270 1683 2682 1485 2214 
C 1370 1939 1274 1754 1152 1562 
L 1702 1350 
C 1824 1517 1965 1619 2214 1747 
C 2643 1952 3181 2080 3667 2080 
C 4410 2080 4851 1811 4851 1344 
C 4851 768 4205 384 3219 384 
C 2656 384 2125 486 1606 704 
C 1638 467 1645 352 1645 230 
C 1645 192 1645 173 1645 122 
C 2138 -38 2675 -122 3245 -122 
C 4563 -122 5427 461 5427 1350 
C 5427 2080 4774 2560 3770 2560 
C 3046 2560 2374 2374 1939 2054 
L 1933 2061 
C 2144 2445 2330 2912 2541 3622 
C 3264 3642 3987 3693 4506 3750 
C 5062 3821 5062 3821 5197 3827 
L 5165 4384 
C 4749 4243 3885 4154 2669 4109 
C 2733 4365 2739 4378 2829 4768 
C 2899 5069 2899 5069 2931 5165 
L 2323 5222 
C 2310 4941 2253 4608 2125 4102 
C 1427 4102 1043 4134 742 4205 
L 730 3674 
z
" transform="scale(0.015625)"/>
      <path id="HiraginoSans-W4-304c" d="M 531 3002 
C 813 3072 1082 3123 1773 3226 
C 1568 2406 1389 1888 1094 1254 
C 877 781 621 326 429 83 
L 954 -218 
L 1370 589 
C 1792 1459 2067 2234 2310 3270 
C 2496 3290 2611 3296 2746 3296 
C 3315 3296 3494 3091 3494 2438 
C 3494 1722 3398 1075 3232 685 
C 3155 499 3034 403 2880 403 
C 2656 403 2291 512 1939 685 
C 1965 531 1971 448 1971 333 
C 1971 256 1965 218 1958 109 
C 2374 -58 2656 -122 2925 -122 
C 3232 -122 3418 -45 3578 173 
C 3853 538 4026 1395 4026 2413 
C 4026 2957 3936 3251 3718 3475 
C 3514 3674 3232 3757 2797 3757 
C 2656 3757 2560 3757 2406 3744 
C 2438 3891 2509 4301 2541 4467 
C 2598 4826 2618 4934 2656 5062 
L 2054 5133 
L 2054 5043 
C 2054 4781 1978 4224 1875 3699 
C 1338 3616 698 3546 467 3546 
L 531 3002 
z
M 4262 3898 
C 4864 3270 5312 2451 5549 1530 
L 6048 1805 
C 5760 2726 5363 3424 4717 4134 
L 4262 3898 
z
M 5357 5357 
C 5638 5024 5830 4736 6016 4365 
L 6387 4576 
C 6157 4998 6016 5197 5715 5549 
L 5357 5357 
z
M 4614 5011 
C 4877 4717 5082 4397 5280 4000 
L 5658 4211 
C 5434 4627 5286 4845 4986 5203 
L 4614 5011 
z
" transform="scale(0.015625)"/>
      <path id="HiraginoSans-W4-3046" d="M 1722 4570 
C 2598 4333 3418 4211 4499 4154 
L 4582 4704 
C 3891 4710 3424 4755 2810 4864 
C 2413 4934 2208 4986 1907 5094 
L 1722 4570 
z
M 1088 2477 
C 1619 2688 2874 2906 3603 2906 
C 4314 2906 4704 2618 4704 2093 
C 4704 1587 4397 1133 3853 819 
C 3334 525 2701 352 2010 307 
C 2138 109 2176 13 2253 -250 
C 3213 -83 3674 64 4160 346 
C 4877 755 5293 1414 5293 2125 
C 5293 2573 5088 2950 4723 3174 
C 4467 3334 4070 3424 3603 3424 
C 3078 3424 2522 3360 1619 3194 
C 1101 3098 1101 3098 947 3085 
L 1088 2477 
z
" transform="scale(0.015625)"/>
      <path id="HiraginoSans-W4-30d6" d="M 1562 4378 
C 1165 4378 1024 4390 768 4422 
L 768 3814 
C 992 3846 1178 3853 1549 3853 
L 4710 3853 
C 4358 2477 3744 1568 2714 883 
C 2234 563 1856 384 1280 211 
C 1485 6 1542 -77 1664 -326 
C 2541 26 3098 365 3686 902 
C 4454 1613 4928 2438 5261 3597 
C 5338 3872 5344 3891 5389 3974 
L 5178 4256 
L 5459 4410 
C 5235 4826 5088 5043 4787 5402 
L 4416 5210 
C 4640 4960 4819 4691 4986 4378 
L 1562 4378 
z
M 5242 5427 
C 5523 5094 5715 4806 5901 4435 
L 6272 4646 
C 6042 5069 5901 5267 5600 5619 
L 5242 5427 
z
" transform="scale(0.015625)"/>
      <path id="HiraginoSans-W4-30ed" d="M 4864 480 
L 4864 32 
L 5453 32 
C 5434 179 5427 371 5427 666 
L 5427 3994 
C 5427 4282 5434 4410 5453 4576 
C 5261 4557 5139 4550 4819 4550 
L 1587 4550 
C 1293 4550 1146 4557 947 4570 
C 966 4403 973 4282 973 3994 
L 973 659 
C 973 378 966 179 947 32 
L 1536 32 
L 1536 480 
L 4864 480 
z
M 4864 986 
L 1536 986 
L 1536 4045 
L 4864 4045 
L 4864 986 
z
" transform="scale(0.015625)"/>
      <path id="HiraginoSans-W4-30c3" d="M 1120 3392 
C 1395 2925 1562 2509 1715 1933 
L 2234 2106 
C 1984 2810 1862 3098 1600 3552 
L 1120 3392 
z
M 2451 3661 
C 2726 3174 2918 2701 3040 2234 
L 3546 2406 
C 3379 2925 3264 3181 2925 3808 
L 2451 3661 
z
M 4666 3686 
C 4666 3443 4582 3046 4435 2630 
C 4019 1434 3277 672 2016 141 
C 2202 -32 2266 -102 2381 -294 
C 3206 115 3776 550 4224 1133 
C 4653 1696 4922 2317 5146 3270 
C 5178 3405 5190 3450 5229 3565 
L 4666 3686 
z
" transform="scale(0.015625)"/>
      <path id="HiraginoSans-W4-30af" d="M 2669 5229 
C 2637 5005 2522 4730 2285 4320 
C 1830 3520 1357 2995 666 2534 
C 890 2400 960 2336 1101 2144 
C 1709 2611 2208 3155 2618 3795 
L 4710 3827 
C 4480 3027 4096 2304 3616 1741 
C 3008 1024 2342 557 1376 166 
C 1574 0 1638 -77 1760 -301 
C 2707 128 3411 634 4000 1306 
C 4550 1939 5005 2790 5286 3731 
C 5363 3968 5370 3981 5427 4064 
L 5114 4371 
C 5011 4333 4973 4326 4742 4320 
C 4550 4314 4006 4307 3110 4294 
C 3072 4294 3072 4294 3034 4294 
C 2925 4288 2925 4288 2874 4275 
C 2950 4403 3002 4506 3155 4832 
C 3232 5005 3238 5005 3296 5082 
L 2669 5229 
z
" transform="scale(0.015625)"/>
      <path id="HiraginoSans-W4-3092" d="M 2189 4365 
C 1491 4365 1088 4390 813 4442 
L 800 3917 
C 864 3930 902 3930 934 3930 
C 966 3930 998 3930 1062 3923 
C 1197 3917 1830 3904 1958 3904 
C 1984 3904 2054 3910 2074 3910 
C 2035 3840 2035 3840 2016 3808 
C 1581 3046 1037 2362 614 2042 
L 1037 1619 
C 1152 1798 1293 1952 1549 2163 
C 2054 2598 2547 2835 2938 2835 
C 3226 2835 3373 2694 3411 2381 
C 2982 2189 2707 2042 2470 1869 
C 2016 1542 1792 1197 1792 832 
C 1792 499 1952 218 2227 64 
C 2534 -109 2944 -186 3539 -186 
C 4058 -186 4646 -141 5133 -64 
C 5267 -38 5293 -38 5395 -32 
L 5338 557 
C 4954 403 4250 301 3597 301 
C 2694 301 2330 467 2330 870 
C 2330 1088 2445 1267 2707 1472 
C 2874 1600 3085 1715 3475 1894 
C 3475 1818 3475 1798 3475 1696 
C 3475 1350 3456 973 3437 845 
L 3962 851 
C 3949 954 3949 1005 3949 1114 
C 3949 1165 3949 1254 3949 1376 
C 3955 1504 3955 1638 3955 1709 
C 3955 1850 3955 1869 3949 2080 
C 4800 2406 5299 2566 5645 2624 
L 5414 3149 
C 5312 3085 5293 3078 4966 2963 
C 4653 2854 4390 2758 3891 2566 
C 3802 3027 3507 3264 3027 3264 
C 2726 3264 2413 3174 2144 3002 
C 2080 2963 2042 2938 1926 2842 
C 1907 2829 1875 2810 1837 2778 
C 1837 2778 1830 2784 1824 2797 
C 1830 2803 1830 2803 1837 2810 
C 1837 2816 1862 2835 1901 2861 
C 1920 2874 2054 3021 2106 3098 
C 2310 3354 2438 3565 2624 3910 
C 3251 3930 4070 3987 4512 4045 
C 4883 4096 4883 4096 5005 4109 
L 4966 4621 
C 4627 4518 4032 4442 3238 4397 
C 2880 4378 2880 4378 2835 4371 
C 2874 4435 2944 4595 3027 4800 
C 3130 5050 3130 5050 3181 5126 
L 2579 5216 
C 2560 5011 2490 4813 2291 4365 
L 2189 4365 
z
" transform="scale(0.015625)"/>
      <path id="HiraginoSans-W4-306b" d="M 1382 838 
C 1382 947 1376 973 1376 1114 
C 1370 1286 1363 1594 1363 1722 
C 1363 2451 1414 3117 1510 3680 
C 1600 4179 1715 4653 1830 4954 
L 1222 5037 
C 1210 4877 1197 4813 1133 4493 
C 928 3546 851 2854 851 1958 
C 851 1312 896 838 1018 134 
C 1037 6 1043 -32 1056 -134 
L 1613 -96 
C 1606 -45 1606 0 1606 26 
C 1606 416 1824 1152 2144 1830 
L 1760 2010 
C 1555 1504 1453 1197 1389 838 
L 1382 838 
z
M 2592 3763 
C 2643 3757 2656 3757 2694 3750 
C 2790 3738 2790 3738 2810 3738 
C 3136 3706 3341 3693 3667 3693 
C 4141 3693 4640 3725 5030 3776 
C 5306 3814 5453 3834 5472 3834 
L 5440 4378 
C 5050 4269 4435 4205 3686 4205 
C 3194 4205 2899 4230 2605 4301 
L 2592 3763 
z
M 3053 2566 
C 2656 2106 2483 1734 2483 1357 
C 2483 1126 2554 902 2675 742 
C 2944 397 3424 237 4179 237 
C 4608 237 5037 275 5498 358 
C 5632 384 5645 384 5728 397 
L 5670 979 
C 5306 838 4755 755 4179 755 
C 3405 755 3008 973 3008 1408 
C 3008 1690 3155 1984 3488 2349 
L 3053 2566 
z
" transform="scale(0.015625)"/>
      <path id="HiraginoSans-W4-4f7f" d="M 3552 1875 
C 3488 1530 3424 1338 3302 1107 
C 3072 1318 2899 1523 2816 1702 
L 2400 1466 
C 2426 1434 2438 1421 2451 1408 
C 2547 1286 2618 1203 2662 1158 
C 2771 1024 2899 890 3046 755 
C 2733 422 2298 192 1568 -38 
C 1677 -160 1766 -288 1862 -467 
C 2618 -173 3034 90 3392 486 
C 4096 6 4883 -275 5926 -422 
C 5971 -256 6061 -70 6144 77 
C 5094 166 4307 410 3654 838 
C 3834 1146 3923 1421 4006 1875 
L 5120 1875 
C 5402 1875 5568 1869 5747 1850 
C 5728 1978 5728 2093 5728 2381 
L 5728 3168 
C 5728 3366 5734 3526 5747 3667 
C 5568 3654 5434 3648 5146 3648 
L 4128 3648 
C 4134 3885 4134 3885 4134 4230 
L 5478 4230 
C 5734 4230 5894 4224 6086 4198 
L 6086 4704 
C 5888 4678 5690 4666 5427 4666 
L 4134 4666 
C 4134 5050 4141 5197 4166 5376 
L 3629 5376 
C 3661 5171 3667 5043 3667 4666 
L 2541 4666 
C 2304 4666 2086 4678 1907 4704 
L 1907 4198 
C 2080 4224 2246 4230 2502 4230 
L 3674 4230 
L 3674 4083 
C 3674 3923 3674 3776 3674 3648 
L 2637 3648 
C 2323 3648 2221 3654 2054 3667 
C 2074 3520 2080 3437 2080 3194 
L 2080 2310 
C 2080 2138 2074 1997 2054 1850 
C 2227 1869 2381 1875 2605 1875 
L 3552 1875 
z
M 3661 3219 
C 3648 2816 3642 2656 3610 2304 
L 2541 2304 
L 2541 3219 
L 3661 3219 
z
M 5261 3219 
L 5261 2304 
L 4064 2304 
C 4096 2650 4102 2829 4115 3219 
L 5261 3219 
z
M 928 262 
C 928 -64 915 -256 890 -499 
L 1434 -499 
C 1408 -275 1402 -32 1402 250 
L 1402 3789 
C 1606 4250 1670 4422 1830 4902 
C 1875 5037 1894 5101 1946 5248 
L 1421 5382 
C 1376 5075 1318 4858 1184 4480 
C 922 3770 570 3149 141 2669 
C 262 2515 326 2400 410 2202 
C 672 2554 794 2746 947 3053 
C 928 2707 928 2573 928 2298 
L 928 262 
z
" transform="scale(0.015625)"/>
      <path id="HiraginoSans-W4-3044" d="M 819 4576 
C 832 4454 832 4429 838 4192 
C 870 2592 960 1805 1178 1165 
C 1395 518 1754 134 2144 134 
C 2630 134 2931 576 3258 1741 
C 3040 1907 2970 1978 2810 2170 
C 2733 1734 2624 1389 2477 1056 
C 2387 851 2278 749 2170 749 
C 1939 749 1696 1178 1562 1837 
C 1472 2246 1408 3091 1408 3763 
C 1408 4122 1421 4358 1453 4570 
L 819 4576 
z
M 4058 4013 
C 4813 3130 5280 1984 5382 781 
L 5933 998 
C 5728 2349 5325 3290 4525 4243 
L 4058 4013 
z
" transform="scale(0.015625)"/>
      <path id="HiraginoSans-W4-3001" d="M 275 966 
C 781 557 1139 173 1574 -448 
L 2010 -32 
C 1555 563 1222 902 678 1338 
L 275 966 
z
" transform="scale(0.015625)"/>
      <path id="HiraginoSans-W4-3076" d="M 4339 4499 
L 4237 4499 
C 3878 4499 3174 4614 2733 4742 
C 2381 4851 2138 4947 1978 5050 
L 1760 4550 
C 1843 4525 1869 4518 1971 4480 
C 2611 4230 3110 4109 3578 4090 
C 3405 4000 3290 3923 3136 3795 
C 2778 3507 2605 3206 2605 2874 
C 2605 2586 2714 2349 3002 2035 
C 3392 1600 3392 1600 3494 1434 
C 3616 1248 3667 1094 3667 941 
C 3667 621 3392 378 3021 378 
C 2650 378 2291 557 1920 922 
C 1869 634 1850 563 1773 378 
C 2214 13 2611 -147 3066 -147 
C 3750 -147 4250 307 4250 928 
C 4250 1299 4077 1632 3667 2074 
C 3315 2445 3315 2445 3277 2496 
C 3155 2650 3104 2765 3104 2899 
C 3104 3168 3354 3462 3840 3757 
C 4045 3878 4173 3936 4333 3962 
L 4339 4499 
z
M 4518 2368 
C 4902 1952 5414 896 5562 230 
L 6080 486 
C 5830 1222 5542 1824 5210 2291 
L 4998 2586 
L 4518 2368 
z
M 4614 4314 
C 4877 4019 5082 3699 5280 3302 
L 5658 3514 
C 5434 3930 5286 4147 4986 4506 
L 4614 4314 
z
M 1242 2509 
C 1107 1773 762 947 371 429 
C 589 320 666 269 845 115 
C 1030 410 1037 416 1101 544 
C 1331 973 1530 1504 1683 2054 
L 1773 2342 
L 1242 2509 
z
M 5357 4659 
C 5638 4326 5830 4038 6016 3667 
L 6387 3878 
C 6157 4301 6016 4499 5715 4851 
L 5357 4659 
z
" transform="scale(0.015625)"/>
      <path id="HiraginoSans-W4-3093" d="M 2368 5146 
C 2323 4922 2189 4525 1498 2675 
C 582 218 582 218 493 19 
L 1082 -166 
C 1158 211 1446 941 1658 1299 
C 2003 1901 2400 2234 2771 2234 
C 2944 2234 3053 2163 3110 2003 
C 3142 1894 3155 1779 3155 1459 
L 3155 1165 
C 3155 819 3174 608 3226 467 
C 3360 96 3699 -109 4186 -109 
C 4717 -109 5184 141 5478 589 
C 5690 902 5830 1254 5946 1766 
C 5683 1920 5613 1971 5446 2138 
C 5414 1798 5331 1485 5203 1197 
C 4986 678 4666 429 4243 429 
C 4026 429 3859 499 3782 621 
C 3706 736 3686 877 3686 1242 
C 3686 1958 3680 2067 3616 2266 
C 3520 2554 3232 2758 2912 2758 
C 2598 2758 2355 2650 2099 2406 
C 1997 2310 1933 2234 1773 2016 
L 1747 2029 
C 2086 2733 2138 2861 2675 4250 
C 2874 4762 2899 4826 2989 4986 
L 2368 5146 
z
" transform="scale(0.015625)"/>
      <path id="HiraginoSans-W4-306e" d="M 3053 422 
C 3200 243 3245 160 3328 -96 
C 3821 6 4090 90 4397 237 
C 5293 666 5798 1459 5798 2451 
C 5798 3802 4832 4698 3379 4698 
C 2509 4698 1792 4403 1274 3834 
C 832 3347 589 2707 589 2042 
C 589 1107 1062 422 1709 422 
C 2189 422 2573 806 2938 1645 
C 3238 2323 3469 3264 3578 4205 
C 3891 4186 4070 4141 4294 4032 
C 4902 3738 5242 3174 5242 2477 
C 5242 1734 4870 1107 4230 768 
C 3917 602 3610 512 3053 422 
z
M 3027 4192 
C 2944 3398 2714 2483 2458 1888 
C 2195 1286 1952 992 1702 992 
C 1370 992 1114 1453 1114 2035 
C 1114 2797 1491 3501 2112 3891 
C 2394 4077 2656 4160 3027 4192 
z
" transform="scale(0.015625)"/>
      <path id="HiraginoSans-W4-8aa4" d="M 5414 1658 
L 5414 2234 
C 5414 2502 5414 2598 5427 2733 
C 5376 2726 5216 2726 4954 2720 
L 3232 2720 
L 3232 4230 
C 3232 4442 3245 4621 3270 4762 
L 2746 4762 
C 2771 4602 2784 4422 2784 4205 
L 2784 2739 
C 2784 2560 2778 2458 2765 2285 
C 2899 2298 3040 2304 3238 2304 
L 4954 2304 
L 4954 1658 
L 3098 1658 
C 2861 1658 2669 1670 2522 1690 
L 2522 1197 
C 2656 1216 2842 1229 3130 1229 
L 5581 1229 
C 5824 1229 6010 1216 6170 1190 
L 6170 1696 
C 6003 1670 5850 1658 5619 1658 
L 5414 1658 
z
M 531 4621 
C 685 4640 806 4646 1011 4646 
L 1818 4646 
C 2022 4646 2125 4640 2298 4621 
L 2298 5094 
C 2150 5069 2048 5062 1818 5062 
L 1011 5062 
C 774 5062 678 5069 531 5094 
L 531 4621 
z
M 307 3718 
C 467 3738 595 3744 819 3744 
L 2042 3744 
C 2227 3744 2330 3738 2458 3725 
L 2458 4205 
C 2336 4179 2227 4173 1997 4173 
L 819 4173 
C 576 4173 454 4179 307 4205 
L 307 3718 
z
M 557 2829 
C 685 2848 774 2854 979 2854 
L 1869 2854 
C 2061 2854 2157 2848 2285 2829 
L 2285 3290 
C 2170 3270 2074 3264 1869 3264 
L 979 3264 
C 774 3264 672 3270 557 3290 
L 557 2829 
z
M 557 1946 
C 678 1965 774 1971 979 1971 
L 1862 1971 
C 2061 1971 2157 1965 2285 1946 
L 2285 2406 
C 2170 2387 2080 2381 1869 2381 
L 979 2381 
C 774 2381 678 2387 557 2406 
L 557 1946 
z
M 1018 -499 
L 1018 -173 
L 1869 -173 
L 1869 -416 
L 2310 -416 
C 2291 -282 2285 -115 2285 77 
L 2285 1018 
C 2285 1261 2291 1395 2304 1504 
C 2176 1491 2067 1485 1843 1485 
L 1075 1485 
C 845 1485 710 1491 563 1510 
C 582 1350 589 1216 589 998 
L 589 128 
C 589 -96 576 -307 557 -499 
L 1018 -499 
z
M 1011 1094 
L 1869 1094 
L 1869 230 
L 1011 230 
L 1011 1094 
z
M 4262 5107 
C 3994 5107 3859 5114 3731 5126 
C 3744 4986 3750 4813 3750 4570 
L 3750 3750 
C 3750 3392 3750 3334 3738 3187 
C 3866 3200 3904 3200 4224 3200 
L 5222 3200 
C 5485 3200 5606 3194 5773 3174 
C 5754 3334 5747 3482 5747 3757 
L 5747 4550 
C 5747 4813 5754 4973 5773 5133 
C 5606 5114 5466 5107 5210 5107 
L 4262 5107 
z
M 5306 4691 
L 5306 3597 
L 4186 3597 
L 4186 4691 
L 5306 4691 
z
M 3533 979 
C 3226 493 2970 256 2419 -58 
C 2547 -173 2611 -250 2746 -448 
C 3302 -70 3558 179 3942 736 
L 3533 979 
z
M 4550 723 
C 4986 147 5203 -58 5811 -454 
C 5901 -294 5914 -282 6138 -32 
C 5562 269 5280 512 4941 979 
L 4550 723 
z
" transform="scale(0.015625)"/>
      <path id="HiraginoSans-W4-5e73" d="M 2918 4653 
L 2918 2342 
L 1056 2342 
C 717 2342 525 2355 333 2387 
L 333 1830 
C 525 1862 749 1875 1069 1875 
L 2918 1875 
L 2918 198 
C 2918 -58 2906 -294 2874 -531 
L 3475 -531 
C 3443 -288 3430 -38 3430 198 
L 3430 1875 
L 5350 1875 
C 5683 1875 5907 1862 6080 1830 
L 6080 2387 
C 5901 2355 5690 2342 5370 2342 
L 3430 2342 
L 3430 4653 
L 5114 4653 
C 5408 4653 5606 4640 5818 4614 
L 5818 5152 
C 5626 5126 5421 5114 5107 5114 
L 1331 5114 
C 1011 5114 806 5126 614 5152 
L 614 4614 
C 826 4640 1030 4653 1318 4653 
L 2918 4653 
z
M 992 4179 
C 1331 3654 1523 3277 1766 2598 
L 2246 2842 
C 1984 3462 1786 3840 1427 4390 
L 992 4179 
z
M 4941 4384 
C 4685 3674 4486 3309 4058 2765 
L 4506 2534 
C 4928 3117 5133 3482 5408 4166 
L 4941 4384 
z
" transform="scale(0.015625)"/>
      <path id="HiraginoSans-W4-5747" d="M 1139 3603 
L 883 3603 
C 621 3603 493 3610 333 3642 
L 333 3123 
C 486 3155 621 3162 883 3162 
L 1139 3162 
L 1139 1133 
C 768 992 435 883 282 864 
L 416 352 
C 518 397 704 474 909 550 
C 1542 800 1824 928 2381 1222 
L 2362 1709 
C 2022 1517 1901 1459 1619 1331 
L 1619 3162 
L 1722 3162 
C 1920 3162 1997 3162 2144 3149 
L 2067 3072 
C 2227 2976 2266 2938 2438 2720 
C 2816 3123 3059 3462 3290 3904 
L 5414 3904 
C 5414 3744 5421 3616 5421 3533 
C 5421 2406 5344 1286 5222 646 
C 5133 192 5056 96 4755 96 
C 4570 96 4192 141 3872 192 
C 3962 -26 3994 -141 4006 -333 
C 4365 -365 4563 -378 4730 -378 
C 5344 -378 5504 -256 5645 320 
C 5811 992 5901 2266 5901 3872 
C 5901 4141 5907 4256 5926 4390 
C 5811 4378 5811 4378 5350 4365 
L 3501 4365 
C 3590 4582 3674 4806 3738 5005 
C 3776 5126 3789 5158 3814 5222 
L 3283 5350 
C 3232 5043 3155 4787 3008 4416 
C 2803 3936 2586 3597 2221 3219 
L 2221 3635 
C 2099 3610 1984 3603 1734 3603 
L 1619 3603 
L 1619 4627 
C 1619 4915 1626 5050 1658 5254 
L 1101 5254 
C 1126 5050 1139 4890 1139 4614 
L 1139 3603 
z
M 4909 2099 
C 4275 1696 3699 1414 2989 1158 
C 2848 1107 2739 1075 2618 1056 
L 2810 525 
C 2867 563 2918 582 2989 614 
C 3955 1037 4358 1235 5005 1626 
L 4909 2099 
z
M 2957 2502 
C 3110 2534 3251 2541 3507 2541 
L 4301 2541 
C 4525 2541 4685 2534 4813 2515 
L 4813 3021 
C 4678 2995 4538 2982 4294 2982 
L 3507 2982 
C 3245 2982 3123 2989 2957 3021 
L 2957 2502 
z
" transform="scale(0.015625)"/>
      <path id="HiraginoSans-W4-3059" d="M 3507 4326 
C 2790 4307 2509 4301 1965 4282 
C 998 4243 960 4243 787 4243 
C 691 4243 640 4243 512 4250 
L 531 3699 
C 928 3763 2419 3846 3514 3866 
C 3514 3514 3520 3181 3526 3123 
L 3526 3078 
C 3366 3245 3117 3334 2816 3334 
C 2131 3334 1632 2874 1632 2246 
C 1632 1645 2093 1203 2720 1203 
C 3053 1203 3334 1318 3526 1536 
C 3597 1613 3635 1683 3699 1818 
C 3680 1562 3629 1376 3514 1171 
C 3238 672 2746 358 1920 134 
C 2074 -32 2118 -102 2246 -358 
C 2765 -166 3034 -32 3302 160 
C 3885 589 4179 1158 4179 1850 
C 4179 2157 4134 2368 4019 2643 
C 4019 3494 4019 3494 4019 3872 
C 4531 3878 4640 3878 4730 3878 
C 5434 3878 5664 3872 5907 3846 
L 5907 4384 
C 5696 4358 5210 4346 4013 4339 
C 4013 4883 4019 4979 4045 5178 
L 3469 5178 
C 3488 5043 3494 4979 3501 4806 
L 3507 4326 
z
M 2861 2906 
C 3059 2906 3238 2842 3366 2720 
C 3456 2630 3494 2534 3494 2381 
C 3494 1965 3200 1677 2784 1677 
C 2413 1677 2157 1926 2157 2285 
C 2157 2637 2458 2906 2861 2906 
z
" transform="scale(0.015625)"/>
      <path id="HiraginoSans-W4-308b" d="M 1485 4262 
C 1626 4282 1690 4288 1824 4294 
C 2758 4333 3482 4371 3718 4410 
C 3738 4410 3750 4410 3770 4416 
L 3776 4403 
C 3725 4352 3725 4352 3706 4333 
C 3686 4314 3680 4307 3654 4282 
C 2694 3334 1242 2131 678 1818 
L 1005 1331 
C 1760 2022 2746 2419 3693 2419 
C 4531 2419 5037 2067 5037 1478 
C 5037 1146 4883 858 4602 659 
C 4454 550 4314 486 4077 416 
C 3987 704 3917 851 3789 1024 
C 3533 1363 3149 1549 2720 1549 
C 2157 1549 1741 1210 1741 755 
C 1741 563 1818 352 1933 218 
C 2170 -58 2605 -198 3232 -198 
C 4646 -198 5587 480 5587 1491 
C 5587 2323 4896 2861 3821 2861 
C 3283 2861 2835 2752 2317 2490 
L 2304 2515 
C 2739 2784 3507 3430 4371 4262 
C 4563 4454 4602 4480 4698 4531 
L 4390 4947 
C 4301 4896 4243 4883 4058 4870 
C 3488 4826 2643 4787 2106 4787 
C 1779 4787 1645 4794 1459 4826 
L 1485 4262 
z
M 3578 288 
C 3373 256 3302 250 3155 250 
C 2598 250 2246 442 2246 742 
C 2246 966 2432 1107 2720 1107 
C 3155 1107 3443 826 3578 288 
z
" transform="scale(0.015625)"/>
     </defs>
     <use xlink:href="#HiraginoSans-W4-a7"/>
     <use xlink:href="#HiraginoSans-W4-36" x="65.899994"/>
     <use xlink:href="#HiraginoSans-W4-2e" x="133.199982"/>
     <use xlink:href="#HiraginoSans-W4-31" x="158.199966"/>
     <use xlink:href="#HiraginoSans-W4-20" x="225.499954"/>
     <use xlink:href="#HiraginoSans-W4-35" x="258.799942"/>
     <use xlink:href="#HiraginoSans-W4-2d" x="326.09993"/>
     <use xlink:href="#HiraginoSans-W4-66" x="363.399918"/>
     <use xlink:href="#HiraginoSans-W4-6f" x="406.799911"/>
     <use xlink:href="#HiraginoSans-W4-6c" x="470.599899"/>
     <use xlink:href="#HiraginoSans-W4-64" x="494.899887"/>
     <use xlink:href="#HiraginoSans-W4-20" x="561.199875"/>
     <use xlink:href="#HiraginoSans-W4-4ea4" x="594.499863"/>
     <use xlink:href="#HiraginoSans-W4-5dee" x="694.499847"/>
     <use xlink:href="#HiraginoSans-W4-691c" x="794.499832"/>
     <use xlink:href="#HiraginoSans-W4-8a3c" x="894.499817"/>
     <use xlink:href="#HiraginoSans-W4-3a" x="994.499802"/>
     <use xlink:href="#HiraginoSans-W4-20" x="1019.499786"/>
     <use xlink:href="#HiraginoSans-W4-6bce" x="1052.799774"/>
     <use xlink:href="#HiraginoSans-W4-56de" x="1152.799759"/>
     <use xlink:href="#HiraginoSans-W4-3061" x="1252.799744"/>
     <use xlink:href="#HiraginoSans-W4-304c" x="1352.799728"/>
     <use xlink:href="#HiraginoSans-W4-3046" x="1452.799713"/>
     <use xlink:href="#HiraginoSans-W4-30d6" x="1552.799698"/>
     <use xlink:href="#HiraginoSans-W4-30ed" x="1652.799683"/>
     <use xlink:href="#HiraginoSans-W4-30c3" x="1752.799667"/>
     <use xlink:href="#HiraginoSans-W4-30af" x="1852.799652"/>
     <use xlink:href="#HiraginoSans-W4-3092" x="1952.799637"/>
     <use xlink:href="#HiraginoSans-W4-691c" x="2052.799622"/>
     <use xlink:href="#HiraginoSans-W4-8a3c" x="2152.799606"/>
     <use xlink:href="#HiraginoSans-W4-306b" x="2252.799591"/>
     <use xlink:href="#HiraginoSans-W4-4f7f" x="2352.799576"/>
     <use xlink:href="#HiraginoSans-W4-3044" x="2452.799561"/>
     <use xlink:href="#HiraginoSans-W4-3001" x="2552.799545"/>
     <use xlink:href="#HiraginoSans-W4-35" x="2652.79953"/>
     <use xlink:href="#HiraginoSans-W4-56de" x="2720.099518"/>
     <use xlink:href="#HiraginoSans-W4-3076" x="2820.099503"/>
     <use xlink:href="#HiraginoSans-W4-3093" x="2920.099487"/>
     <use xlink:href="#HiraginoSans-W4-306e" x="3020.099472"/>
     <use xlink:href="#HiraginoSans-W4-8aa4" x="3120.099457"/>
     <use xlink:href="#HiraginoSans-W4-5dee" x="3220.099442"/>
     <use xlink:href="#HiraginoSans-W4-3092" x="3320.099426"/>
     <use xlink:href="#HiraginoSans-W4-5e73" x="3420.099411"/>
     <use xlink:href="#HiraginoSans-W4-5747" x="3520.099396"/>
     <use xlink:href="#HiraginoSans-W4-3059" x="3620.09938"/>
     <use xlink:href="#HiraginoSans-W4-308b" x="3720.099365"/>
    </g>
   </g>
  </g>
 </g>
 <defs>
  <clipPath id="p39a7aee3f9">
   <rect x="7.2" y="22.857656" width="588.24" height="219.748125"/>
  </clipPath>
 </defs>
</svg>
