<?xml version="1.0" encoding="utf-8" standalone="no"?>
<!DOCTYPE svg PUBLIC "-//W3C//DTD SVG 1.1//EN"
  "http://www.w3.org/Graphics/SVG/1.1/DTD/svg11.dtd">
<svg xmlns:xlink="http://www.w3.org/1999/xlink" width="530.839453pt" height="321.601687pt" viewBox="0 0 530.839453 321.601687" xmlns="http://www.w3.org/2000/svg" version="1.1">
 <metadata>
  <rdf:RDF xmlns:dc="http://purl.org/dc/elements/1.1/" xmlns:cc="http://creativecommons.org/ns#" xmlns:rdf="http://www.w3.org/1999/02/22-rdf-syntax-ns#">
   <cc:Work>
    <dc:type rdf:resource="http://purl.org/dc/dcmitype/StillImage"/>
    <dc:format>image/svg+xml</dc:format>
    <dc:creator>
     <cc:Agent>
      <dc:title>Matplotlib v3.8.3, https://matplotlib.org/</dc:title>
     </cc:Agent>
    </dc:creator>
   </cc:Work>
  </rdf:RDF>
 </metadata>
 <defs>
  <style type="text/css">*{stroke-linejoin: round; stroke-linecap: butt}</style>
 </defs>
 <g id="figure_1">
  <g id="patch_1">
   <path d="M 0 321.601687 
L 530.839453 321.601687 
L 530.839453 0 
L 0 0 
z
" style="fill: #ffffff"/>
  </g>
  <g id="axes_1">
   <g id="patch_2">
    <path d="M 46.512969 281.931062 
L 512.535469 281.931062 
L 512.535469 24.644812 
L 46.512969 24.644812 
z
" style="fill: #ffffff"/>
   </g>
   <g id="matplotlib.axis_1">
    <g id="xtick_1">
     <g id="line2d_1">
      <path d="M 46.512969 281.931062 
L 46.512969 24.644812 
" clip-path="url(#pcc1f8ec9d2)" style="fill: none; stroke: #b0b0b0; stroke-opacity: 0.25; stroke-width: 0.8; stroke-linecap: square"/>
     </g>
     <g id="line2d_2">
      <defs>
       <path id="mdc63961c8c" d="M 0 0 
L 0 3.5 
" style="stroke: #000000; stroke-width: 0.8"/>
      </defs>
      <g>
       <use xlink:href="#mdc63961c8c" x="46.512969" y="281.931062" style="stroke: #000000; stroke-width: 0.8"/>
      </g>
     </g>
     <g id="text_1">
      <!-- 0 -->
      <g transform="translate(42.811641 297.411375) scale(0.11 -0.11)">
       <defs>
        <path id="HiraginoSans-W4-30" d="M 2144 -90 
C 2758 -90 3232 141 3565 602 
C 3846 998 4019 1696 4019 2464 
C 4019 3002 3936 3501 3770 3949 
C 3693 4160 3558 4371 3379 4550 
C 3078 4858 2650 5024 2157 5024 
C 1498 5024 986 4742 666 4205 
C 435 3834 288 3142 288 2458 
C 288 1939 371 1434 538 986 
C 614 768 749 563 928 384 
C 1242 70 1651 -90 2144 -90 
z
M 2144 4499 
C 2592 4499 2918 4307 3123 3923 
C 3283 3629 3398 3014 3398 2470 
C 3398 2022 3341 1619 3213 1235 
C 3155 1043 3046 870 2912 730 
C 2726 538 2458 435 2150 435 
C 1734 435 1414 614 1197 973 
C 1024 1261 902 1875 902 2451 
C 902 2906 966 3328 1088 3699 
C 1139 3866 1235 4026 1370 4173 
C 1568 4397 1818 4499 2144 4499 
z
" transform="scale(0.015625)"/>
       </defs>
       <use xlink:href="#HiraginoSans-W4-30"/>
      </g>
     </g>
    </g>
    <g id="xtick_2">
     <g id="line2d_3">
      <path d="M 139.717469 281.931062 
L 139.717469 24.644812 
" clip-path="url(#pcc1f8ec9d2)" style="fill: none; stroke: #b0b0b0; stroke-opacity: 0.25; stroke-width: 0.8; stroke-linecap: square"/>
     </g>
     <g id="line2d_4">
      <g>
       <use xlink:href="#mdc63961c8c" x="139.717469" y="281.931062" style="stroke: #000000; stroke-width: 0.8"/>
      </g>
     </g>
     <g id="text_2">
      <!-- 20 -->
      <g transform="translate(132.314813 297.411375) scale(0.11 -0.11)">
       <defs>
        <path id="HiraginoSans-W4-32" d="M 3078 0 
C 3424 0 3642 -6 3917 -32 
L 3917 589 
C 3693 557 3430 544 3091 544 
L 1114 544 
C 1280 1114 1606 1478 2451 2042 
C 3181 2528 3341 2656 3546 2912 
C 3738 3142 3846 3443 3846 3744 
C 3846 4525 3200 5030 2202 5030 
C 1613 5030 1158 4858 858 4518 
C 640 4269 531 4026 442 3565 
L 1088 3469 
C 1139 3782 1190 3936 1306 4102 
C 1491 4371 1792 4506 2208 4506 
C 2816 4506 3206 4211 3206 3744 
C 3206 3360 2995 3085 2387 2675 
C 1754 2246 1600 2138 1389 1952 
C 979 1594 710 1229 544 806 
C 448 563 429 461 365 -26 
C 576 -6 678 0 1107 0 
L 3078 0 
z
" transform="scale(0.015625)"/>
       </defs>
       <use xlink:href="#HiraginoSans-W4-32"/>
       <use xlink:href="#HiraginoSans-W4-30" x="67.299988"/>
      </g>
     </g>
    </g>
    <g id="xtick_3">
     <g id="line2d_5">
      <path d="M 232.921969 281.931062 
L 232.921969 24.644812 
" clip-path="url(#pcc1f8ec9d2)" style="fill: none; stroke: #b0b0b0; stroke-opacity: 0.25; stroke-width: 0.8; stroke-linecap: square"/>
     </g>
     <g id="line2d_6">
      <g>
       <use xlink:href="#mdc63961c8c" x="232.921969" y="281.931062" style="stroke: #000000; stroke-width: 0.8"/>
      </g>
     </g>
     <g id="text_3">
      <!-- 40 -->
      <g transform="translate(225.508141 297.411375) scale(0.11 -0.11)">
       <defs>
        <path id="HiraginoSans-W4-34" d="M 179 1210 
C 403 1229 589 1235 954 1235 
L 2688 1235 
L 2688 710 
C 2688 410 2675 218 2630 0 
L 3309 0 
C 3270 230 3258 390 3258 704 
L 3258 1235 
L 3494 1235 
C 3763 1235 3910 1222 4154 1190 
L 4154 1798 
C 3917 1766 3750 1754 3494 1754 
L 3258 1754 
L 3258 3853 
C 3258 4358 3264 4544 3296 4934 
L 2701 4934 
C 2560 4704 2445 4550 2214 4269 
L 621 2298 
C 467 2099 326 1939 179 1773 
L 179 1210 
z
M 2688 1747 
L 858 1747 
L 2259 3514 
C 2464 3763 2592 3936 2720 4128 
C 2694 3814 2688 3622 2688 3283 
L 2688 1747 
z
" transform="scale(0.015625)"/>
       </defs>
       <use xlink:href="#HiraginoSans-W4-34"/>
       <use xlink:href="#HiraginoSans-W4-30" x="67.499985"/>
      </g>
     </g>
    </g>
    <g id="xtick_4">
     <g id="line2d_7">
      <path d="M 326.126469 281.931062 
L 326.126469 24.644812 
" clip-path="url(#pcc1f8ec9d2)" style="fill: none; stroke: #b0b0b0; stroke-opacity: 0.25; stroke-width: 0.8; stroke-linecap: square"/>
     </g>
     <g id="line2d_8">
      <g>
       <use xlink:href="#mdc63961c8c" x="326.126469" y="281.931062" style="stroke: #000000; stroke-width: 0.8"/>
      </g>
     </g>
     <g id="text_4">
      <!-- 60 -->
      <g transform="translate(318.723813 297.411375) scale(0.11 -0.11)">
       <defs>
        <path id="HiraginoSans-W4-36" d="M 3846 3994 
C 3706 4301 3616 4442 3462 4602 
C 3187 4877 2784 5024 2304 5024 
C 1683 5024 1222 4794 864 4307 
C 557 3891 371 3162 371 2355 
C 371 1446 614 704 1043 320 
C 1331 58 1773 -90 2253 -90 
C 3277 -90 3968 589 3968 1587 
C 3968 2586 3334 3213 2323 3213 
C 1894 3213 1568 3104 1274 2854 
C 1133 2739 1062 2656 941 2458 
C 979 3085 1043 3392 1210 3763 
C 1434 4262 1798 4518 2285 4518 
C 2765 4518 3040 4314 3238 3821 
L 3846 3994 
z
M 2266 2714 
C 2950 2714 3366 2285 3366 1574 
C 3366 1325 3309 1088 3206 922 
C 3008 614 2643 422 2234 422 
C 1568 422 1069 915 1069 1574 
C 1069 2234 1574 2714 2266 2714 
z
" transform="scale(0.015625)"/>
       </defs>
       <use xlink:href="#HiraginoSans-W4-36"/>
       <use xlink:href="#HiraginoSans-W4-30" x="67.299988"/>
      </g>
     </g>
    </g>
    <g id="xtick_5">
     <g id="line2d_9">
      <path d="M 419.330969 281.931062 
L 419.330969 24.644812 
" clip-path="url(#pcc1f8ec9d2)" style="fill: none; stroke: #b0b0b0; stroke-opacity: 0.25; stroke-width: 0.8; stroke-linecap: square"/>
     </g>
     <g id="line2d_10">
      <g>
       <use xlink:href="#mdc63961c8c" x="419.330969" y="281.931062" style="stroke: #000000; stroke-width: 0.8"/>
      </g>
     </g>
     <g id="text_5">
      <!-- 80 -->
      <g transform="translate(411.928313 297.411375) scale(0.11 -0.11)">
       <defs>
        <path id="HiraginoSans-W4-38" d="M 1446 2586 
C 1203 2547 1056 2490 851 2355 
C 480 2106 294 1754 294 1299 
C 294 397 966 -102 2163 -102 
C 3347 -102 4006 397 4006 1299 
C 4006 1728 3853 2061 3539 2304 
C 3322 2470 3136 2547 2867 2586 
C 3437 2714 3789 3162 3789 3757 
C 3789 4550 3162 5043 2150 5043 
C 1146 5043 512 4544 512 3750 
C 512 3162 877 2701 1446 2586 
z
M 2150 4538 
C 2784 4538 3187 4211 3187 3699 
C 3187 3155 2797 2829 2157 2829 
C 1510 2829 1114 3162 1114 3699 
C 1114 4211 1523 4538 2150 4538 
z
M 2157 2304 
C 2912 2304 3373 1939 3373 1344 
C 3373 749 2925 410 2144 410 
C 1376 410 928 749 928 1338 
C 928 1939 1389 2304 2157 2304 
z
" transform="scale(0.015625)"/>
       </defs>
       <use xlink:href="#HiraginoSans-W4-38"/>
       <use xlink:href="#HiraginoSans-W4-30" x="67.299988"/>
      </g>
     </g>
    </g>
    <g id="xtick_6">
     <g id="line2d_11">
      <path d="M 512.535469 281.931062 
L 512.535469 24.644812 
" clip-path="url(#pcc1f8ec9d2)" style="fill: none; stroke: #b0b0b0; stroke-opacity: 0.25; stroke-width: 0.8; stroke-linecap: square"/>
     </g>
     <g id="line2d_12">
      <g>
       <use xlink:href="#mdc63961c8c" x="512.535469" y="281.931062" style="stroke: #000000; stroke-width: 0.8"/>
      </g>
     </g>
     <g id="text_6">
      <!-- 100 -->
      <g transform="translate(501.431484 297.411375) scale(0.11 -0.11)">
       <defs>
        <path id="HiraginoSans-W4-31" d="M 1018 4371 
C 1222 4397 1389 4410 1606 4410 
L 1939 4410 
L 1939 755 
C 1939 454 1926 237 1888 0 
L 2598 0 
C 2560 250 2547 448 2547 755 
L 2547 3904 
C 2547 4256 2566 4582 2605 4966 
C 2387 4941 2278 4934 2035 4934 
L 1581 4934 
C 1325 4934 1197 4941 1018 4966 
L 1018 4371 
z
" transform="scale(0.015625)"/>
       </defs>
       <use xlink:href="#HiraginoSans-W4-31"/>
       <use xlink:href="#HiraginoSans-W4-30" x="67.299988"/>
       <use xlink:href="#HiraginoSans-W4-30" x="134.599976"/>
      </g>
     </g>
    </g>
    <g id="text_7">
     <!-- 次元 D -->
     <g transform="translate(262.452734 312.146687) scale(0.11 -0.11)">
      <defs>
       <path id="HiraginoSans-W4-6b21" d="M 3194 4346 
C 3251 4512 3277 4582 3360 4800 
C 3437 5024 3462 5082 3501 5203 
L 2950 5312 
C 2899 4947 2797 4614 2605 4186 
C 2387 3693 2080 3251 1709 2893 
C 1901 2771 2010 2669 2099 2541 
C 2541 3072 2739 3366 2995 3904 
L 5350 3904 
C 5126 3386 4890 3059 4448 2656 
C 4646 2554 4742 2490 4877 2368 
C 5267 2797 5517 3168 5818 3789 
C 5907 3968 5920 3987 5971 4083 
L 5683 4384 
C 5517 4358 5338 4346 5050 4346 
L 3194 4346 
z
M 422 4659 
C 915 4288 1139 4070 1536 3597 
L 1920 3968 
C 1530 4390 1280 4614 806 4986 
L 422 4659 
z
M 1914 2336 
C 1517 1888 1299 1696 813 1331 
C 538 1120 403 1037 250 973 
L 589 467 
C 646 525 685 557 806 653 
C 1325 1056 1824 1510 2189 1914 
L 1914 2336 
z
M 3366 3558 
C 3386 3456 3392 3379 3392 3283 
C 3392 2355 3174 1626 2714 1024 
C 2355 557 1926 243 1267 -13 
C 1402 -154 1491 -275 1581 -442 
C 2246 -141 2701 205 3066 685 
C 3354 1069 3558 1536 3661 2074 
C 3795 1485 4045 1005 4448 570 
C 4813 173 5210 -115 5811 -429 
C 5901 -243 5990 -109 6125 51 
C 5408 339 4909 698 4525 1203 
C 4090 1773 3891 2419 3891 3251 
C 3891 3386 3898 3469 3917 3558 
L 3366 3558 
z
" transform="scale(0.015625)"/>
       <path id="HiraginoSans-W4-5143" d="M 2022 2938 
C 2003 1997 1926 1542 1715 1120 
C 1466 634 1062 294 307 -58 
C 454 -179 563 -314 678 -506 
C 986 -333 1126 -250 1286 -134 
C 1645 122 1907 410 2106 762 
C 2400 1299 2515 1875 2541 2938 
L 3642 2938 
L 3642 218 
C 3642 0 3674 -102 3776 -179 
C 3917 -282 4179 -326 4659 -326 
C 5926 -326 5971 -282 6106 1126 
C 5920 1165 5798 1210 5613 1312 
C 5587 819 5549 493 5498 358 
C 5434 192 5299 154 4736 154 
C 4243 154 4154 186 4154 365 
L 4154 2938 
L 5344 2938 
C 5619 2938 5824 2925 6022 2899 
L 6022 3450 
C 5824 3424 5638 3411 5344 3411 
L 1043 3411 
C 755 3411 570 3424 371 3450 
L 371 2899 
C 563 2925 768 2938 1043 2938 
L 2022 2938 
z
M 5434 4998 
C 5280 4973 5101 4960 4781 4960 
L 1645 4960 
C 1338 4960 1146 4973 998 4998 
L 998 4435 
C 1158 4461 1344 4474 1638 4474 
L 4794 4474 
C 5075 4474 5274 4461 5434 4435 
L 5434 4998 
z
" transform="scale(0.015625)"/>
       <path id="HiraginoSans-W4-20" transform="scale(0.015625)"/>
       <path id="HiraginoSans-W4-44" d="M 531 768 
C 531 429 518 237 480 -13 
C 710 0 870 0 1210 0 
L 2317 0 
C 2989 0 3520 192 3910 570 
C 4371 1018 4614 1683 4614 2515 
C 4614 3309 4390 3942 3949 4365 
C 3565 4749 3021 4934 2310 4934 
L 1210 4934 
C 883 4934 698 4941 480 4954 
C 518 4672 531 4493 531 4192 
L 531 768 
z
M 1126 538 
L 1126 4397 
L 2310 4397 
C 2848 4397 3226 4262 3507 3974 
C 3834 3642 3994 3155 3994 2502 
C 3994 1856 3814 1325 3475 979 
C 3187 678 2803 538 2291 538 
L 1126 538 
z
" transform="scale(0.015625)"/>
      </defs>
      <use xlink:href="#HiraginoSans-W4-6b21"/>
      <use xlink:href="#HiraginoSans-W4-5143" x="99.999985"/>
      <use xlink:href="#HiraginoSans-W4-20" x="199.999969"/>
      <use xlink:href="#HiraginoSans-W4-44" x="233.299957"/>
     </g>
    </g>
   </g>
   <g id="matplotlib.axis_2">
    <g id="ytick_1">
     <g id="line2d_13">
      <path d="M 46.512969 281.931062 
L 512.535469 281.931062 
" clip-path="url(#pcc1f8ec9d2)" style="fill: none; stroke: #b0b0b0; stroke-opacity: 0.25; stroke-width: 0.8; stroke-linecap: square"/>
     </g>
     <g id="line2d_14">
      <defs>
       <path id="mb3b38a01bc" d="M 0 0 
L -3.5 0 
" style="stroke: #000000; stroke-width: 0.8"/>
      </defs>
      <g>
       <use xlink:href="#mb3b38a01bc" x="46.512969" y="281.931062" style="stroke: #000000; stroke-width: 0.8"/>
      </g>
     </g>
     <g id="text_8">
      <!-- 0.0 -->
      <g transform="translate(21.957656 286.171219) scale(0.11 -0.11)">
       <defs>
        <path id="HiraginoSans-W4-2e" d="M 442 723 
L 442 0 
L 1165 0 
L 1165 723 
L 442 723 
z
" transform="scale(0.015625)"/>
       </defs>
       <use xlink:href="#HiraginoSans-W4-30"/>
       <use xlink:href="#HiraginoSans-W4-2e" x="67.299988"/>
       <use xlink:href="#HiraginoSans-W4-30" x="92.299973"/>
      </g>
     </g>
    </g>
    <g id="ytick_2">
     <g id="line2d_15">
      <path d="M 46.512969 232.924158 
L 512.535469 232.924158 
" clip-path="url(#pcc1f8ec9d2)" style="fill: none; stroke: #b0b0b0; stroke-opacity: 0.25; stroke-width: 0.8; stroke-linecap: square"/>
     </g>
     <g id="line2d_16">
      <g>
       <use xlink:href="#mb3b38a01bc" x="46.512969" y="232.924158" style="stroke: #000000; stroke-width: 0.8"/>
      </g>
     </g>
     <g id="text_9">
      <!-- 0.2 -->
      <g transform="translate(21.957656 237.164314) scale(0.11 -0.11)">
       <use xlink:href="#HiraginoSans-W4-30"/>
       <use xlink:href="#HiraginoSans-W4-2e" x="67.299988"/>
       <use xlink:href="#HiraginoSans-W4-32" x="92.299973"/>
      </g>
     </g>
    </g>
    <g id="ytick_3">
     <g id="line2d_17">
      <path d="M 46.512969 183.917253 
L 512.535469 183.917253 
" clip-path="url(#pcc1f8ec9d2)" style="fill: none; stroke: #b0b0b0; stroke-opacity: 0.25; stroke-width: 0.8; stroke-linecap: square"/>
     </g>
     <g id="line2d_18">
      <g>
       <use xlink:href="#mb3b38a01bc" x="46.512969" y="183.917253" style="stroke: #000000; stroke-width: 0.8"/>
      </g>
     </g>
     <g id="text_10">
      <!-- 0.4 -->
      <g transform="translate(21.935313 188.157409) scale(0.11 -0.11)">
       <use xlink:href="#HiraginoSans-W4-30"/>
       <use xlink:href="#HiraginoSans-W4-2e" x="67.299988"/>
       <use xlink:href="#HiraginoSans-W4-34" x="92.299973"/>
      </g>
     </g>
    </g>
    <g id="ytick_4">
     <g id="line2d_19">
      <path d="M 46.512969 134.910348 
L 512.535469 134.910348 
" clip-path="url(#pcc1f8ec9d2)" style="fill: none; stroke: #b0b0b0; stroke-opacity: 0.25; stroke-width: 0.8; stroke-linecap: square"/>
     </g>
     <g id="line2d_20">
      <g>
       <use xlink:href="#mb3b38a01bc" x="46.512969" y="134.910348" style="stroke: #000000; stroke-width: 0.8"/>
      </g>
     </g>
     <g id="text_11">
      <!-- 0.6 -->
      <g transform="translate(21.957656 139.150504) scale(0.11 -0.11)">
       <use xlink:href="#HiraginoSans-W4-30"/>
       <use xlink:href="#HiraginoSans-W4-2e" x="67.299988"/>
       <use xlink:href="#HiraginoSans-W4-36" x="92.299973"/>
      </g>
     </g>
    </g>
    <g id="ytick_5">
     <g id="line2d_21">
      <path d="M 46.512969 85.903443 
L 512.535469 85.903443 
" clip-path="url(#pcc1f8ec9d2)" style="fill: none; stroke: #b0b0b0; stroke-opacity: 0.25; stroke-width: 0.8; stroke-linecap: square"/>
     </g>
     <g id="line2d_22">
      <g>
       <use xlink:href="#mb3b38a01bc" x="46.512969" y="85.903443" style="stroke: #000000; stroke-width: 0.8"/>
      </g>
     </g>
     <g id="text_12">
      <!-- 0.8 -->
      <g transform="translate(21.957656 90.1436) scale(0.11 -0.11)">
       <use xlink:href="#HiraginoSans-W4-30"/>
       <use xlink:href="#HiraginoSans-W4-2e" x="67.299988"/>
       <use xlink:href="#HiraginoSans-W4-38" x="92.299973"/>
      </g>
     </g>
    </g>
    <g id="ytick_6">
     <g id="line2d_23">
      <path d="M 46.512969 36.896539 
L 512.535469 36.896539 
" clip-path="url(#pcc1f8ec9d2)" style="fill: none; stroke: #b0b0b0; stroke-opacity: 0.25; stroke-width: 0.8; stroke-linecap: square"/>
     </g>
     <g id="line2d_24">
      <g>
       <use xlink:href="#mb3b38a01bc" x="46.512969" y="36.896539" style="stroke: #000000; stroke-width: 0.8"/>
      </g>
     </g>
     <g id="text_13">
      <!-- 1.0 -->
      <g transform="translate(21.957656 41.136695) scale(0.11 -0.11)">
       <use xlink:href="#HiraginoSans-W4-31"/>
       <use xlink:href="#HiraginoSans-W4-2e" x="67.299988"/>
       <use xlink:href="#HiraginoSans-W4-30" x="92.299973"/>
      </g>
     </g>
    </g>
    <g id="text_14">
     <!-- シェル内の体積割合 -->
     <g transform="translate(15.680313 202.787937) rotate(-90) scale(0.11 -0.11)">
      <defs>
       <path id="HiraginoSans-W4-30b7" d="M 1370 4506 
C 1856 4339 2496 4000 2982 3654 
L 3283 4154 
C 2733 4493 2291 4717 1664 4966 
L 1370 4506 
z
M 864 2970 
C 1472 2733 2048 2426 2528 2074 
L 2816 2586 
C 2272 2931 1779 3181 1171 3430 
L 864 2970 
z
M 1120 -102 
C 1216 -70 1242 -64 1376 -38 
C 1504 -13 1613 13 1722 32 
C 2246 141 2931 371 3386 595 
C 4518 1158 5299 2035 5862 3366 
C 5645 3520 5574 3578 5382 3776 
C 5190 3206 4979 2816 4621 2349 
C 4109 1677 3507 1222 2726 928 
C 2074 678 1408 525 966 525 
L 1120 -102 
z
" transform="scale(0.015625)"/>
       <path id="HiraginoSans-W4-30a7" d="M 3430 2611 
L 4365 2611 
C 4698 2611 4787 2605 4966 2586 
L 4966 3117 
C 4794 3085 4627 3072 4358 3072 
L 2035 3072 
C 1760 3072 1613 3085 1427 3110 
L 1427 2586 
C 1594 2605 1766 2611 2035 2611 
L 2906 2611 
L 2906 448 
L 1645 448 
C 1357 448 1229 454 1037 486 
L 1037 -45 
C 1203 -26 1357 -19 1651 -19 
L 4749 -19 
C 5030 -19 5203 -26 5363 -51 
L 5363 480 
C 5178 454 5075 448 4749 448 
L 3430 448 
L 3430 2611 
z
" transform="scale(0.015625)"/>
       <path id="HiraginoSans-W4-30eb" d="M 1664 4909 
C 1683 4755 1683 4717 1683 4403 
C 1683 3091 1600 2272 1402 1709 
C 1190 1107 864 653 346 243 
C 570 96 640 26 806 -186 
C 1376 365 1690 819 1907 1427 
C 2144 2074 2195 2541 2246 4314 
C 2259 4710 2259 4717 2285 4877 
L 1664 4909 
z
M 3277 4960 
C 3302 4832 3309 4685 3309 4435 
C 3309 4390 3309 4346 3309 4294 
L 3270 672 
C 3270 371 3264 288 3226 166 
L 3526 -166 
C 3584 -134 3603 -128 3680 -96 
C 3744 -70 3808 -45 3885 -19 
C 4256 128 4512 256 4787 442 
C 5357 826 5779 1363 6106 2118 
C 5901 2291 5837 2355 5683 2560 
C 5530 2074 5299 1670 4960 1312 
C 4646 973 4339 774 3834 570 
L 3866 4288 
C 3872 4666 3878 4768 3910 4954 
L 3277 4960 
z
" transform="scale(0.015625)"/>
       <path id="HiraginoSans-W4-5185" d="M 5286 3968 
L 5286 294 
C 5286 141 5242 122 4947 122 
C 4659 122 4390 147 4077 198 
C 4154 0 4179 -102 4205 -326 
C 4493 -346 4698 -352 4922 -352 
C 5651 -352 5792 -262 5792 186 
L 5792 3872 
C 5792 4128 5798 4275 5818 4454 
C 5606 4429 5434 4422 5146 4422 
L 3424 4422 
C 3430 4544 3430 4570 3437 4928 
C 3450 5152 3456 5254 3488 5395 
L 2906 5395 
C 2938 5216 2944 5094 2944 4838 
C 2944 4717 2938 4602 2931 4422 
L 1274 4422 
C 998 4422 826 4429 608 4454 
C 627 4294 634 4122 634 3866 
L 634 275 
C 634 -26 621 -243 589 -454 
L 1171 -454 
C 1146 -288 1139 -102 1139 269 
L 1139 3968 
L 2893 3968 
C 2803 3219 2611 2733 2240 2298 
C 1965 1984 1715 1792 1203 1504 
C 1357 1363 1459 1242 1542 1101 
C 2189 1504 2534 1818 2835 2285 
C 2989 2522 3098 2739 3187 3027 
C 3501 2323 4070 1702 4883 1178 
C 4979 1357 5082 1491 5216 1626 
C 4672 1926 4282 2240 3987 2598 
C 3693 2950 3507 3264 3341 3680 
C 3360 3795 3366 3840 3379 3968 
L 5286 3968 
z
" transform="scale(0.015625)"/>
       <path id="HiraginoSans-W4-306e" d="M 3053 422 
C 3200 243 3245 160 3328 -96 
C 3821 6 4090 90 4397 237 
C 5293 666 5798 1459 5798 2451 
C 5798 3802 4832 4698 3379 4698 
C 2509 4698 1792 4403 1274 3834 
C 832 3347 589 2707 589 2042 
C 589 1107 1062 422 1709 422 
C 2189 422 2573 806 2938 1645 
C 3238 2323 3469 3264 3578 4205 
C 3891 4186 4070 4141 4294 4032 
C 4902 3738 5242 3174 5242 2477 
C 5242 1734 4870 1107 4230 768 
C 3917 602 3610 512 3053 422 
z
M 3027 4192 
C 2944 3398 2714 2483 2458 1888 
C 2195 1286 1952 992 1702 992 
C 1370 992 1114 1453 1114 2035 
C 1114 2797 1491 3501 2112 3891 
C 2394 4077 2656 4160 3027 4192 
z
" transform="scale(0.015625)"/>
       <path id="HiraginoSans-W4-4f53" d="M 3648 774 
L 3648 179 
C 3648 -51 3635 -262 3603 -486 
L 4147 -486 
C 4122 -256 4109 -51 4109 179 
L 4109 774 
L 4672 774 
C 4896 774 5018 768 5171 749 
L 5171 1242 
C 5030 1216 4896 1210 4666 1210 
L 4109 1210 
L 4109 2406 
C 4109 2669 4102 2893 4090 3187 
C 4416 2477 4659 2074 5050 1594 
C 5331 1242 5594 979 5952 685 
C 6074 883 6163 1005 6298 1126 
C 5389 1786 4883 2406 4307 3578 
L 5440 3578 
C 5683 3578 5920 3565 6112 3539 
L 6112 4064 
C 5920 4038 5709 4026 5434 4026 
L 4109 4026 
L 4109 4698 
C 4109 4922 4128 5158 4154 5318 
L 3597 5318 
C 3629 5126 3642 4902 3642 4698 
L 3642 4026 
L 2554 4026 
C 2298 4026 2067 4038 1894 4058 
L 1894 3539 
C 2099 3565 2310 3578 2541 3578 
L 3443 3578 
C 3264 3155 3098 2848 2835 2470 
C 2445 1901 2086 1530 1542 1126 
C 1734 947 1792 883 1888 717 
C 2323 1082 2624 1408 2918 1811 
C 3238 2259 3405 2560 3667 3181 
C 3654 2899 3648 2707 3648 2394 
L 3648 1210 
L 3149 1210 
C 2918 1210 2778 1216 2637 1242 
L 2637 749 
C 2790 768 2918 774 3136 774 
L 3648 774 
z
M 1011 275 
C 1011 -58 1005 -250 973 -486 
L 1523 -486 
C 1504 -269 1491 -45 1491 262 
L 1491 3706 
C 1696 4122 1754 4250 1952 4787 
C 2022 4973 2042 5024 2118 5216 
L 1594 5370 
C 1542 5062 1485 4864 1350 4525 
C 1075 3814 698 3219 154 2624 
C 294 2419 333 2355 416 2144 
C 691 2458 832 2662 1030 3008 
C 1018 2726 1011 2547 1011 2240 
L 1011 275 
z
" transform="scale(0.015625)"/>
       <path id="HiraginoSans-W4-7a4d" d="M 2266 3091 
C 2445 3117 2605 3130 2854 3130 
L 5485 3130 
C 5741 3130 5882 3123 6080 3091 
L 6080 3539 
C 5914 3514 5747 3501 5485 3501 
L 4314 3501 
L 4314 3853 
L 5171 3853 
C 5440 3853 5568 3846 5728 3827 
L 5728 4224 
C 5581 4205 5434 4198 5165 4198 
L 4314 4198 
L 4314 4525 
L 5344 4525 
C 5619 4525 5728 4518 5920 4493 
L 5920 4928 
C 5728 4902 5568 4890 5325 4890 
L 4314 4890 
C 4314 5088 4320 5210 4352 5344 
L 3840 5344 
C 3866 5210 3878 5101 3878 4890 
L 3002 4890 
C 2739 4890 2579 4896 2432 4922 
L 2432 4493 
C 2605 4518 2714 4525 2976 4525 
L 3878 4525 
L 3878 4198 
L 3110 4198 
C 2874 4198 2726 4205 2586 4224 
L 2586 3827 
C 2733 3846 2861 3853 3117 3853 
L 3878 3853 
L 3878 3501 
L 2854 3501 
C 2598 3501 2438 3507 2310 3526 
L 2310 3744 
C 2182 3725 2080 3718 1869 3718 
L 1683 3718 
L 1683 4710 
C 1888 4781 2054 4838 2163 4890 
C 2272 4934 2272 4934 2368 4973 
L 2093 5363 
C 1792 5146 1075 4934 333 4838 
C 442 4666 474 4595 518 4422 
C 870 4493 1005 4518 1229 4576 
L 1229 3718 
L 896 3718 
C 640 3718 506 3725 358 3750 
L 358 3264 
C 518 3290 640 3296 883 3296 
L 1178 3296 
C 1030 2611 659 1843 224 1350 
C 365 1184 416 1107 506 941 
C 851 1395 1075 1856 1267 2560 
C 1242 2253 1229 1843 1229 1536 
L 1229 256 
C 1229 -58 1216 -294 1190 -480 
L 1722 -480 
C 1690 -301 1683 -109 1683 256 
L 1683 1805 
C 1683 2061 1664 2445 1645 2714 
C 1824 2272 1926 2080 2157 1792 
C 2234 1946 2304 2048 2400 2150 
C 2054 2502 1843 2848 1696 3296 
L 1862 3296 
C 2042 3296 2144 3290 2266 3277 
L 2266 3091 
z
M 5139 486 
C 5357 486 5498 480 5690 467 
C 5670 602 5664 736 5664 1069 
L 5664 2285 
C 5664 2618 5664 2726 5690 2867 
C 5523 2854 5408 2848 5126 2848 
L 3123 2848 
C 2861 2848 2720 2854 2573 2861 
C 2592 2733 2598 2611 2598 2304 
L 2598 1050 
C 2598 800 2586 602 2573 467 
C 2643 474 2835 480 3136 486 
L 5139 486 
z
M 3034 2490 
L 5222 2490 
L 5222 2176 
L 3034 2176 
L 3034 2490 
z
M 3034 1843 
L 5222 1843 
L 5222 1517 
L 3034 1517 
L 3034 1843 
z
M 3034 1184 
L 5222 1184 
L 5222 845 
L 3034 845 
L 3034 1184 
z
M 3392 467 
C 2906 141 2586 6 1971 -128 
C 2125 -314 2157 -358 2240 -531 
C 2886 -339 3232 -173 3699 179 
L 3392 467 
z
M 4531 179 
C 5011 -166 5357 -326 5978 -525 
C 6074 -333 6125 -250 6246 -102 
C 5658 45 5325 179 4813 474 
L 4531 179 
z
" transform="scale(0.015625)"/>
       <path id="HiraginoSans-W4-5272" d="M 1933 3494 
L 1933 3091 
L 1274 3091 
C 1030 3091 909 3098 742 3117 
L 742 2682 
C 896 2701 1024 2707 1274 2707 
L 1933 2707 
L 1933 2253 
L 934 2253 
C 666 2253 531 2259 371 2285 
L 371 1818 
C 525 1843 698 1850 934 1850 
L 3309 1850 
C 3571 1850 3693 1843 3859 1818 
L 3859 2285 
C 3699 2259 3571 2253 3309 2253 
L 2374 2253 
L 2374 2707 
L 2995 2707 
C 3245 2707 3360 2701 3520 2682 
L 3520 3117 
C 3354 3098 3232 3091 2995 3091 
L 2374 3091 
L 2374 3494 
L 2886 3494 
C 3136 3494 3270 3488 3437 3462 
L 3437 3738 
L 3878 3738 
C 3866 3866 3859 3987 3859 4160 
L 3859 4416 
C 3859 4582 3866 4710 3878 4838 
C 3680 4819 3488 4813 3168 4813 
L 2406 4813 
L 2406 4864 
C 2406 5088 2419 5222 2445 5350 
L 1888 5350 
C 1914 5210 1926 5082 1926 4864 
L 1926 4813 
L 1030 4813 
C 717 4813 570 4819 390 4838 
C 410 4710 416 4582 416 4397 
L 416 4122 
C 416 3930 410 3814 390 3680 
L 845 3680 
L 845 3462 
C 1011 3488 1152 3494 1402 3494 
L 1933 3494 
z
M 1402 3878 
C 1146 3878 1011 3885 864 3904 
L 864 4416 
L 3424 4416 
L 3424 3904 
C 3277 3885 3142 3878 2886 3878 
L 2374 3878 
C 2374 4070 2381 4147 2406 4250 
L 1901 4250 
C 1926 4134 1933 4064 1933 3878 
L 1402 3878 
z
M 1350 1453 
C 1101 1453 934 1459 787 1478 
C 806 1286 813 1120 813 883 
L 813 90 
C 813 -160 800 -320 774 -499 
L 1286 -499 
L 1286 -198 
L 2982 -198 
L 2982 -416 
L 3488 -416 
C 3462 -262 3456 -115 3456 179 
L 3456 896 
C 3456 1165 3462 1286 3482 1478 
C 3328 1459 3187 1453 2957 1453 
L 1350 1453 
z
M 1286 1050 
L 2982 1050 
L 2982 205 
L 1286 205 
L 1286 1050 
z
M 4205 4934 
C 4230 4768 4237 4621 4237 4243 
L 4237 1715 
C 4237 1325 4230 1197 4205 1005 
L 4736 1005 
C 4710 1165 4704 1312 4704 1709 
L 4704 4250 
C 4704 4589 4710 4768 4742 4934 
L 4205 4934 
z
M 5350 5293 
C 5376 5082 5389 4896 5389 4506 
L 5389 250 
C 5389 90 5338 58 5075 58 
C 4890 58 4653 77 4333 115 
C 4403 -51 4435 -179 4467 -365 
C 4685 -378 4909 -390 5056 -390 
C 5722 -390 5869 -275 5869 224 
L 5869 4518 
C 5869 4890 5882 5114 5914 5293 
L 5350 5293 
z
" transform="scale(0.015625)"/>
       <path id="HiraginoSans-W4-5408" d="M 1677 2899 
C 1824 2918 1990 2925 2189 2925 
L 4186 2925 
C 4429 2925 4595 2918 4736 2899 
L 4736 3411 
C 5178 3104 5498 2918 5958 2701 
C 6042 2899 6112 3014 6234 3187 
C 5626 3424 5056 3750 4518 4186 
C 4019 4582 3731 4890 3456 5318 
L 2893 5318 
C 2630 4883 2381 4595 1926 4211 
C 1402 3763 832 3424 198 3162 
C 358 2989 422 2893 493 2720 
C 966 2938 1203 3078 1677 3398 
L 1677 2899 
z
M 2195 3386 
C 1971 3386 1811 3392 1690 3411 
C 2355 3878 2733 4256 3187 4890 
C 3597 4320 4032 3898 4730 3411 
C 4595 3392 4435 3386 4186 3386 
L 2195 3386 
z
M 1690 -435 
L 1690 -77 
L 4698 -77 
L 4698 -435 
L 5242 -435 
C 5216 -243 5203 -58 5203 205 
L 5203 1645 
C 5203 1901 5210 2067 5235 2240 
C 5101 2221 4960 2214 4723 2214 
L 1664 2214 
C 1427 2214 1286 2221 1152 2240 
C 1178 2061 1184 1888 1184 1645 
L 1184 205 
C 1184 -51 1171 -230 1146 -435 
L 1690 -435 
z
M 1690 1766 
L 4698 1766 
L 4698 371 
L 1690 371 
L 1690 1766 
z
" transform="scale(0.015625)"/>
      </defs>
      <use xlink:href="#HiraginoSans-W4-30b7"/>
      <use xlink:href="#HiraginoSans-W4-30a7" x="99.999985"/>
      <use xlink:href="#HiraginoSans-W4-30eb" x="199.999969"/>
      <use xlink:href="#HiraginoSans-W4-5185" x="299.999954"/>
      <use xlink:href="#HiraginoSans-W4-306e" x="399.999939"/>
      <use xlink:href="#HiraginoSans-W4-4f53" x="499.999924"/>
      <use xlink:href="#HiraginoSans-W4-7a4d" x="599.999908"/>
      <use xlink:href="#HiraginoSans-W4-5272" x="699.999893"/>
      <use xlink:href="#HiraginoSans-W4-5408" x="799.999878"/>
     </g>
    </g>
   </g>
   <g id="line2d_25">
    <path d="M 51.173194 279.480717 
L 55.833419 277.054875 
L 60.493644 274.653292 
L 65.153869 272.275725 
L 69.814094 269.921933 
L 74.474319 267.591679 
L 79.134544 265.284727 
L 83.794769 263.000845 
L 88.454994 260.739802 
L 93.115219 258.50137 
L 97.775444 256.285321 
L 102.435669 254.091434 
L 107.095894 251.919485 
L 111.756119 249.769255 
L 116.416344 247.640528 
L 121.076569 245.533088 
L 125.736794 243.446723 
L 130.397019 241.381221 
L 135.057244 239.336374 
L 139.717469 237.311976 
L 144.377694 235.307821 
L 149.037919 233.323708 
L 153.698144 231.359437 
L 158.358369 229.414808 
L 163.018594 227.489625 
L 167.678819 225.583694 
L 172.339044 223.696823 
L 176.999269 221.82882 
L 181.659494 219.979497 
L 186.319719 218.148667 
L 190.979944 216.336146 
L 195.640169 214.54175 
L 200.300394 212.765298 
L 204.960619 211.00661 
L 209.620844 209.26551 
L 214.281069 207.54182 
L 218.941294 205.835367 
L 223.601519 204.145979 
L 228.261744 202.473484 
L 232.921969 200.817715 
L 237.582194 199.178503 
L 242.242419 197.555684 
L 246.902644 195.949092 
L 251.562869 194.358567 
L 256.223094 192.783946 
L 260.883319 191.225072 
L 265.543544 189.681787 
L 270.203769 188.153934 
L 274.863994 186.64136 
L 279.524219 185.143912 
L 284.184444 183.661439 
L 288.844669 182.19379 
L 293.504894 180.740817 
L 298.165119 179.302374 
L 302.825344 177.878316 
L 307.485569 176.468498 
L 312.145794 175.072779 
L 316.806019 173.691016 
L 321.466244 172.323071 
L 326.126469 170.968806 
L 330.786694 169.628083 
L 335.446919 168.300768 
L 340.107144 166.986726 
L 344.767369 165.685824 
L 349.427594 164.397931 
L 354.087819 163.122917 
L 358.748044 161.860653 
L 363.408269 160.611012 
L 368.068494 159.373867 
L 372.728719 158.149094 
L 377.388944 156.936568 
L 382.049169 155.736168 
L 386.709394 154.547772 
L 391.369619 153.37126 
L 396.029844 152.206512 
L 400.690069 151.053413 
L 405.350294 149.911844 
L 410.010519 148.781691 
L 414.670744 147.662839 
L 419.330969 146.555176 
L 423.991194 145.45859 
L 428.651419 144.372969 
L 433.311644 143.298205 
L 437.971869 142.234188 
L 442.632094 141.180812 
L 447.292319 140.137969 
L 451.952544 139.105555 
L 456.612769 138.083465 
L 461.272994 137.071595 
L 465.933219 136.069845 
L 470.593444 135.078112 
L 475.253669 134.096296 
L 479.913894 133.124299 
L 484.574119 132.162021 
L 489.234344 131.209366 
L 493.894569 130.266238 
L 498.554794 129.332541 
L 503.215019 128.408181 
L 507.875244 127.493064 
L 512.535469 126.587099 
" clip-path="url(#pcc1f8ec9d2)" style="fill: none; stroke: #1f77b4; stroke-width: 1.7; stroke-linecap: square"/>
   </g>
   <g id="line2d_26">
    <path d="M 51.173194 269.679336 
L 55.833419 258.040196 
L 60.493644 246.983014 
L 65.153869 236.47869 
L 69.814094 226.499582 
L 74.474319 217.01943 
L 79.134544 208.013285 
L 83.794769 199.457448 
L 88.454994 191.329403 
L 93.115219 183.607759 
L 97.775444 176.272198 
L 102.435669 169.303415 
L 107.095894 162.683072 
L 111.756119 156.393745 
L 116.416344 150.418885 
L 121.076569 144.742767 
L 125.736794 139.350456 
L 130.397019 134.22776 
L 135.057244 129.361199 
L 139.717469 124.737966 
L 144.377694 120.345895 
L 149.037919 116.173427 
L 153.698144 112.209582 
L 158.358369 108.44393 
L 163.018594 104.866561 
L 167.678819 101.46806 
L 172.339044 98.239484 
L 176.999269 95.172336 
L 181.659494 92.258546 
L 186.319719 89.490446 
L 190.979944 86.860751 
L 195.640169 84.36254 
L 200.300394 81.98924 
L 204.960619 79.734605 
L 209.620844 77.592702 
L 214.281069 75.557893 
L 218.941294 73.624826 
L 223.601519 71.788411 
L 228.261744 70.043818 
L 232.921969 68.386454 
L 237.582194 66.811958 
L 242.242419 65.316187 
L 246.902644 63.895205 
L 251.562869 62.545271 
L 256.223094 61.262835 
L 260.883319 60.04452 
L 265.543544 58.887121 
L 270.203769 57.787592 
L 274.863994 56.743039 
L 279.524219 55.750714 
L 284.184444 54.808005 
L 288.844669 53.912432 
L 293.504894 53.061637 
L 298.165119 52.253382 
L 302.825344 51.48554 
L 307.485569 50.75609 
L 312.145794 50.063113 
L 316.806019 49.404784 
L 321.466244 48.779372 
L 326.126469 48.18523 
L 330.786694 47.620795 
L 335.446919 47.084583 
L 340.107144 46.57518 
L 344.767369 46.091248 
L 349.427594 45.631513 
L 354.087819 45.194764 
L 358.748044 44.779853 
L 363.408269 44.385687 
L 368.068494 44.01123 
L 372.728719 43.655495 
L 377.388944 43.317547 
L 382.049169 42.996497 
L 386.709394 42.691499 
L 391.369619 42.401751 
L 396.029844 42.12649 
L 400.690069 41.864993 
L 405.350294 41.61657 
L 410.010519 41.380568 
L 414.670744 41.156367 
L 419.330969 40.943376 
L 423.991194 40.741034 
L 428.651419 40.548809 
L 433.311644 40.366195 
L 437.971869 40.192713 
L 442.632094 40.027904 
L 447.292319 39.871336 
L 451.952544 39.722596 
L 456.612769 39.581293 
L 461.272994 39.447055 
L 465.933219 39.319529 
L 470.593444 39.19838 
L 475.253669 39.083288 
L 479.913894 38.97395 
L 484.574119 38.87008 
L 489.234344 38.771403 
L 493.894569 38.67766 
L 498.554794 38.588603 
L 503.215019 38.504 
L 507.875244 38.423627 
L 512.535469 38.347273 
" clip-path="url(#pcc1f8ec9d2)" style="fill: none; stroke: #ff7f0e; stroke-width: 1.7; stroke-linecap: square"/>
   </g>
   <g id="line2d_27">
    <path d="M 51.173194 257.42761 
L 55.833419 235.374503 
L 60.493644 215.526707 
L 65.153869 197.66369 
L 69.814094 181.586975 
L 74.474319 167.117931 
L 79.134544 154.095792 
L 83.794769 142.375867 
L 88.454994 131.827934 
L 93.115219 122.334794 
L 97.775444 113.790969 
L 102.435669 106.101526 
L 107.095894 99.181027 
L 111.756119 92.952578 
L 116.416344 87.346974 
L 121.076569 82.301931 
L 125.736794 77.761391 
L 130.397019 73.674906 
L 135.057244 69.997069 
L 139.717469 66.687016 
L 144.377694 63.707969 
L 149.037919 61.026826 
L 153.698144 58.613797 
L 158.358369 56.442071 
L 163.018594 54.487518 
L 167.678819 52.72842 
L 172.339044 51.145232 
L 176.999269 49.720362 
L 181.659494 48.43798 
L 186.319719 47.283836 
L 190.979944 46.245106 
L 195.640169 45.310249 
L 200.300394 44.468878 
L 204.960619 43.711644 
L 209.620844 43.030134 
L 214.281069 42.416774 
L 218.941294 41.864751 
L 223.601519 41.36793 
L 228.261744 40.92079 
L 232.921969 40.518365 
L 237.582194 40.156183 
L 242.242419 39.830218 
L 246.902644 39.53685 
L 251.562869 39.272819 
L 256.223094 39.035191 
L 260.883319 38.821326 
L 265.543544 38.628847 
L 270.203769 38.455616 
L 274.863994 38.299709 
L 279.524219 38.159392 
L 284.184444 38.033106 
L 288.844669 37.91945 
L 293.504894 37.817158 
L 298.165119 37.725096 
L 302.825344 37.642241 
L 307.485569 37.56767 
L 312.145794 37.500557 
L 316.806019 37.440155 
L 321.466244 37.385794 
L 326.126469 37.336868 
L 330.786694 37.292835 
L 335.446919 37.253206 
L 340.107144 37.217539 
L 344.767369 37.185439 
L 349.427594 37.156549 
L 354.087819 37.130548 
L 358.748044 37.107147 
L 363.408269 37.086086 
L 368.068494 37.067131 
L 372.728719 37.050072 
L 377.388944 37.034719 
L 382.049169 37.020901 
L 386.709394 37.008465 
L 391.369619 36.997272 
L 396.029844 36.987199 
L 400.690069 36.978133 
L 405.350294 36.969973 
L 410.010519 36.96263 
L 414.670744 36.956021 
L 419.330969 36.950072 
L 423.991194 36.944719 
L 428.651419 36.939901 
L 433.311644 36.935565 
L 437.971869 36.931662 
L 442.632094 36.92815 
L 447.292319 36.924989 
L 451.952544 36.922144 
L 456.612769 36.919583 
L 461.272994 36.917279 
L 465.933219 36.915205 
L 470.593444 36.913338 
L 475.253669 36.911658 
L 479.913894 36.910146 
L 484.574119 36.908786 
L 489.234344 36.907561 
L 493.894569 36.906459 
L 498.554794 36.905467 
L 503.215019 36.904574 
L 507.875244 36.90377 
L 512.535469 36.903047 
" clip-path="url(#pcc1f8ec9d2)" style="fill: none; stroke: #2ca02c; stroke-width: 1.7; stroke-linecap: square"/>
   </g>
   <g id="line2d_28">
    <path d="M 51.173194 232.924158 
L 55.833419 193.718634 
L 60.493644 162.354215 
L 65.153869 137.26268 
L 69.814094 117.189451 
L 74.474319 101.130869 
L 79.134544 88.284003 
L 83.794769 78.00651 
L 88.454994 69.784516 
L 93.115219 63.20692 
L 97.775444 57.944844 
L 102.435669 53.735183 
L 107.095894 50.367454 
L 111.756119 47.673271 
L 116.416344 45.517925 
L 121.076569 43.793647 
L 125.736794 42.414226 
L 130.397019 41.310688 
L 135.057244 40.427858 
L 139.717469 39.721594 
L 144.377694 39.156583 
L 149.037919 38.704574 
L 153.698144 38.342967 
L 158.358369 38.053682 
L 163.018594 37.822253 
L 167.678819 37.63711 
L 172.339044 37.488996 
L 176.999269 37.370504 
L 181.659494 37.275711 
L 186.319719 37.199877 
L 190.979944 37.139209 
L 195.640169 37.090675 
L 200.300394 37.051848 
L 204.960619 37.020786 
L 209.620844 36.995937 
L 214.281069 36.976057 
L 218.941294 36.960153 
L 223.601519 36.94743 
L 228.261744 36.937252 
L 232.921969 36.929109 
L 237.582194 36.922595 
L 242.242419 36.917384 
L 246.902644 36.913215 
L 251.562869 36.90988 
L 256.223094 36.907211 
L 260.883319 36.905077 
L 265.543544 36.903369 
L 270.203769 36.902003 
L 274.863994 36.90091 
L 279.524219 36.900036 
L 284.184444 36.899336 
L 288.844669 36.898777 
L 293.504894 36.898329 
L 298.165119 36.897971 
L 302.825344 36.897685 
L 307.485569 36.897455 
L 312.145794 36.897272 
L 316.806019 36.897125 
L 321.466244 36.897008 
L 326.126469 36.896914 
L 330.786694 36.896839 
L 335.446919 36.896779 
L 340.107144 36.896731 
L 344.767369 36.896693 
L 349.427594 36.896662 
L 354.087819 36.896637 
L 358.748044 36.896617 
L 363.408269 36.896602 
L 368.068494 36.896589 
L 372.728719 36.896579 
L 377.388944 36.896571 
L 382.049169 36.896564 
L 386.709394 36.896559 
L 391.369619 36.896555 
L 396.029844 36.896552 
L 400.690069 36.896549 
L 405.350294 36.896547 
L 410.010519 36.896545 
L 414.670744 36.896544 
L 419.330969 36.896543 
L 423.991194 36.896542 
L 428.651419 36.896541 
L 433.311644 36.896541 
L 437.971869 36.89654 
L 442.632094 36.89654 
L 447.292319 36.89654 
L 451.952544 36.89654 
L 456.612769 36.896539 
L 461.272994 36.896539 
L 465.933219 36.896539 
L 470.593444 36.896539 
L 475.253669 36.896539 
L 479.913894 36.896539 
L 484.574119 36.896539 
L 489.234344 36.896539 
L 493.894569 36.896539 
L 498.554794 36.896539 
L 503.215019 36.896539 
L 507.875244 36.896539 
L 512.535469 36.896539 
" clip-path="url(#pcc1f8ec9d2)" style="fill: none; stroke: #d62728; stroke-width: 1.7; stroke-linecap: square"/>
   </g>
   <g id="patch_3">
    <path d="M 46.512969 281.931062 
L 46.512969 24.644812 
" style="fill: none; stroke: #000000; stroke-width: 0.8; stroke-linejoin: miter; stroke-linecap: square"/>
   </g>
   <g id="patch_4">
    <path d="M 46.512969 281.931062 
L 512.535469 281.931062 
" style="fill: none; stroke: #000000; stroke-width: 0.8; stroke-linejoin: miter; stroke-linecap: square"/>
   </g>
   <g id="text_15">
    <!-- §1.4 立方体: 体積の大部分が「皮」に集中するのは高次元ほど顕著 -->
    <g transform="translate(80.382625 18.644813) scale(0.132 -0.132)">
     <defs>
      <path id="HiraginoSans-W4-a7" d="M 557 -147 
C 627 -480 685 -634 819 -819 
C 1082 -1190 1536 -1395 2080 -1395 
C 2957 -1395 3552 -902 3552 -186 
C 3552 45 3488 250 3373 416 
C 3296 525 3226 589 3053 704 
C 3277 800 3373 858 3488 966 
C 3674 1152 3770 1389 3770 1677 
C 3770 2074 3597 2387 3258 2598 
C 3066 2720 2893 2803 2189 3117 
C 1670 3347 1517 3437 1389 3571 
C 1306 3667 1254 3802 1254 3936 
C 1254 4301 1626 4570 2118 4570 
C 2432 4570 2682 4467 2822 4282 
C 2918 4160 2963 4032 3008 3789 
L 3565 3898 
C 3501 4224 3424 4397 3270 4582 
C 3027 4870 2630 5024 2125 5024 
C 1293 5024 710 4563 710 3898 
C 710 3686 774 3482 890 3334 
C 954 3245 1018 3187 1178 3072 
C 672 2822 448 2509 448 2061 
C 448 1779 550 1530 755 1338 
C 928 1171 1126 1062 1715 800 
C 2387 506 2490 454 2675 339 
C 2899 198 2995 32 2995 -198 
C 2995 -621 2630 -915 2106 -915 
C 1754 -915 1453 -768 1299 -518 
C 1222 -397 1184 -275 1152 -38 
L 557 -147 
z
M 2611 960 
C 1997 1235 1664 1389 1491 1478 
C 1139 1670 998 1850 998 2125 
C 998 2426 1158 2611 1594 2822 
C 1914 2669 1933 2656 2112 2573 
C 2650 2317 2816 2234 2950 2138 
C 3155 1990 3238 1850 3238 1638 
C 3238 1338 3066 1152 2611 960 
z
" transform="scale(0.015625)"/>
      <path id="HiraginoSans-W4-7acb" d="M 2893 4282 
L 1312 4282 
C 986 4282 762 4294 576 4326 
L 576 3763 
C 774 3789 1005 3802 1312 3802 
L 5056 3802 
C 5376 3802 5606 3789 5818 3763 
L 5818 4326 
C 5619 4294 5389 4282 5056 4282 
L 3398 4282 
L 3398 4781 
C 3398 4954 3411 5120 3443 5293 
L 2848 5293 
C 2880 5088 2893 4954 2893 4774 
L 2893 4282 
z
M 1101 390 
C 774 390 550 403 333 429 
L 333 -141 
C 538 -109 768 -96 1101 -96 
L 5331 -96 
C 5651 -96 5856 -109 6067 -141 
L 6067 429 
C 5869 403 5638 390 5331 390 
L 3942 390 
C 4243 1024 4557 1850 4768 2528 
C 4973 3206 4973 3206 5037 3347 
L 4454 3533 
C 4358 2822 3866 1325 3411 390 
L 1101 390 
z
M 1402 3283 
C 1709 2522 1933 1715 2106 755 
L 2605 947 
C 2362 2067 2202 2637 1901 3462 
L 1402 3283 
z
" transform="scale(0.015625)"/>
      <path id="HiraginoSans-W4-65b9" d="M 2893 4301 
L 1120 4301 
C 800 4301 589 4314 378 4346 
L 378 3782 
C 557 3808 800 3821 1120 3821 
L 2387 3821 
C 2336 2483 2093 1645 1568 979 
C 1222 538 870 262 307 -26 
C 499 -192 570 -269 678 -461 
C 1005 -269 1133 -179 1331 -13 
C 1670 269 1946 570 2150 883 
C 2458 1350 2630 1792 2771 2502 
L 4704 2502 
C 4666 1638 4621 1139 4518 653 
C 4422 192 4371 122 4090 122 
C 3814 122 3494 154 3136 218 
C 3213 19 3232 -77 3258 -320 
C 3590 -352 3917 -371 4128 -371 
C 4698 -371 4851 -237 4992 346 
C 5101 794 5203 1702 5235 2534 
C 5242 2835 5242 2835 5267 3002 
C 5107 2976 4947 2970 4602 2970 
L 2848 2970 
C 2893 3283 2906 3405 2931 3821 
L 5331 3821 
C 5709 3821 5894 3814 6067 3782 
L 6067 4346 
C 5869 4314 5651 4301 5318 4301 
L 3411 4301 
L 3411 4755 
C 3411 5005 3424 5178 3456 5312 
L 2848 5312 
C 2880 5152 2893 4973 2893 4755 
L 2893 4301 
z
" transform="scale(0.015625)"/>
      <path id="HiraginoSans-W4-3a" d="M 1165 3520 
L 442 3520 
L 442 2797 
L 1165 2797 
L 1165 3520 
z
M 1165 0 
L 1165 723 
L 442 723 
L 442 0 
L 1165 0 
z
" transform="scale(0.015625)"/>
      <path id="HiraginoSans-W4-5927" d="M 5261 3290 
C 5587 3290 5779 3277 5990 3245 
L 5990 3834 
C 5805 3802 5587 3789 5254 3789 
L 3386 3789 
C 3398 4019 3405 4224 3411 4538 
C 3411 4877 3424 5011 3456 5229 
L 2835 5229 
C 2867 5024 2880 4838 2880 4416 
C 2880 4173 2874 4000 2867 3789 
L 1146 3789 
C 800 3789 582 3802 403 3834 
L 403 3245 
C 595 3277 781 3290 1139 3290 
L 2822 3290 
C 2656 1965 2227 1222 1242 550 
C 941 346 717 230 269 45 
C 429 -128 486 -205 589 -422 
C 1197 -154 1613 115 2016 480 
C 2624 1043 3021 1754 3206 2618 
C 3552 1587 4122 781 4941 154 
C 5197 -45 5370 -147 5856 -416 
C 5984 -166 6042 -77 6195 102 
C 5888 230 5734 307 5517 442 
C 5069 710 4666 1050 4403 1376 
C 3949 1939 3629 2573 3437 3290 
L 5261 3290 
z
" transform="scale(0.015625)"/>
      <path id="HiraginoSans-W4-90e8" d="M 2298 4646 
L 2298 4864 
C 2298 5069 2310 5203 2336 5344 
L 1773 5344 
C 1798 5229 1811 5062 1811 4864 
L 1811 4646 
L 1069 4646 
C 768 4646 614 4653 467 4678 
L 467 4179 
C 621 4205 768 4211 1030 4211 
L 2982 4211 
C 3258 4211 3418 4205 3552 4179 
L 3552 4678 
C 3405 4653 3251 4646 2963 4646 
L 2298 4646 
z
M 2733 2912 
C 2944 3322 3034 3546 3168 3981 
L 2701 4122 
C 2592 3648 2496 3373 2278 2912 
L 928 2912 
C 621 2912 467 2918 307 2944 
L 307 2438 
C 467 2464 627 2470 928 2470 
L 3072 2470 
C 3328 2470 3501 2464 3635 2438 
L 3635 2944 
C 3507 2918 3341 2912 3053 2912 
L 2733 2912 
z
M 890 3974 
C 1075 3603 1171 3366 1267 2963 
L 1709 3110 
C 1581 3552 1498 3776 1312 4128 
L 890 3974 
z
M 1203 -70 
L 2746 -70 
L 2746 -454 
L 3245 -454 
C 3226 -307 3219 -186 3219 38 
L 3219 1466 
C 3219 1779 3219 1843 3238 1984 
C 3136 1971 3014 1965 2771 1965 
L 1222 1965 
C 986 1965 858 1971 710 1984 
C 723 1850 730 1734 730 1446 
L 730 128 
C 730 -160 723 -301 704 -461 
L 1203 -461 
L 1203 -70 
z
M 1203 1530 
L 2752 1530 
L 2752 365 
L 1203 365 
L 1203 1530 
z
M 5907 5171 
C 5786 5152 5658 5146 5408 5146 
L 4358 5146 
C 4128 5146 4000 5152 3840 5165 
C 3859 4960 3866 4787 3866 4595 
L 3866 198 
C 3866 -102 3853 -326 3827 -518 
L 4390 -518 
C 4358 -326 4346 -134 4346 205 
L 4346 4704 
L 5510 4704 
C 5286 4064 5075 3597 4691 2950 
C 5107 2573 5267 2374 5427 2048 
C 5562 1760 5632 1478 5632 1184 
C 5632 890 5517 787 5171 787 
C 4979 787 4819 800 4582 838 
C 4653 685 4678 557 4685 339 
C 4864 320 5011 314 5171 314 
C 5459 314 5664 352 5786 422 
C 6003 544 6118 800 6118 1152 
C 6118 1446 6054 1754 5933 2042 
C 5786 2387 5632 2605 5242 3021 
C 5485 3443 5709 3898 5882 4288 
C 6086 4774 6086 4774 6131 4858 
L 5907 5171 
z
" transform="scale(0.015625)"/>
      <path id="HiraginoSans-W4-5206" d="M 2458 2598 
C 2413 2054 2323 1722 2112 1331 
C 1811 762 1274 301 518 -32 
C 685 -198 755 -294 851 -467 
C 2003 115 2630 870 2880 1952 
C 2925 2163 2944 2272 2970 2598 
L 4390 2598 
C 4390 1715 4333 954 4243 538 
C 4173 205 4128 166 3853 166 
C 3622 166 3328 198 2982 269 
C 3059 51 3085 -70 3110 -269 
C 3488 -301 3706 -314 3898 -314 
C 4326 -314 4499 -243 4614 -26 
C 4781 288 4890 1299 4902 2618 
C 4902 2925 4902 2963 4922 3085 
C 4736 3059 4544 3053 4250 3053 
L 2067 3053 
C 1824 3053 1619 3066 1440 3085 
L 1440 2560 
C 1619 2586 1824 2598 2067 2598 
L 2458 2598 
z
M 2189 5299 
C 2157 5114 2080 4922 1926 4634 
C 1517 3885 973 3296 192 2771 
C 358 2624 467 2496 557 2342 
C 1446 3002 2099 3795 2573 4774 
C 2656 4954 2694 5018 2752 5101 
L 2189 5299 
z
M 3629 5082 
C 3667 5018 3718 4922 3770 4819 
C 4294 3763 4909 3034 5882 2317 
C 6003 2528 6099 2656 6234 2790 
C 5389 3341 4838 3923 4384 4742 
C 4243 4986 4186 5114 4134 5286 
L 3629 5082 
z
" transform="scale(0.015625)"/>
      <path id="HiraginoSans-W4-304c" d="M 531 3002 
C 813 3072 1082 3123 1773 3226 
C 1568 2406 1389 1888 1094 1254 
C 877 781 621 326 429 83 
L 954 -218 
L 1370 589 
C 1792 1459 2067 2234 2310 3270 
C 2496 3290 2611 3296 2746 3296 
C 3315 3296 3494 3091 3494 2438 
C 3494 1722 3398 1075 3232 685 
C 3155 499 3034 403 2880 403 
C 2656 403 2291 512 1939 685 
C 1965 531 1971 448 1971 333 
C 1971 256 1965 218 1958 109 
C 2374 -58 2656 -122 2925 -122 
C 3232 -122 3418 -45 3578 173 
C 3853 538 4026 1395 4026 2413 
C 4026 2957 3936 3251 3718 3475 
C 3514 3674 3232 3757 2797 3757 
C 2656 3757 2560 3757 2406 3744 
C 2438 3891 2509 4301 2541 4467 
C 2598 4826 2618 4934 2656 5062 
L 2054 5133 
L 2054 5043 
C 2054 4781 1978 4224 1875 3699 
C 1338 3616 698 3546 467 3546 
L 531 3002 
z
M 4262 3898 
C 4864 3270 5312 2451 5549 1530 
L 6048 1805 
C 5760 2726 5363 3424 4717 4134 
L 4262 3898 
z
M 5357 5357 
C 5638 5024 5830 4736 6016 4365 
L 6387 4576 
C 6157 4998 6016 5197 5715 5549 
L 5357 5357 
z
M 4614 5011 
C 4877 4717 5082 4397 5280 4000 
L 5658 4211 
C 5434 4627 5286 4845 4986 5203 
L 4614 5011 
z
" transform="scale(0.015625)"/>
      <path id="HiraginoSans-W4-300c" d="M 4870 2048 
L 4870 4922 
L 6106 4922 
L 6106 5395 
L 4346 5395 
L 4346 2048 
L 4870 2048 
z
" transform="scale(0.015625)"/>
      <path id="HiraginoSans-W4-76ae" d="M 3533 2925 
L 3533 4013 
L 5280 4013 
C 5107 3699 4992 3533 4762 3283 
C 4922 3238 5011 3200 5222 3098 
C 5402 3328 5530 3520 5709 3859 
C 5862 4134 5862 4134 5933 4243 
L 5683 4506 
C 5517 4480 5414 4474 4941 4474 
L 3533 4474 
L 3533 4762 
C 3533 5030 3539 5184 3558 5331 
L 3014 5331 
C 3046 5178 3059 5050 3059 4768 
L 3059 4474 
L 1651 4474 
C 1338 4474 1139 4480 947 4499 
C 979 4269 992 4083 992 3654 
C 992 1754 787 704 256 -96 
C 429 -198 538 -288 666 -442 
C 915 -13 1030 243 1158 672 
C 1318 1203 1395 1690 1446 2483 
L 1990 2483 
C 2381 1722 2656 1350 3181 870 
C 2624 480 2016 205 1139 -45 
C 1286 -211 1357 -307 1440 -493 
C 2317 -198 2925 109 3546 576 
C 4128 141 4858 -211 5728 -474 
C 5805 -275 5875 -147 6010 32 
C 5114 262 4474 518 3923 883 
C 4448 1344 4877 1894 5190 2490 
C 5235 2586 5248 2605 5280 2650 
L 4998 2957 
C 4845 2931 4717 2925 4365 2925 
L 3533 2925 
z
M 3059 2925 
L 1466 2925 
C 1472 3168 1478 3302 1478 3488 
L 1478 4013 
L 3059 4013 
L 3059 2925 
z
M 4614 2483 
C 4224 1837 3987 1542 3546 1158 
C 3110 1523 2810 1901 2496 2483 
L 4614 2483 
z
" transform="scale(0.015625)"/>
      <path id="HiraginoSans-W4-300d" d="M 1530 2816 
L 1530 -58 
L 294 -58 
L 294 -531 
L 2054 -531 
L 2054 2816 
L 1530 2816 
z
" transform="scale(0.015625)"/>
      <path id="HiraginoSans-W4-306b" d="M 1382 838 
C 1382 947 1376 973 1376 1114 
C 1370 1286 1363 1594 1363 1722 
C 1363 2451 1414 3117 1510 3680 
C 1600 4179 1715 4653 1830 4954 
L 1222 5037 
C 1210 4877 1197 4813 1133 4493 
C 928 3546 851 2854 851 1958 
C 851 1312 896 838 1018 134 
C 1037 6 1043 -32 1056 -134 
L 1613 -96 
C 1606 -45 1606 0 1606 26 
C 1606 416 1824 1152 2144 1830 
L 1760 2010 
C 1555 1504 1453 1197 1389 838 
L 1382 838 
z
M 2592 3763 
C 2643 3757 2656 3757 2694 3750 
C 2790 3738 2790 3738 2810 3738 
C 3136 3706 3341 3693 3667 3693 
C 4141 3693 4640 3725 5030 3776 
C 5306 3814 5453 3834 5472 3834 
L 5440 4378 
C 5050 4269 4435 4205 3686 4205 
C 3194 4205 2899 4230 2605 4301 
L 2592 3763 
z
M 3053 2566 
C 2656 2106 2483 1734 2483 1357 
C 2483 1126 2554 902 2675 742 
C 2944 397 3424 237 4179 237 
C 4608 237 5037 275 5498 358 
C 5632 384 5645 384 5728 397 
L 5670 979 
C 5306 838 4755 755 4179 755 
C 3405 755 3008 973 3008 1408 
C 3008 1690 3155 1984 3488 2349 
L 3053 2566 
z
" transform="scale(0.015625)"/>
      <path id="HiraginoSans-W4-96c6" d="M 3526 2778 
L 4864 2778 
C 5165 2778 5299 2771 5453 2746 
L 5453 3174 
C 5254 3149 5146 3142 4864 3142 
L 3526 3142 
L 3526 3565 
L 4864 3565 
C 5165 3565 5280 3558 5453 3533 
L 5453 3962 
C 5261 3936 5139 3930 4864 3930 
L 3526 3930 
L 3526 4352 
L 5190 4352 
C 5446 4352 5574 4346 5734 4326 
L 5734 4774 
C 5555 4749 5421 4742 5139 4742 
L 3584 4742 
C 3693 4890 3802 5056 3962 5338 
L 3450 5434 
C 3373 5184 3277 5005 3085 4742 
L 1766 4742 
C 1837 4832 1971 5030 2176 5338 
L 1645 5446 
C 1600 5306 1523 5158 1427 5005 
C 1094 4486 723 4109 205 3744 
C 339 3597 384 3539 486 3341 
C 781 3571 941 3725 1158 3974 
C 1139 3789 1133 3584 1133 3366 
L 1133 2374 
C 1133 2195 1126 2042 1114 1920 
C 1242 1933 1338 1933 1581 1933 
L 2950 1933 
L 2950 1498 
L 1069 1498 
C 704 1498 531 1504 365 1536 
L 365 1050 
C 576 1075 774 1088 1069 1088 
L 2554 1088 
C 2330 890 2093 730 1766 563 
C 1299 326 877 192 262 83 
C 403 -77 467 -186 550 -378 
C 1005 -262 1389 -122 1741 45 
C 2253 294 2598 531 2970 915 
C 2957 819 2950 557 2950 448 
L 2950 -19 
C 2950 -237 2938 -346 2912 -486 
L 3456 -486 
C 3424 -365 3418 -275 3418 -13 
L 3418 448 
C 3418 576 3411 678 3398 922 
C 3789 544 4051 358 4486 128 
C 4915 -96 5286 -243 5843 -403 
C 5946 -179 5990 -109 6125 64 
C 5197 250 4384 608 3802 1088 
L 5325 1088 
C 5626 1088 5830 1075 6048 1050 
L 6048 1536 
C 5875 1504 5696 1498 5325 1498 
L 3418 1498 
L 3418 1933 
L 5165 1933 
C 5453 1933 5581 1926 5760 1901 
L 5760 2336 
C 5587 2310 5446 2304 5165 2304 
L 3526 2304 
L 3526 2778 
z
M 3078 2778 
L 3078 2304 
L 1600 2304 
L 1600 2778 
L 3078 2778 
z
M 3078 3142 
L 1600 3142 
L 1600 3565 
L 3078 3565 
L 3078 3142 
z
M 3078 3930 
L 1600 3930 
L 1600 4352 
L 3078 4352 
L 3078 3930 
z
" transform="scale(0.015625)"/>
      <path id="HiraginoSans-W4-4e2d" d="M 2906 4160 
L 1152 4160 
C 928 4160 806 4166 646 4186 
C 666 4019 678 3878 678 3667 
L 678 1850 
C 678 1626 666 1459 640 1267 
L 1184 1267 
L 1184 1683 
L 2906 1683 
L 2906 250 
C 2906 -96 2893 -275 2861 -499 
L 3462 -499 
C 3424 -294 3418 -122 3418 250 
L 3418 1683 
L 5229 1683 
L 5229 1267 
L 5766 1267 
C 5741 1453 5734 1619 5734 1850 
L 5734 3661 
C 5734 3885 5741 4019 5760 4186 
C 5606 4166 5485 4160 5254 4160 
L 3418 4160 
L 3418 4678 
C 3418 4966 3430 5146 3456 5338 
L 2861 5338 
C 2893 5133 2906 4979 2906 4666 
L 2906 4160 
z
M 2906 3693 
L 2906 2150 
L 1184 2150 
L 1184 3693 
L 2906 3693 
z
M 3418 2150 
L 3418 3693 
L 5229 3693 
L 5229 2150 
L 3418 2150 
z
" transform="scale(0.015625)"/>
      <path id="HiraginoSans-W4-3059" d="M 3507 4326 
C 2790 4307 2509 4301 1965 4282 
C 998 4243 960 4243 787 4243 
C 691 4243 640 4243 512 4250 
L 531 3699 
C 928 3763 2419 3846 3514 3866 
C 3514 3514 3520 3181 3526 3123 
L 3526 3078 
C 3366 3245 3117 3334 2816 3334 
C 2131 3334 1632 2874 1632 2246 
C 1632 1645 2093 1203 2720 1203 
C 3053 1203 3334 1318 3526 1536 
C 3597 1613 3635 1683 3699 1818 
C 3680 1562 3629 1376 3514 1171 
C 3238 672 2746 358 1920 134 
C 2074 -32 2118 -102 2246 -358 
C 2765 -166 3034 -32 3302 160 
C 3885 589 4179 1158 4179 1850 
C 4179 2157 4134 2368 4019 2643 
C 4019 3494 4019 3494 4019 3872 
C 4531 3878 4640 3878 4730 3878 
C 5434 3878 5664 3872 5907 3846 
L 5907 4384 
C 5696 4358 5210 4346 4013 4339 
C 4013 4883 4019 4979 4045 5178 
L 3469 5178 
C 3488 5043 3494 4979 3501 4806 
L 3507 4326 
z
M 2861 2906 
C 3059 2906 3238 2842 3366 2720 
C 3456 2630 3494 2534 3494 2381 
C 3494 1965 3200 1677 2784 1677 
C 2413 1677 2157 1926 2157 2285 
C 2157 2637 2458 2906 2861 2906 
z
" transform="scale(0.015625)"/>
      <path id="HiraginoSans-W4-308b" d="M 1485 4262 
C 1626 4282 1690 4288 1824 4294 
C 2758 4333 3482 4371 3718 4410 
C 3738 4410 3750 4410 3770 4416 
L 3776 4403 
C 3725 4352 3725 4352 3706 4333 
C 3686 4314 3680 4307 3654 4282 
C 2694 3334 1242 2131 678 1818 
L 1005 1331 
C 1760 2022 2746 2419 3693 2419 
C 4531 2419 5037 2067 5037 1478 
C 5037 1146 4883 858 4602 659 
C 4454 550 4314 486 4077 416 
C 3987 704 3917 851 3789 1024 
C 3533 1363 3149 1549 2720 1549 
C 2157 1549 1741 1210 1741 755 
C 1741 563 1818 352 1933 218 
C 2170 -58 2605 -198 3232 -198 
C 4646 -198 5587 480 5587 1491 
C 5587 2323 4896 2861 3821 2861 
C 3283 2861 2835 2752 2317 2490 
L 2304 2515 
C 2739 2784 3507 3430 4371 4262 
C 4563 4454 4602 4480 4698 4531 
L 4390 4947 
C 4301 4896 4243 4883 4058 4870 
C 3488 4826 2643 4787 2106 4787 
C 1779 4787 1645 4794 1459 4826 
L 1485 4262 
z
M 3578 288 
C 3373 256 3302 250 3155 250 
C 2598 250 2246 442 2246 742 
C 2246 966 2432 1107 2720 1107 
C 3155 1107 3443 826 3578 288 
z
" transform="scale(0.015625)"/>
      <path id="HiraginoSans-W4-306f" d="M 2381 3270 
C 2394 3277 2400 3277 2406 3277 
C 2419 3277 2438 3277 2470 3270 
C 2483 3270 2522 3270 2586 3264 
C 2605 3264 2675 3258 2778 3251 
C 3008 3232 3245 3226 3501 3226 
C 3738 3226 3898 3232 4205 3245 
C 4237 2208 4250 1805 4269 1664 
C 4102 1734 3859 1779 3603 1779 
C 2874 1779 2355 1382 2355 826 
C 2355 243 2829 -122 3590 -122 
C 4141 -122 4557 77 4710 416 
C 4762 531 4787 672 4787 858 
C 4787 909 4787 934 4781 992 
C 4813 973 4813 966 4838 954 
C 4890 922 4902 915 4909 909 
C 5370 627 5376 621 5574 454 
C 5658 384 5702 339 5766 269 
L 5997 813 
C 5920 851 5901 864 5830 922 
C 5434 1210 5229 1331 4781 1536 
C 4717 2618 4717 2694 4710 3283 
C 5101 3328 5382 3373 5722 3450 
C 5773 3462 5786 3462 5824 3469 
L 5798 3981 
C 5613 3898 5184 3808 4710 3750 
C 4710 3910 4710 4026 4710 4109 
C 4710 4589 4723 4883 4749 5043 
L 4179 5043 
C 4186 4979 4192 4883 4192 4768 
C 4198 4326 4198 4326 4198 3712 
C 3987 3706 3840 3699 3590 3699 
C 2995 3699 2707 3725 2387 3795 
L 2381 3270 
z
M 4282 1190 
C 4282 1184 4282 1043 4282 1005 
C 4282 787 4243 646 4173 557 
C 4058 429 3827 346 3565 346 
C 3149 346 2867 538 2867 826 
C 2867 1126 3168 1318 3629 1318 
C 3866 1318 4026 1286 4282 1190 
z
M 1331 845 
C 1331 922 1331 934 1331 998 
C 1331 1101 1331 1101 1325 1158 
C 1318 1453 1312 1766 1312 1914 
C 1312 2963 1536 4352 1811 4973 
L 1203 5056 
C 1203 4966 1190 4883 1133 4627 
C 890 3501 813 2867 813 2003 
C 813 1331 864 762 992 58 
C 1024 -122 1024 -134 1024 -179 
L 1581 -134 
C 1568 -58 1568 -26 1568 6 
C 1568 397 1843 1267 2144 1862 
L 1741 2042 
C 1722 1984 1715 1965 1683 1888 
C 1510 1440 1466 1306 1350 838 
L 1331 845 
z
" transform="scale(0.015625)"/>
      <path id="HiraginoSans-W4-9ad8" d="M 2899 4838 
L 1043 4838 
C 762 4838 582 4851 384 4877 
L 384 4390 
C 589 4416 762 4422 1024 4422 
L 5357 4422 
C 5626 4422 5798 4416 6003 4390 
L 6003 4877 
C 5811 4851 5626 4838 5357 4838 
L 3392 4838 
L 3392 4954 
C 3392 5114 3405 5242 3430 5376 
L 2861 5376 
C 2886 5242 2899 5107 2899 4954 
L 2899 4838 
z
M 1421 3187 
C 1421 2950 1414 2835 1402 2694 
C 1594 2714 1741 2720 1984 2720 
L 4429 2720 
C 4698 2720 4838 2714 5018 2694 
C 4998 2842 4998 2906 4998 3187 
L 4998 3597 
C 4998 3821 5005 3917 5018 4090 
C 4838 4070 4717 4064 4467 4064 
L 2010 4064 
C 1728 4064 1568 4070 1402 4090 
C 1414 3942 1421 3814 1421 3603 
L 1421 3187 
z
M 1888 3667 
L 4531 3667 
L 4531 3110 
L 1888 3110 
L 1888 3667 
z
M 589 147 
C 589 -109 576 -358 550 -518 
L 1114 -518 
C 1082 -288 1075 -147 1075 154 
L 1075 1952 
L 5331 1952 
L 5331 160 
C 5331 32 5299 13 5107 13 
C 4896 13 4621 32 4365 70 
C 4429 -96 4448 -192 4461 -390 
C 4813 -410 5018 -416 5069 -416 
C 5421 -416 5555 -390 5664 -314 
C 5779 -230 5818 -109 5818 134 
L 5818 1811 
C 5818 2048 5824 2182 5843 2381 
C 5677 2362 5530 2355 5222 2355 
L 1203 2355 
C 934 2355 755 2362 563 2381 
C 582 2202 589 2010 589 1805 
L 589 147 
z
M 4499 1184 
C 4499 1389 4506 1491 4518 1613 
C 4333 1600 4211 1594 3968 1594 
L 2368 1594 
C 2138 1594 2003 1600 1850 1613 
C 1862 1478 1869 1357 1869 1158 
L 1869 486 
C 1869 250 1856 90 1837 -45 
L 2330 -45 
L 2330 301 
L 3942 301 
C 4160 301 4365 294 4518 282 
C 4506 410 4499 506 4499 730 
L 4499 1184 
z
M 2323 1210 
L 4058 1210 
L 4058 685 
L 2323 685 
L 2323 1210 
z
" transform="scale(0.015625)"/>
      <path id="HiraginoSans-W4-307b" d="M 5978 781 
C 5914 813 5901 826 5798 902 
C 5485 1133 5101 1350 4717 1498 
C 4691 1926 4685 2150 4672 2784 
C 4986 2816 5312 2861 5587 2912 
C 5690 2931 5709 2938 5779 2944 
L 5760 3443 
C 5504 3347 5158 3283 4666 3238 
C 4659 3533 4659 3584 4659 3674 
C 4659 3898 4666 4032 4678 4198 
C 4896 4218 5114 4243 5331 4282 
C 5619 4333 5619 4333 5709 4339 
L 5696 4838 
C 5165 4691 4346 4602 3520 4602 
C 3008 4602 2656 4627 2413 4685 
L 2387 4186 
C 2413 4186 2432 4186 2445 4186 
C 2490 4186 2528 4186 2573 4179 
C 3104 4154 3232 4147 3533 4147 
C 3738 4147 3968 4154 4173 4160 
C 4160 3917 4160 3821 4160 3712 
C 4160 3642 4166 3443 4173 3206 
C 3910 3194 3661 3187 3488 3187 
C 3008 3187 2618 3219 2355 3270 
L 2349 2765 
C 2374 2765 2400 2765 2413 2765 
C 2470 2765 2509 2765 2554 2765 
C 3034 2739 3142 2733 3469 2733 
C 3712 2733 3853 2739 4179 2752 
C 4198 1965 4211 1715 4224 1619 
C 4077 1677 3840 1715 3590 1715 
C 2822 1715 2310 1344 2310 787 
C 2310 224 2784 -134 3533 -134 
C 4070 -134 4493 51 4640 346 
C 4704 480 4736 634 4736 806 
C 4736 877 4736 922 4723 979 
C 4755 960 4755 960 4813 934 
C 4826 928 4826 928 4928 870 
C 5331 627 5594 435 5754 250 
L 5978 781 
z
M 4224 1158 
C 4224 1158 4237 966 4237 902 
C 4237 518 4006 326 3539 326 
C 3098 326 2822 506 2822 781 
C 2822 1075 3123 1261 3590 1261 
C 3814 1261 3962 1235 4224 1158 
z
M 1702 2035 
C 1485 1491 1408 1280 1331 941 
C 1325 915 1312 870 1299 813 
L 1280 819 
C 1280 941 1280 992 1280 1082 
C 1280 1126 1280 1152 1280 1158 
L 1280 1376 
C 1280 1395 1280 1466 1274 1574 
C 1267 1677 1267 1773 1267 1869 
C 1267 2534 1350 3347 1498 4045 
C 1594 4499 1683 4832 1760 5018 
L 1165 5094 
C 1158 4986 1152 4947 1107 4730 
C 858 3482 774 2784 774 1926 
C 774 1389 819 774 890 307 
C 947 -83 947 -83 947 -192 
L 1498 -166 
C 1491 -122 1491 -90 1491 -70 
C 1491 314 1754 1171 2080 1850 
L 1702 2035 
z
" transform="scale(0.015625)"/>
      <path id="HiraginoSans-W4-3069" d="M 1933 5018 
C 1971 4915 1978 4877 2035 4608 
C 2189 3840 2317 3354 2490 2835 
C 2093 2630 1888 2502 1645 2304 
C 1280 2003 1075 1613 1075 1222 
C 1075 781 1267 422 1613 230 
C 1997 13 2502 -77 3328 -77 
C 3795 -77 4122 -58 4787 13 
L 5274 51 
L 5216 678 
C 4806 538 4070 454 3328 454 
C 2899 454 2477 486 2266 544 
C 1850 653 1651 870 1651 1210 
C 1651 1453 1766 1696 1984 1888 
C 2253 2131 2669 2362 3168 2554 
C 3885 2822 4672 3072 5152 3174 
L 4934 3750 
C 4819 3693 4794 3680 4512 3584 
C 3386 3194 3386 3194 2995 3034 
C 2778 3686 2554 4678 2528 5120 
L 1933 5018 
z
M 4275 4992 
C 4538 4698 4742 4378 4941 3981 
L 5318 4192 
C 5094 4608 4947 4826 4646 5184 
L 4275 4992 
z
M 5018 5338 
C 5299 5005 5491 4717 5677 4346 
L 6048 4557 
C 5818 4979 5677 5178 5376 5530 
L 5018 5338 
z
" transform="scale(0.015625)"/>
      <path id="HiraginoSans-W4-9855" d="M 1235 262 
C 755 179 538 147 320 141 
L 429 -371 
C 563 -333 614 -320 755 -294 
C 1875 -70 2246 13 3110 256 
L 3110 691 
C 2746 589 2675 570 2368 493 
L 2368 2784 
C 2656 2784 2778 2778 2976 2758 
C 2957 2931 2950 3059 2950 3334 
L 2950 4493 
C 2950 4774 2957 4915 2976 5088 
C 2816 5069 2675 5062 2374 5062 
L 1152 5062 
C 870 5062 704 5069 557 5088 
C 576 4922 582 4762 582 4499 
L 582 3341 
C 582 3078 576 2925 557 2758 
C 749 2778 883 2784 1152 2784 
L 1235 2784 
L 1235 262 
z
M 1638 2784 
L 1965 2784 
L 1965 403 
C 1869 384 1786 365 1638 339 
L 1638 2784 
z
M 1024 4646 
L 2515 4646 
L 2515 4115 
L 1024 4115 
L 1024 4646 
z
M 1024 3718 
L 2515 3718 
L 2515 3174 
L 1024 3174 
L 1024 3718 
z
M 4422 4646 
C 4365 4448 4288 4224 4192 4006 
L 3917 4006 
C 3661 4006 3501 4013 3360 4026 
C 3379 3859 3386 3686 3386 3430 
L 3386 1306 
C 3386 1101 3379 928 3366 723 
C 3526 736 3693 742 3904 742 
L 5331 742 
C 5542 742 5722 736 5882 723 
C 5869 922 5862 1107 5862 1350 
L 5862 3437 
C 5862 3674 5869 3866 5882 4032 
C 5722 4013 5594 4006 5293 4006 
L 4666 4006 
C 4774 4243 4845 4422 4909 4646 
L 5485 4646 
C 5792 4646 5952 4640 6131 4608 
L 6131 5114 
C 5965 5082 5805 5075 5485 5075 
L 3853 5075 
C 3539 5075 3386 5082 3219 5114 
L 3219 4608 
C 3405 4640 3552 4646 3853 4646 
L 4422 4646 
z
M 3834 3603 
L 5414 3603 
L 5414 3066 
L 3834 3066 
L 3834 3603 
z
M 3834 2669 
L 5414 2669 
L 5414 2118 
L 3834 2118 
L 3834 2669 
z
M 3834 1728 
L 5414 1728 
L 5414 1152 
L 3834 1152 
L 3834 1728 
z
M 1114 749 
C 1011 1434 909 1888 736 2445 
L 352 2310 
C 550 1683 634 1280 717 614 
L 1114 749 
z
M 2816 826 
C 2982 1312 3040 1510 3213 2317 
L 2816 2464 
C 2714 1754 2656 1498 2470 915 
L 2816 826 
z
M 4006 634 
C 3648 243 3347 45 2726 -224 
C 2867 -339 2982 -467 3066 -595 
C 3667 -288 3910 -109 4365 352 
L 4006 634 
z
M 4742 384 
C 5056 26 5350 -230 5862 -589 
C 6016 -397 6054 -358 6234 -218 
C 5722 70 5504 230 5088 653 
L 4742 384 
z
" transform="scale(0.015625)"/>
      <path id="HiraginoSans-W4-8457" d="M 3187 2746 
L 3187 3283 
L 3853 3283 
C 4134 3283 4320 3277 4499 3258 
L 4499 3712 
C 4314 3686 4147 3680 3814 3680 
L 3187 3680 
C 3187 3917 3194 4032 3213 4179 
L 2714 4179 
C 2733 4013 2739 3936 2739 3712 
L 2739 3680 
L 1722 3680 
C 1421 3680 1210 3693 1011 3718 
L 1011 3251 
C 1222 3270 1459 3283 1722 3283 
L 2739 3283 
L 2739 2746 
L 1101 2746 
C 800 2746 576 2758 371 2784 
L 371 2304 
C 595 2330 813 2342 1101 2342 
L 3155 2342 
C 2176 1856 1299 1568 198 1370 
C 339 1203 378 1133 461 928 
C 1050 1082 1318 1165 1619 1274 
L 1619 141 
C 1619 -141 1606 -307 1581 -474 
L 2086 -474 
L 2086 -211 
L 4851 -211 
L 4851 -480 
L 5363 -480 
C 5338 -269 5325 -90 5325 128 
L 5325 1306 
C 5325 1555 5331 1734 5357 1920 
C 5210 1894 5069 1888 4755 1888 
L 3571 1888 
C 3379 1888 3181 1882 3008 1862 
C 3366 2022 3648 2170 3942 2342 
L 5306 2342 
C 5594 2342 5805 2330 6022 2304 
L 6022 2784 
C 5824 2758 5632 2746 5325 2746 
L 4570 2746 
C 5011 3059 5421 3411 5805 3789 
L 5344 4058 
C 5094 3661 4621 3245 3859 2746 
L 3187 2746 
z
M 2170 1504 
L 4851 1504 
L 4851 1037 
L 2086 1037 
L 2086 1459 
L 2157 1491 
L 2170 1504 
z
M 2086 659 
L 4851 659 
L 4851 173 
L 2086 173 
L 2086 659 
z
M 2464 4461 
L 3910 4461 
L 3910 4384 
C 3910 4198 3910 4122 3891 3981 
L 4403 3981 
C 4384 4109 4378 4230 4378 4384 
L 4378 4461 
L 5350 4461 
C 5658 4461 5882 4448 6074 4429 
L 6074 4909 
C 5888 4883 5677 4870 5350 4870 
L 4378 4870 
L 4378 4909 
C 4378 5062 4390 5216 4410 5344 
L 3878 5344 
C 3898 5210 3910 5050 3910 4909 
L 3910 4870 
L 2464 4870 
L 2464 4909 
C 2464 5056 2470 5210 2496 5344 
L 1958 5344 
C 1984 5190 1997 5056 1997 4909 
L 1997 4870 
L 1114 4870 
C 787 4870 576 4883 390 4909 
L 390 4429 
C 582 4448 800 4461 1114 4461 
L 1997 4461 
L 1997 4384 
C 1997 4230 1990 4122 1971 3981 
L 2477 3981 
C 2464 4096 2464 4186 2464 4384 
L 2464 4461 
z
" transform="scale(0.015625)"/>
     </defs>
     <use xlink:href="#HiraginoSans-W4-a7"/>
     <use xlink:href="#HiraginoSans-W4-31" x="65.899994"/>
     <use xlink:href="#HiraginoSans-W4-2e" x="133.199982"/>
     <use xlink:href="#HiraginoSans-W4-34" x="158.199966"/>
     <use xlink:href="#HiraginoSans-W4-20" x="225.699951"/>
     <use xlink:href="#HiraginoSans-W4-7acb" x="258.999939"/>
     <use xlink:href="#HiraginoSans-W4-65b9" x="358.999924"/>
     <use xlink:href="#HiraginoSans-W4-4f53" x="458.999908"/>
     <use xlink:href="#HiraginoSans-W4-3a" x="558.999893"/>
     <use xlink:href="#HiraginoSans-W4-20" x="583.999878"/>
     <use xlink:href="#HiraginoSans-W4-4f53" x="617.299866"/>
     <use xlink:href="#HiraginoSans-W4-7a4d" x="717.29985"/>
     <use xlink:href="#HiraginoSans-W4-306e" x="817.299835"/>
     <use xlink:href="#HiraginoSans-W4-5927" x="917.29982"/>
     <use xlink:href="#HiraginoSans-W4-90e8" x="1017.299805"/>
     <use xlink:href="#HiraginoSans-W4-5206" x="1117.299789"/>
     <use xlink:href="#HiraginoSans-W4-304c" x="1217.299774"/>
     <use xlink:href="#HiraginoSans-W4-300c" x="1317.299759"/>
     <use xlink:href="#HiraginoSans-W4-76ae" x="1417.299744"/>
     <use xlink:href="#HiraginoSans-W4-300d" x="1517.299728"/>
     <use xlink:href="#HiraginoSans-W4-306b" x="1617.299713"/>
     <use xlink:href="#HiraginoSans-W4-96c6" x="1717.299698"/>
     <use xlink:href="#HiraginoSans-W4-4e2d" x="1817.299683"/>
     <use xlink:href="#HiraginoSans-W4-3059" x="1917.299667"/>
     <use xlink:href="#HiraginoSans-W4-308b" x="2017.299652"/>
     <use xlink:href="#HiraginoSans-W4-306e" x="2117.299637"/>
     <use xlink:href="#HiraginoSans-W4-306f" x="2217.299622"/>
     <use xlink:href="#HiraginoSans-W4-9ad8" x="2317.299606"/>
     <use xlink:href="#HiraginoSans-W4-6b21" x="2417.299591"/>
     <use xlink:href="#HiraginoSans-W4-5143" x="2517.299576"/>
     <use xlink:href="#HiraginoSans-W4-307b" x="2617.299561"/>
     <use xlink:href="#HiraginoSans-W4-3069" x="2717.299545"/>
     <use xlink:href="#HiraginoSans-W4-9855" x="2817.29953"/>
     <use xlink:href="#HiraginoSans-W4-8457" x="2917.299515"/>
    </g>
   </g>
   <g id="legend_1">
    <g id="patch_5">
     <path d="M 371.384844 276.431062 
L 504.835469 276.431062 
Q 507.035469 276.431062 507.035469 274.231062 
L 507.035469 210.389812 
Q 507.035469 208.189812 504.835469 208.189812 
L 371.384844 208.189812 
Q 369.184844 208.189812 369.184844 210.389812 
L 369.184844 274.231062 
Q 369.184844 276.431062 371.384844 276.431062 
z
" style="fill: #ffffff; opacity: 0.9; stroke: #cccccc; stroke-linejoin: miter"/>
    </g>
    <g id="line2d_29">
     <path d="M 373.584844 217.220125 
L 384.584844 217.220125 
L 395.584844 217.220125 
" style="fill: none; stroke: #1f77b4; stroke-width: 1.7; stroke-linecap: square"/>
    </g>
    <g id="text_16">
     <!-- シェル厚 ε = 0.01 -->
     <g transform="translate(404.384844 221.070125) scale(0.11 -0.11)">
      <defs>
       <path id="HiraginoSans-W4-539a" d="M 2067 1088 
C 1760 1088 1549 1101 1382 1126 
L 1382 646 
C 1581 672 1798 685 2054 685 
L 3462 685 
L 3462 128 
C 3462 -13 3405 -51 3181 -51 
C 2944 -51 2598 -19 2278 26 
C 2349 -128 2368 -192 2406 -416 
C 2675 -442 2938 -454 3130 -454 
C 3808 -454 3955 -352 3955 109 
L 3955 685 
L 5389 685 
C 5651 685 5882 672 6080 646 
L 6080 1126 
C 5907 1101 5690 1088 5389 1088 
L 3955 1088 
L 3955 1139 
C 4422 1306 4806 1491 5440 1862 
L 5197 2138 
C 5062 2125 4960 2118 4672 2118 
L 2406 2118 
C 2106 2118 1914 2131 1760 2150 
L 1760 1702 
C 1933 1722 2106 1728 2413 1728 
L 4493 1728 
C 4256 1594 4019 1491 3718 1389 
L 3443 1389 
C 3456 1312 3456 1229 3462 1088 
L 2067 1088 
z
M 1331 4704 
L 5280 4704 
C 5651 4704 5818 4698 5997 4672 
L 5997 5152 
C 5830 5126 5619 5114 5261 5114 
L 1619 5114 
C 1293 5114 1069 5120 813 5146 
C 845 4928 851 4723 851 4109 
C 851 2816 787 1843 666 1184 
C 582 749 454 397 211 -19 
C 358 -128 461 -230 589 -422 
C 819 -26 941 262 1043 653 
C 1235 1395 1331 2560 1331 4179 
L 1331 4704 
z
M 1914 2995 
C 1914 2758 1907 2630 1888 2451 
C 2125 2470 2285 2477 2592 2477 
L 4813 2477 
C 5114 2477 5280 2470 5517 2451 
C 5498 2624 5491 2739 5491 3002 
L 5491 3808 
C 5491 4070 5498 4198 5517 4346 
C 5299 4333 5139 4326 4813 4326 
L 2586 4326 
C 2259 4326 2106 4333 1888 4346 
C 1907 4179 1914 4038 1914 3808 
L 1914 2995 
z
M 2374 3955 
L 5024 3955 
L 5024 3584 
L 2374 3584 
L 2374 3955 
z
M 2374 3226 
L 5024 3226 
L 5024 2842 
L 2374 2842 
L 2374 3226 
z
" transform="scale(0.015625)"/>
       <path id="HiraginoSans-W4-3b5" d="M 4800 2976 
C 4506 3386 4096 3571 3475 3571 
C 2592 3571 1978 3136 1978 2509 
C 1978 2195 2106 1984 2387 1850 
C 2144 1773 2022 1709 1894 1587 
C 1696 1402 1594 1152 1594 858 
C 1594 570 1715 320 1946 134 
C 2157 -26 2541 -122 2982 -122 
C 3424 -122 3795 -26 4096 166 
C 4256 269 4352 365 4525 576 
L 4045 845 
C 3770 518 3418 358 2970 358 
C 2464 358 2170 570 2170 922 
C 2170 1094 2253 1274 2387 1395 
C 2541 1523 2720 1574 3027 1574 
C 3264 1574 3488 1555 3686 1523 
L 3840 2099 
C 3654 2074 3392 2054 3123 2054 
C 2886 2054 2771 2080 2675 2163 
C 2586 2234 2534 2355 2534 2483 
C 2534 2854 2893 3098 3437 3098 
C 3891 3098 4154 2976 4352 2675 
L 4800 2976 
z
" transform="scale(0.015625)"/>
       <path id="HiraginoSans-W4-3d" d="M 333 2720 
L 333 2195 
L 3923 2195 
L 3923 2720 
L 333 2720 
z
M 333 1376 
L 333 851 
L 3923 851 
L 3923 1376 
L 333 1376 
z
" transform="scale(0.015625)"/>
      </defs>
      <use xlink:href="#HiraginoSans-W4-30b7"/>
      <use xlink:href="#HiraginoSans-W4-30a7" x="99.999985"/>
      <use xlink:href="#HiraginoSans-W4-30eb" x="199.999969"/>
      <use xlink:href="#HiraginoSans-W4-539a" x="299.999954"/>
      <use xlink:href="#HiraginoSans-W4-20" x="399.999939"/>
      <use xlink:href="#HiraginoSans-W4-3b5" x="433.299927"/>
      <use xlink:href="#HiraginoSans-W4-20" x="533.299911"/>
      <use xlink:href="#HiraginoSans-W4-3d" x="566.599899"/>
      <use xlink:href="#HiraginoSans-W4-20" x="632.999893"/>
      <use xlink:href="#HiraginoSans-W4-30" x="666.299881"/>
      <use xlink:href="#HiraginoSans-W4-2e" x="733.599869"/>
      <use xlink:href="#HiraginoSans-W4-30" x="758.599854"/>
      <use xlink:href="#HiraginoSans-W4-31" x="825.899841"/>
     </g>
    </g>
    <g id="line2d_30">
     <path d="M 373.584844 233.455437 
L 384.584844 233.455437 
L 395.584844 233.455437 
" style="fill: none; stroke: #ff7f0e; stroke-width: 1.7; stroke-linecap: square"/>
    </g>
    <g id="text_17">
     <!-- シェル厚 ε = 0.05 -->
     <g transform="translate(404.384844 237.305437) scale(0.11 -0.11)">
      <defs>
       <path id="HiraginoSans-W4-35" d="M 1331 4416 
L 2835 4416 
C 3155 4416 3366 4403 3622 4365 
L 3622 4986 
C 3360 4947 3206 4934 2829 4934 
L 1446 4934 
C 1082 4934 954 4941 762 4966 
C 774 4768 774 4762 774 4742 
C 774 4563 774 4518 749 4307 
L 608 2822 
C 589 2566 570 2445 518 2157 
L 1088 2106 
C 1146 2240 1178 2291 1261 2374 
C 1485 2605 1811 2739 2131 2739 
C 2842 2739 3264 2317 3264 1613 
C 3264 902 2803 435 2106 435 
C 1747 435 1440 563 1235 794 
C 1146 902 1101 986 1037 1171 
L 410 1005 
C 557 685 646 544 813 378 
C 1133 64 1562 -96 2099 -96 
C 3194 -96 3885 576 3885 1638 
C 3885 2605 3245 3238 2272 3238 
C 1830 3238 1472 3098 1158 2803 
C 1197 2982 1197 2982 1203 3091 
L 1331 4416 
z
" transform="scale(0.015625)"/>
      </defs>
      <use xlink:href="#HiraginoSans-W4-30b7"/>
      <use xlink:href="#HiraginoSans-W4-30a7" x="99.999985"/>
      <use xlink:href="#HiraginoSans-W4-30eb" x="199.999969"/>
      <use xlink:href="#HiraginoSans-W4-539a" x="299.999954"/>
      <use xlink:href="#HiraginoSans-W4-20" x="399.999939"/>
      <use xlink:href="#HiraginoSans-W4-3b5" x="433.299927"/>
      <use xlink:href="#HiraginoSans-W4-20" x="533.299911"/>
      <use xlink:href="#HiraginoSans-W4-3d" x="566.599899"/>
      <use xlink:href="#HiraginoSans-W4-20" x="632.999893"/>
      <use xlink:href="#HiraginoSans-W4-30" x="666.299881"/>
      <use xlink:href="#HiraginoSans-W4-2e" x="733.599869"/>
      <use xlink:href="#HiraginoSans-W4-30" x="758.599854"/>
      <use xlink:href="#HiraginoSans-W4-35" x="825.899841"/>
     </g>
    </g>
    <g id="line2d_31">
     <path d="M 373.584844 249.69075 
L 384.584844 249.69075 
L 395.584844 249.69075 
" style="fill: none; stroke: #2ca02c; stroke-width: 1.7; stroke-linecap: square"/>
    </g>
    <g id="text_18">
     <!-- シェル厚 ε = 0.1 -->
     <g transform="translate(404.384844 253.54075) scale(0.11 -0.11)">
      <use xlink:href="#HiraginoSans-W4-30b7"/>
      <use xlink:href="#HiraginoSans-W4-30a7" x="99.999985"/>
      <use xlink:href="#HiraginoSans-W4-30eb" x="199.999969"/>
      <use xlink:href="#HiraginoSans-W4-539a" x="299.999954"/>
      <use xlink:href="#HiraginoSans-W4-20" x="399.999939"/>
      <use xlink:href="#HiraginoSans-W4-3b5" x="433.299927"/>
      <use xlink:href="#HiraginoSans-W4-20" x="533.299911"/>
      <use xlink:href="#HiraginoSans-W4-3d" x="566.599899"/>
      <use xlink:href="#HiraginoSans-W4-20" x="632.999893"/>
      <use xlink:href="#HiraginoSans-W4-30" x="666.299881"/>
      <use xlink:href="#HiraginoSans-W4-2e" x="733.599869"/>
      <use xlink:href="#HiraginoSans-W4-31" x="758.599854"/>
     </g>
    </g>
    <g id="line2d_32">
     <path d="M 373.584844 265.926062 
L 384.584844 265.926062 
L 395.584844 265.926062 
" style="fill: none; stroke: #d62728; stroke-width: 1.7; stroke-linecap: square"/>
    </g>
    <g id="text_19">
     <!-- シェル厚 ε = 0.2 -->
     <g transform="translate(404.384844 269.776062) scale(0.11 -0.11)">
      <use xlink:href="#HiraginoSans-W4-30b7"/>
      <use xlink:href="#HiraginoSans-W4-30a7" x="99.999985"/>
      <use xlink:href="#HiraginoSans-W4-30eb" x="199.999969"/>
      <use xlink:href="#HiraginoSans-W4-539a" x="299.999954"/>
      <use xlink:href="#HiraginoSans-W4-20" x="399.999939"/>
      <use xlink:href="#HiraginoSans-W4-3b5" x="433.299927"/>
      <use xlink:href="#HiraginoSans-W4-20" x="533.299911"/>
      <use xlink:href="#HiraginoSans-W4-3d" x="566.599899"/>
      <use xlink:href="#HiraginoSans-W4-20" x="632.999893"/>
      <use xlink:href="#HiraginoSans-W4-30" x="666.299881"/>
      <use xlink:href="#HiraginoSans-W4-2e" x="733.599869"/>
      <use xlink:href="#HiraginoSans-W4-32" x="758.599854"/>
     </g>
    </g>
   </g>
  </g>
 </g>
 <defs>
  <clipPath id="pcc1f8ec9d2">
   <rect x="46.512969" y="24.644813" width="466.0225" height="257.28625"/>
  </clipPath>
 </defs>
</svg>
