<?xml version="1.0" encoding="utf-8" standalone="no"?>
<!DOCTYPE svg PUBLIC "-//W3C//DTD SVG 1.1//EN"
  "http://www.w3.org/Graphics/SVG/1.1/DTD/svg11.dtd">
<svg xmlns:xlink="http://www.w3.org/1999/xlink" width="530.875078pt" height="321.570437pt" viewBox="0 0 530.875078 321.570437" xmlns="http://www.w3.org/2000/svg" version="1.1">
 <metadata>
  <rdf:RDF xmlns:dc="http://purl.org/dc/elements/1.1/" xmlns:cc="http://creativecommons.org/ns#" xmlns:rdf="http://www.w3.org/1999/02/22-rdf-syntax-ns#">
   <cc:Work>
    <dc:type rdf:resource="http://purl.org/dc/dcmitype/StillImage"/>
    <dc:format>image/svg+xml</dc:format>
    <dc:creator>
     <cc:Agent>
      <dc:title>Matplotlib v3.8.3, https://matplotlib.org/</dc:title>
     </cc:Agent>
    </dc:creator>
   </cc:Work>
  </rdf:RDF>
 </metadata>
 <defs>
  <style type="text/css">*{stroke-linejoin: round; stroke-linecap: butt}</style>
 </defs>
 <g id="figure_1">
  <g id="patch_1">
   <path d="M 0 321.570437 
L 530.875078 321.570437 
L 530.875078 0 
L 0 0 
z
" style="fill: #ffffff"/>
  </g>
  <g id="axes_1">
   <g id="patch_2">
    <path d="M 37.065 281.700437 
L 519.97375 281.700437 
L 519.97375 24.644813 
L 37.065 24.644813 
z
" style="fill: #ffffff"/>
   </g>
   <g id="matplotlib.axis_1">
    <g id="xtick_1">
     <g id="line2d_1">
      <path d="M 37.065 281.700437 
L 37.065 24.644813 
" clip-path="url(#p4035be5293)" style="fill: none; stroke: #b0b0b0; stroke-opacity: 0.25; stroke-width: 0.8; stroke-linecap: square"/>
     </g>
     <g id="line2d_2">
      <defs>
       <path id="mdc63961c8c" d="M 0 0 
L 0 3.5 
" style="stroke: #000000; stroke-width: 0.8"/>
      </defs>
      <g>
       <use xlink:href="#mdc63961c8c" x="37.065" y="281.700437" style="stroke: #000000; stroke-width: 0.8"/>
      </g>
     </g>
     <g id="text_1">
      <!-- −3 -->
      <g transform="translate(29.711328 297.18075) scale(0.11 -0.11)">
       <defs>
        <path id="HiraginoSans-W4-2212" d="M 320 1498 
L 3930 1498 
L 3930 2022 
L 320 2022 
L 320 1498 
z
" transform="scale(0.015625)"/>
        <path id="HiraginoSans-W4-33" d="M 282 1101 
C 397 768 474 621 621 448 
C 934 90 1434 -96 2112 -96 
C 2720 -96 3213 70 3533 384 
C 3770 614 3904 954 3904 1306 
C 3904 1677 3802 1958 3597 2182 
C 3379 2419 3130 2528 2688 2586 
C 2995 2650 3130 2701 3290 2816 
C 3578 3021 3738 3366 3738 3757 
C 3738 4538 3117 5043 2157 5043 
C 1594 5043 1146 4883 845 4576 
C 666 4390 582 4237 467 3891 
L 1107 3757 
C 1171 3981 1216 4083 1306 4192 
C 1478 4416 1741 4525 2125 4525 
C 2746 4525 3110 4224 3110 3725 
C 3110 3482 3021 3264 2867 3110 
C 2669 2918 2374 2829 1965 2829 
C 1779 2829 1613 2842 1459 2861 
L 1459 2272 
C 1651 2298 1811 2310 2003 2310 
C 2829 2310 3264 1990 3264 1376 
C 3264 794 2816 429 2106 429 
C 1779 429 1510 506 1293 666 
C 1107 800 1024 928 928 1248 
L 282 1101 
z
" transform="scale(0.015625)"/>
       </defs>
       <use xlink:href="#HiraginoSans-W4-2212"/>
       <use xlink:href="#HiraginoSans-W4-33" x="66.399994"/>
      </g>
     </g>
    </g>
    <g id="xtick_2">
     <g id="line2d_3">
      <path d="M 117.549792 281.700437 
L 117.549792 24.644813 
" clip-path="url(#p4035be5293)" style="fill: none; stroke: #b0b0b0; stroke-opacity: 0.25; stroke-width: 0.8; stroke-linecap: square"/>
     </g>
     <g id="line2d_4">
      <g>
       <use xlink:href="#mdc63961c8c" x="117.549792" y="281.700437" style="stroke: #000000; stroke-width: 0.8"/>
      </g>
     </g>
     <g id="text_2">
      <!-- −2 -->
      <g transform="translate(110.19612 297.18075) scale(0.11 -0.11)">
       <defs>
        <path id="HiraginoSans-W4-32" d="M 3078 0 
C 3424 0 3642 -6 3917 -32 
L 3917 589 
C 3693 557 3430 544 3091 544 
L 1114 544 
C 1280 1114 1606 1478 2451 2042 
C 3181 2528 3341 2656 3546 2912 
C 3738 3142 3846 3443 3846 3744 
C 3846 4525 3200 5030 2202 5030 
C 1613 5030 1158 4858 858 4518 
C 640 4269 531 4026 442 3565 
L 1088 3469 
C 1139 3782 1190 3936 1306 4102 
C 1491 4371 1792 4506 2208 4506 
C 2816 4506 3206 4211 3206 3744 
C 3206 3360 2995 3085 2387 2675 
C 1754 2246 1600 2138 1389 1952 
C 979 1594 710 1229 544 806 
C 448 563 429 461 365 -26 
C 576 -6 678 0 1107 0 
L 3078 0 
z
" transform="scale(0.015625)"/>
       </defs>
       <use xlink:href="#HiraginoSans-W4-2212"/>
       <use xlink:href="#HiraginoSans-W4-32" x="66.399994"/>
      </g>
     </g>
    </g>
    <g id="xtick_3">
     <g id="line2d_5">
      <path d="M 198.034583 281.700437 
L 198.034583 24.644813 
" clip-path="url(#p4035be5293)" style="fill: none; stroke: #b0b0b0; stroke-opacity: 0.25; stroke-width: 0.8; stroke-linecap: square"/>
     </g>
     <g id="line2d_6">
      <g>
       <use xlink:href="#mdc63961c8c" x="198.034583" y="281.700437" style="stroke: #000000; stroke-width: 0.8"/>
      </g>
     </g>
     <g id="text_3">
      <!-- −1 -->
      <g transform="translate(190.680911 297.18075) scale(0.11 -0.11)">
       <defs>
        <path id="HiraginoSans-W4-31" d="M 1018 4371 
C 1222 4397 1389 4410 1606 4410 
L 1939 4410 
L 1939 755 
C 1939 454 1926 237 1888 0 
L 2598 0 
C 2560 250 2547 448 2547 755 
L 2547 3904 
C 2547 4256 2566 4582 2605 4966 
C 2387 4941 2278 4934 2035 4934 
L 1581 4934 
C 1325 4934 1197 4941 1018 4966 
L 1018 4371 
z
" transform="scale(0.015625)"/>
       </defs>
       <use xlink:href="#HiraginoSans-W4-2212"/>
       <use xlink:href="#HiraginoSans-W4-31" x="66.399994"/>
      </g>
     </g>
    </g>
    <g id="xtick_4">
     <g id="line2d_7">
      <path d="M 278.519375 281.700437 
L 278.519375 24.644813 
" clip-path="url(#p4035be5293)" style="fill: none; stroke: #b0b0b0; stroke-opacity: 0.25; stroke-width: 0.8; stroke-linecap: square"/>
     </g>
     <g id="line2d_8">
      <g>
       <use xlink:href="#mdc63961c8c" x="278.519375" y="281.700437" style="stroke: #000000; stroke-width: 0.8"/>
      </g>
     </g>
     <g id="text_4">
      <!-- 0 -->
      <g transform="translate(274.818047 297.18075) scale(0.11 -0.11)">
       <defs>
        <path id="HiraginoSans-W4-30" d="M 2144 -90 
C 2758 -90 3232 141 3565 602 
C 3846 998 4019 1696 4019 2464 
C 4019 3002 3936 3501 3770 3949 
C 3693 4160 3558 4371 3379 4550 
C 3078 4858 2650 5024 2157 5024 
C 1498 5024 986 4742 666 4205 
C 435 3834 288 3142 288 2458 
C 288 1939 371 1434 538 986 
C 614 768 749 563 928 384 
C 1242 70 1651 -90 2144 -90 
z
M 2144 4499 
C 2592 4499 2918 4307 3123 3923 
C 3283 3629 3398 3014 3398 2470 
C 3398 2022 3341 1619 3213 1235 
C 3155 1043 3046 870 2912 730 
C 2726 538 2458 435 2150 435 
C 1734 435 1414 614 1197 973 
C 1024 1261 902 1875 902 2451 
C 902 2906 966 3328 1088 3699 
C 1139 3866 1235 4026 1370 4173 
C 1568 4397 1818 4499 2144 4499 
z
" transform="scale(0.015625)"/>
       </defs>
       <use xlink:href="#HiraginoSans-W4-30"/>
      </g>
     </g>
    </g>
    <g id="xtick_5">
     <g id="line2d_9">
      <path d="M 359.004167 281.700437 
L 359.004167 24.644813 
" clip-path="url(#p4035be5293)" style="fill: none; stroke: #b0b0b0; stroke-opacity: 0.25; stroke-width: 0.8; stroke-linecap: square"/>
     </g>
     <g id="line2d_10">
      <g>
       <use xlink:href="#mdc63961c8c" x="359.004167" y="281.700437" style="stroke: #000000; stroke-width: 0.8"/>
      </g>
     </g>
     <g id="text_5">
      <!-- 1 -->
      <g transform="translate(355.302839 297.18075) scale(0.11 -0.11)">
       <use xlink:href="#HiraginoSans-W4-31"/>
      </g>
     </g>
    </g>
    <g id="xtick_6">
     <g id="line2d_11">
      <path d="M 439.488958 281.700437 
L 439.488958 24.644813 
" clip-path="url(#p4035be5293)" style="fill: none; stroke: #b0b0b0; stroke-opacity: 0.25; stroke-width: 0.8; stroke-linecap: square"/>
     </g>
     <g id="line2d_12">
      <g>
       <use xlink:href="#mdc63961c8c" x="439.488958" y="281.700437" style="stroke: #000000; stroke-width: 0.8"/>
      </g>
     </g>
     <g id="text_6">
      <!-- 2 -->
      <g transform="translate(435.78763 297.18075) scale(0.11 -0.11)">
       <use xlink:href="#HiraginoSans-W4-32"/>
      </g>
     </g>
    </g>
    <g id="xtick_7">
     <g id="line2d_13">
      <path d="M 519.97375 281.700437 
L 519.97375 24.644813 
" clip-path="url(#p4035be5293)" style="fill: none; stroke: #b0b0b0; stroke-opacity: 0.25; stroke-width: 0.8; stroke-linecap: square"/>
     </g>
     <g id="line2d_14">
      <g>
       <use xlink:href="#mdc63961c8c" x="519.97375" y="281.700437" style="stroke: #000000; stroke-width: 0.8"/>
      </g>
     </g>
     <g id="text_7">
      <!-- 3 -->
      <g transform="translate(516.272422 297.18075) scale(0.11 -0.11)">
       <use xlink:href="#HiraginoSans-W4-33"/>
      </g>
     </g>
    </g>
    <g id="text_8">
     <!-- y(x) − t -->
     <g transform="translate(258.674688 312.060437) scale(0.11 -0.11)">
      <defs>
       <path id="HiraginoSans-W4-79" d="M 1600 154 
L 1325 -486 
C 1229 -710 1069 -832 858 -832 
C 730 -832 621 -800 442 -717 
L 301 -1274 
C 550 -1325 710 -1344 864 -1344 
C 1357 -1344 1664 -1146 1843 -717 
L 3283 2758 
C 3462 3181 3571 3437 3603 3520 
L 2912 3520 
C 2880 3334 2829 3168 2694 2816 
L 1901 768 
L 1011 2822 
C 902 3072 819 3341 787 3520 
L 64 3520 
C 134 3386 134 3386 422 2758 
L 1600 154 
z
" transform="scale(0.015625)"/>
       <path id="HiraginoSans-W4-28" d="M 2195 -749 
C 1830 -198 1683 90 1542 538 
C 1402 986 1331 1472 1331 1978 
C 1331 2483 1402 2963 1542 3411 
C 1683 3859 1830 4147 2195 4698 
L 1715 5018 
C 1350 4461 1197 4173 1037 3712 
C 838 3155 742 2579 742 1978 
C 742 1376 838 794 1037 243 
C 1197 -218 1350 -512 1715 -1062 
L 2195 -749 
z
" transform="scale(0.015625)"/>
       <path id="HiraginoSans-W4-78" d="M 3469 0 
C 3238 294 3078 512 3008 614 
L 2138 1824 
L 2963 2982 
C 3021 3072 3168 3270 3206 3322 
C 3315 3462 3315 3462 3354 3520 
L 2630 3520 
C 2566 3386 2483 3238 2368 3072 
L 1792 2227 
L 1203 3072 
C 1088 3238 1024 3360 947 3520 
L 211 3520 
C 474 3174 557 3072 608 3002 
L 1440 1830 
L 531 563 
C 422 410 237 160 109 0 
L 858 0 
C 966 205 1018 294 1114 435 
L 1786 1421 
L 2426 486 
C 2566 288 2624 192 2720 0 
L 3469 0 
z
" transform="scale(0.015625)"/>
       <path id="HiraginoSans-W4-29" d="M 653 -1062 
C 1018 -512 1171 -218 1331 243 
C 1530 794 1626 1370 1626 1978 
C 1626 2579 1530 3155 1331 3712 
C 1171 4173 1018 4461 653 5018 
L 173 4698 
C 538 4147 685 3859 826 3411 
C 966 2963 1037 2490 1037 1978 
C 1037 1466 966 986 826 538 
C 685 90 538 -198 173 -749 
L 653 -1062 
z
" transform="scale(0.015625)"/>
       <path id="HiraginoSans-W4-20" transform="scale(0.015625)"/>
       <path id="HiraginoSans-W4-74" d="M 851 4480 
C 877 4262 896 4006 896 3750 
L 896 3520 
L 646 3520 
C 378 3520 250 3526 70 3558 
L 70 2995 
C 275 3021 416 3034 640 3034 
L 896 3034 
L 896 787 
C 896 461 954 269 1094 134 
C 1235 6 1466 -64 1773 -64 
C 2042 -64 2246 -26 2515 83 
L 2374 602 
C 2176 486 2048 448 1875 448 
C 1741 448 1632 486 1568 544 
C 1504 608 1478 698 1478 883 
L 1478 3034 
L 1779 3034 
C 2074 3034 2221 3027 2426 2995 
L 2426 3558 
C 2214 3526 2074 3520 1773 3520 
L 1478 3520 
L 1478 3750 
C 1478 4026 1498 4275 1523 4480 
L 851 4480 
z
" transform="scale(0.015625)"/>
      </defs>
      <use xlink:href="#HiraginoSans-W4-79"/>
      <use xlink:href="#HiraginoSans-W4-28" x="57.399994"/>
      <use xlink:href="#HiraginoSans-W4-78" x="94.399979"/>
      <use xlink:href="#HiraginoSans-W4-29" x="150.299973"/>
      <use xlink:href="#HiraginoSans-W4-20" x="187.299957"/>
      <use xlink:href="#HiraginoSans-W4-2212" x="220.599945"/>
      <use xlink:href="#HiraginoSans-W4-20" x="286.999939"/>
      <use xlink:href="#HiraginoSans-W4-74" x="320.299927"/>
     </g>
    </g>
   </g>
   <g id="matplotlib.axis_2">
    <g id="ytick_1">
     <g id="line2d_15">
      <path d="M 37.065 281.700437 
L 519.97375 281.700437 
" clip-path="url(#p4035be5293)" style="fill: none; stroke: #b0b0b0; stroke-opacity: 0.25; stroke-width: 0.8; stroke-linecap: square"/>
     </g>
     <g id="line2d_16">
      <defs>
       <path id="mb3b38a01bc" d="M 0 0 
L -3.5 0 
" style="stroke: #000000; stroke-width: 0.8"/>
      </defs>
      <g>
       <use xlink:href="#mb3b38a01bc" x="37.065" y="281.700437" style="stroke: #000000; stroke-width: 0.8"/>
      </g>
     </g>
     <g id="text_9">
      <!-- 0 -->
      <g transform="translate(22.662344 285.940594) scale(0.11 -0.11)">
       <use xlink:href="#HiraginoSans-W4-30"/>
      </g>
     </g>
    </g>
    <g id="ytick_2">
     <g id="line2d_17">
      <path d="M 37.065 249.568484 
L 519.97375 249.568484 
" clip-path="url(#p4035be5293)" style="fill: none; stroke: #b0b0b0; stroke-opacity: 0.25; stroke-width: 0.8; stroke-linecap: square"/>
     </g>
     <g id="line2d_18">
      <g>
       <use xlink:href="#mb3b38a01bc" x="37.065" y="249.568484" style="stroke: #000000; stroke-width: 0.8"/>
      </g>
     </g>
     <g id="text_10">
      <!-- 1 -->
      <g transform="translate(22.662344 253.808641) scale(0.11 -0.11)">
       <use xlink:href="#HiraginoSans-W4-31"/>
      </g>
     </g>
    </g>
    <g id="ytick_3">
     <g id="line2d_19">
      <path d="M 37.065 217.436531 
L 519.97375 217.436531 
" clip-path="url(#p4035be5293)" style="fill: none; stroke: #b0b0b0; stroke-opacity: 0.25; stroke-width: 0.8; stroke-linecap: square"/>
     </g>
     <g id="line2d_20">
      <g>
       <use xlink:href="#mb3b38a01bc" x="37.065" y="217.436531" style="stroke: #000000; stroke-width: 0.8"/>
      </g>
     </g>
     <g id="text_11">
      <!-- 2 -->
      <g transform="translate(22.662344 221.676687) scale(0.11 -0.11)">
       <use xlink:href="#HiraginoSans-W4-32"/>
      </g>
     </g>
    </g>
    <g id="ytick_4">
     <g id="line2d_21">
      <path d="M 37.065 185.304578 
L 519.97375 185.304578 
" clip-path="url(#p4035be5293)" style="fill: none; stroke: #b0b0b0; stroke-opacity: 0.25; stroke-width: 0.8; stroke-linecap: square"/>
     </g>
     <g id="line2d_22">
      <g>
       <use xlink:href="#mb3b38a01bc" x="37.065" y="185.304578" style="stroke: #000000; stroke-width: 0.8"/>
      </g>
     </g>
     <g id="text_12">
      <!-- 3 -->
      <g transform="translate(22.662344 189.544734) scale(0.11 -0.11)">
       <use xlink:href="#HiraginoSans-W4-33"/>
      </g>
     </g>
    </g>
    <g id="ytick_5">
     <g id="line2d_23">
      <path d="M 37.065 153.172625 
L 519.97375 153.172625 
" clip-path="url(#p4035be5293)" style="fill: none; stroke: #b0b0b0; stroke-opacity: 0.25; stroke-width: 0.8; stroke-linecap: square"/>
     </g>
     <g id="line2d_24">
      <g>
       <use xlink:href="#mb3b38a01bc" x="37.065" y="153.172625" style="stroke: #000000; stroke-width: 0.8"/>
      </g>
     </g>
     <g id="text_13">
      <!-- 4 -->
      <g transform="translate(22.64 157.412781) scale(0.11 -0.11)">
       <defs>
        <path id="HiraginoSans-W4-34" d="M 179 1210 
C 403 1229 589 1235 954 1235 
L 2688 1235 
L 2688 710 
C 2688 410 2675 218 2630 0 
L 3309 0 
C 3270 230 3258 390 3258 704 
L 3258 1235 
L 3494 1235 
C 3763 1235 3910 1222 4154 1190 
L 4154 1798 
C 3917 1766 3750 1754 3494 1754 
L 3258 1754 
L 3258 3853 
C 3258 4358 3264 4544 3296 4934 
L 2701 4934 
C 2560 4704 2445 4550 2214 4269 
L 621 2298 
C 467 2099 326 1939 179 1773 
L 179 1210 
z
M 2688 1747 
L 858 1747 
L 2259 3514 
C 2464 3763 2592 3936 2720 4128 
C 2694 3814 2688 3622 2688 3283 
L 2688 1747 
z
" transform="scale(0.015625)"/>
       </defs>
       <use xlink:href="#HiraginoSans-W4-34"/>
      </g>
     </g>
    </g>
    <g id="ytick_6">
     <g id="line2d_25">
      <path d="M 37.065 121.040672 
L 519.97375 121.040672 
" clip-path="url(#p4035be5293)" style="fill: none; stroke: #b0b0b0; stroke-opacity: 0.25; stroke-width: 0.8; stroke-linecap: square"/>
     </g>
     <g id="line2d_26">
      <g>
       <use xlink:href="#mb3b38a01bc" x="37.065" y="121.040672" style="stroke: #000000; stroke-width: 0.8"/>
      </g>
     </g>
     <g id="text_14">
      <!-- 5 -->
      <g transform="translate(22.662344 125.280828) scale(0.11 -0.11)">
       <defs>
        <path id="HiraginoSans-W4-35" d="M 1331 4416 
L 2835 4416 
C 3155 4416 3366 4403 3622 4365 
L 3622 4986 
C 3360 4947 3206 4934 2829 4934 
L 1446 4934 
C 1082 4934 954 4941 762 4966 
C 774 4768 774 4762 774 4742 
C 774 4563 774 4518 749 4307 
L 608 2822 
C 589 2566 570 2445 518 2157 
L 1088 2106 
C 1146 2240 1178 2291 1261 2374 
C 1485 2605 1811 2739 2131 2739 
C 2842 2739 3264 2317 3264 1613 
C 3264 902 2803 435 2106 435 
C 1747 435 1440 563 1235 794 
C 1146 902 1101 986 1037 1171 
L 410 1005 
C 557 685 646 544 813 378 
C 1133 64 1562 -96 2099 -96 
C 3194 -96 3885 576 3885 1638 
C 3885 2605 3245 3238 2272 3238 
C 1830 3238 1472 3098 1158 2803 
C 1197 2982 1197 2982 1203 3091 
L 1331 4416 
z
" transform="scale(0.015625)"/>
       </defs>
       <use xlink:href="#HiraginoSans-W4-35"/>
      </g>
     </g>
    </g>
    <g id="ytick_7">
     <g id="line2d_27">
      <path d="M 37.065 88.908719 
L 519.97375 88.908719 
" clip-path="url(#p4035be5293)" style="fill: none; stroke: #b0b0b0; stroke-opacity: 0.25; stroke-width: 0.8; stroke-linecap: square"/>
     </g>
     <g id="line2d_28">
      <g>
       <use xlink:href="#mb3b38a01bc" x="37.065" y="88.908719" style="stroke: #000000; stroke-width: 0.8"/>
      </g>
     </g>
     <g id="text_15">
      <!-- 6 -->
      <g transform="translate(22.662344 93.148875) scale(0.11 -0.11)">
       <defs>
        <path id="HiraginoSans-W4-36" d="M 3846 3994 
C 3706 4301 3616 4442 3462 4602 
C 3187 4877 2784 5024 2304 5024 
C 1683 5024 1222 4794 864 4307 
C 557 3891 371 3162 371 2355 
C 371 1446 614 704 1043 320 
C 1331 58 1773 -90 2253 -90 
C 3277 -90 3968 589 3968 1587 
C 3968 2586 3334 3213 2323 3213 
C 1894 3213 1568 3104 1274 2854 
C 1133 2739 1062 2656 941 2458 
C 979 3085 1043 3392 1210 3763 
C 1434 4262 1798 4518 2285 4518 
C 2765 4518 3040 4314 3238 3821 
L 3846 3994 
z
M 2266 2714 
C 2950 2714 3366 2285 3366 1574 
C 3366 1325 3309 1088 3206 922 
C 3008 614 2643 422 2234 422 
C 1568 422 1069 915 1069 1574 
C 1069 2234 1574 2714 2266 2714 
z
" transform="scale(0.015625)"/>
       </defs>
       <use xlink:href="#HiraginoSans-W4-36"/>
      </g>
     </g>
    </g>
    <g id="ytick_8">
     <g id="line2d_29">
      <path d="M 37.065 56.776766 
L 519.97375 56.776766 
" clip-path="url(#p4035be5293)" style="fill: none; stroke: #b0b0b0; stroke-opacity: 0.25; stroke-width: 0.8; stroke-linecap: square"/>
     </g>
     <g id="line2d_30">
      <g>
       <use xlink:href="#mb3b38a01bc" x="37.065" y="56.776766" style="stroke: #000000; stroke-width: 0.8"/>
      </g>
     </g>
     <g id="text_16">
      <!-- 7 -->
      <g transform="translate(22.662344 61.016922) scale(0.11 -0.11)">
       <defs>
        <path id="HiraginoSans-W4-37" d="M 3898 4966 
C 3661 4941 3526 4934 3117 4934 
L 1165 4934 
C 838 4934 646 4947 390 4979 
L 390 4346 
C 634 4378 819 4390 1146 4390 
L 3200 4390 
C 2643 3635 2368 3187 2054 2541 
C 1664 1741 1491 1171 1280 0 
L 2003 0 
C 2099 685 2163 992 2317 1491 
C 2554 2291 2829 2861 3373 3718 
C 3642 4141 3763 4301 3898 4422 
L 3898 4966 
z
" transform="scale(0.015625)"/>
       </defs>
       <use xlink:href="#HiraginoSans-W4-37"/>
      </g>
     </g>
    </g>
    <g id="ytick_9">
     <g id="line2d_31">
      <path d="M 37.065 24.644813 
L 519.97375 24.644813 
" clip-path="url(#p4035be5293)" style="fill: none; stroke: #b0b0b0; stroke-opacity: 0.25; stroke-width: 0.8; stroke-linecap: square"/>
     </g>
     <g id="line2d_32">
      <g>
       <use xlink:href="#mb3b38a01bc" x="37.065" y="24.644813" style="stroke: #000000; stroke-width: 0.8"/>
      </g>
     </g>
     <g id="text_17">
      <!-- 8 -->
      <g transform="translate(22.662344 28.884969) scale(0.11 -0.11)">
       <defs>
        <path id="HiraginoSans-W4-38" d="M 1446 2586 
C 1203 2547 1056 2490 851 2355 
C 480 2106 294 1754 294 1299 
C 294 397 966 -102 2163 -102 
C 3347 -102 4006 397 4006 1299 
C 4006 1728 3853 2061 3539 2304 
C 3322 2470 3136 2547 2867 2586 
C 3437 2714 3789 3162 3789 3757 
C 3789 4550 3162 5043 2150 5043 
C 1146 5043 512 4544 512 3750 
C 512 3162 877 2701 1446 2586 
z
M 2150 4538 
C 2784 4538 3187 4211 3187 3699 
C 3187 3155 2797 2829 2157 2829 
C 1510 2829 1114 3162 1114 3699 
C 1114 4211 1523 4538 2150 4538 
z
M 2157 2304 
C 2912 2304 3373 1939 3373 1344 
C 3373 749 2925 410 2144 410 
C 1376 410 928 749 928 1338 
C 928 1939 1389 2304 2157 2304 
z
" transform="scale(0.015625)"/>
       </defs>
       <use xlink:href="#HiraginoSans-W4-38"/>
      </g>
     </g>
    </g>
    <g id="text_18">
     <!-- 損失  |y(x) − t|^q -->
     <g transform="translate(16.33 198.631844) rotate(-90) scale(0.11 -0.11)">
      <defs>
       <path id="HiraginoSans-W4-640d" d="M 1184 3642 
L 1184 2291 
C 762 2125 557 2061 333 2029 
L 442 1523 
C 544 1568 608 1600 762 1658 
C 1018 1754 1069 1773 1184 1824 
L 1184 179 
C 1184 32 1133 -6 954 -6 
C 794 -6 621 19 371 70 
C 442 -134 454 -186 474 -416 
C 685 -442 838 -454 1005 -454 
C 1491 -454 1658 -326 1658 51 
L 1658 2022 
C 1971 2163 2003 2176 2240 2291 
L 2240 2758 
C 1965 2618 1875 2579 1658 2483 
L 1658 3642 
L 1882 3642 
C 2042 3642 2150 3635 2278 3616 
L 2278 4096 
C 2163 4077 2067 4070 1875 4070 
L 1658 4070 
L 1658 4672 
C 1658 4966 1664 5139 1696 5312 
L 1146 5312 
C 1171 5133 1184 4960 1184 4659 
L 1184 4070 
L 858 4070 
C 640 4070 525 4077 384 4109 
L 384 3610 
C 550 3629 691 3642 851 3642 
L 1184 3642 
z
M 2630 4211 
C 2630 4032 2624 3904 2605 3763 
C 2803 3776 2989 3782 3264 3782 
L 4960 3782 
C 5248 3782 5446 3776 5632 3763 
C 5613 3917 5606 4006 5606 4192 
L 5606 4672 
C 5606 4858 5613 4979 5632 5101 
C 5434 5082 5274 5075 4954 5075 
L 3251 5075 
C 2950 5075 2790 5082 2605 5101 
C 2624 4941 2630 4832 2630 4653 
L 2630 4211 
z
M 3091 4685 
L 5146 4685 
L 5146 4154 
L 3091 4154 
L 3091 4685 
z
M 5146 634 
C 5434 634 5594 627 5811 608 
C 5798 800 5792 928 5792 1222 
L 5792 2790 
C 5792 3098 5798 3290 5818 3450 
C 5677 3430 5498 3424 5190 3424 
L 3059 3424 
C 2746 3424 2605 3430 2426 3450 
C 2438 3238 2445 3078 2445 2790 
L 2445 1222 
C 2445 909 2438 781 2426 608 
C 2637 627 2797 634 3085 634 
L 5146 634 
z
M 2893 3034 
L 5338 3034 
L 5338 2624 
L 2893 2624 
L 2893 3034 
z
M 2893 2246 
L 5338 2246 
L 5338 1830 
L 2893 1830 
L 2893 2246 
z
M 2893 1453 
L 5338 1453 
L 5338 1024 
L 2893 1024 
L 2893 1453 
z
M 3251 550 
C 2810 186 2528 58 1818 -90 
C 1952 -224 2035 -339 2118 -499 
C 2822 -301 3117 -154 3635 269 
L 3251 550 
z
M 4442 275 
C 5005 -154 5280 -294 5933 -525 
C 6035 -326 6048 -314 6214 -102 
C 5568 70 5286 198 4800 557 
L 4442 275 
z
" transform="scale(0.015625)"/>
       <path id="HiraginoSans-W4-5931" d="M 3008 3757 
C 2989 3206 2970 2963 2925 2630 
L 1165 2630 
C 883 2630 678 2643 461 2675 
L 461 2131 
C 710 2157 928 2170 1190 2170 
L 2816 2170 
C 2502 1165 1638 416 378 45 
C 518 -122 582 -224 685 -442 
C 1382 -166 1933 179 2413 640 
C 2829 1043 3059 1408 3238 1952 
C 3686 883 4570 77 5843 -435 
C 5952 -205 6003 -115 6150 77 
C 5459 288 4909 595 4435 1024 
C 4051 1370 3814 1702 3603 2170 
L 5254 2170 
C 5574 2170 5798 2157 5997 2131 
L 5997 2675 
C 5811 2643 5600 2630 5261 2630 
L 3405 2630 
C 3462 2976 3488 3270 3507 3757 
L 4864 3757 
C 5152 3757 5395 3744 5600 3718 
L 5600 4262 
C 5414 4230 5222 4218 4864 4218 
L 3520 4218 
C 3526 5069 3526 5069 3558 5280 
L 2982 5280 
C 3014 5069 3021 4979 3021 4550 
C 3021 4435 3021 4288 3021 4218 
L 1952 4218 
C 2048 4403 2080 4480 2125 4576 
C 2259 4883 2259 4883 2330 5011 
L 1792 5158 
C 1766 4979 1683 4749 1536 4448 
C 1286 3936 947 3488 531 3117 
C 723 3014 800 2957 947 2803 
C 1267 3123 1466 3379 1702 3757 
L 3008 3757 
z
" transform="scale(0.015625)"/>
       <path id="HiraginoSans-W4-7c" d="M 966 4934 
L 966 -1312 
L 1530 -1312 
L 1530 4934 
L 966 4934 
z
" transform="scale(0.015625)"/>
       <path id="HiraginoSans-W4-5e" d="M 1760 4250 
L 2803 2464 
L 3456 2464 
L 1869 4992 
L 1651 4992 
L 64 2464 
L 710 2464 
L 1760 4250 
z
" transform="scale(0.015625)"/>
       <path id="HiraginoSans-W4-71" d="M 3808 -1312 
C 3776 -1056 3763 -851 3763 -557 
L 3763 2752 
C 3763 3085 3776 3270 3808 3520 
L 3200 3520 
L 3200 3194 
C 3200 3110 3200 3059 3213 2944 
C 2906 3379 2483 3590 1907 3590 
C 915 3590 282 2874 282 1766 
C 282 640 902 -51 1920 -51 
C 2464 -51 2893 154 3213 570 
C 3200 390 3194 314 3194 128 
L 3194 -550 
C 3194 -864 3181 -1062 3149 -1312 
L 3808 -1312 
z
M 877 1754 
C 877 2598 1293 3091 1997 3091 
C 2707 3091 3187 2560 3187 1773 
C 3187 979 2701 442 1978 442 
C 1286 442 877 934 877 1754 
z
" transform="scale(0.015625)"/>
      </defs>
      <use xlink:href="#HiraginoSans-W4-640d"/>
      <use xlink:href="#HiraginoSans-W4-5931" x="99.999985"/>
      <use xlink:href="#HiraginoSans-W4-20" x="199.999969"/>
      <use xlink:href="#HiraginoSans-W4-20" x="233.299957"/>
      <use xlink:href="#HiraginoSans-W4-7c" x="266.599945"/>
      <use xlink:href="#HiraginoSans-W4-79" x="305.499939"/>
      <use xlink:href="#HiraginoSans-W4-28" x="362.899933"/>
      <use xlink:href="#HiraginoSans-W4-78" x="399.899918"/>
      <use xlink:href="#HiraginoSans-W4-29" x="455.799911"/>
      <use xlink:href="#HiraginoSans-W4-20" x="492.799896"/>
      <use xlink:href="#HiraginoSans-W4-2212" x="526.099884"/>
      <use xlink:href="#HiraginoSans-W4-20" x="592.499878"/>
      <use xlink:href="#HiraginoSans-W4-74" x="625.799866"/>
      <use xlink:href="#HiraginoSans-W4-7c" x="666.29985"/>
      <use xlink:href="#HiraginoSans-W4-5e" x="705.199844"/>
      <use xlink:href="#HiraginoSans-W4-71" x="760.099838"/>
     </g>
    </g>
   </g>
   <g id="line2d_33">
    <path d="M 37.065 237.024518 
L 72.871861 239.124912 
L 103.839957 241.15934 
L 130.937042 243.158523 
L 154.163114 245.088453 
L 174.485927 246.99681 
L 191.905481 248.85317 
L 206.421776 250.611977 
L 219.002565 252.34998 
L 229.647848 254.034859 
L 238.357625 255.616884 
L 246.099649 257.239912 
L 252.87392 258.900897 
L 257.712685 260.287124 
L 262.55145 261.921748 
L 266.422462 263.502367 
L 269.325721 264.940615 
L 271.261227 266.088 
L 273.196733 267.475147 
L 275.132239 269.278975 
L 276.099992 270.471612 
L 277.067745 272.067035 
L 278.035498 274.771872 
L 279.003252 274.771872 
L 279.971005 272.067035 
L 280.938758 270.471612 
L 281.906511 269.278975 
L 283.842017 267.475147 
L 285.777523 266.088 
L 287.713029 264.940615 
L 290.616288 263.502367 
L 294.4873 261.921748 
L 298.358312 260.590911 
L 303.197077 259.162489 
L 309.003595 257.687488 
L 315.777866 256.19748 
L 323.51989 254.711349 
L 333.19742 253.087209 
L 344.810456 251.385302 
L 358.358998 249.645973 
L 373.843046 247.895261 
L 391.2626 246.149577 
L 411.585413 244.337317 
L 434.811485 242.489783 
L 461.90857 240.563202 
L 492.876666 238.591784 
L 519.97375 237.024518 
L 519.97375 237.024518 
" clip-path="url(#p4035be5293)" style="fill: none; stroke-dasharray: 1.8,2.97; stroke-dashoffset: 0; stroke: #1f77b4; stroke-width: 1.8"/>
   </g>
   <g id="line2d_34">
    <path d="M 37.065 185.304578 
L 278.035498 281.507259 
L 279.003252 281.507259 
L 519.97375 185.304578 
L 519.97375 185.304578 
" clip-path="url(#p4035be5293)" style="fill: none; stroke-dasharray: 6.66,2.88; stroke-dashoffset: 0; stroke: #ff7f0e; stroke-width: 1.8"/>
   </g>
   <g id="line2d_35">
    <path d="M 39.788844 -1 
L 46.74253 15.229672 
L 54.484554 32.734161 
L 62.226578 49.644017 
L 69.968602 65.959241 
L 76.742873 79.747278 
L 83.517144 93.080049 
L 90.291415 105.957555 
L 97.065686 118.379796 
L 103.839957 130.346771 
L 110.614228 141.858481 
L 117.388499 152.914925 
L 124.162771 163.516104 
L 130.937042 173.662018 
L 137.711313 183.352667 
L 143.517831 191.296583 
L 149.324349 198.906018 
L 155.130867 206.180973 
L 160.937385 213.121447 
L 166.743903 219.72744 
L 172.550421 225.998953 
L 178.356939 231.935985 
L 184.163457 237.538536 
L 189.969975 242.806607 
L 195.776493 247.740196 
L 201.583011 252.339306 
L 207.389529 256.603934 
L 212.228294 259.902285 
L 217.067059 262.968358 
L 221.905824 265.802153 
L 226.744589 268.403669 
L 231.583354 270.772907 
L 236.422119 272.909867 
L 241.260884 274.814549 
L 246.099649 276.486952 
L 250.938414 277.927077 
L 255.777179 279.134924 
L 260.615944 280.110493 
L 265.454709 280.853783 
L 270.293474 281.364795 
L 275.132239 281.643529 
L 279.971005 281.689985 
L 284.80977 281.504162 
L 289.648535 281.086062 
L 294.4873 280.435682 
L 299.326065 279.553025 
L 304.16483 278.43809 
L 309.003595 277.090876 
L 313.84236 275.511384 
L 318.681125 273.699613 
L 323.51989 271.655565 
L 328.358655 269.379238 
L 333.19742 266.870633 
L 338.036185 264.12975 
L 342.87495 261.156588 
L 347.713715 257.951148 
L 352.55248 254.51343 
L 357.391245 250.843434 
L 363.197763 246.132831 
L 369.004281 241.087748 
L 374.810799 235.708183 
L 380.617317 229.994138 
L 386.423835 223.945613 
L 392.230353 217.562607 
L 398.036871 210.84512 
L 403.843389 203.793152 
L 409.649907 196.406704 
L 415.456425 188.685775 
L 421.262943 180.630366 
L 427.069461 172.240475 
L 433.843732 162.029524 
L 440.618004 151.363307 
L 447.392275 140.241824 
L 454.166546 128.665076 
L 460.940817 116.633063 
L 467.715088 104.145785 
L 474.489359 91.203241 
L 481.26363 77.805431 
L 488.037901 63.952357 
L 494.812172 49.644017 
L 502.554196 32.734161 
L 510.29622 15.229672 
L 517.249906 -1 
L 517.249906 -1 
" clip-path="url(#p4035be5293)" style="fill: none; stroke: #2ca02c; stroke-width: 1.8; stroke-linecap: square"/>
   </g>
   <g id="line2d_36">
    <path d="M 139.90606 -1 
L 142.550078 19.975418 
L 145.453337 41.623337 
L 148.356596 61.899732 
L 151.259855 80.863794 
L 154.163114 98.573406 
L 157.066373 115.08515 
L 159.969632 130.454298 
L 162.872891 144.734818 
L 165.77615 157.979374 
L 168.679409 170.239321 
L 171.582668 181.56471 
L 174.485927 192.004288 
L 177.389186 201.605493 
L 180.292445 210.414459 
L 183.195704 218.476016 
L 186.098963 225.833685 
L 189.002222 232.529683 
L 191.905481 238.604922 
L 194.80874 244.099006 
L 197.711999 249.050238 
L 200.615258 253.495609 
L 203.518517 257.470809 
L 206.421776 261.010221 
L 209.325035 264.146922 
L 212.228294 266.912683 
L 215.131553 269.337971 
L 218.034812 271.451944 
L 220.938071 273.282459 
L 223.84133 274.856063 
L 226.744589 276.198001 
L 229.647848 277.332208 
L 233.51886 278.560278 
L 237.389872 279.509169 
L 241.260884 280.224789 
L 246.099649 280.854537 
L 250.938414 281.25732 
L 256.744932 281.528302 
L 265.454709 281.678129 
L 285.777523 281.698312 
L 298.358312 281.581818 
L 305.132583 281.316314 
L 310.939101 280.854537 
L 315.777866 280.224789 
L 319.648878 279.509169 
L 323.51989 278.560278 
L 327.390902 277.332208 
L 330.294161 276.198001 
L 333.19742 274.856063 
L 336.100679 273.282459 
L 339.003938 271.451944 
L 341.907197 269.337971 
L 344.810456 266.912683 
L 347.713715 264.146922 
L 350.616974 261.010221 
L 353.520233 257.470809 
L 356.423492 253.495609 
L 359.326751 249.050238 
L 362.23001 244.099006 
L 365.133269 238.604922 
L 368.036528 232.529683 
L 370.939787 225.833685 
L 373.843046 218.476016 
L 376.746305 210.414459 
L 379.649564 201.605493 
L 382.552823 192.004288 
L 385.456082 181.56471 
L 388.359341 170.239321 
L 391.2626 157.979374 
L 394.165859 144.734818 
L 397.069118 130.454298 
L 399.972377 115.08515 
L 402.875636 98.573406 
L 405.778895 80.863794 
L 408.682154 61.899732 
L 411.585413 41.623337 
L 414.488672 19.975418 
L 417.13269 -1 
L 417.13269 -1 
" clip-path="url(#p4035be5293)" style="fill: none; stroke-dasharray: 11.52,2.88,1.8,2.88; stroke-dashoffset: 0; stroke: #d62728; stroke-width: 1.8"/>
   </g>
   <g id="line2d_37">
    <path d="M 278.519375 281.700437 
L 278.519375 24.644813 
" clip-path="url(#p4035be5293)" style="fill: none; stroke: #808080; stroke-width: 0.5; stroke-linecap: square"/>
   </g>
   <g id="patch_3">
    <path d="M 37.065 281.700437 
L 37.065 24.644813 
" style="fill: none; stroke: #000000; stroke-width: 0.8; stroke-linejoin: miter; stroke-linecap: square"/>
   </g>
   <g id="patch_4">
    <path d="M 37.065 281.700437 
L 519.97375 281.700437 
" style="fill: none; stroke: #000000; stroke-width: 0.8; stroke-linejoin: miter; stroke-linecap: square"/>
   </g>
   <g id="text_19">
    <!-- §1.5.5 / 演習1.27  Lq 損失の形状: q によって「最適な y(x)」が変わる -->
    <g transform="translate(62.951 18.644813) scale(0.132 -0.132)">
     <defs>
      <path id="HiraginoSans-W4-a7" d="M 557 -147 
C 627 -480 685 -634 819 -819 
C 1082 -1190 1536 -1395 2080 -1395 
C 2957 -1395 3552 -902 3552 -186 
C 3552 45 3488 250 3373 416 
C 3296 525 3226 589 3053 704 
C 3277 800 3373 858 3488 966 
C 3674 1152 3770 1389 3770 1677 
C 3770 2074 3597 2387 3258 2598 
C 3066 2720 2893 2803 2189 3117 
C 1670 3347 1517 3437 1389 3571 
C 1306 3667 1254 3802 1254 3936 
C 1254 4301 1626 4570 2118 4570 
C 2432 4570 2682 4467 2822 4282 
C 2918 4160 2963 4032 3008 3789 
L 3565 3898 
C 3501 4224 3424 4397 3270 4582 
C 3027 4870 2630 5024 2125 5024 
C 1293 5024 710 4563 710 3898 
C 710 3686 774 3482 890 3334 
C 954 3245 1018 3187 1178 3072 
C 672 2822 448 2509 448 2061 
C 448 1779 550 1530 755 1338 
C 928 1171 1126 1062 1715 800 
C 2387 506 2490 454 2675 339 
C 2899 198 2995 32 2995 -198 
C 2995 -621 2630 -915 2106 -915 
C 1754 -915 1453 -768 1299 -518 
C 1222 -397 1184 -275 1152 -38 
L 557 -147 
z
M 2611 960 
C 1997 1235 1664 1389 1491 1478 
C 1139 1670 998 1850 998 2125 
C 998 2426 1158 2611 1594 2822 
C 1914 2669 1933 2656 2112 2573 
C 2650 2317 2816 2234 2950 2138 
C 3155 1990 3238 1850 3238 1638 
C 3238 1338 3066 1152 2611 960 
z
" transform="scale(0.015625)"/>
      <path id="HiraginoSans-W4-2e" d="M 442 723 
L 442 0 
L 1165 0 
L 1165 723 
L 442 723 
z
" transform="scale(0.015625)"/>
      <path id="HiraginoSans-W4-2f" d="M 2432 4934 
L 122 -979 
L 691 -979 
L 2995 4934 
L 2432 4934 
z
" transform="scale(0.015625)"/>
      <path id="HiraginoSans-W4-6f14" d="M 3680 4787 
L 2605 4787 
C 2323 4787 2080 4800 1958 4813 
C 1971 4710 1978 4576 1978 4403 
L 1978 4154 
C 1978 4013 1971 3885 1958 3770 
L 2381 3770 
L 2381 3494 
C 2554 3514 2694 3520 2944 3520 
L 3731 3520 
L 3731 3034 
L 2752 3034 
C 2509 3034 2291 3040 2189 3059 
C 2202 2912 2208 2752 2208 2490 
L 2208 1280 
C 2208 1005 2202 890 2189 710 
C 2362 723 2509 730 2765 730 
L 5152 730 
C 5389 730 5600 723 5760 704 
C 5741 858 5734 1037 5734 1293 
L 5734 2464 
C 5734 2739 5741 2912 5760 3059 
C 5587 3040 5459 3034 5190 3034 
L 4154 3034 
L 4154 3520 
L 4986 3520 
C 5242 3520 5402 3514 5568 3494 
L 5568 3776 
L 6003 3776 
C 5984 3891 5978 4026 5978 4198 
L 5978 4390 
C 5978 4589 5984 4672 5997 4813 
C 5837 4794 5632 4787 5280 4787 
L 4154 4787 
L 4154 4896 
C 4154 5094 4160 5222 4186 5357 
L 3648 5357 
C 3667 5222 3680 5094 3680 4896 
L 3680 4787 
z
M 5510 3942 
C 5350 3923 5210 3917 4986 3917 
L 2944 3917 
C 2739 3917 2566 3923 2432 3942 
L 2432 4371 
L 5510 4371 
L 5510 3942 
z
M 3731 2643 
L 3731 2093 
L 2643 2093 
L 2643 2643 
L 3731 2643 
z
M 4154 2643 
L 5299 2643 
L 5299 2093 
L 4154 2093 
L 4154 2643 
z
M 3731 1709 
L 3731 1114 
L 2643 1114 
L 2643 1709 
L 3731 1709 
z
M 4154 1709 
L 5299 1709 
L 5299 1114 
L 4154 1114 
L 4154 1709 
z
M 570 4928 
C 1018 4621 1248 4410 1562 4026 
L 1869 4422 
C 1542 4774 1286 4992 890 5280 
L 570 4928 
z
M 205 3322 
C 672 3040 928 2842 1267 2490 
L 1562 2918 
C 1184 3251 922 3443 493 3699 
L 205 3322 
z
M 1248 1882 
C 941 966 646 371 294 -19 
L 736 -403 
C 762 -352 762 -352 813 -262 
C 1120 256 1402 877 1651 1594 
L 1248 1882 
z
M 4288 339 
C 4800 -64 5203 -269 5926 -474 
C 6016 -282 6067 -205 6195 -45 
C 5805 45 5613 102 5325 224 
C 5037 346 4896 429 4621 640 
L 4288 339 
z
M 3181 640 
C 2765 294 2368 115 1619 -45 
C 1760 -186 1837 -301 1914 -461 
C 2675 -250 3002 -90 3526 333 
L 3181 640 
z
" transform="scale(0.015625)"/>
      <path id="HiraginoSans-W4-7fd2" d="M 3277 2214 
C 3379 2374 3424 2451 3539 2656 
L 3034 2752 
C 2989 2618 2874 2381 2771 2214 
L 1907 2214 
C 1581 2214 1408 2221 1203 2240 
C 1222 2016 1229 1894 1229 1523 
L 1229 186 
C 1229 -141 1216 -320 1190 -499 
L 1709 -499 
L 1709 -218 
L 4774 -218 
L 4774 -499 
L 5293 -499 
C 5261 -333 5254 -154 5254 186 
L 5254 1530 
C 5254 1914 5261 2042 5280 2240 
C 5075 2221 4915 2214 4582 2214 
L 3277 2214 
z
M 1709 1805 
L 4774 1805 
L 4774 1242 
L 1709 1242 
L 1709 1805 
z
M 1709 832 
L 4774 832 
L 4774 192 
L 1709 192 
L 1709 832 
z
M 2605 4730 
L 2605 3162 
C 2605 3014 2573 2989 2381 2989 
C 2170 2989 1952 3008 1734 3046 
C 1792 2899 1824 2771 1843 2605 
C 2016 2592 2227 2579 2374 2579 
C 2650 2579 2790 2605 2906 2675 
C 3021 2752 3059 2861 3059 3110 
L 3059 4550 
C 3059 4870 3066 5024 3085 5178 
C 2944 5158 2778 5152 2458 5152 
L 1126 5152 
C 851 5152 640 5165 461 5190 
L 461 4691 
C 653 4723 774 4730 1062 4730 
L 2605 4730 
z
M 1952 4045 
C 1613 4307 1434 4416 1050 4621 
L 742 4339 
C 1139 4128 1331 4000 1632 3731 
L 1952 4045 
z
M 5376 4730 
L 5376 3155 
C 5376 2989 5363 2982 5114 2982 
C 4941 2982 4723 3002 4467 3046 
C 4531 2880 4557 2758 4563 2586 
C 4819 2566 5011 2560 5190 2560 
C 5459 2560 5600 2586 5690 2650 
C 5811 2733 5837 2810 5837 3098 
L 5837 4544 
C 5837 4845 5843 5024 5862 5178 
C 5754 5158 5574 5152 5261 5152 
L 3942 5152 
C 3654 5152 3450 5165 3270 5190 
L 3270 4691 
C 3450 4723 3597 4730 3872 4730 
L 5376 4730 
z
M 4672 4032 
C 4307 4294 4128 4410 3731 4614 
L 3437 4326 
C 3808 4134 4019 4000 4365 3718 
L 4672 4032 
z
M 2304 3898 
C 1542 3469 890 3187 448 3098 
L 621 2637 
C 710 2682 755 2701 870 2752 
C 1549 3046 1818 3181 2336 3475 
L 2304 3898 
z
M 5082 3891 
C 4358 3507 3757 3277 3315 3213 
L 3482 2739 
C 3578 2790 3629 2810 3763 2867 
C 4294 3066 4672 3232 5107 3462 
L 5082 3891 
z
" transform="scale(0.015625)"/>
      <path id="HiraginoSans-W4-4c" d="M 3085 0 
C 3475 0 3661 -6 3878 -38 
L 3878 589 
C 3622 557 3437 544 3085 544 
L 1139 544 
L 1139 4128 
C 1139 4512 1152 4685 1190 4934 
L 480 4934 
C 518 4704 531 4493 531 4122 
L 531 768 
C 531 435 518 218 480 -13 
C 717 0 883 0 1216 0 
L 3085 0 
z
" transform="scale(0.015625)"/>
      <path id="HiraginoSans-W4-306e" d="M 3053 422 
C 3200 243 3245 160 3328 -96 
C 3821 6 4090 90 4397 237 
C 5293 666 5798 1459 5798 2451 
C 5798 3802 4832 4698 3379 4698 
C 2509 4698 1792 4403 1274 3834 
C 832 3347 589 2707 589 2042 
C 589 1107 1062 422 1709 422 
C 2189 422 2573 806 2938 1645 
C 3238 2323 3469 3264 3578 4205 
C 3891 4186 4070 4141 4294 4032 
C 4902 3738 5242 3174 5242 2477 
C 5242 1734 4870 1107 4230 768 
C 3917 602 3610 512 3053 422 
z
M 3027 4192 
C 2944 3398 2714 2483 2458 1888 
C 2195 1286 1952 992 1702 992 
C 1370 992 1114 1453 1114 2035 
C 1114 2797 1491 3501 2112 3891 
C 2394 4077 2656 4160 3027 4192 
z
" transform="scale(0.015625)"/>
      <path id="HiraginoSans-W4-5f62" d="M 1184 4602 
L 1184 3098 
L 954 3098 
C 691 3098 538 3110 371 3136 
L 371 2598 
C 531 2624 710 2637 947 2637 
L 1184 2637 
C 1158 1370 883 589 218 -83 
C 410 -218 486 -288 614 -442 
C 1350 410 1606 1171 1651 2637 
L 2554 2637 
L 2554 275 
C 2554 -32 2547 -192 2515 -410 
L 3072 -403 
C 3046 -224 3034 -32 3034 282 
L 3034 2637 
L 3206 2637 
C 3475 2637 3610 2630 3770 2605 
L 3770 3130 
C 3610 3104 3488 3098 3206 3098 
L 3034 3098 
L 3034 4602 
L 3149 4602 
C 3424 4602 3539 4595 3699 4570 
L 3699 5094 
C 3507 5069 3347 5056 3098 5056 
L 1088 5056 
C 851 5056 672 5069 486 5094 
L 486 4570 
C 659 4595 781 4602 1037 4602 
L 1184 4602 
z
M 1658 4602 
L 2554 4602 
L 2554 3098 
L 1658 3098 
L 1658 4602 
z
M 5850 2029 
C 5754 1850 5568 1613 5370 1408 
C 4755 774 4096 326 3328 13 
C 3469 -154 3558 -275 3635 -435 
C 4602 45 5299 582 6010 1395 
C 6106 1504 6138 1536 6272 1664 
L 5850 2029 
z
M 5395 5312 
C 5312 5178 5210 5069 4928 4813 
C 4480 4397 4032 4109 3501 3878 
C 3642 3725 3712 3622 3795 3437 
C 4403 3750 4858 4077 5446 4621 
C 5722 4877 5766 4915 5837 4973 
L 5395 5312 
z
M 5638 3693 
C 5536 3520 5357 3322 5146 3123 
C 4608 2637 4160 2342 3526 2074 
C 3648 1933 3712 1830 3821 1619 
C 4557 1990 5210 2483 5786 3085 
C 5907 3213 5971 3270 6061 3341 
L 5638 3693 
z
" transform="scale(0.015625)"/>
      <path id="HiraginoSans-W4-72b6" d="M 5440 3136 
C 5690 3136 5882 3123 6067 3098 
L 6067 3616 
C 5888 3590 5715 3578 5427 3578 
L 4160 3578 
C 4179 3923 4192 4198 4205 4653 
C 4211 4992 4218 5069 4237 5242 
L 3680 5242 
C 3699 5088 3706 4896 3706 4672 
C 3706 4160 3699 3910 3686 3578 
L 2816 3578 
C 2547 3578 2349 3590 2170 3616 
L 2170 3098 
C 2355 3123 2560 3136 2822 3136 
L 3648 3136 
C 3578 2432 3456 1952 3226 1459 
C 2938 826 2592 403 2029 6 
C 2157 -96 2253 -211 2368 -416 
C 2835 -51 3142 294 3418 781 
C 3699 1286 3898 1843 4013 2464 
C 4128 1939 4250 1587 4467 1146 
C 4813 467 5165 38 5773 -448 
C 5882 -243 5958 -141 6118 26 
C 5517 448 5152 858 4826 1485 
C 4576 1971 4390 2534 4275 3136 
L 5440 3136 
z
M 1434 2240 
C 1005 1958 499 1690 211 1594 
L 429 1088 
C 467 1120 480 1126 538 1158 
C 666 1235 749 1286 787 1306 
C 1062 1472 1190 1555 1434 1715 
L 1434 147 
C 1434 -115 1421 -294 1395 -480 
L 1958 -480 
C 1926 -301 1920 -154 1920 102 
L 1920 4723 
C 1920 4973 1926 5120 1958 5306 
L 1395 5306 
C 1421 5114 1434 4960 1434 4723 
L 1434 2240 
z
M 307 4288 
C 544 3776 646 3469 768 2893 
L 1203 3085 
C 1056 3680 966 3942 723 4461 
L 307 4288 
z
M 5747 4077 
C 5402 4576 5293 4710 4883 5114 
L 4525 4864 
C 4922 4461 5094 4243 5363 3795 
L 5747 4077 
z
" transform="scale(0.015625)"/>
      <path id="HiraginoSans-W4-3a" d="M 1165 3520 
L 442 3520 
L 442 2797 
L 1165 2797 
L 1165 3520 
z
M 1165 0 
L 1165 723 
L 442 723 
L 442 0 
L 1165 0 
z
" transform="scale(0.015625)"/>
      <path id="HiraginoSans-W4-306b" d="M 1382 838 
C 1382 947 1376 973 1376 1114 
C 1370 1286 1363 1594 1363 1722 
C 1363 2451 1414 3117 1510 3680 
C 1600 4179 1715 4653 1830 4954 
L 1222 5037 
C 1210 4877 1197 4813 1133 4493 
C 928 3546 851 2854 851 1958 
C 851 1312 896 838 1018 134 
C 1037 6 1043 -32 1056 -134 
L 1613 -96 
C 1606 -45 1606 0 1606 26 
C 1606 416 1824 1152 2144 1830 
L 1760 2010 
C 1555 1504 1453 1197 1389 838 
L 1382 838 
z
M 2592 3763 
C 2643 3757 2656 3757 2694 3750 
C 2790 3738 2790 3738 2810 3738 
C 3136 3706 3341 3693 3667 3693 
C 4141 3693 4640 3725 5030 3776 
C 5306 3814 5453 3834 5472 3834 
L 5440 4378 
C 5050 4269 4435 4205 3686 4205 
C 3194 4205 2899 4230 2605 4301 
L 2592 3763 
z
M 3053 2566 
C 2656 2106 2483 1734 2483 1357 
C 2483 1126 2554 902 2675 742 
C 2944 397 3424 237 4179 237 
C 4608 237 5037 275 5498 358 
C 5632 384 5645 384 5728 397 
L 5670 979 
C 5306 838 4755 755 4179 755 
C 3405 755 3008 973 3008 1408 
C 3008 1690 3155 1984 3488 2349 
L 3053 2566 
z
" transform="scale(0.015625)"/>
      <path id="HiraginoSans-W4-3088" d="M 2829 5190 
C 2848 5030 2854 4979 2854 4659 
C 2867 3667 2931 1933 2963 1715 
C 2861 1754 2541 1792 2317 1792 
C 1414 1792 806 1370 806 742 
C 806 122 1325 -250 2189 -250 
C 2739 -250 3155 -96 3360 192 
C 3475 346 3533 570 3533 832 
C 3533 934 3526 1030 3507 1094 
C 3578 1056 3584 1050 3661 1018 
C 4230 762 4890 301 5139 -13 
L 5498 518 
C 5370 602 5338 621 5190 723 
C 4531 1197 4051 1453 3494 1626 
C 3456 2118 3430 2656 3418 3213 
C 3949 3226 4390 3264 4941 3341 
C 5216 3379 5216 3379 5338 3386 
L 5280 3942 
C 4902 3808 4115 3706 3405 3706 
C 3398 4051 3398 4160 3398 4275 
C 3398 4813 3405 5011 3430 5190 
L 2829 5190 
z
M 2970 1222 
C 2976 1222 2989 973 2989 870 
C 2989 678 2944 544 2842 454 
C 2694 320 2458 250 2170 250 
C 1677 250 1357 442 1357 736 
C 1357 1075 1734 1299 2310 1299 
C 2579 1299 2707 1286 2970 1222 
z
" transform="scale(0.015625)"/>
      <path id="HiraginoSans-W4-3063" d="M 1139 2138 
C 1344 2227 1446 2259 1843 2349 
C 2611 2534 3091 2605 3533 2605 
C 4275 2605 4666 2304 4666 1741 
C 4666 1184 4237 717 3514 480 
C 3142 365 2630 282 2240 282 
C 2214 282 2189 282 2144 282 
C 2266 58 2298 -26 2342 -243 
C 3155 -141 3290 -122 3680 6 
C 4621 314 5190 954 5190 1709 
C 5190 1984 5114 2259 4979 2470 
C 4730 2880 4256 3085 3584 3085 
C 3040 3085 2470 3002 1619 2803 
C 1184 2707 1178 2701 1011 2688 
L 1139 2138 
z
" transform="scale(0.015625)"/>
      <path id="HiraginoSans-W4-3066" d="M 621 3693 
C 960 3763 1485 3814 2726 3898 
C 3418 3942 3725 3974 4134 4038 
C 3053 3552 2419 2714 2419 1786 
C 2419 1210 2688 717 3181 403 
C 3558 160 3936 38 4595 -70 
C 4698 -90 4723 -90 4800 -109 
L 4890 512 
C 4582 512 4250 570 3930 672 
C 3290 883 2970 1274 2970 1837 
C 2970 2438 3334 3021 3981 3462 
C 4486 3808 5094 4013 5613 4013 
C 5626 4013 5658 4013 5690 4013 
L 5645 4582 
C 5542 4557 5286 4531 4896 4518 
C 3840 4467 2086 4371 1190 4307 
C 992 4294 909 4288 819 4288 
C 781 4288 723 4288 589 4294 
L 621 3693 
z
" transform="scale(0.015625)"/>
      <path id="HiraginoSans-W4-300c" d="M 4870 2048 
L 4870 4922 
L 6106 4922 
L 6106 5395 
L 4346 5395 
L 4346 2048 
L 4870 2048 
z
" transform="scale(0.015625)"/>
      <path id="HiraginoSans-W4-6700" d="M 992 2509 
L 992 390 
C 723 365 531 352 416 352 
C 390 352 352 352 307 358 
L 416 -134 
C 646 -83 717 -70 1344 19 
C 1837 83 1837 83 2669 237 
L 2669 102 
C 2669 -192 2656 -358 2630 -506 
L 3149 -506 
C 3117 -339 3110 -192 3110 109 
L 3110 2509 
L 5491 2509 
C 5760 2509 5901 2502 6106 2470 
L 6106 2944 
C 5933 2912 5792 2906 5491 2906 
L 915 2906 
C 614 2906 474 2912 307 2944 
L 307 2470 
C 506 2502 646 2509 909 2509 
L 992 2509 
z
M 1440 2509 
L 2669 2509 
L 2669 2106 
L 1440 2106 
L 1440 2509 
z
M 1440 1754 
L 2669 1754 
L 2669 1331 
L 1440 1331 
L 1440 1754 
z
M 1440 979 
L 2669 979 
L 2669 614 
C 2086 512 2003 506 1440 442 
L 1440 979 
z
M 5504 2138 
C 5402 2118 5254 2112 5018 2112 
L 3859 2112 
C 3597 2112 3456 2118 3315 2138 
L 3315 1696 
C 3494 1715 3590 1722 3770 1722 
L 5165 1722 
C 4947 1325 4813 1139 4550 864 
C 4301 1126 4166 1331 4000 1702 
L 3616 1530 
C 3898 986 3962 890 4237 589 
C 3917 326 3661 186 3194 0 
C 3328 -128 3392 -218 3482 -397 
C 3949 -173 4198 -19 4550 282 
C 4896 -13 5242 -211 5811 -448 
C 5888 -288 5978 -141 6080 -13 
C 5562 147 5203 326 4870 576 
C 5165 883 5370 1178 5645 1677 
C 5690 1773 5709 1798 5754 1862 
L 5504 2138 
z
M 5370 4621 
C 5370 4858 5376 4998 5395 5139 
C 5178 5120 5005 5114 4704 5114 
L 1741 5114 
C 1446 5114 1274 5120 1050 5139 
C 1069 4992 1075 4845 1075 4621 
L 1075 3744 
C 1075 3520 1069 3373 1050 3219 
C 1286 3238 1440 3245 1728 3245 
L 4749 3245 
C 4992 3245 5197 3238 5395 3219 
C 5376 3373 5370 3514 5370 3744 
L 5370 4621 
z
M 1536 4742 
L 4909 4742 
L 4909 4358 
L 1536 4358 
L 1536 4742 
z
M 1536 4000 
L 4909 4000 
L 4909 3603 
L 1536 3603 
L 1536 4000 
z
" transform="scale(0.015625)"/>
      <path id="HiraginoSans-W4-9069" d="M 3763 2669 
L 3763 2234 
L 3520 2234 
C 3277 2234 3168 2240 3046 2259 
C 3059 2106 3066 1997 3066 1811 
L 3066 1152 
C 3066 979 3059 845 3046 704 
L 3469 704 
L 3469 1011 
L 4435 1011 
C 4602 1011 4742 1005 4864 992 
C 4851 1088 4851 1152 4851 1395 
L 4851 1798 
C 4851 1990 4858 2118 4870 2259 
C 4736 2240 4608 2234 4384 2234 
L 4166 2234 
L 4166 2669 
L 4608 2669 
C 4838 2669 4966 2662 5158 2643 
L 5158 3046 
C 4998 3021 4838 3014 4608 3014 
L 4166 3014 
C 4166 3187 4173 3270 4192 3392 
L 3731 3392 
C 3757 3264 3763 3168 3763 3014 
L 3341 3014 
C 3110 3014 2963 3021 2803 3046 
L 2803 2643 
C 2995 2662 3117 2669 3341 2669 
L 3763 2669 
z
M 3462 1894 
L 4454 1894 
L 4454 1357 
L 3462 1357 
L 3462 1894 
z
M 4192 4845 
C 4198 5133 4205 5210 4230 5363 
L 3680 5363 
C 3712 5197 3718 5114 3718 4845 
L 2598 4845 
C 2291 4845 2099 4858 1926 4883 
L 1926 4416 
C 2099 4442 2278 4448 2592 4448 
L 2854 4448 
C 2938 4288 3021 4096 3085 3904 
L 2848 3904 
C 2477 3904 2336 3910 2144 3923 
C 2157 3725 2163 3590 2163 3258 
L 2163 1235 
C 2163 934 2150 672 2131 499 
L 2643 499 
C 2624 640 2611 909 2611 1235 
L 2611 3526 
L 5350 3526 
L 5350 1050 
C 5350 922 5312 902 5101 902 
C 4947 902 4717 915 4582 941 
C 4653 762 4666 685 4691 493 
C 4832 486 4998 480 5075 480 
C 5312 480 5491 499 5594 538 
C 5728 582 5798 730 5798 998 
L 5798 3238 
C 5798 3565 5805 3738 5824 3930 
C 5619 3910 5472 3904 5158 3904 
L 4832 3904 
C 4954 4147 5005 4256 5082 4448 
L 5376 4448 
C 5658 4448 5818 4442 6016 4416 
L 6016 4883 
C 5837 4858 5658 4845 5350 4845 
L 4192 4845 
z
M 3552 3904 
C 3482 4115 3411 4282 3328 4448 
L 4595 4448 
C 4525 4250 4442 4045 4358 3904 
L 3552 3904 
z
M 371 4909 
C 774 4531 1024 4250 1382 3738 
L 1766 4090 
C 1402 4570 1171 4813 723 5229 
L 371 4909 
z
M 294 2336 
C 442 2362 550 2368 749 2368 
L 1133 2368 
L 1133 870 
C 774 525 442 275 160 147 
L 403 -365 
C 570 -224 691 -128 774 -58 
C 928 58 1126 243 1357 467 
C 1549 192 1754 13 2010 -109 
C 2374 -282 2758 -326 3885 -326 
C 4710 -326 5357 -314 6042 -282 
C 6086 -32 6099 13 6202 250 
C 5542 166 4646 128 3347 128 
C 2605 128 2221 218 1901 461 
C 1766 570 1696 659 1606 858 
L 1606 2150 
C 1606 2477 1613 2630 1632 2835 
C 1491 2816 1331 2803 1146 2803 
L 794 2803 
C 557 2803 448 2810 294 2835 
L 294 2336 
z
" transform="scale(0.015625)"/>
      <path id="HiraginoSans-W4-306a" d="M 2074 5229 
C 2054 4941 1971 4454 1862 4051 
C 1760 4045 1594 4045 1421 4045 
C 1062 4045 870 4058 646 4096 
L 646 3571 
C 678 3571 704 3571 717 3571 
C 755 3571 806 3571 870 3571 
C 1062 3565 1114 3565 1267 3565 
C 1536 3565 1562 3565 1728 3571 
C 1434 2586 922 1530 467 954 
L 986 653 
C 1018 710 1056 781 1114 877 
C 1357 1306 1414 1414 1568 1722 
C 1850 2310 2080 2925 2272 3590 
C 2707 3622 3072 3674 3315 3718 
C 3462 3744 3462 3744 3533 3750 
L 3514 4282 
C 3238 4192 2835 4122 2406 4083 
C 2483 4384 2522 4525 2566 4742 
C 2624 5018 2624 5037 2662 5152 
L 2074 5229 
z
M 5933 3488 
C 5408 3827 4954 4051 4211 4339 
L 3936 3904 
C 4627 3654 5133 3398 5670 3027 
L 5933 3488 
z
M 5939 640 
C 5901 672 5901 672 5843 717 
C 5786 774 5760 794 5664 870 
C 5280 1171 5050 1299 4576 1510 
C 4538 1792 4506 2182 4506 2451 
C 4506 2694 4525 2822 4595 3066 
L 4070 3110 
C 4026 2893 4006 2726 4006 2515 
C 4006 2304 4026 1958 4051 1645 
C 3782 1709 3622 1728 3405 1728 
C 2618 1728 2067 1312 2067 717 
C 2067 333 2304 6 2682 -122 
C 2886 -198 3142 -237 3379 -237 
C 3827 -237 4198 -96 4390 147 
C 4518 307 4602 563 4602 806 
C 4602 858 4602 890 4589 973 
C 5037 730 5434 422 5670 128 
L 5939 640 
z
M 4077 1152 
C 4083 1152 4096 966 4096 896 
C 4096 454 3853 243 3347 243 
C 2867 243 2579 429 2579 736 
C 2579 1062 2899 1274 3405 1274 
C 3648 1274 3821 1242 4077 1152 
z
" transform="scale(0.015625)"/>
      <path id="HiraginoSans-W4-300d" d="M 1530 2816 
L 1530 -58 
L 294 -58 
L 294 -531 
L 2054 -531 
L 2054 2816 
L 1530 2816 
z
" transform="scale(0.015625)"/>
      <path id="HiraginoSans-W4-304c" d="M 531 3002 
C 813 3072 1082 3123 1773 3226 
C 1568 2406 1389 1888 1094 1254 
C 877 781 621 326 429 83 
L 954 -218 
L 1370 589 
C 1792 1459 2067 2234 2310 3270 
C 2496 3290 2611 3296 2746 3296 
C 3315 3296 3494 3091 3494 2438 
C 3494 1722 3398 1075 3232 685 
C 3155 499 3034 403 2880 403 
C 2656 403 2291 512 1939 685 
C 1965 531 1971 448 1971 333 
C 1971 256 1965 218 1958 109 
C 2374 -58 2656 -122 2925 -122 
C 3232 -122 3418 -45 3578 173 
C 3853 538 4026 1395 4026 2413 
C 4026 2957 3936 3251 3718 3475 
C 3514 3674 3232 3757 2797 3757 
C 2656 3757 2560 3757 2406 3744 
C 2438 3891 2509 4301 2541 4467 
C 2598 4826 2618 4934 2656 5062 
L 2054 5133 
L 2054 5043 
C 2054 4781 1978 4224 1875 3699 
C 1338 3616 698 3546 467 3546 
L 531 3002 
z
M 4262 3898 
C 4864 3270 5312 2451 5549 1530 
L 6048 1805 
C 5760 2726 5363 3424 4717 4134 
L 4262 3898 
z
M 5357 5357 
C 5638 5024 5830 4736 6016 4365 
L 6387 4576 
C 6157 4998 6016 5197 5715 5549 
L 5357 5357 
z
M 4614 5011 
C 4877 4717 5082 4397 5280 4000 
L 5658 4211 
C 5434 4627 5286 4845 4986 5203 
L 4614 5011 
z
" transform="scale(0.015625)"/>
      <path id="HiraginoSans-W4-5909" d="M 2477 4288 
C 2464 3782 2419 3546 2298 3296 
C 2150 2995 1882 2771 1414 2541 
C 1606 2432 1709 2342 1818 2214 
C 2650 2714 2918 3206 2950 4288 
L 3674 4288 
L 3674 3002 
C 3674 2893 3648 2867 3507 2867 
C 3354 2867 3206 2880 2989 2912 
C 3072 2758 3110 2637 3130 2464 
C 3315 2451 3507 2445 3654 2445 
C 4026 2445 4147 2547 4147 2874 
L 4147 4288 
L 5242 4288 
C 5517 4288 5760 4275 5965 4256 
L 5965 4755 
C 5766 4730 5574 4717 5229 4717 
L 3437 4717 
L 3437 4890 
C 3437 5069 3450 5190 3469 5325 
L 2899 5325 
C 2918 5190 2931 5069 2931 4890 
L 2931 4717 
L 1146 4717 
C 806 4717 595 4730 429 4755 
L 429 4256 
C 621 4282 794 4288 1120 4288 
L 2477 4288 
z
M 4640 1946 
C 4518 1926 4326 1914 4051 1914 
L 2656 1914 
C 2771 2042 2842 2125 2931 2234 
C 2982 2291 2989 2298 3034 2349 
L 2579 2547 
C 2458 2330 2298 2144 2016 1894 
C 1594 1517 1152 1254 589 1050 
C 723 909 774 838 877 666 
C 1299 851 1581 1011 1946 1280 
C 2221 992 2445 800 2803 550 
C 2413 378 2042 262 1574 160 
C 1158 77 934 51 243 6 
C 371 -154 429 -269 499 -467 
C 1184 -378 1504 -326 1901 -224 
C 2387 -96 2861 77 3251 275 
C 3936 -96 4736 -326 5888 -499 
C 5946 -320 6022 -173 6150 13 
C 5094 77 4410 224 3693 538 
C 4077 806 4397 1075 4755 1440 
C 4858 1549 4870 1568 4941 1632 
L 4640 1946 
z
M 4166 1517 
C 3789 1133 3590 979 3238 768 
C 2861 992 2541 1248 2298 1517 
L 4166 1517 
z
M 1510 4083 
C 1357 3725 1229 3526 992 3270 
C 819 3085 678 2976 390 2771 
C 576 2650 614 2618 787 2451 
C 1082 2688 1210 2810 1402 3040 
C 1638 3322 1760 3507 1946 3885 
L 1510 4083 
z
M 4390 3770 
C 4864 3328 5114 3027 5517 2432 
L 5939 2758 
C 5517 3283 5242 3578 4755 4026 
L 4390 3770 
z
" transform="scale(0.015625)"/>
      <path id="HiraginoSans-W4-308f" d="M 717 909 
C 794 1030 1030 1280 1267 1504 
C 1485 1709 1536 1760 1587 1843 
L 1594 1843 
C 1587 1747 1581 1683 1581 1434 
C 1574 -77 1574 -77 1542 -288 
L 2144 -288 
C 2112 -26 2099 538 2099 1542 
C 2099 1843 2099 1920 2099 2253 
C 2886 2970 3514 3302 4083 3302 
C 4806 3302 5286 2816 5286 2093 
C 5286 1805 5229 1562 5107 1338 
C 4877 909 4403 640 3866 640 
C 3482 640 3091 723 2733 883 
C 2778 672 2797 563 2797 454 
C 2797 416 2797 365 2797 301 
C 3168 186 3501 128 3853 128 
C 4429 128 4941 314 5280 646 
C 5626 979 5843 1517 5843 2042 
C 5843 2560 5702 2957 5402 3277 
C 5075 3622 4634 3802 4096 3802 
C 3488 3802 2982 3597 2342 3078 
C 2208 2970 2157 2925 2106 2867 
L 2093 2867 
C 2106 2925 2112 2982 2112 3027 
C 2118 3354 2118 3354 2125 3456 
C 2355 3763 2387 3795 2470 3872 
L 2285 4096 
C 2240 4070 2227 4070 2157 4064 
L 2176 4544 
C 2189 4909 2195 4979 2234 5146 
L 1638 5146 
C 1651 5037 1651 4992 1651 4877 
C 1651 4576 1645 4384 1632 4019 
C 1261 3994 864 3968 762 3968 
C 704 3968 666 3968 570 3981 
L 608 3456 
C 768 3488 909 3507 1312 3533 
C 1517 3546 1517 3546 1619 3552 
C 1600 3014 1600 2976 1594 2483 
C 595 1562 563 1536 422 1440 
L 717 909 
z
" transform="scale(0.015625)"/>
      <path id="HiraginoSans-W4-308b" d="M 1485 4262 
C 1626 4282 1690 4288 1824 4294 
C 2758 4333 3482 4371 3718 4410 
C 3738 4410 3750 4410 3770 4416 
L 3776 4403 
C 3725 4352 3725 4352 3706 4333 
C 3686 4314 3680 4307 3654 4282 
C 2694 3334 1242 2131 678 1818 
L 1005 1331 
C 1760 2022 2746 2419 3693 2419 
C 4531 2419 5037 2067 5037 1478 
C 5037 1146 4883 858 4602 659 
C 4454 550 4314 486 4077 416 
C 3987 704 3917 851 3789 1024 
C 3533 1363 3149 1549 2720 1549 
C 2157 1549 1741 1210 1741 755 
C 1741 563 1818 352 1933 218 
C 2170 -58 2605 -198 3232 -198 
C 4646 -198 5587 480 5587 1491 
C 5587 2323 4896 2861 3821 2861 
C 3283 2861 2835 2752 2317 2490 
L 2304 2515 
C 2739 2784 3507 3430 4371 4262 
C 4563 4454 4602 4480 4698 4531 
L 4390 4947 
C 4301 4896 4243 4883 4058 4870 
C 3488 4826 2643 4787 2106 4787 
C 1779 4787 1645 4794 1459 4826 
L 1485 4262 
z
M 3578 288 
C 3373 256 3302 250 3155 250 
C 2598 250 2246 442 2246 742 
C 2246 966 2432 1107 2720 1107 
C 3155 1107 3443 826 3578 288 
z
" transform="scale(0.015625)"/>
     </defs>
     <use xlink:href="#HiraginoSans-W4-a7"/>
     <use xlink:href="#HiraginoSans-W4-31" x="65.899994"/>
     <use xlink:href="#HiraginoSans-W4-2e" x="133.199982"/>
     <use xlink:href="#HiraginoSans-W4-35" x="158.199966"/>
     <use xlink:href="#HiraginoSans-W4-2e" x="225.499954"/>
     <use xlink:href="#HiraginoSans-W4-35" x="250.499939"/>
     <use xlink:href="#HiraginoSans-W4-20" x="317.799927"/>
     <use xlink:href="#HiraginoSans-W4-2f" x="351.099915"/>
     <use xlink:href="#HiraginoSans-W4-20" x="399.799911"/>
     <use xlink:href="#HiraginoSans-W4-6f14" x="433.099899"/>
     <use xlink:href="#HiraginoSans-W4-7fd2" x="533.099884"/>
     <use xlink:href="#HiraginoSans-W4-31" x="633.099869"/>
     <use xlink:href="#HiraginoSans-W4-2e" x="700.399857"/>
     <use xlink:href="#HiraginoSans-W4-32" x="725.399841"/>
     <use xlink:href="#HiraginoSans-W4-37" x="792.699829"/>
     <use xlink:href="#HiraginoSans-W4-20" x="859.999817"/>
     <use xlink:href="#HiraginoSans-W4-20" x="893.299805"/>
     <use xlink:href="#HiraginoSans-W4-4c" x="926.599792"/>
     <use xlink:href="#HiraginoSans-W4-71" x="987.89978"/>
     <use xlink:href="#HiraginoSans-W4-20" x="1054.299774"/>
     <use xlink:href="#HiraginoSans-W4-640d" x="1087.599762"/>
     <use xlink:href="#HiraginoSans-W4-5931" x="1187.599747"/>
     <use xlink:href="#HiraginoSans-W4-306e" x="1287.599731"/>
     <use xlink:href="#HiraginoSans-W4-5f62" x="1387.599716"/>
     <use xlink:href="#HiraginoSans-W4-72b6" x="1487.599701"/>
     <use xlink:href="#HiraginoSans-W4-3a" x="1587.599686"/>
     <use xlink:href="#HiraginoSans-W4-20" x="1612.59967"/>
     <use xlink:href="#HiraginoSans-W4-71" x="1645.899658"/>
     <use xlink:href="#HiraginoSans-W4-20" x="1712.299652"/>
     <use xlink:href="#HiraginoSans-W4-306b" x="1745.59964"/>
     <use xlink:href="#HiraginoSans-W4-3088" x="1845.599625"/>
     <use xlink:href="#HiraginoSans-W4-3063" x="1945.599609"/>
     <use xlink:href="#HiraginoSans-W4-3066" x="2045.599594"/>
     <use xlink:href="#HiraginoSans-W4-300c" x="2145.599579"/>
     <use xlink:href="#HiraginoSans-W4-6700" x="2245.599564"/>
     <use xlink:href="#HiraginoSans-W4-9069" x="2345.599548"/>
     <use xlink:href="#HiraginoSans-W4-306a" x="2445.599533"/>
     <use xlink:href="#HiraginoSans-W4-20" x="2545.599518"/>
     <use xlink:href="#HiraginoSans-W4-79" x="2578.899506"/>
     <use xlink:href="#HiraginoSans-W4-28" x="2636.2995"/>
     <use xlink:href="#HiraginoSans-W4-78" x="2673.299484"/>
     <use xlink:href="#HiraginoSans-W4-29" x="2729.199478"/>
     <use xlink:href="#HiraginoSans-W4-300d" x="2766.199463"/>
     <use xlink:href="#HiraginoSans-W4-304c" x="2866.199448"/>
     <use xlink:href="#HiraginoSans-W4-5909" x="2966.199432"/>
     <use xlink:href="#HiraginoSans-W4-308f" x="3066.199417"/>
     <use xlink:href="#HiraginoSans-W4-308b" x="3166.199402"/>
    </g>
   </g>
   <g id="legend_1">
    <g id="patch_5">
     <path d="M 188.564766 91.515906 
L 368.473984 91.515906 
Q 370.373984 91.515906 370.373984 89.615906 
L 370.373984 31.294812 
Q 370.373984 29.394813 368.473984 29.394813 
L 188.564766 29.394813 
Q 186.664766 29.394813 186.664766 31.294812 
L 186.664766 89.615906 
Q 186.664766 91.515906 188.564766 91.515906 
z
" style="fill: #ffffff; opacity: 0.95; stroke: #cccccc; stroke-linejoin: miter"/>
    </g>
    <g id="line2d_38">
     <path d="M 190.464766 37.830516 
L 199.964766 37.830516 
L 209.464766 37.830516 
" style="fill: none; stroke-dasharray: 1.8,2.97; stroke-dashoffset: 0; stroke: #1f77b4; stroke-width: 1.8"/>
    </g>
    <g id="text_20">
     <!-- q = 0.3  → 最頻値に寄る -->
     <g transform="translate(217.064766 41.155516) scale(0.095 -0.095)">
      <defs>
       <path id="HiraginoSans-W4-3d" d="M 333 2720 
L 333 2195 
L 3923 2195 
L 3923 2720 
L 333 2720 
z
M 333 1376 
L 333 851 
L 3923 851 
L 3923 1376 
L 333 1376 
z
" transform="scale(0.015625)"/>
       <path id="HiraginoSans-W4-2192" d="M 4358 3597 
C 4518 3424 4518 3424 4826 3078 
C 4883 3008 4922 2970 5318 2579 
L 403 2579 
L 403 2298 
L 5318 2298 
C 5184 2150 5120 2093 4998 1965 
C 4826 1792 4826 1792 4666 1619 
C 4499 1446 4493 1440 4358 1299 
L 4506 1126 
C 5114 1696 5427 1939 6157 2438 
C 5216 3104 5216 3104 4506 3744 
L 4358 3597 
z
" transform="scale(0.015625)"/>
       <path id="HiraginoSans-W4-983b" d="M 2157 3443 
L 2157 4109 
L 2592 4109 
C 2790 4109 2867 4102 3040 4090 
L 3040 4550 
C 2918 4531 2790 4525 2598 4525 
L 2157 4525 
L 2157 4742 
C 2157 4979 2170 5152 2195 5299 
L 1683 5299 
C 1709 5158 1722 4954 1722 4717 
L 1722 3443 
L 1242 3443 
L 1242 4243 
C 1242 4448 1254 4614 1274 4742 
L 781 4742 
C 806 4602 819 4448 819 4218 
L 819 3443 
L 762 3443 
C 506 3443 397 3450 269 3469 
L 269 2995 
C 435 3014 544 3021 813 3021 
L 1670 3021 
L 1670 1690 
C 1670 1613 1638 1587 1536 1587 
C 1402 1587 1216 1606 1050 1632 
C 1107 1491 1126 1389 1146 1197 
C 1274 1197 1350 1197 1389 1197 
C 2003 1197 2112 1261 2112 1619 
L 2112 3021 
L 2803 3021 
C 2989 3021 3091 3014 3187 3002 
L 3187 3469 
C 3091 3450 2995 3443 2803 3443 
L 2157 3443 
z
M 4358 4678 
C 4307 4486 4224 4256 4141 4058 
L 3878 4058 
C 3622 4058 3494 4064 3347 4077 
C 3360 3898 3366 3763 3366 3482 
L 3366 1325 
C 3366 1056 3366 973 3347 742 
C 3533 755 3686 762 3885 762 
L 5261 762 
C 5453 762 5645 755 5811 742 
C 5798 934 5792 1107 5792 1370 
L 5792 3488 
C 5792 3738 5798 3917 5811 4083 
C 5683 4064 5517 4058 5216 4058 
L 4608 4058 
C 4698 4269 4768 4454 4838 4678 
L 5421 4678 
C 5728 4678 5869 4672 6067 4640 
L 6067 5146 
C 5901 5114 5741 5107 5421 5107 
L 3750 5107 
C 3450 5107 3290 5120 3117 5146 
L 3117 4640 
C 3309 4672 3443 4678 3763 4678 
L 4358 4678 
z
M 3808 3654 
L 5344 3654 
L 5344 3110 
L 3808 3110 
L 3808 3654 
z
M 3808 2714 
L 5344 2714 
L 5344 2157 
L 3808 2157 
L 3808 2714 
z
M 3808 1760 
L 5344 1760 
L 5344 1171 
L 3808 1171 
L 3808 1760 
z
M 3322 1888 
C 3110 2259 3014 2400 2688 2816 
L 2349 2605 
C 2618 2272 2778 2035 2989 1638 
L 3322 1888 
z
M 3866 685 
C 3533 294 3226 83 2611 -179 
C 2765 -301 2842 -384 2950 -550 
C 3565 -230 3859 -13 4237 410 
L 3866 685 
z
M 4704 416 
C 5050 13 5344 -230 5875 -570 
C 5984 -403 6074 -301 6202 -179 
C 5670 102 5414 294 5062 678 
L 4704 416 
z
M 902 2803 
C 736 2221 557 1869 218 1453 
C 390 1318 422 1286 557 1133 
C 902 1587 1101 1990 1306 2643 
L 902 2803 
z
M 2547 1818 
C 2374 1382 2074 1005 1606 646 
C 1184 320 851 154 256 -45 
C 397 -192 467 -294 538 -467 
C 1587 -70 2240 448 2816 1350 
C 2886 1459 2899 1466 2938 1523 
L 2547 1818 
z
" transform="scale(0.015625)"/>
       <path id="HiraginoSans-W4-5024" d="M 3840 4282 
C 3802 4090 3782 4013 3706 3725 
L 3565 3725 
C 3322 3725 3181 3731 3034 3744 
C 3040 3686 3046 3507 3059 3200 
L 3059 1216 
C 3059 1018 3053 851 3040 698 
C 3296 717 3386 717 3597 717 
L 5126 717 
C 5338 717 5421 717 5690 698 
C 5670 877 5670 1005 5670 1248 
L 5670 3136 
C 5670 3456 5670 3571 5690 3744 
C 5555 3731 5402 3725 5133 3725 
L 4166 3725 
C 4243 4032 4243 4032 4294 4282 
L 5568 4282 
C 5773 4282 5946 4275 6144 4250 
L 6144 4742 
C 5946 4710 5818 4704 5523 4704 
L 4378 4704 
C 4416 4928 4429 4992 4474 5286 
L 3974 5318 
C 3955 5030 3942 4934 3910 4704 
L 2662 4704 
C 2362 4704 2208 4710 2035 4736 
L 2035 4256 
C 2221 4275 2368 4282 2624 4282 
L 3840 4282 
z
M 3501 3334 
L 5229 3334 
L 5229 2861 
L 3501 2861 
L 3501 3334 
z
M 3501 2477 
L 5229 2477 
L 5229 2003 
L 3501 2003 
L 3501 2477 
z
M 3501 1619 
L 5229 1619 
L 5229 1107 
L 3501 1107 
L 3501 1619 
z
M 915 288 
C 915 -38 902 -243 877 -474 
L 1414 -474 
C 1389 -256 1382 -26 1382 275 
L 1382 3814 
C 1600 4288 1651 4429 1798 4883 
C 1843 5018 1869 5088 1920 5229 
L 1395 5363 
C 1357 5062 1299 4864 1152 4461 
C 896 3770 595 3258 122 2720 
C 218 2592 320 2419 390 2253 
C 640 2573 755 2765 934 3104 
C 915 2733 915 2656 915 2355 
L 915 288 
z
M 2451 -499 
L 2451 -154 
L 5408 -154 
C 5690 -154 5869 -166 6080 -192 
L 6080 314 
C 5907 288 5734 282 5408 282 
L 2451 282 
L 2451 3098 
C 2451 3398 2458 3622 2483 3795 
L 1952 3795 
C 1978 3603 1990 3398 1990 3104 
L 1990 288 
C 1990 -96 1984 -282 1958 -499 
L 2451 -499 
z
" transform="scale(0.015625)"/>
       <path id="HiraginoSans-W4-5bc4" d="M 4486 3539 
C 4736 3539 4966 3526 5152 3507 
L 5152 3949 
C 4992 3923 4832 3917 4518 3917 
L 3283 3917 
C 3302 3981 3309 4006 3328 4058 
C 3360 4192 3360 4192 3379 4256 
L 2874 4307 
C 2861 4147 2842 4064 2797 3917 
L 1850 3917 
C 1581 3917 1440 3923 1274 3949 
L 1274 3507 
C 1440 3533 1606 3539 1882 3539 
L 2605 3539 
C 2298 3149 1728 2944 787 2880 
C 896 2758 973 2624 1018 2483 
C 1626 2560 1971 2650 2362 2835 
C 2701 2995 2925 3200 3091 3488 
C 3277 3251 3443 3091 3674 2944 
C 4096 2662 4538 2541 5370 2470 
C 5421 2637 5466 2739 5568 2899 
C 4550 2938 4006 3110 3565 3539 
L 4486 3539 
z
M 2912 4819 
L 1158 4819 
C 902 4819 723 4826 493 4851 
C 512 4710 518 4589 518 4397 
L 518 4051 
C 518 3859 512 3757 493 3597 
L 986 3597 
L 986 4397 
L 5421 4397 
L 5421 3597 
L 5914 3597 
C 5894 3744 5888 3853 5888 4051 
L 5888 4397 
C 5888 4602 5894 4717 5914 4851 
C 5683 4826 5504 4819 5254 4819 
L 3405 4819 
L 3405 4915 
C 3405 5114 3411 5229 3437 5363 
L 2880 5363 
C 2906 5216 2912 5114 2912 4909 
L 2912 4819 
z
M 4685 2022 
L 4685 160 
C 4685 32 4602 -6 4326 -6 
C 4109 -6 3859 19 3642 58 
C 3712 -102 3744 -230 3770 -435 
C 4006 -448 4166 -454 4282 -454 
C 4992 -454 5178 -339 5178 96 
L 5178 2022 
L 5427 2022 
C 5683 2022 5875 2010 6093 1984 
L 6093 2477 
C 5907 2451 5690 2438 5427 2438 
L 1030 2438 
C 742 2438 525 2451 365 2477 
L 365 1984 
C 544 2010 736 2022 1030 2022 
L 4685 2022 
z
M 3872 1133 
C 3872 1344 3878 1491 3898 1645 
C 3757 1626 3622 1619 3354 1619 
L 1760 1619 
C 1523 1619 1376 1626 1222 1645 
C 1242 1491 1248 1357 1248 1126 
L 1248 365 
C 1248 134 1242 -26 1216 -198 
L 1722 -198 
L 1722 173 
L 3366 173 
C 3629 173 3686 173 3891 154 
C 3878 275 3872 403 3872 653 
L 3872 1133 
z
M 1715 1222 
L 3411 1222 
L 3411 576 
L 1715 576 
L 1715 1222 
z
" transform="scale(0.015625)"/>
      </defs>
      <use xlink:href="#HiraginoSans-W4-71"/>
      <use xlink:href="#HiraginoSans-W4-20" x="66.399994"/>
      <use xlink:href="#HiraginoSans-W4-3d" x="99.699982"/>
      <use xlink:href="#HiraginoSans-W4-20" x="166.099976"/>
      <use xlink:href="#HiraginoSans-W4-30" x="199.399963"/>
      <use xlink:href="#HiraginoSans-W4-2e" x="266.699951"/>
      <use xlink:href="#HiraginoSans-W4-33" x="291.699936"/>
      <use xlink:href="#HiraginoSans-W4-20" x="358.999924"/>
      <use xlink:href="#HiraginoSans-W4-20" x="392.299911"/>
      <use xlink:href="#HiraginoSans-W4-2192" x="425.599899"/>
      <use xlink:href="#HiraginoSans-W4-20" x="525.599884"/>
      <use xlink:href="#HiraginoSans-W4-6700" x="558.899872"/>
      <use xlink:href="#HiraginoSans-W4-983b" x="658.899857"/>
      <use xlink:href="#HiraginoSans-W4-5024" x="758.899841"/>
      <use xlink:href="#HiraginoSans-W4-306b" x="858.899826"/>
      <use xlink:href="#HiraginoSans-W4-5bc4" x="958.899811"/>
      <use xlink:href="#HiraginoSans-W4-308b" x="1058.899796"/>
     </g>
    </g>
    <g id="line2d_39">
     <path d="M 190.464766 52.764812 
L 199.964766 52.764812 
L 209.464766 52.764812 
" style="fill: none; stroke-dasharray: 6.66,2.88; stroke-dashoffset: 0; stroke: #ff7f0e; stroke-width: 1.8"/>
    </g>
    <g id="text_21">
     <!-- q = 1     → 中央値が最適 -->
     <g transform="translate(217.064766 56.089812) scale(0.095 -0.095)">
      <defs>
       <path id="HiraginoSans-W4-4e2d" d="M 2906 4160 
L 1152 4160 
C 928 4160 806 4166 646 4186 
C 666 4019 678 3878 678 3667 
L 678 1850 
C 678 1626 666 1459 640 1267 
L 1184 1267 
L 1184 1683 
L 2906 1683 
L 2906 250 
C 2906 -96 2893 -275 2861 -499 
L 3462 -499 
C 3424 -294 3418 -122 3418 250 
L 3418 1683 
L 5229 1683 
L 5229 1267 
L 5766 1267 
C 5741 1453 5734 1619 5734 1850 
L 5734 3661 
C 5734 3885 5741 4019 5760 4186 
C 5606 4166 5485 4160 5254 4160 
L 3418 4160 
L 3418 4678 
C 3418 4966 3430 5146 3456 5338 
L 2861 5338 
C 2893 5133 2906 4979 2906 4666 
L 2906 4160 
z
M 2906 3693 
L 2906 2150 
L 1184 2150 
L 1184 3693 
L 2906 3693 
z
M 3418 2150 
L 3418 3693 
L 5229 3693 
L 5229 2150 
L 3418 2150 
z
" transform="scale(0.015625)"/>
       <path id="HiraginoSans-W4-592e" d="M 5414 1933 
C 5728 1933 5939 1920 6138 1894 
L 6138 2432 
C 5946 2406 5728 2394 5427 2394 
L 5382 2394 
L 5382 3885 
C 5382 4109 5389 4224 5408 4371 
C 5235 4346 5050 4339 4710 4339 
L 3437 4339 
C 3443 5114 3443 5114 3482 5325 
L 2918 5325 
C 2944 5146 2957 4966 2957 4768 
C 2957 4474 2957 4474 2950 4339 
L 1734 4339 
C 1440 4339 1235 4346 1030 4371 
C 1050 4218 1056 4077 1056 3878 
L 1056 2394 
L 1005 2394 
C 710 2394 499 2406 301 2432 
L 301 1894 
C 493 1920 704 1933 1005 1933 
L 2733 1933 
C 2426 1050 1562 339 339 -13 
C 499 -198 544 -269 646 -493 
C 1402 -205 1888 83 2336 506 
C 2758 902 2982 1248 3168 1779 
C 3418 1306 3642 979 3936 698 
C 4442 205 4998 -128 5830 -448 
C 5933 -205 5990 -109 6118 70 
C 5517 230 4934 512 4454 890 
C 4077 1178 3795 1510 3571 1933 
L 5414 1933 
z
M 1536 2394 
L 1536 3878 
L 2950 3878 
C 2931 3110 2906 2758 2842 2394 
L 1536 2394 
z
M 3322 2394 
C 3386 2746 3418 3168 3437 3878 
L 4902 3878 
L 4902 2394 
L 3322 2394 
z
" transform="scale(0.015625)"/>
      </defs>
      <use xlink:href="#HiraginoSans-W4-71"/>
      <use xlink:href="#HiraginoSans-W4-20" x="66.399994"/>
      <use xlink:href="#HiraginoSans-W4-3d" x="99.699982"/>
      <use xlink:href="#HiraginoSans-W4-20" x="166.099976"/>
      <use xlink:href="#HiraginoSans-W4-31" x="199.399963"/>
      <use xlink:href="#HiraginoSans-W4-20" x="266.699951"/>
      <use xlink:href="#HiraginoSans-W4-20" x="299.999939"/>
      <use xlink:href="#HiraginoSans-W4-20" x="333.299927"/>
      <use xlink:href="#HiraginoSans-W4-20" x="366.599915"/>
      <use xlink:href="#HiraginoSans-W4-20" x="399.899902"/>
      <use xlink:href="#HiraginoSans-W4-2192" x="433.19989"/>
      <use xlink:href="#HiraginoSans-W4-20" x="533.199875"/>
      <use xlink:href="#HiraginoSans-W4-4e2d" x="566.499863"/>
      <use xlink:href="#HiraginoSans-W4-592e" x="666.499847"/>
      <use xlink:href="#HiraginoSans-W4-5024" x="766.499832"/>
      <use xlink:href="#HiraginoSans-W4-304c" x="866.499817"/>
      <use xlink:href="#HiraginoSans-W4-6700" x="966.499802"/>
      <use xlink:href="#HiraginoSans-W4-9069" x="1066.499786"/>
     </g>
    </g>
    <g id="line2d_40">
     <path d="M 190.464766 67.699109 
L 199.964766 67.699109 
L 209.464766 67.699109 
" style="fill: none; stroke: #2ca02c; stroke-width: 1.8; stroke-linecap: square"/>
    </g>
    <g id="text_22">
     <!-- q = 2     → 平均が最適 (二乗誤差) -->
     <g transform="translate(217.064766 71.024109) scale(0.095 -0.095)">
      <defs>
       <path id="HiraginoSans-W4-5e73" d="M 2918 4653 
L 2918 2342 
L 1056 2342 
C 717 2342 525 2355 333 2387 
L 333 1830 
C 525 1862 749 1875 1069 1875 
L 2918 1875 
L 2918 198 
C 2918 -58 2906 -294 2874 -531 
L 3475 -531 
C 3443 -288 3430 -38 3430 198 
L 3430 1875 
L 5350 1875 
C 5683 1875 5907 1862 6080 1830 
L 6080 2387 
C 5901 2355 5690 2342 5370 2342 
L 3430 2342 
L 3430 4653 
L 5114 4653 
C 5408 4653 5606 4640 5818 4614 
L 5818 5152 
C 5626 5126 5421 5114 5107 5114 
L 1331 5114 
C 1011 5114 806 5126 614 5152 
L 614 4614 
C 826 4640 1030 4653 1318 4653 
L 2918 4653 
z
M 992 4179 
C 1331 3654 1523 3277 1766 2598 
L 2246 2842 
C 1984 3462 1786 3840 1427 4390 
L 992 4179 
z
M 4941 4384 
C 4685 3674 4486 3309 4058 2765 
L 4506 2534 
C 4928 3117 5133 3482 5408 4166 
L 4941 4384 
z
" transform="scale(0.015625)"/>
       <path id="HiraginoSans-W4-5747" d="M 1139 3603 
L 883 3603 
C 621 3603 493 3610 333 3642 
L 333 3123 
C 486 3155 621 3162 883 3162 
L 1139 3162 
L 1139 1133 
C 768 992 435 883 282 864 
L 416 352 
C 518 397 704 474 909 550 
C 1542 800 1824 928 2381 1222 
L 2362 1709 
C 2022 1517 1901 1459 1619 1331 
L 1619 3162 
L 1722 3162 
C 1920 3162 1997 3162 2144 3149 
L 2067 3072 
C 2227 2976 2266 2938 2438 2720 
C 2816 3123 3059 3462 3290 3904 
L 5414 3904 
C 5414 3744 5421 3616 5421 3533 
C 5421 2406 5344 1286 5222 646 
C 5133 192 5056 96 4755 96 
C 4570 96 4192 141 3872 192 
C 3962 -26 3994 -141 4006 -333 
C 4365 -365 4563 -378 4730 -378 
C 5344 -378 5504 -256 5645 320 
C 5811 992 5901 2266 5901 3872 
C 5901 4141 5907 4256 5926 4390 
C 5811 4378 5811 4378 5350 4365 
L 3501 4365 
C 3590 4582 3674 4806 3738 5005 
C 3776 5126 3789 5158 3814 5222 
L 3283 5350 
C 3232 5043 3155 4787 3008 4416 
C 2803 3936 2586 3597 2221 3219 
L 2221 3635 
C 2099 3610 1984 3603 1734 3603 
L 1619 3603 
L 1619 4627 
C 1619 4915 1626 5050 1658 5254 
L 1101 5254 
C 1126 5050 1139 4890 1139 4614 
L 1139 3603 
z
M 4909 2099 
C 4275 1696 3699 1414 2989 1158 
C 2848 1107 2739 1075 2618 1056 
L 2810 525 
C 2867 563 2918 582 2989 614 
C 3955 1037 4358 1235 5005 1626 
L 4909 2099 
z
M 2957 2502 
C 3110 2534 3251 2541 3507 2541 
L 4301 2541 
C 4525 2541 4685 2534 4813 2515 
L 4813 3021 
C 4678 2995 4538 2982 4294 2982 
L 3507 2982 
C 3245 2982 3123 2989 2957 3021 
L 2957 2502 
z
" transform="scale(0.015625)"/>
       <path id="HiraginoSans-W4-4e8c" d="M 1011 4000 
C 1229 4026 1472 4038 1856 4038 
L 4493 4038 
C 4896 4038 5082 4032 5344 4000 
L 5344 4602 
C 5120 4570 4922 4563 4493 4563 
L 1850 4563 
C 1485 4563 1235 4576 1011 4608 
L 1011 4000 
z
M 5971 883 
C 5709 851 5510 838 5088 838 
L 1306 838 
C 877 838 678 851 429 883 
L 429 262 
C 678 294 941 307 1312 307 
L 5101 307 
C 5478 307 5728 294 5971 262 
L 5971 883 
z
" transform="scale(0.015625)"/>
       <path id="HiraginoSans-W4-4e57" d="M 1478 3661 
L 1478 3008 
L 1018 3008 
C 762 3008 538 3021 358 3046 
L 358 2554 
C 550 2579 723 2592 1018 2592 
L 1478 2592 
L 1478 1862 
L 1242 1862 
C 992 1862 787 1875 614 1894 
L 614 1434 
C 806 1459 1037 1472 1280 1472 
L 2630 1472 
C 2259 1114 2086 973 1766 781 
C 1312 499 832 294 211 115 
C 352 -45 416 -147 506 -333 
C 1626 70 2221 454 2938 1216 
C 2925 1050 2918 890 2912 749 
L 2912 147 
C 2912 -173 2899 -326 2867 -538 
L 3424 -538 
C 3386 -339 3379 -179 3379 147 
L 3379 749 
C 3379 870 3373 973 3354 1222 
C 4019 499 4723 64 5894 -333 
C 5978 -141 6048 -19 6176 160 
C 5613 288 5146 454 4710 698 
C 4288 934 4045 1107 3654 1472 
L 5139 1472 
C 5402 1472 5619 1459 5805 1434 
L 5805 1894 
C 5632 1875 5427 1862 5178 1862 
L 4870 1862 
L 4870 2592 
L 5370 2592 
C 5670 2592 5837 2586 6035 2554 
L 6035 3046 
C 5843 3021 5645 3008 5370 3008 
L 4870 3008 
L 4870 3661 
L 5171 3661 
C 5395 3661 5619 3648 5798 3629 
L 5798 4090 
C 5613 4064 5408 4051 5133 4051 
L 3379 4051 
L 3379 4666 
C 4064 4730 4570 4806 5184 4922 
C 5306 4947 5331 4954 5427 4966 
L 5101 5408 
C 4851 5312 4640 5261 4173 5190 
C 3251 5043 2074 4960 1043 4960 
C 979 4960 915 4960 813 4960 
C 909 4794 947 4698 998 4525 
C 1645 4538 1645 4538 2912 4627 
L 2912 4051 
L 1274 4051 
C 1018 4051 781 4064 608 4090 
L 608 3629 
C 800 3654 998 3661 1235 3661 
L 1478 3661 
z
M 1939 3661 
L 2912 3661 
L 2912 3008 
L 1939 3008 
L 1939 3661 
z
M 1939 2592 
L 2912 2592 
L 2912 1862 
L 1939 1862 
L 1939 2592 
z
M 4410 1862 
L 3379 1862 
L 3379 2592 
L 4410 2592 
L 4410 1862 
z
M 4410 3008 
L 3379 3008 
L 3379 3661 
L 4410 3661 
L 4410 3008 
z
" transform="scale(0.015625)"/>
       <path id="HiraginoSans-W4-8aa4" d="M 5414 1658 
L 5414 2234 
C 5414 2502 5414 2598 5427 2733 
C 5376 2726 5216 2726 4954 2720 
L 3232 2720 
L 3232 4230 
C 3232 4442 3245 4621 3270 4762 
L 2746 4762 
C 2771 4602 2784 4422 2784 4205 
L 2784 2739 
C 2784 2560 2778 2458 2765 2285 
C 2899 2298 3040 2304 3238 2304 
L 4954 2304 
L 4954 1658 
L 3098 1658 
C 2861 1658 2669 1670 2522 1690 
L 2522 1197 
C 2656 1216 2842 1229 3130 1229 
L 5581 1229 
C 5824 1229 6010 1216 6170 1190 
L 6170 1696 
C 6003 1670 5850 1658 5619 1658 
L 5414 1658 
z
M 531 4621 
C 685 4640 806 4646 1011 4646 
L 1818 4646 
C 2022 4646 2125 4640 2298 4621 
L 2298 5094 
C 2150 5069 2048 5062 1818 5062 
L 1011 5062 
C 774 5062 678 5069 531 5094 
L 531 4621 
z
M 307 3718 
C 467 3738 595 3744 819 3744 
L 2042 3744 
C 2227 3744 2330 3738 2458 3725 
L 2458 4205 
C 2336 4179 2227 4173 1997 4173 
L 819 4173 
C 576 4173 454 4179 307 4205 
L 307 3718 
z
M 557 2829 
C 685 2848 774 2854 979 2854 
L 1869 2854 
C 2061 2854 2157 2848 2285 2829 
L 2285 3290 
C 2170 3270 2074 3264 1869 3264 
L 979 3264 
C 774 3264 672 3270 557 3290 
L 557 2829 
z
M 557 1946 
C 678 1965 774 1971 979 1971 
L 1862 1971 
C 2061 1971 2157 1965 2285 1946 
L 2285 2406 
C 2170 2387 2080 2381 1869 2381 
L 979 2381 
C 774 2381 678 2387 557 2406 
L 557 1946 
z
M 1018 -499 
L 1018 -173 
L 1869 -173 
L 1869 -416 
L 2310 -416 
C 2291 -282 2285 -115 2285 77 
L 2285 1018 
C 2285 1261 2291 1395 2304 1504 
C 2176 1491 2067 1485 1843 1485 
L 1075 1485 
C 845 1485 710 1491 563 1510 
C 582 1350 589 1216 589 998 
L 589 128 
C 589 -96 576 -307 557 -499 
L 1018 -499 
z
M 1011 1094 
L 1869 1094 
L 1869 230 
L 1011 230 
L 1011 1094 
z
M 4262 5107 
C 3994 5107 3859 5114 3731 5126 
C 3744 4986 3750 4813 3750 4570 
L 3750 3750 
C 3750 3392 3750 3334 3738 3187 
C 3866 3200 3904 3200 4224 3200 
L 5222 3200 
C 5485 3200 5606 3194 5773 3174 
C 5754 3334 5747 3482 5747 3757 
L 5747 4550 
C 5747 4813 5754 4973 5773 5133 
C 5606 5114 5466 5107 5210 5107 
L 4262 5107 
z
M 5306 4691 
L 5306 3597 
L 4186 3597 
L 4186 4691 
L 5306 4691 
z
M 3533 979 
C 3226 493 2970 256 2419 -58 
C 2547 -173 2611 -250 2746 -448 
C 3302 -70 3558 179 3942 736 
L 3533 979 
z
M 4550 723 
C 4986 147 5203 -58 5811 -454 
C 5901 -294 5914 -282 6138 -32 
C 5562 269 5280 512 4941 979 
L 4550 723 
z
" transform="scale(0.015625)"/>
       <path id="HiraginoSans-W4-5dee" d="M 2931 4154 
L 2931 3622 
L 1517 3622 
C 1254 3622 1126 3629 954 3654 
L 954 3187 
C 1126 3213 1267 3219 1517 3219 
L 2931 3219 
L 2931 2669 
L 1050 2669 
C 749 2669 576 2675 397 2701 
L 397 2221 
C 595 2246 787 2259 1050 2259 
L 1773 2259 
C 1638 1754 1472 1370 1254 1056 
C 954 627 685 358 237 45 
C 403 -109 461 -186 570 -378 
C 1062 32 1350 352 1658 832 
C 1933 1254 2093 1638 2278 2259 
L 5382 2259 
C 5664 2259 5862 2246 6035 2221 
L 6035 2701 
C 5869 2675 5696 2669 5382 2669 
L 3392 2669 
L 3392 3219 
L 4941 3219 
C 5190 3219 5325 3213 5498 3187 
L 5498 3654 
C 5325 3629 5197 3622 4941 3622 
L 3392 3622 
L 3392 4154 
L 5133 4154 
C 5408 4154 5606 4141 5786 4115 
L 5786 4608 
C 5606 4582 5421 4570 5133 4570 
L 4211 4570 
C 4390 4768 4538 4960 4723 5254 
L 4224 5402 
C 4045 5030 3942 4864 3693 4570 
L 2701 4570 
C 2522 4890 2342 5146 2125 5395 
L 1658 5235 
C 1888 5005 2022 4826 2176 4570 
L 1299 4570 
C 1030 4570 826 4582 653 4608 
L 653 4115 
C 851 4141 1030 4154 1299 4154 
L 2931 4154 
z
M 3437 1203 
L 3437 160 
L 2048 160 
C 1779 160 1626 166 1440 198 
L 1440 -301 
C 1638 -275 1837 -262 2125 -262 
L 5312 -262 
C 5594 -262 5805 -275 5990 -301 
L 5990 198 
C 5798 173 5613 160 5331 160 
L 3923 160 
L 3923 1203 
L 5005 1203 
C 5248 1203 5427 1197 5581 1171 
L 5581 1651 
C 5414 1626 5274 1619 5005 1619 
L 2650 1619 
C 2400 1619 2272 1626 2118 1645 
L 2118 1178 
C 2266 1197 2419 1203 2650 1203 
L 3437 1203 
z
" transform="scale(0.015625)"/>
      </defs>
      <use xlink:href="#HiraginoSans-W4-71"/>
      <use xlink:href="#HiraginoSans-W4-20" x="66.399994"/>
      <use xlink:href="#HiraginoSans-W4-3d" x="99.699982"/>
      <use xlink:href="#HiraginoSans-W4-20" x="166.099976"/>
      <use xlink:href="#HiraginoSans-W4-32" x="199.399963"/>
      <use xlink:href="#HiraginoSans-W4-20" x="266.699951"/>
      <use xlink:href="#HiraginoSans-W4-20" x="299.999939"/>
      <use xlink:href="#HiraginoSans-W4-20" x="333.299927"/>
      <use xlink:href="#HiraginoSans-W4-20" x="366.599915"/>
      <use xlink:href="#HiraginoSans-W4-20" x="399.899902"/>
      <use xlink:href="#HiraginoSans-W4-2192" x="433.19989"/>
      <use xlink:href="#HiraginoSans-W4-20" x="533.199875"/>
      <use xlink:href="#HiraginoSans-W4-5e73" x="566.499863"/>
      <use xlink:href="#HiraginoSans-W4-5747" x="666.499847"/>
      <use xlink:href="#HiraginoSans-W4-304c" x="766.499832"/>
      <use xlink:href="#HiraginoSans-W4-6700" x="866.499817"/>
      <use xlink:href="#HiraginoSans-W4-9069" x="966.499802"/>
      <use xlink:href="#HiraginoSans-W4-20" x="1066.499786"/>
      <use xlink:href="#HiraginoSans-W4-28" x="1099.799774"/>
      <use xlink:href="#HiraginoSans-W4-4e8c" x="1136.799759"/>
      <use xlink:href="#HiraginoSans-W4-4e57" x="1236.799744"/>
      <use xlink:href="#HiraginoSans-W4-8aa4" x="1336.799728"/>
      <use xlink:href="#HiraginoSans-W4-5dee" x="1436.799713"/>
      <use xlink:href="#HiraginoSans-W4-29" x="1536.799698"/>
     </g>
    </g>
    <g id="line2d_41">
     <path d="M 190.464766 82.443406 
L 199.964766 82.443406 
L 209.464766 82.443406 
" style="fill: none; stroke-dasharray: 11.52,2.88,1.8,2.88; stroke-dashoffset: 0; stroke: #d62728; stroke-width: 1.8"/>
    </g>
    <g id="text_23">
     <!-- q = 4     → 外れ値に過敏 -->
     <g transform="translate(217.064766 85.768406) scale(0.095 -0.095)">
      <defs>
       <path id="HiraginoSans-W4-5916" d="M 1440 2675 
C 1818 2400 2042 2195 2323 1856 
C 1907 1101 1331 493 512 -38 
C 672 -160 781 -282 883 -454 
C 2317 589 3091 1811 3411 3533 
C 3648 3066 3910 2688 4262 2323 
L 4262 326 
C 4262 -19 4250 -218 4218 -474 
L 4794 -474 
C 4762 -230 4749 -32 4749 326 
L 4749 1869 
C 5158 1530 5510 1299 6003 1037 
C 6099 1235 6195 1395 6304 1523 
C 5741 1760 5235 2067 4749 2470 
L 4749 4627 
C 4749 4909 4762 5082 4794 5312 
L 4218 5312 
C 4250 5082 4262 4909 4262 4627 
L 4262 2963 
C 3949 3341 3718 3731 3520 4211 
C 3539 4307 3539 4333 3565 4454 
C 3430 4442 3290 4435 3053 4435 
L 2080 4435 
C 2150 4646 2176 4736 2227 4896 
C 2278 5069 2298 5126 2355 5261 
L 1818 5363 
C 1786 5139 1709 4813 1619 4557 
C 1318 3699 902 2995 346 2438 
C 518 2278 563 2221 666 2022 
C 1216 2624 1619 3264 1914 4000 
L 3040 4000 
C 2886 3219 2784 2848 2547 2304 
C 2285 2592 2093 2765 1728 3046 
L 1440 2675 
z
" transform="scale(0.015625)"/>
       <path id="HiraginoSans-W4-308c" d="M 678 742 
C 730 819 755 851 838 947 
C 947 1069 1030 1165 1101 1235 
C 1280 1434 1280 1434 1389 1568 
C 1453 1645 1472 1664 1510 1728 
L 1523 1722 
C 1504 1581 1498 1478 1498 1331 
C 1498 -19 1498 -32 1453 -301 
L 2048 -301 
C 2029 -102 2022 384 2022 1491 
C 2022 1638 2022 1811 2029 2138 
C 2957 3091 3738 3635 4160 3635 
C 4371 3635 4486 3520 4486 3309 
C 4486 3149 4448 2906 4339 2419 
C 4096 1293 4083 1203 4083 877 
C 4083 518 4179 282 4397 128 
C 4518 38 4698 -13 4883 -13 
C 5216 -13 5510 141 5773 448 
C 5926 627 5997 742 6182 1082 
C 6010 1299 5958 1382 5843 1606 
C 5766 1363 5632 1094 5478 877 
C 5331 666 5126 531 4973 531 
C 4742 531 4621 678 4621 941 
C 4621 1133 4666 1408 4755 1818 
C 5030 3053 5043 3117 5043 3392 
C 5043 3859 4730 4166 4256 4166 
C 3872 4166 3418 3955 2835 3494 
C 2368 3130 2118 2899 2029 2765 
L 2016 2771 
C 2029 2899 2029 2906 2035 3162 
C 2035 3181 2042 3232 2042 3309 
C 2042 3341 2048 3386 2048 3450 
C 2221 3686 2291 3776 2381 3846 
L 2195 4070 
C 2144 4051 2131 4045 2080 4038 
C 2106 4730 2125 4992 2157 5146 
L 1568 5158 
C 1574 5037 1581 4966 1581 4883 
C 1581 4742 1574 4448 1562 3994 
C 1114 3962 838 3949 742 3949 
C 666 3949 627 3949 525 3962 
L 550 3437 
C 704 3469 806 3475 1549 3526 
C 1536 3162 1536 3162 1530 2976 
C 1523 2675 1517 2477 1517 2381 
C 1382 2240 1024 1875 781 1638 
C 595 1453 506 1382 384 1299 
L 678 742 
z
" transform="scale(0.015625)"/>
       <path id="HiraginoSans-W4-904e" d="M 5408 4608 
C 5408 4883 5414 5024 5434 5152 
C 5274 5133 5152 5126 4845 5126 
L 3162 5126 
C 2931 5126 2765 5133 2586 5152 
C 2598 5005 2611 4858 2611 4608 
L 2611 3270 
L 2566 3270 
C 2336 3270 2202 3277 2093 3296 
C 2112 3136 2118 3021 2118 2784 
L 2118 1069 
C 2118 813 2106 666 2086 493 
L 2611 493 
C 2592 646 2586 800 2586 1069 
L 2586 2874 
L 5408 2874 
L 5408 1005 
C 5408 928 5344 896 5184 896 
C 5005 896 4832 909 4576 947 
C 4634 787 4659 678 4685 506 
C 4915 499 5018 499 5120 499 
C 5741 499 5875 576 5875 928 
L 5875 2778 
C 5875 3014 5882 3149 5901 3296 
C 5786 3277 5683 3270 5408 3270 
L 5408 4608 
z
M 3699 3270 
L 3078 3270 
L 3078 4717 
L 4954 4717 
L 4954 4288 
L 4173 4288 
C 3962 4288 3795 4294 3680 4307 
C 3693 4179 3699 4058 3699 3840 
L 3699 3270 
z
M 4141 3270 
L 4141 3904 
L 4954 3904 
L 4954 3270 
L 4141 3270 
z
M 4890 2144 
C 4890 2323 4890 2406 4902 2522 
C 4819 2509 4723 2502 4467 2502 
L 3526 2502 
C 3290 2502 3168 2509 3098 2522 
C 3110 2400 3117 2298 3117 2131 
L 3117 1280 
C 3117 1101 3110 998 3098 883 
L 3526 883 
L 3526 1197 
L 4474 1197 
C 4653 1197 4762 1190 4902 1178 
C 4890 1280 4890 1350 4890 1555 
L 4890 2144 
z
M 3526 2144 
L 4474 2144 
L 4474 1568 
L 3526 1568 
L 3526 2144 
z
M 358 4902 
C 806 4474 979 4269 1357 3712 
L 1747 4058 
C 1357 4582 1184 4774 717 5216 
L 358 4902 
z
M 282 2317 
C 442 2342 538 2349 736 2349 
L 1107 2349 
L 1107 851 
C 710 474 422 256 141 128 
L 384 -384 
C 538 -250 595 -205 608 -192 
C 973 102 1088 205 1331 454 
C 1504 205 1664 51 1894 -77 
C 2285 -288 2656 -346 3680 -346 
C 4493 -346 5382 -326 6022 -301 
C 6067 -45 6080 -13 6189 237 
C 5498 147 4646 109 3322 109 
C 2586 109 2202 198 1882 442 
C 1741 550 1670 640 1581 838 
L 1581 2131 
C 1581 2496 1581 2605 1606 2810 
C 1446 2790 1325 2784 1120 2784 
L 781 2784 
C 531 2784 422 2790 282 2816 
L 282 2317 
z
" transform="scale(0.015625)"/>
       <path id="HiraginoSans-W4-654f" d="M 6234 4333 
C 6074 4301 5933 4294 5638 4294 
L 4480 4294 
C 4563 4557 4627 4794 4685 5037 
C 4717 5178 4736 5254 4762 5318 
L 4243 5414 
C 4243 5293 4237 5216 4186 4960 
C 4026 4134 3750 3482 3334 2931 
C 3443 2829 3520 2720 3629 2528 
C 3757 2714 3808 2797 3936 3027 
C 4070 2291 4218 1843 4525 1267 
C 4147 704 3680 282 3078 -38 
C 3245 -205 3290 -269 3386 -474 
C 4013 -77 4422 301 4800 819 
C 5190 262 5402 45 6022 -442 
C 6112 -237 6189 -96 6304 51 
C 5798 378 5408 749 5069 1248 
C 5267 1606 5402 1939 5510 2374 
C 5632 2835 5683 3162 5734 3859 
C 5971 3859 6099 3846 6234 3827 
L 6234 4333 
z
M 5261 3859 
C 5242 3494 5229 3341 5197 3110 
C 5120 2598 4979 2125 4787 1722 
C 4493 2310 4365 2765 4243 3654 
C 4294 3763 4294 3776 4333 3859 
L 5261 3859 
z
M 2880 4237 
C 3405 4230 3405 4230 3539 4205 
L 3539 4710 
C 3347 4678 3187 4672 2842 4672 
L 1421 4672 
C 1491 4813 1523 4896 1568 4998 
C 1651 5229 1651 5229 1696 5331 
L 1197 5421 
C 1101 4851 678 4160 154 3706 
C 294 3603 333 3552 486 3334 
C 794 3642 934 3827 1184 4237 
L 2880 4237 
z
M 755 1952 
C 653 1229 576 902 365 173 
L 819 109 
C 877 346 890 397 928 538 
L 2592 538 
C 2509 64 2464 0 2221 0 
C 2067 0 1901 19 1690 64 
C 1728 -70 1766 -256 1779 -384 
C 2010 -410 2112 -416 2240 -416 
C 2784 -416 2886 -294 3021 538 
C 3219 538 3334 531 3475 512 
L 3475 986 
C 3347 966 3245 960 3078 960 
C 3123 1350 3142 1574 3174 1952 
C 3373 1946 3462 1939 3590 1920 
L 3590 2413 
C 3475 2387 3405 2381 3200 2381 
C 3219 2643 3226 2765 3226 2842 
C 3264 3603 3264 3603 3283 3750 
C 3110 3731 2950 3725 2656 3725 
L 1338 3725 
C 1139 3725 1043 3731 890 3744 
C 902 3648 909 3597 909 3533 
C 909 3354 864 2829 806 2381 
L 749 2381 
C 506 2381 384 2387 243 2419 
L 243 1914 
C 384 1939 506 1952 710 1952 
L 755 1952 
z
M 1018 960 
C 1088 1312 1120 1510 1178 1952 
L 1741 1952 
C 1690 1485 1677 1402 1587 960 
L 1018 960 
z
M 2010 960 
C 2067 1293 2093 1485 2144 1952 
L 2758 1952 
C 2720 1523 2701 1318 2656 960 
L 2010 960 
z
M 2829 3315 
C 2816 2931 2816 2886 2784 2381 
L 2189 2381 
C 2214 2592 2240 2899 2266 3315 
L 2829 3315 
z
M 1856 3315 
C 1824 2733 1824 2733 1786 2381 
L 1235 2381 
C 1274 2739 1286 2899 1318 3315 
L 1856 3315 
z
" transform="scale(0.015625)"/>
      </defs>
      <use xlink:href="#HiraginoSans-W4-71"/>
      <use xlink:href="#HiraginoSans-W4-20" x="66.399994"/>
      <use xlink:href="#HiraginoSans-W4-3d" x="99.699982"/>
      <use xlink:href="#HiraginoSans-W4-20" x="166.099976"/>
      <use xlink:href="#HiraginoSans-W4-34" x="199.399963"/>
      <use xlink:href="#HiraginoSans-W4-20" x="266.899948"/>
      <use xlink:href="#HiraginoSans-W4-20" x="300.199936"/>
      <use xlink:href="#HiraginoSans-W4-20" x="333.499924"/>
      <use xlink:href="#HiraginoSans-W4-20" x="366.799911"/>
      <use xlink:href="#HiraginoSans-W4-20" x="400.099899"/>
      <use xlink:href="#HiraginoSans-W4-2192" x="433.399887"/>
      <use xlink:href="#HiraginoSans-W4-20" x="533.399872"/>
      <use xlink:href="#HiraginoSans-W4-5916" x="566.69986"/>
      <use xlink:href="#HiraginoSans-W4-308c" x="666.699844"/>
      <use xlink:href="#HiraginoSans-W4-5024" x="766.699829"/>
      <use xlink:href="#HiraginoSans-W4-306b" x="866.699814"/>
      <use xlink:href="#HiraginoSans-W4-904e" x="966.699799"/>
      <use xlink:href="#HiraginoSans-W4-654f" x="1066.699783"/>
     </g>
    </g>
   </g>
  </g>
 </g>
 <defs>
  <clipPath id="p4035be5293">
   <rect x="37.065" y="24.644813" width="482.90875" height="257.055625"/>
  </clipPath>
 </defs>
</svg>
