<?xml version="1.0" encoding="utf-8" standalone="no"?>
<!DOCTYPE svg PUBLIC "-//W3C//DTD SVG 1.1//EN"
  "http://www.w3.org/Graphics/SVG/1.1/DTD/svg11.dtd">
<svg xmlns:xlink="http://www.w3.org/1999/xlink" width="667.447969pt" height="278.294625pt" viewBox="0 0 667.447969 278.294625" xmlns="http://www.w3.org/2000/svg" version="1.1">
 <metadata>
  <rdf:RDF xmlns:dc="http://purl.org/dc/elements/1.1/" xmlns:cc="http://creativecommons.org/ns#" xmlns:rdf="http://www.w3.org/1999/02/22-rdf-syntax-ns#">
   <cc:Work>
    <dc:type rdf:resource="http://purl.org/dc/dcmitype/StillImage"/>
    <dc:format>image/svg+xml</dc:format>
    <dc:creator>
     <cc:Agent>
      <dc:title>Matplotlib v3.8.3, https://matplotlib.org/</dc:title>
     </cc:Agent>
    </dc:creator>
   </cc:Work>
  </rdf:RDF>
 </metadata>
 <defs>
  <style type="text/css">*{stroke-linejoin: round; stroke-linecap: butt}</style>
 </defs>
 <g id="figure_1">
  <g id="patch_1">
   <path d="M 0 278.294625 
L 667.447969 278.294625 
L 667.447969 0 
L 0 0 
z
" style="fill: #ffffff"/>
  </g>
  <g id="axes_1">
   <g id="patch_2">
    <path d="M 46.512969 238.624 
L 327.900469 238.624 
L 327.900469 53.5965 
L 46.512969 53.5965 
z
" style="fill: #ffffff"/>
   </g>
   <g id="matplotlib.axis_1">
    <g id="xtick_1">
     <g id="line2d_1">
      <path d="M 59.30331 238.624 
L 59.30331 53.5965 
" clip-path="url(#pfe2e86ce43)" style="fill: none; stroke: #b0b0b0; stroke-opacity: 0.25; stroke-width: 0.8; stroke-linecap: square"/>
     </g>
     <g id="line2d_2">
      <defs>
       <path id="mdc63961c8c" d="M 0 0 
L 0 3.5 
" style="stroke: #000000; stroke-width: 0.8"/>
      </defs>
      <g>
       <use xlink:href="#mdc63961c8c" x="59.30331" y="238.624" style="stroke: #000000; stroke-width: 0.8"/>
      </g>
     </g>
     <g id="text_1">
      <!-- −6 -->
      <g transform="translate(51.949638 254.104312) scale(0.11 -0.11)">
       <defs>
        <path id="HiraginoSans-W4-2212" d="M 320 1498 
L 3930 1498 
L 3930 2022 
L 320 2022 
L 320 1498 
z
" transform="scale(0.015625)"/>
        <path id="HiraginoSans-W4-36" d="M 3846 3994 
C 3706 4301 3616 4442 3462 4602 
C 3187 4877 2784 5024 2304 5024 
C 1683 5024 1222 4794 864 4307 
C 557 3891 371 3162 371 2355 
C 371 1446 614 704 1043 320 
C 1331 58 1773 -90 2253 -90 
C 3277 -90 3968 589 3968 1587 
C 3968 2586 3334 3213 2323 3213 
C 1894 3213 1568 3104 1274 2854 
C 1133 2739 1062 2656 941 2458 
C 979 3085 1043 3392 1210 3763 
C 1434 4262 1798 4518 2285 4518 
C 2765 4518 3040 4314 3238 3821 
L 3846 3994 
z
M 2266 2714 
C 2950 2714 3366 2285 3366 1574 
C 3366 1325 3309 1088 3206 922 
C 3008 614 2643 422 2234 422 
C 1568 422 1069 915 1069 1574 
C 1069 2234 1574 2714 2266 2714 
z
" transform="scale(0.015625)"/>
       </defs>
       <use xlink:href="#HiraginoSans-W4-2212"/>
       <use xlink:href="#HiraginoSans-W4-36" x="66.399994"/>
      </g>
     </g>
    </g>
    <g id="xtick_2">
     <g id="line2d_3">
      <path d="M 95.847141 238.624 
L 95.847141 53.5965 
" clip-path="url(#pfe2e86ce43)" style="fill: none; stroke: #b0b0b0; stroke-opacity: 0.25; stroke-width: 0.8; stroke-linecap: square"/>
     </g>
     <g id="line2d_4">
      <g>
       <use xlink:href="#mdc63961c8c" x="95.847141" y="238.624" style="stroke: #000000; stroke-width: 0.8"/>
      </g>
     </g>
     <g id="text_2">
      <!-- −4 -->
      <g transform="translate(88.482297 254.104312) scale(0.11 -0.11)">
       <defs>
        <path id="HiraginoSans-W4-34" d="M 179 1210 
C 403 1229 589 1235 954 1235 
L 2688 1235 
L 2688 710 
C 2688 410 2675 218 2630 0 
L 3309 0 
C 3270 230 3258 390 3258 704 
L 3258 1235 
L 3494 1235 
C 3763 1235 3910 1222 4154 1190 
L 4154 1798 
C 3917 1766 3750 1754 3494 1754 
L 3258 1754 
L 3258 3853 
C 3258 4358 3264 4544 3296 4934 
L 2701 4934 
C 2560 4704 2445 4550 2214 4269 
L 621 2298 
C 467 2099 326 1939 179 1773 
L 179 1210 
z
M 2688 1747 
L 858 1747 
L 2259 3514 
C 2464 3763 2592 3936 2720 4128 
C 2694 3814 2688 3622 2688 3283 
L 2688 1747 
z
" transform="scale(0.015625)"/>
       </defs>
       <use xlink:href="#HiraginoSans-W4-2212"/>
       <use xlink:href="#HiraginoSans-W4-34" x="66.399994"/>
      </g>
     </g>
    </g>
    <g id="xtick_3">
     <g id="line2d_5">
      <path d="M 132.390972 238.624 
L 132.390972 53.5965 
" clip-path="url(#pfe2e86ce43)" style="fill: none; stroke: #b0b0b0; stroke-opacity: 0.25; stroke-width: 0.8; stroke-linecap: square"/>
     </g>
     <g id="line2d_6">
      <g>
       <use xlink:href="#mdc63961c8c" x="132.390972" y="238.624" style="stroke: #000000; stroke-width: 0.8"/>
      </g>
     </g>
     <g id="text_3">
      <!-- −2 -->
      <g transform="translate(125.0373 254.104312) scale(0.11 -0.11)">
       <defs>
        <path id="HiraginoSans-W4-32" d="M 3078 0 
C 3424 0 3642 -6 3917 -32 
L 3917 589 
C 3693 557 3430 544 3091 544 
L 1114 544 
C 1280 1114 1606 1478 2451 2042 
C 3181 2528 3341 2656 3546 2912 
C 3738 3142 3846 3443 3846 3744 
C 3846 4525 3200 5030 2202 5030 
C 1613 5030 1158 4858 858 4518 
C 640 4269 531 4026 442 3565 
L 1088 3469 
C 1139 3782 1190 3936 1306 4102 
C 1491 4371 1792 4506 2208 4506 
C 2816 4506 3206 4211 3206 3744 
C 3206 3360 2995 3085 2387 2675 
C 1754 2246 1600 2138 1389 1952 
C 979 1594 710 1229 544 806 
C 448 563 429 461 365 -26 
C 576 -6 678 0 1107 0 
L 3078 0 
z
" transform="scale(0.015625)"/>
       </defs>
       <use xlink:href="#HiraginoSans-W4-2212"/>
       <use xlink:href="#HiraginoSans-W4-32" x="66.399994"/>
      </g>
     </g>
    </g>
    <g id="xtick_4">
     <g id="line2d_7">
      <path d="M 168.934803 238.624 
L 168.934803 53.5965 
" clip-path="url(#pfe2e86ce43)" style="fill: none; stroke: #b0b0b0; stroke-opacity: 0.25; stroke-width: 0.8; stroke-linecap: square"/>
     </g>
     <g id="line2d_8">
      <g>
       <use xlink:href="#mdc63961c8c" x="168.934803" y="238.624" style="stroke: #000000; stroke-width: 0.8"/>
      </g>
     </g>
     <g id="text_4">
      <!-- 0 -->
      <g transform="translate(165.233475 254.104312) scale(0.11 -0.11)">
       <defs>
        <path id="HiraginoSans-W4-30" d="M 2144 -90 
C 2758 -90 3232 141 3565 602 
C 3846 998 4019 1696 4019 2464 
C 4019 3002 3936 3501 3770 3949 
C 3693 4160 3558 4371 3379 4550 
C 3078 4858 2650 5024 2157 5024 
C 1498 5024 986 4742 666 4205 
C 435 3834 288 3142 288 2458 
C 288 1939 371 1434 538 986 
C 614 768 749 563 928 384 
C 1242 70 1651 -90 2144 -90 
z
M 2144 4499 
C 2592 4499 2918 4307 3123 3923 
C 3283 3629 3398 3014 3398 2470 
C 3398 2022 3341 1619 3213 1235 
C 3155 1043 3046 870 2912 730 
C 2726 538 2458 435 2150 435 
C 1734 435 1414 614 1197 973 
C 1024 1261 902 1875 902 2451 
C 902 2906 966 3328 1088 3699 
C 1139 3866 1235 4026 1370 4173 
C 1568 4397 1818 4499 2144 4499 
z
" transform="scale(0.015625)"/>
       </defs>
       <use xlink:href="#HiraginoSans-W4-30"/>
      </g>
     </g>
    </g>
    <g id="xtick_5">
     <g id="line2d_9">
      <path d="M 205.478634 238.624 
L 205.478634 53.5965 
" clip-path="url(#pfe2e86ce43)" style="fill: none; stroke: #b0b0b0; stroke-opacity: 0.25; stroke-width: 0.8; stroke-linecap: square"/>
     </g>
     <g id="line2d_10">
      <g>
       <use xlink:href="#mdc63961c8c" x="205.478634" y="238.624" style="stroke: #000000; stroke-width: 0.8"/>
      </g>
     </g>
     <g id="text_5">
      <!-- 2 -->
      <g transform="translate(201.777306 254.104312) scale(0.11 -0.11)">
       <use xlink:href="#HiraginoSans-W4-32"/>
      </g>
     </g>
    </g>
    <g id="xtick_6">
     <g id="line2d_11">
      <path d="M 242.022466 238.624 
L 242.022466 53.5965 
" clip-path="url(#pfe2e86ce43)" style="fill: none; stroke: #b0b0b0; stroke-opacity: 0.25; stroke-width: 0.8; stroke-linecap: square"/>
     </g>
     <g id="line2d_12">
      <g>
       <use xlink:href="#mdc63961c8c" x="242.022466" y="238.624" style="stroke: #000000; stroke-width: 0.8"/>
      </g>
     </g>
     <g id="text_6">
      <!-- 4 -->
      <g transform="translate(238.309966 254.104312) scale(0.11 -0.11)">
       <use xlink:href="#HiraginoSans-W4-34"/>
      </g>
     </g>
    </g>
    <g id="xtick_7">
     <g id="line2d_13">
      <path d="M 278.566297 238.624 
L 278.566297 53.5965 
" clip-path="url(#pfe2e86ce43)" style="fill: none; stroke: #b0b0b0; stroke-opacity: 0.25; stroke-width: 0.8; stroke-linecap: square"/>
     </g>
     <g id="line2d_14">
      <g>
       <use xlink:href="#mdc63961c8c" x="278.566297" y="238.624" style="stroke: #000000; stroke-width: 0.8"/>
      </g>
     </g>
     <g id="text_7">
      <!-- 6 -->
      <g transform="translate(274.864969 254.104312) scale(0.11 -0.11)">
       <use xlink:href="#HiraginoSans-W4-36"/>
      </g>
     </g>
    </g>
    <g id="xtick_8">
     <g id="line2d_15">
      <path d="M 315.110128 238.624 
L 315.110128 53.5965 
" clip-path="url(#pfe2e86ce43)" style="fill: none; stroke: #b0b0b0; stroke-opacity: 0.25; stroke-width: 0.8; stroke-linecap: square"/>
     </g>
     <g id="line2d_16">
      <g>
       <use xlink:href="#mdc63961c8c" x="315.110128" y="238.624" style="stroke: #000000; stroke-width: 0.8"/>
      </g>
     </g>
     <g id="text_8">
      <!-- 8 -->
      <g transform="translate(311.4088 254.104312) scale(0.11 -0.11)">
       <defs>
        <path id="HiraginoSans-W4-38" d="M 1446 2586 
C 1203 2547 1056 2490 851 2355 
C 480 2106 294 1754 294 1299 
C 294 397 966 -102 2163 -102 
C 3347 -102 4006 397 4006 1299 
C 4006 1728 3853 2061 3539 2304 
C 3322 2470 3136 2547 2867 2586 
C 3437 2714 3789 3162 3789 3757 
C 3789 4550 3162 5043 2150 5043 
C 1146 5043 512 4544 512 3750 
C 512 3162 877 2701 1446 2586 
z
M 2150 4538 
C 2784 4538 3187 4211 3187 3699 
C 3187 3155 2797 2829 2157 2829 
C 1510 2829 1114 3162 1114 3699 
C 1114 4211 1523 4538 2150 4538 
z
M 2157 2304 
C 2912 2304 3373 1939 3373 1344 
C 3373 749 2925 410 2144 410 
C 1376 410 928 749 928 1338 
C 928 1939 1389 2304 2157 2304 
z
" transform="scale(0.015625)"/>
       </defs>
       <use xlink:href="#HiraginoSans-W4-38"/>
      </g>
     </g>
    </g>
    <g id="text_9">
     <!-- x -->
     <g transform="translate(184.131875 268.839625) scale(0.11 -0.11)">
      <defs>
       <path id="HiraginoSans-W4-78" d="M 3469 0 
C 3238 294 3078 512 3008 614 
L 2138 1824 
L 2963 2982 
C 3021 3072 3168 3270 3206 3322 
C 3315 3462 3315 3462 3354 3520 
L 2630 3520 
C 2566 3386 2483 3238 2368 3072 
L 1792 2227 
L 1203 3072 
C 1088 3238 1024 3360 947 3520 
L 211 3520 
C 474 3174 557 3072 608 3002 
L 1440 1830 
L 531 563 
C 422 410 237 160 109 0 
L 858 0 
C 966 205 1018 294 1114 435 
L 1786 1421 
L 2426 486 
C 2566 288 2624 192 2720 0 
L 3469 0 
z
" transform="scale(0.015625)"/>
      </defs>
      <use xlink:href="#HiraginoSans-W4-78"/>
     </g>
    </g>
   </g>
   <g id="matplotlib.axis_2">
    <g id="ytick_1">
     <g id="line2d_17">
      <path d="M 46.512969 230.213659 
L 327.900469 230.213659 
" clip-path="url(#pfe2e86ce43)" style="fill: none; stroke: #b0b0b0; stroke-opacity: 0.25; stroke-width: 0.8; stroke-linecap: square"/>
     </g>
     <g id="line2d_18">
      <defs>
       <path id="mb3b38a01bc" d="M 0 0 
L -3.5 0 
" style="stroke: #000000; stroke-width: 0.8"/>
      </defs>
      <g>
       <use xlink:href="#mb3b38a01bc" x="46.512969" y="230.213659" style="stroke: #000000; stroke-width: 0.8"/>
      </g>
     </g>
     <g id="text_10">
      <!-- 0.0 -->
      <g transform="translate(21.957656 234.453815) scale(0.11 -0.11)">
       <defs>
        <path id="HiraginoSans-W4-2e" d="M 442 723 
L 442 0 
L 1165 0 
L 1165 723 
L 442 723 
z
" transform="scale(0.015625)"/>
       </defs>
       <use xlink:href="#HiraginoSans-W4-30"/>
       <use xlink:href="#HiraginoSans-W4-2e" x="67.299988"/>
       <use xlink:href="#HiraginoSans-W4-30" x="92.299973"/>
      </g>
     </g>
    </g>
    <g id="ytick_2">
     <g id="line2d_19">
      <path d="M 46.512969 188.050227 
L 327.900469 188.050227 
" clip-path="url(#pfe2e86ce43)" style="fill: none; stroke: #b0b0b0; stroke-opacity: 0.25; stroke-width: 0.8; stroke-linecap: square"/>
     </g>
     <g id="line2d_20">
      <g>
       <use xlink:href="#mb3b38a01bc" x="46.512969" y="188.050227" style="stroke: #000000; stroke-width: 0.8"/>
      </g>
     </g>
     <g id="text_11">
      <!-- 0.1 -->
      <g transform="translate(21.957656 192.290384) scale(0.11 -0.11)">
       <defs>
        <path id="HiraginoSans-W4-31" d="M 1018 4371 
C 1222 4397 1389 4410 1606 4410 
L 1939 4410 
L 1939 755 
C 1939 454 1926 237 1888 0 
L 2598 0 
C 2560 250 2547 448 2547 755 
L 2547 3904 
C 2547 4256 2566 4582 2605 4966 
C 2387 4941 2278 4934 2035 4934 
L 1581 4934 
C 1325 4934 1197 4941 1018 4966 
L 1018 4371 
z
" transform="scale(0.015625)"/>
       </defs>
       <use xlink:href="#HiraginoSans-W4-30"/>
       <use xlink:href="#HiraginoSans-W4-2e" x="67.299988"/>
       <use xlink:href="#HiraginoSans-W4-31" x="92.299973"/>
      </g>
     </g>
    </g>
    <g id="ytick_3">
     <g id="line2d_21">
      <path d="M 46.512969 145.886796 
L 327.900469 145.886796 
" clip-path="url(#pfe2e86ce43)" style="fill: none; stroke: #b0b0b0; stroke-opacity: 0.25; stroke-width: 0.8; stroke-linecap: square"/>
     </g>
     <g id="line2d_22">
      <g>
       <use xlink:href="#mb3b38a01bc" x="46.512969" y="145.886796" style="stroke: #000000; stroke-width: 0.8"/>
      </g>
     </g>
     <g id="text_12">
      <!-- 0.2 -->
      <g transform="translate(21.957656 150.126952) scale(0.11 -0.11)">
       <use xlink:href="#HiraginoSans-W4-30"/>
       <use xlink:href="#HiraginoSans-W4-2e" x="67.299988"/>
       <use xlink:href="#HiraginoSans-W4-32" x="92.299973"/>
      </g>
     </g>
    </g>
    <g id="ytick_4">
     <g id="line2d_23">
      <path d="M 46.512969 103.723364 
L 327.900469 103.723364 
" clip-path="url(#pfe2e86ce43)" style="fill: none; stroke: #b0b0b0; stroke-opacity: 0.25; stroke-width: 0.8; stroke-linecap: square"/>
     </g>
     <g id="line2d_24">
      <g>
       <use xlink:href="#mb3b38a01bc" x="46.512969" y="103.723364" style="stroke: #000000; stroke-width: 0.8"/>
      </g>
     </g>
     <g id="text_13">
      <!-- 0.3 -->
      <g transform="translate(21.957656 107.96352) scale(0.11 -0.11)">
       <defs>
        <path id="HiraginoSans-W4-33" d="M 282 1101 
C 397 768 474 621 621 448 
C 934 90 1434 -96 2112 -96 
C 2720 -96 3213 70 3533 384 
C 3770 614 3904 954 3904 1306 
C 3904 1677 3802 1958 3597 2182 
C 3379 2419 3130 2528 2688 2586 
C 2995 2650 3130 2701 3290 2816 
C 3578 3021 3738 3366 3738 3757 
C 3738 4538 3117 5043 2157 5043 
C 1594 5043 1146 4883 845 4576 
C 666 4390 582 4237 467 3891 
L 1107 3757 
C 1171 3981 1216 4083 1306 4192 
C 1478 4416 1741 4525 2125 4525 
C 2746 4525 3110 4224 3110 3725 
C 3110 3482 3021 3264 2867 3110 
C 2669 2918 2374 2829 1965 2829 
C 1779 2829 1613 2842 1459 2861 
L 1459 2272 
C 1651 2298 1811 2310 2003 2310 
C 2829 2310 3264 1990 3264 1376 
C 3264 794 2816 429 2106 429 
C 1779 429 1510 506 1293 666 
C 1107 800 1024 928 928 1248 
L 282 1101 
z
" transform="scale(0.015625)"/>
       </defs>
       <use xlink:href="#HiraginoSans-W4-30"/>
       <use xlink:href="#HiraginoSans-W4-2e" x="67.299988"/>
       <use xlink:href="#HiraginoSans-W4-33" x="92.299973"/>
      </g>
     </g>
    </g>
    <g id="ytick_5">
     <g id="line2d_25">
      <path d="M 46.512969 61.559932 
L 327.900469 61.559932 
" clip-path="url(#pfe2e86ce43)" style="fill: none; stroke: #b0b0b0; stroke-opacity: 0.25; stroke-width: 0.8; stroke-linecap: square"/>
     </g>
     <g id="line2d_26">
      <g>
       <use xlink:href="#mb3b38a01bc" x="46.512969" y="61.559932" style="stroke: #000000; stroke-width: 0.8"/>
      </g>
     </g>
     <g id="text_14">
      <!-- 0.4 -->
      <g transform="translate(21.935312 65.800089) scale(0.11 -0.11)">
       <use xlink:href="#HiraginoSans-W4-30"/>
       <use xlink:href="#HiraginoSans-W4-2e" x="67.299988"/>
       <use xlink:href="#HiraginoSans-W4-34" x="92.299973"/>
      </g>
     </g>
    </g>
    <g id="text_15">
     <!-- 確率密度 -->
     <g transform="translate(15.680312 168.11025) rotate(-90) scale(0.11 -0.11)">
      <defs>
       <path id="HiraginoSans-W4-78ba" d="M 2234 2355 
C 2342 2234 2419 2125 2496 1958 
C 2682 2150 2784 2278 2886 2438 
C 2880 2400 2874 2208 2867 1856 
L 2867 160 
C 2867 -154 2854 -320 2822 -518 
L 3302 -518 
L 3302 -211 
L 5402 -211 
C 5619 -211 5792 -224 6010 -250 
L 6010 230 
C 5830 205 5690 198 5402 198 
L 4659 198 
L 4659 870 
L 5229 870 
C 5440 870 5568 864 5786 838 
L 5786 1293 
C 5619 1267 5491 1261 5216 1261 
L 4659 1261 
L 4659 1888 
L 5229 1888 
C 5434 1888 5581 1882 5786 1856 
L 5786 2310 
C 5632 2285 5498 2278 5216 2278 
L 4659 2278 
L 4659 2912 
L 5325 2912 
C 5517 2912 5664 2906 5875 2886 
L 5875 3341 
C 5702 3315 5587 3309 5312 3309 
L 4774 3309 
C 4845 3437 4915 3603 4992 3808 
C 5005 3834 5018 3872 5037 3923 
L 4582 4026 
C 4525 3776 4435 3539 4320 3309 
L 3533 3309 
C 3757 3674 3872 3898 4026 4275 
L 5562 4275 
L 5562 3597 
L 6048 3597 
C 6029 3718 6022 3814 6022 3968 
L 6022 4301 
C 6022 4499 6029 4621 6042 4736 
C 5862 4710 5677 4704 5421 4704 
L 4179 4704 
C 4211 4794 4275 4998 4378 5318 
L 3878 5395 
C 3840 5165 3789 4960 3712 4704 
L 3002 4704 
C 2650 4704 2592 4704 2470 4723 
C 2477 4576 2483 4467 2483 4397 
L 2483 3968 
C 2483 3814 2477 3686 2458 3578 
L 2918 3578 
L 2918 4275 
L 3558 4275 
C 3373 3821 3226 3558 2963 3187 
C 2720 2835 2573 2669 2234 2368 
L 2234 2598 
C 2234 2816 2240 2957 2253 3104 
C 2131 3085 2022 3078 1862 3078 
L 1178 3078 
C 1389 3674 1485 4045 1587 4653 
L 1926 4653 
C 2099 4653 2189 4646 2368 4627 
L 2368 5120 
C 2182 5088 2042 5082 1805 5082 
L 966 5082 
C 723 5082 550 5094 378 5120 
L 378 4614 
C 557 4646 685 4653 928 4653 
L 1126 4653 
C 1062 4198 1005 3930 896 3571 
C 698 2950 474 2515 128 2080 
C 237 1926 269 1869 371 1613 
C 531 1830 627 1997 781 2342 
C 762 2138 749 1805 749 1709 
L 749 282 
C 749 13 736 -166 710 -339 
L 1190 -339 
L 1190 307 
L 1811 307 
L 1811 -45 
L 2253 -45 
C 2240 102 2234 230 2234 480 
L 2234 2355 
z
M 3302 2278 
L 3302 2912 
L 4237 2912 
L 4237 2278 
L 3302 2278 
z
M 3302 1888 
L 4237 1888 
L 4237 1261 
L 3302 1261 
L 3302 1888 
z
M 3302 870 
L 4237 870 
L 4237 198 
L 3302 198 
L 3302 870 
z
M 1190 2656 
L 1811 2656 
L 1811 736 
L 1190 736 
L 1190 2656 
z
" transform="scale(0.015625)"/>
       <path id="HiraginoSans-W4-7387" d="M 2074 2310 
C 2035 2304 2003 2304 1997 2304 
C 1894 2304 1728 2310 1645 2323 
L 1722 1862 
C 1798 1875 1888 1888 2061 1901 
C 3078 1984 3469 2029 4109 2144 
C 4198 2003 4230 1939 4333 1734 
L 4742 1926 
C 4371 2490 4250 2643 3872 3053 
L 3526 2886 
C 3718 2688 3776 2618 3898 2458 
C 3680 2426 3680 2426 2739 2342 
C 2925 2502 2925 2502 3315 2893 
L 3398 2970 
C 3814 3398 3872 3462 4147 3827 
L 3782 4083 
C 3520 3693 3398 3539 3091 3200 
C 2963 3341 2906 3405 2720 3571 
C 2970 3866 3117 4077 3302 4403 
L 5427 4403 
C 5696 4403 5888 4397 6074 4371 
L 6074 4883 
C 5882 4858 5677 4845 5376 4845 
L 3398 4845 
L 3398 4960 
C 3398 5126 3411 5235 3437 5382 
L 2886 5382 
C 2906 5248 2918 5114 2918 4960 
L 2918 4845 
L 1082 4845 
C 787 4845 589 4858 390 4883 
L 390 4371 
C 576 4397 774 4403 1030 4403 
L 2810 4403 
C 2714 4205 2592 4026 2432 3827 
C 2342 3904 2291 3942 2150 4045 
L 1856 3738 
C 2253 3456 2534 3206 2803 2899 
C 2573 2669 2458 2560 2170 2310 
L 2074 2310 
z
M 3379 928 
L 5402 928 
C 5683 928 5901 915 6093 890 
L 6093 1414 
C 5920 1389 5690 1370 5453 1370 
L 3379 1370 
L 3379 1453 
C 3379 1632 3386 1747 3405 1856 
L 2867 1856 
C 2886 1754 2893 1619 2893 1459 
L 2893 1370 
L 966 1370 
C 723 1370 474 1389 314 1414 
L 314 890 
C 538 915 730 928 998 928 
L 2893 928 
L 2893 32 
C 2893 -179 2880 -352 2848 -544 
L 3424 -544 
C 3392 -358 3379 -192 3379 32 
L 3379 928 
z
M 595 3898 
C 986 3597 1146 3443 1485 3040 
L 1837 3366 
C 1536 3693 1312 3891 941 4186 
L 595 3898 
z
M 563 1722 
C 678 1786 698 1792 787 1843 
C 954 1920 992 1946 1146 2029 
C 1478 2221 1651 2336 2035 2624 
L 1830 2995 
C 1350 2611 845 2336 352 2195 
L 563 1722 
z
M 5299 4205 
C 4973 3827 4717 3610 4275 3315 
L 4589 2995 
C 5024 3302 5312 3552 5658 3910 
L 5299 4205 
z
M 4499 2643 
C 4986 2323 5280 2080 5651 1690 
L 5978 2067 
C 5536 2451 5312 2618 4787 2944 
L 4499 2643 
z
" transform="scale(0.015625)"/>
       <path id="HiraginoSans-W4-5bc6" d="M 4346 4173 
C 3942 3590 3258 3014 2451 2573 
L 2451 3405 
C 2451 3603 2458 3712 2477 3859 
L 1978 3859 
C 2003 3699 2010 3590 2010 3392 
L 2010 2349 
C 1478 2112 966 1933 333 1773 
C 435 1632 454 1600 563 1338 
C 1197 1549 1606 1709 2106 1939 
C 2246 1837 2496 1805 3200 1805 
C 4762 1805 4800 1824 4890 2803 
C 4742 2835 4589 2893 4454 2957 
C 4442 2618 4403 2432 4346 2349 
C 4269 2240 4038 2208 3405 2208 
C 3021 2208 2880 2208 2656 2221 
C 3066 2458 3405 2682 3674 2893 
C 3872 3046 4378 3501 4614 3744 
C 4678 3808 4678 3808 4762 3891 
L 4346 4173 
z
M 2925 4774 
L 1171 4774 
C 909 4774 762 4781 518 4806 
C 538 4659 544 4550 544 4378 
L 544 4032 
C 544 3814 538 3706 512 3565 
L 1005 3565 
L 1005 4346 
L 5427 4346 
L 5427 3546 
L 5920 3546 
C 5901 3680 5894 3795 5894 4000 
L 5894 4371 
C 5894 4563 5901 4672 5920 4806 
C 5696 4781 5536 4774 5267 4774 
L 3418 4774 
L 3418 4947 
C 3418 5107 3424 5229 3456 5376 
L 2880 5376 
C 2912 5229 2925 5101 2925 4947 
L 2925 4774 
z
M 2957 307 
L 1498 307 
L 1498 819 
C 1498 1030 1504 1165 1523 1274 
L 986 1274 
C 1011 1146 1024 1018 1024 806 
L 1024 179 
C 1024 -70 1011 -256 986 -435 
L 1498 -435 
L 1498 -128 
L 4941 -128 
L 4941 -448 
L 5459 -448 
C 5427 -269 5421 -90 5421 166 
L 5421 819 
C 5421 1043 5427 1184 5453 1338 
L 4909 1338 
C 4928 1197 4941 1069 4941 851 
L 4941 307 
L 3443 307 
L 3443 1088 
C 3443 1357 3450 1498 3475 1632 
L 2925 1632 
C 2944 1485 2957 1350 2957 1094 
L 2957 307 
z
M 3661 3744 
C 3347 3994 3117 4147 2810 4320 
L 2496 4051 
C 2797 3885 3021 3712 3328 3411 
L 3661 3744 
z
M 851 2298 
C 1318 2746 1517 3002 1760 3469 
L 1389 3699 
C 1178 3264 960 2995 512 2618 
L 851 2298 
z
M 6010 2477 
C 5651 3008 5510 3181 5075 3610 
L 4710 3366 
C 5107 2976 5318 2701 5613 2182 
L 6010 2477 
z
" transform="scale(0.015625)"/>
       <path id="HiraginoSans-W4-5ea6" d="M 2400 3379 
L 2400 2752 
C 2400 2624 2394 2483 2381 2362 
C 2464 2374 2579 2374 2835 2374 
L 4365 2374 
C 4602 2374 4672 2374 4774 2362 
C 4762 2477 4755 2605 4755 2752 
L 4755 3379 
L 5478 3379 
C 5760 3379 5920 3373 6061 3347 
L 6061 3821 
C 5901 3795 5760 3789 5485 3789 
L 4755 3789 
L 4755 3859 
C 4755 4026 4762 4141 4781 4256 
L 4262 4256 
C 4282 4141 4288 4013 4288 3866 
L 4288 3789 
L 2867 3789 
L 2867 3878 
C 2867 4006 2874 4115 2893 4256 
L 2374 4256 
C 2394 4147 2400 4032 2400 3872 
L 2400 3789 
L 1312 3789 
L 1312 4403 
L 5376 4403 
C 5677 4403 5837 4397 6048 4378 
L 6048 4864 
C 5875 4838 5677 4826 5325 4826 
L 3622 4826 
L 3622 4998 
C 3622 5171 3629 5280 3654 5402 
L 3098 5402 
C 3123 5274 3136 5152 3136 4998 
L 3136 4826 
L 1478 4826 
C 1222 4826 1011 4838 800 4858 
C 819 4672 826 4480 826 4051 
C 826 1670 698 845 198 -26 
C 358 -147 454 -237 595 -416 
C 1120 538 1267 1318 1306 3379 
L 2400 3379 
z
M 2867 3379 
L 4288 3379 
L 4288 2765 
L 2867 2765 
L 2867 3379 
z
M 5030 1933 
C 4896 1920 4787 1914 4570 1914 
L 2272 1914 
C 1939 1914 1766 1920 1613 1946 
L 1613 1491 
C 1766 1517 1907 1523 2195 1523 
C 2522 1056 2771 800 3187 493 
C 2598 224 1997 77 1126 -19 
C 1235 -218 1280 -320 1318 -493 
C 2291 -333 2931 -134 3610 224 
C 4256 -141 4902 -339 5882 -474 
C 5939 -275 6003 -128 6099 32 
C 5338 77 4653 230 4058 499 
C 4429 749 4774 1056 5069 1395 
C 5190 1536 5235 1587 5299 1651 
L 5030 1933 
z
M 4582 1523 
C 4230 1152 4013 973 3622 723 
C 3206 986 2957 1210 2733 1523 
L 4582 1523 
z
" transform="scale(0.015625)"/>
      </defs>
      <use xlink:href="#HiraginoSans-W4-78ba"/>
      <use xlink:href="#HiraginoSans-W4-7387" x="99.999985"/>
      <use xlink:href="#HiraginoSans-W4-5bc6" x="199.999969"/>
      <use xlink:href="#HiraginoSans-W4-5ea6" x="299.999954"/>
     </g>
    </g>
   </g>
   <g id="line2d_27">
    <path d="M 59.30331 230.213657 
L 98.592504 230.111894 
L 104.571294 229.873702 
L 108.414802 229.516047 
L 111.404198 229.030227 
L 113.966536 228.391316 
L 116.101819 227.641219 
L 118.237101 226.631629 
L 119.945327 225.591061 
L 121.653552 224.300124 
L 123.361778 222.714503 
L 125.070004 220.78648 
L 126.77823 218.465891 
L 128.486456 215.701465 
L 130.194682 212.442531 
L 131.902907 208.641129 
L 133.611133 204.254458 
L 135.319359 199.247613 
L 137.027585 193.596526 
L 139.162867 185.612649 
L 141.29815 176.624855 
L 143.433432 166.699222 
L 145.995771 153.724195 
L 149.412222 135.163008 
L 155.391013 102.411312 
L 157.953351 89.799217 
L 159.661577 82.331553 
L 161.369803 75.822067 
L 162.650972 71.664608 
L 163.932142 68.19371 
L 165.213311 65.458818 
L 166.067424 64.064385 
L 166.921537 63.023868 
L 167.77565 62.34404 
L 168.629763 62.029342 
L 169.483876 62.081833 
L 170.337989 62.501169 
L 171.192102 63.284607 
L 172.046215 64.427034 
L 172.900327 65.921024 
L 174.181497 68.79947 
L 175.462666 72.405241 
L 176.743836 76.687117 
L 178.452061 83.343627 
L 180.160287 90.934197 
L 182.295569 101.465342 
L 185.284965 117.50072 
L 192.971981 159.411061 
L 195.53432 171.914839 
L 197.669602 181.369666 
L 199.804884 189.846186 
L 201.940167 197.304181 
L 203.648392 202.539003 
L 205.356618 207.143657 
L 207.064844 211.14952 
L 208.77307 214.596899 
L 210.481296 217.532211 
L 212.189522 220.005417 
L 213.897747 222.067794 
L 215.605973 223.770073 
L 217.314199 225.160974 
L 219.022425 226.286116 
L 221.157707 227.382061 
L 223.292989 228.199883 
L 225.855328 228.899773 
L 228.844723 229.434904 
L 232.261175 229.799126 
L 236.958796 230.049133 
L 244.218756 230.179022 
L 263.436296 230.213398 
L 315.110128 230.213659 
L 315.110128 230.213659 
" clip-path="url(#pfe2e86ce43)" style="fill: none; stroke: #1f77b4; stroke-width: 1.9; stroke-linecap: square"/>
   </g>
   <g id="line2d_28">
    <path d="M 59.30331 230.213659 
L 135.319359 230.107898 
L 141.29815 229.86151 
L 145.141658 229.49255 
L 148.131053 228.99237 
L 150.693392 228.33566 
L 152.828674 227.565757 
L 154.963956 226.530864 
L 156.672182 225.465473 
L 158.380408 224.145148 
L 160.088634 222.525176 
L 161.79686 220.557523 
L 163.505085 218.191839 
L 165.213311 215.376824 
L 166.921537 212.061993 
L 168.629763 208.199815 
L 170.337989 203.7482 
L 172.046215 198.673262 
L 173.75444 192.952269 
L 175.889723 184.881016 
L 178.025005 175.809508 
L 180.160287 165.808293 
L 182.722626 152.760136 
L 186.139078 134.145103 
L 191.690812 103.681553 
L 194.25315 90.934197 
L 195.961376 83.343627 
L 197.669602 76.687117 
L 198.950771 72.405241 
L 200.231941 68.79947 
L 201.51311 65.921024 
L 202.367223 64.427034 
L 203.221336 63.284607 
L 204.075449 62.501169 
L 204.929562 62.081833 
L 205.783675 62.029342 
L 206.637788 62.34404 
L 207.4919 63.023868 
L 208.346013 64.064385 
L 209.200126 65.458818 
L 210.054239 67.198136 
L 211.335409 70.428723 
L 212.616578 74.363392 
L 213.897747 78.946686 
L 215.605973 85.956232 
L 217.741255 95.923904 
L 220.303594 109.181823 
L 224.574159 132.786126 
L 228.844723 155.95624 
L 231.407062 168.75441 
L 233.542344 178.500309 
L 235.677627 187.290952 
L 237.812909 195.07052 
L 239.521135 200.558995 
L 241.229361 205.408065 
L 242.937586 209.64479 
L 244.645812 213.306315 
L 246.354038 216.436981 
L 248.062264 219.085641 
L 249.77049 221.303298 
L 251.478716 223.141094 
L 253.186941 224.64869 
L 254.895167 225.873029 
L 256.603393 226.857466 
L 258.738675 227.809979 
L 260.873958 228.515511 
L 263.436296 229.114488 
L 266.425692 229.56819 
L 270.2692 229.900655 
L 275.393877 230.102343 
L 284.362063 230.198572 
L 315.110128 230.213657 
L 315.110128 230.213657 
" clip-path="url(#pfe2e86ce43)" style="fill: none; stroke: #ff7f0e; stroke-width: 1.9; stroke-linecap: square"/>
   </g>
   <g id="line2d_29">
    <path d="M 59.30331 230.213659 
L 172.046215 230.103757 
L 177.597948 229.877679 
L 181.441457 229.523723 
L 184.430852 229.042609 
L 186.993191 228.409539 
L 189.128473 227.665949 
L 191.263755 226.66468 
L 192.971981 225.632284 
L 194.680207 224.351029 
L 196.388433 222.776736 
L 198.096658 220.861794 
L 199.804884 218.556107 
L 201.51311 215.808413 
L 203.221336 212.567989 
L 204.929562 208.786737 
L 206.637788 204.421624 
L 208.346013 199.437416 
L 210.054239 193.809605 
L 211.762465 187.527401 
L 213.897747 178.765113 
L 216.03303 169.045256 
L 218.595368 156.273038 
L 222.01182 137.870311 
L 228.844723 100.525383 
L 230.980006 90.081482 
L 232.688231 82.582755 
L 234.396457 76.036207 
L 235.677627 71.847444 
L 236.958796 68.342656 
L 238.239965 65.571738 
L 239.094078 64.152345 
L 239.948191 63.086296 
L 240.802304 62.38053 
L 241.656417 62.039654 
L 242.51053 62.0659 
L 243.364643 62.459095 
L 244.218756 63.216668 
L 245.072869 64.333672 
L 245.926982 65.802845 
L 246.781095 67.614682 
L 248.062264 70.948911 
L 249.343433 74.979835 
L 250.624603 79.650785 
L 252.332829 86.762101 
L 254.468111 96.830316 
L 257.03045 110.167493 
L 262.155127 138.545221 
L 265.571579 156.905039 
L 268.133917 169.624852 
L 270.2692 179.292363 
L 272.404482 187.997812 
L 274.539764 195.6897 
L 276.24799 201.108743 
L 277.956216 205.890708 
L 279.664442 210.063876 
L 281.372668 213.666302 
L 283.080894 216.742931 
L 284.789119 219.342955 
L 286.497345 221.51748 
L 288.205571 223.317561 
L 289.913797 224.79262 
L 291.622023 225.989252 
L 293.330248 226.950387 
L 295.465531 227.879262 
L 297.600813 228.566388 
L 300.163152 229.148916 
L 303.152547 229.589431 
L 306.996055 229.911592 
L 312.547789 230.115748 
L 315.110128 230.157232 
L 315.110128 230.157232 
" clip-path="url(#pfe2e86ce43)" style="fill: none; stroke: #2ca02c; stroke-width: 1.9; stroke-linecap: square"/>
   </g>
   <g id="patch_3">
    <path d="M 46.512969 238.624 
L 46.512969 53.5965 
" style="fill: none; stroke: #000000; stroke-width: 0.8; stroke-linejoin: miter; stroke-linecap: square"/>
   </g>
   <g id="patch_4">
    <path d="M 46.512969 238.624 
L 327.900469 238.624 
" style="fill: none; stroke: #000000; stroke-width: 0.8; stroke-linejoin: miter; stroke-linecap: square"/>
   </g>
   <g id="text_16">
    <!-- μ を変える → 山が左右に動く（平均） -->
    <g transform="translate(68.413937 47.5965) scale(0.132 -0.132)">
     <defs>
      <path id="HiraginoSans-W4-3bc" d="M 5107 678 
C 4960 499 4826 422 4666 422 
C 4506 422 4397 525 4397 678 
C 4397 736 4410 806 4429 883 
L 4934 2733 
C 5050 3168 5094 3290 5184 3482 
L 4493 3482 
C 4474 3245 4448 3123 4339 2733 
L 4026 1562 
C 3930 1210 3814 979 3635 794 
C 3392 557 3117 429 2829 429 
C 2362 429 2093 710 2093 1197 
C 2093 1350 2112 1498 2157 1658 
L 2445 2733 
C 2528 3027 2611 3270 2707 3482 
L 2010 3482 
C 1997 3283 1965 3142 1856 2733 
L 1114 -19 
C 1030 -326 934 -589 858 -762 
L 1555 -762 
C 1568 -557 1594 -416 1677 -115 
L 1850 531 
C 1914 326 2003 186 2131 90 
C 2272 -19 2522 -83 2771 -83 
C 3290 -83 3757 173 3987 589 
C 3981 512 3974 461 3974 435 
C 3974 122 4205 -83 4550 -83 
C 4838 -83 5082 19 5344 256 
L 5107 678 
z
" transform="scale(0.015625)"/>
      <path id="HiraginoSans-W4-20" transform="scale(0.015625)"/>
      <path id="HiraginoSans-W4-3092" d="M 2189 4365 
C 1491 4365 1088 4390 813 4442 
L 800 3917 
C 864 3930 902 3930 934 3930 
C 966 3930 998 3930 1062 3923 
C 1197 3917 1830 3904 1958 3904 
C 1984 3904 2054 3910 2074 3910 
C 2035 3840 2035 3840 2016 3808 
C 1581 3046 1037 2362 614 2042 
L 1037 1619 
C 1152 1798 1293 1952 1549 2163 
C 2054 2598 2547 2835 2938 2835 
C 3226 2835 3373 2694 3411 2381 
C 2982 2189 2707 2042 2470 1869 
C 2016 1542 1792 1197 1792 832 
C 1792 499 1952 218 2227 64 
C 2534 -109 2944 -186 3539 -186 
C 4058 -186 4646 -141 5133 -64 
C 5267 -38 5293 -38 5395 -32 
L 5338 557 
C 4954 403 4250 301 3597 301 
C 2694 301 2330 467 2330 870 
C 2330 1088 2445 1267 2707 1472 
C 2874 1600 3085 1715 3475 1894 
C 3475 1818 3475 1798 3475 1696 
C 3475 1350 3456 973 3437 845 
L 3962 851 
C 3949 954 3949 1005 3949 1114 
C 3949 1165 3949 1254 3949 1376 
C 3955 1504 3955 1638 3955 1709 
C 3955 1850 3955 1869 3949 2080 
C 4800 2406 5299 2566 5645 2624 
L 5414 3149 
C 5312 3085 5293 3078 4966 2963 
C 4653 2854 4390 2758 3891 2566 
C 3802 3027 3507 3264 3027 3264 
C 2726 3264 2413 3174 2144 3002 
C 2080 2963 2042 2938 1926 2842 
C 1907 2829 1875 2810 1837 2778 
C 1837 2778 1830 2784 1824 2797 
C 1830 2803 1830 2803 1837 2810 
C 1837 2816 1862 2835 1901 2861 
C 1920 2874 2054 3021 2106 3098 
C 2310 3354 2438 3565 2624 3910 
C 3251 3930 4070 3987 4512 4045 
C 4883 4096 4883 4096 5005 4109 
L 4966 4621 
C 4627 4518 4032 4442 3238 4397 
C 2880 4378 2880 4378 2835 4371 
C 2874 4435 2944 4595 3027 4800 
C 3130 5050 3130 5050 3181 5126 
L 2579 5216 
C 2560 5011 2490 4813 2291 4365 
L 2189 4365 
z
" transform="scale(0.015625)"/>
      <path id="HiraginoSans-W4-5909" d="M 2477 4288 
C 2464 3782 2419 3546 2298 3296 
C 2150 2995 1882 2771 1414 2541 
C 1606 2432 1709 2342 1818 2214 
C 2650 2714 2918 3206 2950 4288 
L 3674 4288 
L 3674 3002 
C 3674 2893 3648 2867 3507 2867 
C 3354 2867 3206 2880 2989 2912 
C 3072 2758 3110 2637 3130 2464 
C 3315 2451 3507 2445 3654 2445 
C 4026 2445 4147 2547 4147 2874 
L 4147 4288 
L 5242 4288 
C 5517 4288 5760 4275 5965 4256 
L 5965 4755 
C 5766 4730 5574 4717 5229 4717 
L 3437 4717 
L 3437 4890 
C 3437 5069 3450 5190 3469 5325 
L 2899 5325 
C 2918 5190 2931 5069 2931 4890 
L 2931 4717 
L 1146 4717 
C 806 4717 595 4730 429 4755 
L 429 4256 
C 621 4282 794 4288 1120 4288 
L 2477 4288 
z
M 4640 1946 
C 4518 1926 4326 1914 4051 1914 
L 2656 1914 
C 2771 2042 2842 2125 2931 2234 
C 2982 2291 2989 2298 3034 2349 
L 2579 2547 
C 2458 2330 2298 2144 2016 1894 
C 1594 1517 1152 1254 589 1050 
C 723 909 774 838 877 666 
C 1299 851 1581 1011 1946 1280 
C 2221 992 2445 800 2803 550 
C 2413 378 2042 262 1574 160 
C 1158 77 934 51 243 6 
C 371 -154 429 -269 499 -467 
C 1184 -378 1504 -326 1901 -224 
C 2387 -96 2861 77 3251 275 
C 3936 -96 4736 -326 5888 -499 
C 5946 -320 6022 -173 6150 13 
C 5094 77 4410 224 3693 538 
C 4077 806 4397 1075 4755 1440 
C 4858 1549 4870 1568 4941 1632 
L 4640 1946 
z
M 4166 1517 
C 3789 1133 3590 979 3238 768 
C 2861 992 2541 1248 2298 1517 
L 4166 1517 
z
M 1510 4083 
C 1357 3725 1229 3526 992 3270 
C 819 3085 678 2976 390 2771 
C 576 2650 614 2618 787 2451 
C 1082 2688 1210 2810 1402 3040 
C 1638 3322 1760 3507 1946 3885 
L 1510 4083 
z
M 4390 3770 
C 4864 3328 5114 3027 5517 2432 
L 5939 2758 
C 5517 3283 5242 3578 4755 4026 
L 4390 3770 
z
" transform="scale(0.015625)"/>
      <path id="HiraginoSans-W4-3048" d="M 1798 4640 
C 2630 4397 3117 4314 4262 4224 
L 4358 4730 
C 3469 4755 2682 4883 1978 5114 
L 1798 4640 
z
M 1261 2957 
C 1434 2982 1498 2989 1696 3002 
C 3181 3117 3251 3123 3712 3213 
C 3142 2669 2822 2362 2746 2285 
C 2310 1856 1875 1440 1280 883 
C 922 550 826 474 595 314 
L 1018 -160 
C 1248 102 1645 512 1965 813 
C 2490 1306 2797 1485 3123 1485 
C 3251 1485 3360 1427 3405 1338 
C 3443 1261 3456 1178 3475 902 
C 3507 474 3533 352 3616 205 
C 3757 -51 4045 -166 4544 -166 
C 4826 -166 5056 -147 5427 -83 
C 5875 -13 5875 -13 5958 -6 
L 5882 570 
C 5542 422 5050 333 4589 333 
C 4326 333 4186 378 4102 486 
C 4032 582 4006 704 3981 1056 
C 3949 1421 3917 1549 3802 1677 
C 3686 1805 3526 1875 3341 1875 
C 3181 1875 3053 1837 2765 1709 
C 3046 1920 3501 2330 3987 2810 
C 4326 3142 4422 3232 4550 3328 
L 4224 3731 
C 4134 3699 4058 3680 3904 3654 
C 3328 3578 2182 3501 1613 3501 
C 1478 3501 1389 3507 1222 3514 
L 1261 2957 
z
" transform="scale(0.015625)"/>
      <path id="HiraginoSans-W4-308b" d="M 1485 4262 
C 1626 4282 1690 4288 1824 4294 
C 2758 4333 3482 4371 3718 4410 
C 3738 4410 3750 4410 3770 4416 
L 3776 4403 
C 3725 4352 3725 4352 3706 4333 
C 3686 4314 3680 4307 3654 4282 
C 2694 3334 1242 2131 678 1818 
L 1005 1331 
C 1760 2022 2746 2419 3693 2419 
C 4531 2419 5037 2067 5037 1478 
C 5037 1146 4883 858 4602 659 
C 4454 550 4314 486 4077 416 
C 3987 704 3917 851 3789 1024 
C 3533 1363 3149 1549 2720 1549 
C 2157 1549 1741 1210 1741 755 
C 1741 563 1818 352 1933 218 
C 2170 -58 2605 -198 3232 -198 
C 4646 -198 5587 480 5587 1491 
C 5587 2323 4896 2861 3821 2861 
C 3283 2861 2835 2752 2317 2490 
L 2304 2515 
C 2739 2784 3507 3430 4371 4262 
C 4563 4454 4602 4480 4698 4531 
L 4390 4947 
C 4301 4896 4243 4883 4058 4870 
C 3488 4826 2643 4787 2106 4787 
C 1779 4787 1645 4794 1459 4826 
L 1485 4262 
z
M 3578 288 
C 3373 256 3302 250 3155 250 
C 2598 250 2246 442 2246 742 
C 2246 966 2432 1107 2720 1107 
C 3155 1107 3443 826 3578 288 
z
" transform="scale(0.015625)"/>
      <path id="HiraginoSans-W4-2192" d="M 4358 3597 
C 4518 3424 4518 3424 4826 3078 
C 4883 3008 4922 2970 5318 2579 
L 403 2579 
L 403 2298 
L 5318 2298 
C 5184 2150 5120 2093 4998 1965 
C 4826 1792 4826 1792 4666 1619 
C 4499 1446 4493 1440 4358 1299 
L 4506 1126 
C 5114 1696 5427 1939 6157 2438 
C 5216 3104 5216 3104 4506 3744 
L 4358 3597 
z
" transform="scale(0.015625)"/>
      <path id="HiraginoSans-W4-5c71" d="M 2880 576 
L 1203 576 
L 1203 3475 
C 1203 3731 1210 3910 1235 4096 
L 646 4096 
C 672 3917 691 3699 691 3462 
L 691 256 
C 691 -6 678 -160 646 -422 
L 1203 -422 
L 1203 90 
L 5197 90 
L 5197 -422 
L 5754 -422 
C 5715 -173 5709 13 5709 282 
L 5709 3488 
C 5709 3699 5715 3878 5747 4096 
L 5158 4096 
C 5184 3910 5197 3763 5197 3494 
L 5197 576 
L 3411 576 
L 3411 4666 
C 3411 4915 3418 5075 3456 5274 
L 2835 5274 
C 2867 5075 2880 4902 2880 4666 
L 2880 576 
z
" transform="scale(0.015625)"/>
      <path id="HiraginoSans-W4-304c" d="M 531 3002 
C 813 3072 1082 3123 1773 3226 
C 1568 2406 1389 1888 1094 1254 
C 877 781 621 326 429 83 
L 954 -218 
L 1370 589 
C 1792 1459 2067 2234 2310 3270 
C 2496 3290 2611 3296 2746 3296 
C 3315 3296 3494 3091 3494 2438 
C 3494 1722 3398 1075 3232 685 
C 3155 499 3034 403 2880 403 
C 2656 403 2291 512 1939 685 
C 1965 531 1971 448 1971 333 
C 1971 256 1965 218 1958 109 
C 2374 -58 2656 -122 2925 -122 
C 3232 -122 3418 -45 3578 173 
C 3853 538 4026 1395 4026 2413 
C 4026 2957 3936 3251 3718 3475 
C 3514 3674 3232 3757 2797 3757 
C 2656 3757 2560 3757 2406 3744 
C 2438 3891 2509 4301 2541 4467 
C 2598 4826 2618 4934 2656 5062 
L 2054 5133 
L 2054 5043 
C 2054 4781 1978 4224 1875 3699 
C 1338 3616 698 3546 467 3546 
L 531 3002 
z
M 4262 3898 
C 4864 3270 5312 2451 5549 1530 
L 6048 1805 
C 5760 2726 5363 3424 4717 4134 
L 4262 3898 
z
M 5357 5357 
C 5638 5024 5830 4736 6016 4365 
L 6387 4576 
C 6157 4998 6016 5197 5715 5549 
L 5357 5357 
z
M 4614 5011 
C 4877 4717 5082 4397 5280 4000 
L 5658 4211 
C 5434 4627 5286 4845 4986 5203 
L 4614 5011 
z
" transform="scale(0.015625)"/>
      <path id="HiraginoSans-W4-5de6" d="M 2106 3930 
C 1958 3264 1754 2637 1498 2086 
C 1152 1338 749 787 192 288 
C 352 147 422 64 563 -141 
C 973 262 1312 717 1645 1286 
C 1818 1587 1920 1811 2080 2182 
L 3418 2182 
L 3418 218 
L 2163 218 
C 1818 218 1626 230 1408 262 
L 1408 -282 
C 1619 -250 1856 -237 2163 -237 
L 5248 -237 
C 5555 -237 5786 -250 6010 -282 
L 6010 262 
C 5786 230 5581 218 5248 218 
L 3930 218 
L 3930 2182 
L 4947 2182 
C 5248 2182 5434 2170 5626 2144 
L 5626 2669 
C 5440 2637 5267 2630 4941 2630 
L 2246 2630 
C 2413 3098 2509 3443 2618 3930 
L 5242 3930 
C 5587 3930 5818 3917 6022 3885 
L 6022 4435 
C 5786 4403 5568 4390 5242 4390 
L 2707 4390 
C 2790 4838 2790 4845 2810 4954 
C 2842 5146 2854 5222 2886 5344 
L 2278 5389 
C 2285 5312 2291 5280 2291 5222 
C 2291 5037 2259 4755 2195 4390 
L 1235 4390 
C 890 4390 678 4403 467 4435 
L 467 3885 
C 698 3917 890 3930 1229 3930 
L 2106 3930 
z
" transform="scale(0.015625)"/>
      <path id="HiraginoSans-W4-53f3" d="M 2957 4250 
C 3021 4442 3046 4538 3098 4710 
C 3187 5030 3226 5146 3264 5254 
L 2675 5338 
C 2650 5005 2579 4685 2438 4250 
L 1133 4250 
C 762 4250 582 4262 403 4288 
L 403 3731 
C 602 3757 826 3770 1133 3770 
L 2259 3770 
C 1830 2714 1229 1971 256 1280 
C 365 1184 506 1005 608 851 
C 1056 1203 1370 1510 1702 1914 
C 1696 1786 1696 1760 1696 1510 
L 1690 294 
C 1690 -77 1683 -237 1651 -454 
L 2189 -454 
L 2189 -90 
L 4877 -90 
L 4877 -461 
L 5427 -461 
C 5402 -250 5389 -38 5389 237 
L 5389 1907 
C 5389 2150 5395 2323 5421 2528 
C 5235 2509 5075 2502 4736 2502 
L 2637 2502 
C 2330 2502 2163 2496 2131 2496 
C 2400 2918 2573 3251 2784 3770 
L 5331 3770 
C 5651 3770 5856 3757 6035 3731 
L 6035 4288 
C 5856 4262 5670 4250 5325 4250 
L 2957 4250 
z
M 2189 2048 
L 4883 2048 
L 4883 371 
L 2189 371 
L 2189 2048 
z
" transform="scale(0.015625)"/>
      <path id="HiraginoSans-W4-306b" d="M 1382 838 
C 1382 947 1376 973 1376 1114 
C 1370 1286 1363 1594 1363 1722 
C 1363 2451 1414 3117 1510 3680 
C 1600 4179 1715 4653 1830 4954 
L 1222 5037 
C 1210 4877 1197 4813 1133 4493 
C 928 3546 851 2854 851 1958 
C 851 1312 896 838 1018 134 
C 1037 6 1043 -32 1056 -134 
L 1613 -96 
C 1606 -45 1606 0 1606 26 
C 1606 416 1824 1152 2144 1830 
L 1760 2010 
C 1555 1504 1453 1197 1389 838 
L 1382 838 
z
M 2592 3763 
C 2643 3757 2656 3757 2694 3750 
C 2790 3738 2790 3738 2810 3738 
C 3136 3706 3341 3693 3667 3693 
C 4141 3693 4640 3725 5030 3776 
C 5306 3814 5453 3834 5472 3834 
L 5440 4378 
C 5050 4269 4435 4205 3686 4205 
C 3194 4205 2899 4230 2605 4301 
L 2592 3763 
z
M 3053 2566 
C 2656 2106 2483 1734 2483 1357 
C 2483 1126 2554 902 2675 742 
C 2944 397 3424 237 4179 237 
C 4608 237 5037 275 5498 358 
C 5632 384 5645 384 5728 397 
L 5670 979 
C 5306 838 4755 755 4179 755 
C 3405 755 3008 973 3008 1408 
C 3008 1690 3155 1984 3488 2349 
L 3053 2566 
z
" transform="scale(0.015625)"/>
      <path id="HiraginoSans-W4-52d5" d="M 1766 4205 
L 922 4205 
C 672 4205 518 4211 346 4237 
L 346 3789 
C 512 3814 653 3821 915 3821 
L 1766 3821 
L 1766 3462 
L 1178 3462 
C 909 3462 736 3469 570 3482 
C 582 3290 589 3232 589 2912 
L 589 2138 
C 589 1824 582 1696 570 1536 
C 736 1549 896 1555 1165 1555 
L 1766 1555 
L 1766 1171 
L 1069 1171 
C 794 1171 640 1178 486 1203 
L 486 749 
C 646 768 870 781 1069 781 
L 1766 781 
L 1766 320 
C 1190 275 806 250 576 250 
C 493 250 410 250 301 262 
L 390 -250 
C 518 -224 570 -218 736 -205 
C 2042 -77 2349 -38 3373 128 
C 3277 19 3238 -26 3110 -154 
C 3290 -243 3482 -378 3546 -467 
C 4058 166 4320 666 4512 1408 
C 4653 1933 4723 2560 4768 3475 
L 5478 3475 
C 5466 1862 5389 755 5261 333 
C 5203 134 5139 96 4896 96 
C 4736 96 4582 115 4250 179 
C 4314 0 4339 -147 4346 -326 
C 4582 -352 4819 -365 4966 -365 
C 5536 -365 5683 -198 5786 557 
C 5875 1216 5907 1766 5939 3277 
C 5952 3661 5958 3802 5978 3949 
C 5792 3930 5651 3923 5395 3923 
L 4781 3923 
C 4787 4653 4787 4653 4794 4768 
C 4794 5011 4800 5146 4832 5267 
L 4288 5267 
C 4326 5082 4333 4986 4333 4474 
C 4333 4256 4326 4134 4320 3923 
L 4141 3923 
C 3898 3923 3763 3930 3610 3949 
L 3610 3443 
C 3789 3469 3930 3475 4186 3475 
L 4307 3475 
C 4275 2694 4211 2144 4090 1645 
C 3942 1056 3706 550 3386 141 
L 3386 531 
C 2765 435 2541 403 2202 365 
L 2202 781 
L 2918 781 
C 3200 781 3296 774 3418 755 
L 3418 1197 
C 3277 1178 3162 1171 2835 1171 
L 2202 1171 
L 2202 1555 
L 2835 1555 
C 3123 1555 3245 1549 3418 1542 
C 3411 1619 3405 1824 3405 2138 
L 3405 2918 
C 3405 3251 3405 3360 3418 3482 
C 3270 3469 3130 3462 2867 3462 
L 2202 3462 
L 2202 3821 
L 3027 3821 
C 3322 3821 3411 3814 3520 3795 
L 3520 4237 
C 3392 4211 3238 4205 2950 4205 
L 2202 4205 
L 2202 4672 
C 2554 4730 2861 4787 3206 4870 
C 3341 4909 3373 4915 3437 4922 
L 3136 5306 
C 2688 5088 1517 4909 429 4890 
C 538 4704 570 4640 608 4506 
C 1069 4531 1363 4563 1766 4608 
L 1766 4205 
z
M 1766 3104 
L 1766 2694 
L 1018 2694 
L 1018 3104 
L 1766 3104 
z
M 2202 3104 
L 2976 3104 
L 2976 2694 
L 2202 2694 
L 2202 3104 
z
M 1766 2336 
L 1766 1914 
L 1018 1914 
L 1018 2336 
L 1766 2336 
z
M 2202 2336 
L 2976 2336 
L 2976 1914 
L 2202 1914 
L 2202 2336 
z
" transform="scale(0.015625)"/>
      <path id="HiraginoSans-W4-304f" d="M 3955 5203 
C 3718 4838 2957 4128 2061 3437 
C 1587 3078 1587 3078 1510 2995 
C 1389 2867 1318 2707 1318 2547 
C 1318 2304 1427 2157 1798 1862 
C 2752 1120 2995 915 3430 512 
C 3859 122 4102 -141 4256 -365 
L 4736 109 
C 4659 173 4646 186 4550 275 
C 3616 1146 3469 1267 2509 1997 
C 1978 2406 1939 2445 1939 2554 
C 1939 2630 1990 2688 2208 2854 
C 2970 3437 3386 3776 3699 4077 
C 4320 4666 4397 4736 4486 4800 
L 3955 5203 
z
" transform="scale(0.015625)"/>
      <path id="HiraginoSans-W4-ff08" d="M 6170 -531 
C 5690 -26 5491 256 5280 698 
C 5024 1235 4902 1805 4902 2432 
C 4902 3059 5024 3629 5280 4166 
C 5491 4608 5690 4890 6170 5395 
L 5517 5395 
C 5139 4947 4966 4685 4774 4275 
C 4499 3686 4365 3085 4365 2432 
C 4365 1779 4499 1178 4774 589 
C 4966 179 5139 -83 5517 -531 
L 6170 -531 
z
" transform="scale(0.015625)"/>
      <path id="HiraginoSans-W4-5e73" d="M 2918 4653 
L 2918 2342 
L 1056 2342 
C 717 2342 525 2355 333 2387 
L 333 1830 
C 525 1862 749 1875 1069 1875 
L 2918 1875 
L 2918 198 
C 2918 -58 2906 -294 2874 -531 
L 3475 -531 
C 3443 -288 3430 -38 3430 198 
L 3430 1875 
L 5350 1875 
C 5683 1875 5907 1862 6080 1830 
L 6080 2387 
C 5901 2355 5690 2342 5370 2342 
L 3430 2342 
L 3430 4653 
L 5114 4653 
C 5408 4653 5606 4640 5818 4614 
L 5818 5152 
C 5626 5126 5421 5114 5107 5114 
L 1331 5114 
C 1011 5114 806 5126 614 5152 
L 614 4614 
C 826 4640 1030 4653 1318 4653 
L 2918 4653 
z
M 992 4179 
C 1331 3654 1523 3277 1766 2598 
L 2246 2842 
C 1984 3462 1786 3840 1427 4390 
L 992 4179 
z
M 4941 4384 
C 4685 3674 4486 3309 4058 2765 
L 4506 2534 
C 4928 3117 5133 3482 5408 4166 
L 4941 4384 
z
" transform="scale(0.015625)"/>
      <path id="HiraginoSans-W4-5747" d="M 1139 3603 
L 883 3603 
C 621 3603 493 3610 333 3642 
L 333 3123 
C 486 3155 621 3162 883 3162 
L 1139 3162 
L 1139 1133 
C 768 992 435 883 282 864 
L 416 352 
C 518 397 704 474 909 550 
C 1542 800 1824 928 2381 1222 
L 2362 1709 
C 2022 1517 1901 1459 1619 1331 
L 1619 3162 
L 1722 3162 
C 1920 3162 1997 3162 2144 3149 
L 2067 3072 
C 2227 2976 2266 2938 2438 2720 
C 2816 3123 3059 3462 3290 3904 
L 5414 3904 
C 5414 3744 5421 3616 5421 3533 
C 5421 2406 5344 1286 5222 646 
C 5133 192 5056 96 4755 96 
C 4570 96 4192 141 3872 192 
C 3962 -26 3994 -141 4006 -333 
C 4365 -365 4563 -378 4730 -378 
C 5344 -378 5504 -256 5645 320 
C 5811 992 5901 2266 5901 3872 
C 5901 4141 5907 4256 5926 4390 
C 5811 4378 5811 4378 5350 4365 
L 3501 4365 
C 3590 4582 3674 4806 3738 5005 
C 3776 5126 3789 5158 3814 5222 
L 3283 5350 
C 3232 5043 3155 4787 3008 4416 
C 2803 3936 2586 3597 2221 3219 
L 2221 3635 
C 2099 3610 1984 3603 1734 3603 
L 1619 3603 
L 1619 4627 
C 1619 4915 1626 5050 1658 5254 
L 1101 5254 
C 1126 5050 1139 4890 1139 4614 
L 1139 3603 
z
M 4909 2099 
C 4275 1696 3699 1414 2989 1158 
C 2848 1107 2739 1075 2618 1056 
L 2810 525 
C 2867 563 2918 582 2989 614 
C 3955 1037 4358 1235 5005 1626 
L 4909 2099 
z
M 2957 2502 
C 3110 2534 3251 2541 3507 2541 
L 4301 2541 
C 4525 2541 4685 2534 4813 2515 
L 4813 3021 
C 4678 2995 4538 2982 4294 2982 
L 3507 2982 
C 3245 2982 3123 2989 2957 3021 
L 2957 2502 
z
" transform="scale(0.015625)"/>
      <path id="HiraginoSans-W4-ff09" d="M 890 -531 
C 1261 -83 1434 179 1626 589 
C 1901 1178 2035 1773 2035 2432 
C 2035 3091 1901 3686 1626 4275 
C 1434 4685 1261 4947 890 5395 
L 230 5395 
C 710 4890 909 4608 1120 4166 
C 1376 3629 1498 3072 1498 2432 
C 1498 1792 1376 1235 1120 698 
C 909 256 710 -26 230 -531 
L 890 -531 
z
" transform="scale(0.015625)"/>
     </defs>
     <use xlink:href="#HiraginoSans-W4-3bc"/>
     <use xlink:href="#HiraginoSans-W4-20" x="99.999985"/>
     <use xlink:href="#HiraginoSans-W4-3092" x="133.299973"/>
     <use xlink:href="#HiraginoSans-W4-5909" x="233.299957"/>
     <use xlink:href="#HiraginoSans-W4-3048" x="333.299942"/>
     <use xlink:href="#HiraginoSans-W4-308b" x="433.299927"/>
     <use xlink:href="#HiraginoSans-W4-20" x="533.299911"/>
     <use xlink:href="#HiraginoSans-W4-2192" x="566.599899"/>
     <use xlink:href="#HiraginoSans-W4-20" x="666.599884"/>
     <use xlink:href="#HiraginoSans-W4-5c71" x="699.899872"/>
     <use xlink:href="#HiraginoSans-W4-304c" x="799.899857"/>
     <use xlink:href="#HiraginoSans-W4-5de6" x="899.899841"/>
     <use xlink:href="#HiraginoSans-W4-53f3" x="999.899826"/>
     <use xlink:href="#HiraginoSans-W4-306b" x="1099.899811"/>
     <use xlink:href="#HiraginoSans-W4-52d5" x="1199.899796"/>
     <use xlink:href="#HiraginoSans-W4-304f" x="1299.89978"/>
     <use xlink:href="#HiraginoSans-W4-ff08" x="1399.899765"/>
     <use xlink:href="#HiraginoSans-W4-5e73" x="1499.89975"/>
     <use xlink:href="#HiraginoSans-W4-5747" x="1599.899734"/>
     <use xlink:href="#HiraginoSans-W4-ff09" x="1699.899719"/>
    </g>
   </g>
   <g id="legend_1">
    <g id="patch_5">
     <path d="M 52.812969 100.646812 
L 128.944531 100.646812 
Q 130.744531 100.646812 130.744531 98.846812 
L 130.744531 59.8965 
Q 130.744531 58.0965 128.944531 58.0965 
L 52.812969 58.0965 
Q 51.012969 58.0965 51.012969 59.8965 
L 51.012969 98.846812 
Q 51.012969 100.646812 52.812969 100.646812 
z
" style="fill: #ffffff; opacity: 0.8; stroke: #cccccc; stroke-linejoin: miter"/>
    </g>
    <g id="line2d_30">
     <path d="M 54.612969 65.484937 
L 63.612969 65.484937 
L 72.612969 65.484937 
" style="fill: none; stroke: #1f77b4; stroke-width: 1.9; stroke-linecap: square"/>
    </g>
    <g id="text_17">
     <!-- μ=0, σ=1 -->
     <g transform="translate(79.812969 68.634937) scale(0.09 -0.09)">
      <defs>
       <path id="HiraginoSans-W4-3d" d="M 333 2720 
L 333 2195 
L 3923 2195 
L 3923 2720 
L 333 2720 
z
M 333 1376 
L 333 851 
L 3923 851 
L 3923 1376 
L 333 1376 
z
" transform="scale(0.015625)"/>
       <path id="HiraginoSans-W4-2c" d="M 1165 723 
L 435 723 
L 435 0 
L 858 0 
C 851 -403 800 -499 493 -614 
L 685 -864 
C 1062 -672 1165 -493 1165 0 
L 1165 723 
z
" transform="scale(0.015625)"/>
       <path id="HiraginoSans-W4-3c3" d="M 5338 3526 
C 5114 3494 4934 3482 4570 3482 
L 3955 3482 
C 3744 3539 3584 3565 3386 3565 
C 2784 3565 2246 3328 1888 2912 
C 1549 2515 1350 1958 1350 1389 
C 1350 461 1933 -128 2861 -128 
C 3462 -128 4006 115 4371 544 
C 4698 928 4896 1485 4896 2022 
C 4896 2426 4813 2675 4576 2970 
C 4883 2970 4992 2963 5178 2931 
L 5338 3526 
z
M 3366 3078 
C 3962 3078 4320 2694 4320 2061 
C 4320 1126 3680 371 2874 371 
C 2291 371 1933 762 1933 1395 
C 1933 2342 2560 3078 3366 3078 
z
" transform="scale(0.015625)"/>
      </defs>
      <use xlink:href="#HiraginoSans-W4-3bc"/>
      <use xlink:href="#HiraginoSans-W4-3d" x="99.999985"/>
      <use xlink:href="#HiraginoSans-W4-30" x="166.399979"/>
      <use xlink:href="#HiraginoSans-W4-2c" x="233.699966"/>
      <use xlink:href="#HiraginoSans-W4-20" x="258.699951"/>
      <use xlink:href="#HiraginoSans-W4-3c3" x="291.999939"/>
      <use xlink:href="#HiraginoSans-W4-3d" x="391.999924"/>
      <use xlink:href="#HiraginoSans-W4-31" x="458.399918"/>
     </g>
    </g>
    <g id="line2d_31">
     <path d="M 54.612969 78.768375 
L 63.612969 78.768375 
L 72.612969 78.768375 
" style="fill: none; stroke: #ff7f0e; stroke-width: 1.9; stroke-linecap: square"/>
    </g>
    <g id="text_18">
     <!-- μ=2, σ=1 -->
     <g transform="translate(79.812969 81.918375) scale(0.09 -0.09)">
      <use xlink:href="#HiraginoSans-W4-3bc"/>
      <use xlink:href="#HiraginoSans-W4-3d" x="99.999985"/>
      <use xlink:href="#HiraginoSans-W4-32" x="166.399979"/>
      <use xlink:href="#HiraginoSans-W4-2c" x="233.699966"/>
      <use xlink:href="#HiraginoSans-W4-20" x="258.699951"/>
      <use xlink:href="#HiraginoSans-W4-3c3" x="291.999939"/>
      <use xlink:href="#HiraginoSans-W4-3d" x="391.999924"/>
      <use xlink:href="#HiraginoSans-W4-31" x="458.399918"/>
     </g>
    </g>
    <g id="line2d_32">
     <path d="M 54.612969 92.051812 
L 63.612969 92.051812 
L 72.612969 92.051812 
" style="fill: none; stroke: #2ca02c; stroke-width: 1.9; stroke-linecap: square"/>
    </g>
    <g id="text_19">
     <!-- μ=4, σ=1 -->
     <g transform="translate(79.812969 95.201812) scale(0.09 -0.09)">
      <use xlink:href="#HiraginoSans-W4-3bc"/>
      <use xlink:href="#HiraginoSans-W4-3d" x="99.999985"/>
      <use xlink:href="#HiraginoSans-W4-34" x="166.399979"/>
      <use xlink:href="#HiraginoSans-W4-2c" x="233.899963"/>
      <use xlink:href="#HiraginoSans-W4-20" x="258.899948"/>
      <use xlink:href="#HiraginoSans-W4-3c3" x="292.199936"/>
      <use xlink:href="#HiraginoSans-W4-3d" x="392.199921"/>
      <use xlink:href="#HiraginoSans-W4-31" x="458.599915"/>
     </g>
    </g>
   </g>
  </g>
  <g id="axes_2">
   <g id="patch_6">
    <path d="M 378.860469 238.624 
L 660.247969 238.624 
L 660.247969 53.5965 
L 378.860469 53.5965 
z
" style="fill: #ffffff"/>
   </g>
   <g id="matplotlib.axis_3">
    <g id="xtick_9">
     <g id="line2d_33">
      <path d="M 391.65081 238.624 
L 391.65081 53.5965 
" clip-path="url(#p66520d584f)" style="fill: none; stroke: #b0b0b0; stroke-opacity: 0.25; stroke-width: 0.8; stroke-linecap: square"/>
     </g>
     <g id="line2d_34">
      <g>
       <use xlink:href="#mdc63961c8c" x="391.65081" y="238.624" style="stroke: #000000; stroke-width: 0.8"/>
      </g>
     </g>
     <g id="text_20">
      <!-- −6 -->
      <g transform="translate(384.297138 254.104312) scale(0.11 -0.11)">
       <use xlink:href="#HiraginoSans-W4-2212"/>
       <use xlink:href="#HiraginoSans-W4-36" x="66.399994"/>
      </g>
     </g>
    </g>
    <g id="xtick_10">
     <g id="line2d_35">
      <path d="M 428.194641 238.624 
L 428.194641 53.5965 
" clip-path="url(#p66520d584f)" style="fill: none; stroke: #b0b0b0; stroke-opacity: 0.25; stroke-width: 0.8; stroke-linecap: square"/>
     </g>
     <g id="line2d_36">
      <g>
       <use xlink:href="#mdc63961c8c" x="428.194641" y="238.624" style="stroke: #000000; stroke-width: 0.8"/>
      </g>
     </g>
     <g id="text_21">
      <!-- −4 -->
      <g transform="translate(420.829797 254.104312) scale(0.11 -0.11)">
       <use xlink:href="#HiraginoSans-W4-2212"/>
       <use xlink:href="#HiraginoSans-W4-34" x="66.399994"/>
      </g>
     </g>
    </g>
    <g id="xtick_11">
     <g id="line2d_37">
      <path d="M 464.738472 238.624 
L 464.738472 53.5965 
" clip-path="url(#p66520d584f)" style="fill: none; stroke: #b0b0b0; stroke-opacity: 0.25; stroke-width: 0.8; stroke-linecap: square"/>
     </g>
     <g id="line2d_38">
      <g>
       <use xlink:href="#mdc63961c8c" x="464.738472" y="238.624" style="stroke: #000000; stroke-width: 0.8"/>
      </g>
     </g>
     <g id="text_22">
      <!-- −2 -->
      <g transform="translate(457.3848 254.104312) scale(0.11 -0.11)">
       <use xlink:href="#HiraginoSans-W4-2212"/>
       <use xlink:href="#HiraginoSans-W4-32" x="66.399994"/>
      </g>
     </g>
    </g>
    <g id="xtick_12">
     <g id="line2d_39">
      <path d="M 501.282303 238.624 
L 501.282303 53.5965 
" clip-path="url(#p66520d584f)" style="fill: none; stroke: #b0b0b0; stroke-opacity: 0.25; stroke-width: 0.8; stroke-linecap: square"/>
     </g>
     <g id="line2d_40">
      <g>
       <use xlink:href="#mdc63961c8c" x="501.282303" y="238.624" style="stroke: #000000; stroke-width: 0.8"/>
      </g>
     </g>
     <g id="text_23">
      <!-- 0 -->
      <g transform="translate(497.580975 254.104312) scale(0.11 -0.11)">
       <use xlink:href="#HiraginoSans-W4-30"/>
      </g>
     </g>
    </g>
    <g id="xtick_13">
     <g id="line2d_41">
      <path d="M 537.826134 238.624 
L 537.826134 53.5965 
" clip-path="url(#p66520d584f)" style="fill: none; stroke: #b0b0b0; stroke-opacity: 0.25; stroke-width: 0.8; stroke-linecap: square"/>
     </g>
     <g id="line2d_42">
      <g>
       <use xlink:href="#mdc63961c8c" x="537.826134" y="238.624" style="stroke: #000000; stroke-width: 0.8"/>
      </g>
     </g>
     <g id="text_24">
      <!-- 2 -->
      <g transform="translate(534.124806 254.104312) scale(0.11 -0.11)">
       <use xlink:href="#HiraginoSans-W4-32"/>
      </g>
     </g>
    </g>
    <g id="xtick_14">
     <g id="line2d_43">
      <path d="M 574.369966 238.624 
L 574.369966 53.5965 
" clip-path="url(#p66520d584f)" style="fill: none; stroke: #b0b0b0; stroke-opacity: 0.25; stroke-width: 0.8; stroke-linecap: square"/>
     </g>
     <g id="line2d_44">
      <g>
       <use xlink:href="#mdc63961c8c" x="574.369966" y="238.624" style="stroke: #000000; stroke-width: 0.8"/>
      </g>
     </g>
     <g id="text_25">
      <!-- 4 -->
      <g transform="translate(570.657466 254.104312) scale(0.11 -0.11)">
       <use xlink:href="#HiraginoSans-W4-34"/>
      </g>
     </g>
    </g>
    <g id="xtick_15">
     <g id="line2d_45">
      <path d="M 610.913797 238.624 
L 610.913797 53.5965 
" clip-path="url(#p66520d584f)" style="fill: none; stroke: #b0b0b0; stroke-opacity: 0.25; stroke-width: 0.8; stroke-linecap: square"/>
     </g>
     <g id="line2d_46">
      <g>
       <use xlink:href="#mdc63961c8c" x="610.913797" y="238.624" style="stroke: #000000; stroke-width: 0.8"/>
      </g>
     </g>
     <g id="text_26">
      <!-- 6 -->
      <g transform="translate(607.212469 254.104312) scale(0.11 -0.11)">
       <use xlink:href="#HiraginoSans-W4-36"/>
      </g>
     </g>
    </g>
    <g id="xtick_16">
     <g id="line2d_47">
      <path d="M 647.457628 238.624 
L 647.457628 53.5965 
" clip-path="url(#p66520d584f)" style="fill: none; stroke: #b0b0b0; stroke-opacity: 0.25; stroke-width: 0.8; stroke-linecap: square"/>
     </g>
     <g id="line2d_48">
      <g>
       <use xlink:href="#mdc63961c8c" x="647.457628" y="238.624" style="stroke: #000000; stroke-width: 0.8"/>
      </g>
     </g>
     <g id="text_27">
      <!-- 8 -->
      <g transform="translate(643.7563 254.104312) scale(0.11 -0.11)">
       <use xlink:href="#HiraginoSans-W4-38"/>
      </g>
     </g>
    </g>
    <g id="text_28">
     <!-- x -->
     <g transform="translate(516.479375 268.839625) scale(0.11 -0.11)">
      <use xlink:href="#HiraginoSans-W4-78"/>
     </g>
    </g>
   </g>
   <g id="matplotlib.axis_4">
    <g id="ytick_6">
     <g id="line2d_49">
      <path d="M 378.860469 230.213659 
L 660.247969 230.213659 
" clip-path="url(#p66520d584f)" style="fill: none; stroke: #b0b0b0; stroke-opacity: 0.25; stroke-width: 0.8; stroke-linecap: square"/>
     </g>
     <g id="line2d_50">
      <g>
       <use xlink:href="#mb3b38a01bc" x="378.860469" y="230.213659" style="stroke: #000000; stroke-width: 0.8"/>
      </g>
     </g>
     <g id="text_29">
      <!-- 0.0 -->
      <g transform="translate(354.305156 234.453815) scale(0.11 -0.11)">
       <use xlink:href="#HiraginoSans-W4-30"/>
       <use xlink:href="#HiraginoSans-W4-2e" x="67.299988"/>
       <use xlink:href="#HiraginoSans-W4-30" x="92.299973"/>
      </g>
     </g>
    </g>
    <g id="ytick_7">
     <g id="line2d_51">
      <path d="M 378.860469 188.038945 
L 660.247969 188.038945 
" clip-path="url(#p66520d584f)" style="fill: none; stroke: #b0b0b0; stroke-opacity: 0.25; stroke-width: 0.8; stroke-linecap: square"/>
     </g>
     <g id="line2d_52">
      <g>
       <use xlink:href="#mb3b38a01bc" x="378.860469" y="188.038945" style="stroke: #000000; stroke-width: 0.8"/>
      </g>
     </g>
     <g id="text_30">
      <!-- 0.2 -->
      <g transform="translate(354.305156 192.279101) scale(0.11 -0.11)">
       <use xlink:href="#HiraginoSans-W4-30"/>
       <use xlink:href="#HiraginoSans-W4-2e" x="67.299988"/>
       <use xlink:href="#HiraginoSans-W4-32" x="92.299973"/>
      </g>
     </g>
    </g>
    <g id="ytick_8">
     <g id="line2d_53">
      <path d="M 378.860469 145.86423 
L 660.247969 145.86423 
" clip-path="url(#p66520d584f)" style="fill: none; stroke: #b0b0b0; stroke-opacity: 0.25; stroke-width: 0.8; stroke-linecap: square"/>
     </g>
     <g id="line2d_54">
      <g>
       <use xlink:href="#mb3b38a01bc" x="378.860469" y="145.86423" style="stroke: #000000; stroke-width: 0.8"/>
      </g>
     </g>
     <g id="text_31">
      <!-- 0.4 -->
      <g transform="translate(354.282812 150.104387) scale(0.11 -0.11)">
       <use xlink:href="#HiraginoSans-W4-30"/>
       <use xlink:href="#HiraginoSans-W4-2e" x="67.299988"/>
       <use xlink:href="#HiraginoSans-W4-34" x="92.299973"/>
      </g>
     </g>
    </g>
    <g id="ytick_9">
     <g id="line2d_55">
      <path d="M 378.860469 103.689516 
L 660.247969 103.689516 
" clip-path="url(#p66520d584f)" style="fill: none; stroke: #b0b0b0; stroke-opacity: 0.25; stroke-width: 0.8; stroke-linecap: square"/>
     </g>
     <g id="line2d_56">
      <g>
       <use xlink:href="#mb3b38a01bc" x="378.860469" y="103.689516" style="stroke: #000000; stroke-width: 0.8"/>
      </g>
     </g>
     <g id="text_32">
      <!-- 0.6 -->
      <g transform="translate(354.305156 107.929672) scale(0.11 -0.11)">
       <use xlink:href="#HiraginoSans-W4-30"/>
       <use xlink:href="#HiraginoSans-W4-2e" x="67.299988"/>
       <use xlink:href="#HiraginoSans-W4-36" x="92.299973"/>
      </g>
     </g>
    </g>
    <g id="ytick_10">
     <g id="line2d_57">
      <path d="M 378.860469 61.514802 
L 660.247969 61.514802 
" clip-path="url(#p66520d584f)" style="fill: none; stroke: #b0b0b0; stroke-opacity: 0.25; stroke-width: 0.8; stroke-linecap: square"/>
     </g>
     <g id="line2d_58">
      <g>
       <use xlink:href="#mb3b38a01bc" x="378.860469" y="61.514802" style="stroke: #000000; stroke-width: 0.8"/>
      </g>
     </g>
     <g id="text_33">
      <!-- 0.8 -->
      <g transform="translate(354.305156 65.754958) scale(0.11 -0.11)">
       <use xlink:href="#HiraginoSans-W4-30"/>
       <use xlink:href="#HiraginoSans-W4-2e" x="67.299988"/>
       <use xlink:href="#HiraginoSans-W4-38" x="92.299973"/>
      </g>
     </g>
    </g>
    <g id="text_34">
     <!-- 確率密度 -->
     <g transform="translate(348.027812 168.11025) rotate(-90) scale(0.11 -0.11)">
      <use xlink:href="#HiraginoSans-W4-78ba"/>
      <use xlink:href="#HiraginoSans-W4-7387" x="99.999985"/>
      <use xlink:href="#HiraginoSans-W4-5bc6" x="199.999969"/>
      <use xlink:href="#HiraginoSans-W4-5ea6" x="299.999954"/>
     </g>
    </g>
   </g>
   <g id="line2d_59">
    <path d="M 391.65081 230.213659 
L 484.322061 230.114452 
L 487.311456 229.881524 
L 489.446738 229.476291 
L 490.727908 229.054565 
L 492.009077 228.427122 
L 493.290247 227.513651 
L 494.571416 226.212577 
L 495.425529 225.069581 
L 496.279642 223.657616 
L 497.133755 221.9308 
L 497.987868 219.840217 
L 498.841981 217.335029 
L 500.12315 212.688069 
L 501.404319 206.828785 
L 502.685489 199.618212 
L 503.966658 190.963814 
L 505.247827 180.841914 
L 506.956053 165.193637 
L 509.091336 142.885085 
L 513.788957 92.337724 
L 515.070126 81.054153 
L 516.351295 71.989503 
L 517.205408 67.430589 
L 518.059521 64.197695 
L 518.486578 63.105858 
L 518.913634 62.373981 
L 519.340691 62.006841 
L 519.767747 62.006841 
L 520.194803 62.373981 
L 520.62186 63.105858 
L 521.048916 64.197695 
L 521.903029 67.430589 
L 522.757142 71.989503 
L 523.611255 77.759067 
L 524.892424 88.365104 
L 526.60065 105.249525 
L 530.017102 142.885085 
L 532.152384 165.193637 
L 533.86061 180.841914 
L 535.141779 190.963814 
L 536.422949 199.618212 
L 537.704118 206.828785 
L 538.985288 212.688069 
L 540.266457 217.335029 
L 541.547626 220.934128 
L 542.828796 223.657616 
L 544.109965 225.671975 
L 545.391134 227.128685 
L 546.672304 228.158973 
L 547.953473 228.871825 
L 549.234643 229.354425 
L 550.942868 229.75371 
L 553.078151 230.013163 
L 556.494602 230.166257 
L 564.608675 230.212778 
L 647.457628 230.213659 
L 647.457628 230.213659 
" clip-path="url(#p66520d584f)" style="fill: none; stroke: #1f77b4; stroke-width: 1.9; stroke-linecap: square"/>
   </g>
   <g id="line2d_60">
    <path d="M 391.65081 230.213659 
L 452.719883 230.109026 
L 459.12573 229.858928 
L 463.396295 229.465953 
L 466.38569 228.993834 
L 468.948029 228.397119 
L 471.510367 227.56118 
L 473.64565 226.631593 
L 475.780932 225.441837 
L 477.916214 223.943134 
L 479.62444 222.48811 
L 481.332666 220.778289 
L 483.040892 218.790329 
L 484.749117 216.503874 
L 486.457343 213.902952 
L 488.592626 210.194882 
L 490.727908 205.977081 
L 492.86319 201.268623 
L 495.425529 195.035869 
L 498.414924 187.1328 
L 507.38311 162.825532 
L 509.518392 157.865997 
L 511.226618 154.386098 
L 512.934844 151.430418 
L 514.216013 149.601993 
L 515.497182 148.135654 
L 516.778352 147.052499 
L 517.632465 146.551288 
L 518.486578 146.230763 
L 519.340691 146.09302 
L 520.194803 146.138959 
L 521.048916 146.368281 
L 521.903029 146.779484 
L 522.757142 147.369887 
L 524.038312 148.582794 
L 525.319481 150.172424 
L 526.60065 152.116001 
L 528.308876 155.210026 
L 530.017102 158.808308 
L 532.152384 163.88466 
L 534.714723 170.586822 
L 544.964078 198.225525 
L 547.526417 204.150675 
L 549.661699 208.568401 
L 551.796981 212.481142 
L 553.932264 215.883631 
L 556.067546 218.790329 
L 557.775772 220.778289 
L 559.483998 222.48811 
L 561.192223 223.943134 
L 563.327506 225.441837 
L 565.462788 226.631593 
L 567.59807 227.56118 
L 570.160409 228.397119 
L 572.722748 228.993834 
L 575.712143 229.465953 
L 579.555651 229.830526 
L 584.680329 230.067009 
L 592.794401 230.186366 
L 616.709563 230.213598 
L 647.457628 230.213659 
L 647.457628 230.213659 
" clip-path="url(#p66520d584f)" style="fill: none; stroke: #ff7f0e; stroke-width: 1.9; stroke-linecap: square"/>
   </g>
   <g id="line2d_61">
    <path d="M 391.65081 230.121646 
L 405.743673 229.884244 
L 414.711858 229.527235 
L 421.971818 229.023645 
L 427.950609 228.396169 
L 433.502343 227.584325 
L 438.199964 226.684122 
L 442.897585 225.553365 
L 447.168149 224.299283 
L 451.438714 222.809536 
L 455.709278 221.070267 
L 459.979843 219.075586 
L 464.250407 216.829786 
L 468.948029 214.089375 
L 474.072706 210.824958 
L 480.905609 206.168867 
L 492.436134 198.274302 
L 497.133755 195.366622 
L 500.977263 193.248915 
L 504.393715 191.618786 
L 507.38311 190.419895 
L 510.372505 189.457407 
L 513.3619 188.750033 
L 515.924239 188.357473 
L 518.486578 188.168415 
L 521.048916 188.185637 
L 523.611255 188.408886 
L 526.173594 188.834884 
L 529.162989 189.579674 
L 532.152384 190.577184 
L 535.141779 191.808068 
L 538.558231 193.470367 
L 542.401739 195.617935 
L 546.672304 198.274302 
L 552.224038 202.006833 
L 567.171014 212.215634 
L 572.295691 215.368052 
L 576.993312 217.983353 
L 581.263877 220.104848 
L 585.534441 221.971673 
L 589.805006 223.584893 
L 594.075571 224.954667 
L 598.346135 226.097981 
L 603.043756 227.119919 
L 608.168434 227.989978 
L 613.720168 228.692857 
L 620.126015 229.260352 
L 627.385974 229.672636 
L 636.781216 229.968529 
L 647.457628 230.121646 
L 647.457628 230.121646 
" clip-path="url(#p66520d584f)" style="fill: none; stroke: #2ca02c; stroke-width: 1.9; stroke-linecap: square"/>
   </g>
   <g id="patch_7">
    <path d="M 378.860469 238.624 
L 378.860469 53.5965 
" style="fill: none; stroke: #000000; stroke-width: 0.8; stroke-linejoin: miter; stroke-linecap: square"/>
   </g>
   <g id="patch_8">
    <path d="M 378.860469 238.624 
L 660.247969 238.624 
" style="fill: none; stroke: #000000; stroke-width: 0.8; stroke-linejoin: miter; stroke-linecap: square"/>
   </g>
   <g id="text_35">
    <!-- σ を変える → 山の幅が変わる（ばらつき） -->
    <g transform="translate(387.561438 47.5965) scale(0.132 -0.132)">
     <defs>
      <path id="HiraginoSans-W4-306e" d="M 3053 422 
C 3200 243 3245 160 3328 -96 
C 3821 6 4090 90 4397 237 
C 5293 666 5798 1459 5798 2451 
C 5798 3802 4832 4698 3379 4698 
C 2509 4698 1792 4403 1274 3834 
C 832 3347 589 2707 589 2042 
C 589 1107 1062 422 1709 422 
C 2189 422 2573 806 2938 1645 
C 3238 2323 3469 3264 3578 4205 
C 3891 4186 4070 4141 4294 4032 
C 4902 3738 5242 3174 5242 2477 
C 5242 1734 4870 1107 4230 768 
C 3917 602 3610 512 3053 422 
z
M 3027 4192 
C 2944 3398 2714 2483 2458 1888 
C 2195 1286 1952 992 1702 992 
C 1370 992 1114 1453 1114 2035 
C 1114 2797 1491 3501 2112 3891 
C 2394 4077 2656 4160 3027 4192 
z
" transform="scale(0.015625)"/>
      <path id="HiraginoSans-W4-5e45" d="M 1638 3757 
L 2042 3757 
L 2042 1485 
C 2042 1427 2016 1408 1946 1408 
C 1882 1408 1869 1408 1728 1440 
C 1779 1286 1798 1184 1805 979 
C 1888 966 1926 966 1965 966 
C 2349 966 2458 1062 2458 1408 
L 2458 3635 
C 2458 3962 2458 4096 2477 4218 
C 2336 4198 2214 4192 1990 4192 
L 1638 4192 
L 1638 4698 
C 1638 5024 1645 5158 1677 5325 
L 1152 5325 
C 1178 5165 1190 4998 1190 4698 
L 1190 4192 
L 896 4192 
C 653 4192 512 4198 352 4218 
C 371 4026 378 3885 378 3610 
L 378 1530 
C 378 1299 365 1005 346 826 
L 819 826 
C 800 998 800 1101 800 1510 
L 800 3757 
L 1190 3757 
L 1190 154 
C 1190 -186 1178 -339 1152 -499 
L 1677 -499 
C 1645 -339 1638 -186 1638 154 
L 1638 3757 
z
M 2611 4659 
C 2778 4685 2944 4691 3213 4691 
L 5402 4691 
C 5702 4691 5843 4685 6029 4653 
L 6029 5152 
C 5862 5120 5696 5114 5402 5114 
L 3213 5114 
C 2938 5114 2771 5126 2611 5152 
L 2611 4659 
z
M 2989 3405 
C 2989 3168 2982 3046 2963 2867 
C 3149 2886 3315 2893 3584 2893 
L 5088 2893 
C 5357 2893 5517 2886 5696 2867 
C 5677 3027 5670 3168 5670 3411 
L 5670 3763 
C 5670 4000 5677 4134 5696 4301 
C 5549 4282 5363 4275 5114 4275 
L 3571 4275 
C 3296 4275 3130 4282 2963 4301 
C 2982 4115 2989 4000 2989 3757 
L 2989 3405 
z
M 3450 3885 
L 5203 3885 
L 5203 3283 
L 3450 3283 
L 3450 3885 
z
M 2752 237 
C 2752 -77 2739 -294 2720 -480 
L 3194 -480 
L 3194 -186 
L 5510 -186 
L 5510 -486 
L 6010 -486 
C 5984 -294 5971 -45 5971 250 
L 5971 1875 
C 5971 2131 5978 2336 5997 2502 
C 5818 2483 5670 2477 5357 2477 
L 3373 2477 
C 3066 2477 2906 2483 2726 2502 
C 2746 2304 2752 2138 2752 1869 
L 2752 237 
z
M 3194 2067 
L 4128 2067 
L 4128 1376 
L 3194 1376 
L 3194 2067 
z
M 4557 2067 
L 5530 2067 
L 5530 1376 
L 4557 1376 
L 4557 2067 
z
M 3194 966 
L 4128 966 
L 4128 224 
L 3194 224 
L 3194 966 
z
M 4557 966 
L 5530 966 
L 5530 224 
L 4557 224 
L 4557 966 
z
" transform="scale(0.015625)"/>
      <path id="HiraginoSans-W4-308f" d="M 717 909 
C 794 1030 1030 1280 1267 1504 
C 1485 1709 1536 1760 1587 1843 
L 1594 1843 
C 1587 1747 1581 1683 1581 1434 
C 1574 -77 1574 -77 1542 -288 
L 2144 -288 
C 2112 -26 2099 538 2099 1542 
C 2099 1843 2099 1920 2099 2253 
C 2886 2970 3514 3302 4083 3302 
C 4806 3302 5286 2816 5286 2093 
C 5286 1805 5229 1562 5107 1338 
C 4877 909 4403 640 3866 640 
C 3482 640 3091 723 2733 883 
C 2778 672 2797 563 2797 454 
C 2797 416 2797 365 2797 301 
C 3168 186 3501 128 3853 128 
C 4429 128 4941 314 5280 646 
C 5626 979 5843 1517 5843 2042 
C 5843 2560 5702 2957 5402 3277 
C 5075 3622 4634 3802 4096 3802 
C 3488 3802 2982 3597 2342 3078 
C 2208 2970 2157 2925 2106 2867 
L 2093 2867 
C 2106 2925 2112 2982 2112 3027 
C 2118 3354 2118 3354 2125 3456 
C 2355 3763 2387 3795 2470 3872 
L 2285 4096 
C 2240 4070 2227 4070 2157 4064 
L 2176 4544 
C 2189 4909 2195 4979 2234 5146 
L 1638 5146 
C 1651 5037 1651 4992 1651 4877 
C 1651 4576 1645 4384 1632 4019 
C 1261 3994 864 3968 762 3968 
C 704 3968 666 3968 570 3981 
L 608 3456 
C 768 3488 909 3507 1312 3533 
C 1517 3546 1517 3546 1619 3552 
C 1600 3014 1600 2976 1594 2483 
C 595 1562 563 1536 422 1440 
L 717 909 
z
" transform="scale(0.015625)"/>
      <path id="HiraginoSans-W4-3070" d="M 4109 3686 
C 3898 3674 3750 3667 3501 3667 
C 2906 3667 2618 3693 2298 3770 
L 2291 3245 
L 2688 3219 
C 2918 3206 3155 3200 3411 3200 
C 3648 3200 3808 3200 4115 3219 
C 4147 2176 4160 1773 4179 1632 
C 4013 1709 3770 1747 3514 1747 
C 2784 1747 2266 1350 2266 794 
C 2266 211 2739 -154 3501 -154 
C 4051 -154 4467 45 4621 384 
C 4672 499 4698 640 4698 826 
C 4698 883 4698 909 4691 960 
C 4749 922 4781 902 4819 877 
C 5280 595 5286 595 5485 422 
C 5568 358 5613 314 5677 243 
L 5907 781 
C 5830 826 5811 838 5741 890 
C 5344 1178 5139 1299 4691 1504 
C 4627 2592 4627 2662 4621 3258 
C 5011 3296 5293 3347 5632 3424 
C 5683 3437 5696 3437 5734 3443 
L 5709 3955 
C 5523 3872 5094 3782 4621 3725 
L 4621 4083 
C 4621 4563 4634 4851 4659 5018 
L 4090 5018 
L 4102 4736 
L 4109 3686 
z
M 4192 973 
C 4192 762 4160 621 4083 531 
C 3968 397 3738 314 3482 314 
C 3059 314 2778 506 2778 794 
C 2778 1094 3072 1286 3533 1286 
C 3776 1286 3936 1254 4192 1158 
L 4192 973 
z
M 1242 813 
L 1222 1882 
C 1222 2938 1446 4320 1722 4941 
L 1114 5024 
C 1114 4934 1101 4858 1043 4595 
C 800 3469 723 2835 723 1978 
C 723 1299 774 736 902 26 
C 934 -154 934 -166 934 -211 
L 1491 -160 
C 1478 -83 1478 -58 1478 -19 
C 1478 365 1754 1242 2054 1830 
L 1651 2010 
L 1594 1856 
C 1421 1408 1376 1280 1261 813 
L 1242 813 
z
M 4826 5280 
C 5018 4960 5120 4710 5267 4230 
L 5638 4346 
C 5498 4800 5408 5005 5197 5382 
L 4826 5280 
z
M 5581 5472 
C 5760 5165 5894 4864 6029 4442 
L 6387 4563 
C 6259 4966 6144 5229 5933 5587 
L 5581 5472 
z
" transform="scale(0.015625)"/>
      <path id="HiraginoSans-W4-3089" d="M 1978 4627 
C 2541 4365 2541 4365 2989 4211 
C 3379 4083 3635 4006 4282 3846 
L 4486 4371 
C 3795 4480 2707 4826 2253 5082 
L 1978 4627 
z
M 1453 3968 
C 1446 3846 1440 3789 1408 3616 
C 1293 2893 1203 2310 1139 1824 
C 1114 1606 1107 1562 1088 1446 
L 1677 1427 
C 1773 1555 1830 1613 1939 1696 
C 2406 2029 3040 2227 3674 2227 
C 4422 2227 4870 1933 4870 1440 
C 4870 819 4205 403 3213 403 
C 2662 403 2067 518 1542 723 
C 1587 506 1600 416 1600 275 
L 1600 205 
C 1600 173 1600 147 1600 122 
C 2355 -70 2662 -115 3226 -115 
C 3910 -115 4429 19 4838 307 
C 5216 570 5446 1005 5446 1446 
C 5446 2208 4768 2714 3750 2714 
C 3040 2714 2342 2522 1907 2202 
C 1811 2131 1773 2099 1683 2003 
L 1677 2010 
C 1690 2067 1696 2080 1709 2157 
C 1824 2995 1946 3642 2029 3930 
L 1453 3968 
z
" transform="scale(0.015625)"/>
      <path id="HiraginoSans-W4-3064" d="M 659 3110 
C 787 3168 851 3187 1139 3270 
C 2234 3578 3066 3725 3738 3725 
C 4589 3725 5107 3302 5107 2605 
C 5107 1894 4608 1325 3712 1018 
C 3219 851 2669 762 1958 742 
C 2086 518 2125 429 2189 166 
C 3226 262 3757 384 4346 672 
C 5216 1094 5702 1786 5702 2605 
C 5702 3629 4941 4262 3718 4262 
C 3181 4262 2618 4192 1882 4032 
C 698 3763 698 3763 518 3757 
L 659 3110 
z
" transform="scale(0.015625)"/>
      <path id="HiraginoSans-W4-304d" d="M 960 3725 
C 1082 3738 1101 3738 1370 3738 
C 2086 3750 2547 3776 3098 3846 
C 3283 3443 3283 3443 3424 3181 
C 2957 3098 2099 3034 1466 3034 
C 1184 3034 1062 3040 915 3059 
L 928 2541 
C 1056 2560 1088 2560 1395 2566 
C 2502 2605 3085 2650 3642 2752 
C 3878 2342 4102 2022 4269 1843 
C 3878 1965 3520 2016 3034 2016 
C 2400 2016 1907 1914 1574 1709 
C 1235 1504 1050 1210 1050 883 
C 1050 544 1229 243 1536 64 
C 1869 -134 2291 -218 2925 -218 
C 3494 -218 4032 -141 4563 13 
C 4851 96 4851 96 4960 122 
L 4858 698 
C 4474 467 3610 275 2938 275 
C 2093 275 1626 493 1626 890 
C 1626 1306 2189 1568 3091 1568 
C 3795 1568 4230 1485 4621 1280 
L 5050 1587 
C 4608 2099 4499 2240 4141 2829 
C 4416 2886 4531 2906 4627 2931 
C 5325 3104 5325 3104 5466 3130 
L 5408 3648 
C 5152 3526 4774 3430 3936 3258 
C 3840 3424 3712 3680 3603 3917 
C 3930 3968 4710 4134 5197 4262 
L 5152 4762 
C 4762 4602 4109 4448 3437 4346 
C 3264 4736 3162 5024 3123 5210 
L 2554 5120 
C 2605 5030 2784 4621 2918 4282 
C 2445 4224 1990 4198 1459 4198 
C 1222 4198 1101 4205 941 4218 
L 960 3725 
z
" transform="scale(0.015625)"/>
     </defs>
     <use xlink:href="#HiraginoSans-W4-3c3"/>
     <use xlink:href="#HiraginoSans-W4-20" x="99.999985"/>
     <use xlink:href="#HiraginoSans-W4-3092" x="133.299973"/>
     <use xlink:href="#HiraginoSans-W4-5909" x="233.299957"/>
     <use xlink:href="#HiraginoSans-W4-3048" x="333.299942"/>
     <use xlink:href="#HiraginoSans-W4-308b" x="433.299927"/>
     <use xlink:href="#HiraginoSans-W4-20" x="533.299911"/>
     <use xlink:href="#HiraginoSans-W4-2192" x="566.599899"/>
     <use xlink:href="#HiraginoSans-W4-20" x="666.599884"/>
     <use xlink:href="#HiraginoSans-W4-5c71" x="699.899872"/>
     <use xlink:href="#HiraginoSans-W4-306e" x="799.899857"/>
     <use xlink:href="#HiraginoSans-W4-5e45" x="899.899841"/>
     <use xlink:href="#HiraginoSans-W4-304c" x="999.899826"/>
     <use xlink:href="#HiraginoSans-W4-5909" x="1099.899811"/>
     <use xlink:href="#HiraginoSans-W4-308f" x="1199.899796"/>
     <use xlink:href="#HiraginoSans-W4-308b" x="1299.89978"/>
     <use xlink:href="#HiraginoSans-W4-ff08" x="1399.899765"/>
     <use xlink:href="#HiraginoSans-W4-3070" x="1499.89975"/>
     <use xlink:href="#HiraginoSans-W4-3089" x="1599.899734"/>
     <use xlink:href="#HiraginoSans-W4-3064" x="1699.899719"/>
     <use xlink:href="#HiraginoSans-W4-304d" x="1799.899704"/>
     <use xlink:href="#HiraginoSans-W4-ff09" x="1899.899689"/>
    </g>
   </g>
   <g id="legend_2">
    <g id="patch_9">
     <path d="M 569.527969 100.646812 
L 653.947969 100.646812 
Q 655.747969 100.646812 655.747969 98.846812 
L 655.747969 59.8965 
Q 655.747969 58.0965 653.947969 58.0965 
L 569.527969 58.0965 
Q 567.727969 58.0965 567.727969 59.8965 
L 567.727969 98.846812 
Q 567.727969 100.646812 569.527969 100.646812 
z
" style="fill: #ffffff; opacity: 0.8; stroke: #cccccc; stroke-linejoin: miter"/>
    </g>
    <g id="line2d_62">
     <path d="M 571.327969 65.484937 
L 580.327969 65.484937 
L 589.327969 65.484937 
" style="fill: none; stroke: #1f77b4; stroke-width: 1.9; stroke-linecap: square"/>
    </g>
    <g id="text_36">
     <!-- μ=1, σ=0.5 -->
     <g transform="translate(596.527969 68.634937) scale(0.09 -0.09)">
      <defs>
       <path id="HiraginoSans-W4-35" d="M 1331 4416 
L 2835 4416 
C 3155 4416 3366 4403 3622 4365 
L 3622 4986 
C 3360 4947 3206 4934 2829 4934 
L 1446 4934 
C 1082 4934 954 4941 762 4966 
C 774 4768 774 4762 774 4742 
C 774 4563 774 4518 749 4307 
L 608 2822 
C 589 2566 570 2445 518 2157 
L 1088 2106 
C 1146 2240 1178 2291 1261 2374 
C 1485 2605 1811 2739 2131 2739 
C 2842 2739 3264 2317 3264 1613 
C 3264 902 2803 435 2106 435 
C 1747 435 1440 563 1235 794 
C 1146 902 1101 986 1037 1171 
L 410 1005 
C 557 685 646 544 813 378 
C 1133 64 1562 -96 2099 -96 
C 3194 -96 3885 576 3885 1638 
C 3885 2605 3245 3238 2272 3238 
C 1830 3238 1472 3098 1158 2803 
C 1197 2982 1197 2982 1203 3091 
L 1331 4416 
z
" transform="scale(0.015625)"/>
      </defs>
      <use xlink:href="#HiraginoSans-W4-3bc"/>
      <use xlink:href="#HiraginoSans-W4-3d" x="99.999985"/>
      <use xlink:href="#HiraginoSans-W4-31" x="166.399979"/>
      <use xlink:href="#HiraginoSans-W4-2c" x="233.699966"/>
      <use xlink:href="#HiraginoSans-W4-20" x="258.699951"/>
      <use xlink:href="#HiraginoSans-W4-3c3" x="291.999939"/>
      <use xlink:href="#HiraginoSans-W4-3d" x="391.999924"/>
      <use xlink:href="#HiraginoSans-W4-30" x="458.399918"/>
      <use xlink:href="#HiraginoSans-W4-2e" x="525.699905"/>
      <use xlink:href="#HiraginoSans-W4-35" x="550.69989"/>
     </g>
    </g>
    <g id="line2d_63">
     <path d="M 571.327969 78.768375 
L 580.327969 78.768375 
L 589.327969 78.768375 
" style="fill: none; stroke: #ff7f0e; stroke-width: 1.9; stroke-linecap: square"/>
    </g>
    <g id="text_37">
     <!-- μ=1, σ=1 -->
     <g transform="translate(596.527969 81.918375) scale(0.09 -0.09)">
      <use xlink:href="#HiraginoSans-W4-3bc"/>
      <use xlink:href="#HiraginoSans-W4-3d" x="99.999985"/>
      <use xlink:href="#HiraginoSans-W4-31" x="166.399979"/>
      <use xlink:href="#HiraginoSans-W4-2c" x="233.699966"/>
      <use xlink:href="#HiraginoSans-W4-20" x="258.699951"/>
      <use xlink:href="#HiraginoSans-W4-3c3" x="291.999939"/>
      <use xlink:href="#HiraginoSans-W4-3d" x="391.999924"/>
      <use xlink:href="#HiraginoSans-W4-31" x="458.399918"/>
     </g>
    </g>
    <g id="line2d_64">
     <path d="M 571.327969 92.051812 
L 580.327969 92.051812 
L 589.327969 92.051812 
" style="fill: none; stroke: #2ca02c; stroke-width: 1.9; stroke-linecap: square"/>
    </g>
    <g id="text_38">
     <!-- μ=1, σ=2 -->
     <g transform="translate(596.527969 95.201812) scale(0.09 -0.09)">
      <use xlink:href="#HiraginoSans-W4-3bc"/>
      <use xlink:href="#HiraginoSans-W4-3d" x="99.999985"/>
      <use xlink:href="#HiraginoSans-W4-31" x="166.399979"/>
      <use xlink:href="#HiraginoSans-W4-2c" x="233.699966"/>
      <use xlink:href="#HiraginoSans-W4-20" x="258.699951"/>
      <use xlink:href="#HiraginoSans-W4-3c3" x="291.999939"/>
      <use xlink:href="#HiraginoSans-W4-3d" x="391.999924"/>
      <use xlink:href="#HiraginoSans-W4-32" x="458.399918"/>
     </g>
    </g>
   </g>
  </g>
  <g id="text_39">
   <!-- §4.1 ガウス分布のパラメータは2つだけ: μ=山の位置, σ=山の幅 -->
   <g transform="translate(166.464297 16.857656) scale(0.11 -0.11)">
    <defs>
     <path id="HiraginoSans-W4-a7" d="M 557 -147 
C 627 -480 685 -634 819 -819 
C 1082 -1190 1536 -1395 2080 -1395 
C 2957 -1395 3552 -902 3552 -186 
C 3552 45 3488 250 3373 416 
C 3296 525 3226 589 3053 704 
C 3277 800 3373 858 3488 966 
C 3674 1152 3770 1389 3770 1677 
C 3770 2074 3597 2387 3258 2598 
C 3066 2720 2893 2803 2189 3117 
C 1670 3347 1517 3437 1389 3571 
C 1306 3667 1254 3802 1254 3936 
C 1254 4301 1626 4570 2118 4570 
C 2432 4570 2682 4467 2822 4282 
C 2918 4160 2963 4032 3008 3789 
L 3565 3898 
C 3501 4224 3424 4397 3270 4582 
C 3027 4870 2630 5024 2125 5024 
C 1293 5024 710 4563 710 3898 
C 710 3686 774 3482 890 3334 
C 954 3245 1018 3187 1178 3072 
C 672 2822 448 2509 448 2061 
C 448 1779 550 1530 755 1338 
C 928 1171 1126 1062 1715 800 
C 2387 506 2490 454 2675 339 
C 2899 198 2995 32 2995 -198 
C 2995 -621 2630 -915 2106 -915 
C 1754 -915 1453 -768 1299 -518 
C 1222 -397 1184 -275 1152 -38 
L 557 -147 
z
M 2611 960 
C 1997 1235 1664 1389 1491 1478 
C 1139 1670 998 1850 998 2125 
C 998 2426 1158 2611 1594 2822 
C 1914 2669 1933 2656 2112 2573 
C 2650 2317 2816 2234 2950 2138 
C 3155 1990 3238 1850 3238 1638 
C 3238 1338 3066 1152 2611 960 
z
" transform="scale(0.015625)"/>
     <path id="HiraginoSans-W4-30ac" d="M 1466 3846 
C 1414 3846 1363 3846 1318 3846 
C 1088 3846 960 3859 768 3891 
L 781 3322 
C 998 3347 1069 3354 1459 3354 
L 2592 3354 
C 2502 2650 2426 2330 2208 1894 
C 1856 1184 1312 640 544 230 
C 736 64 794 -6 941 -230 
C 1690 224 2278 826 2630 1485 
C 2918 2029 3053 2528 3142 3360 
L 4851 3366 
C 4845 2490 4787 1638 4698 1152 
C 4582 538 4480 390 4179 390 
C 3968 390 3706 442 3347 550 
C 3424 326 3437 256 3437 -19 
C 3789 -90 4019 -122 4237 -122 
C 4864 -122 5069 122 5229 1062 
C 5306 1498 5376 2470 5402 3270 
C 5402 3494 5414 3565 5453 3667 
L 5184 3904 
C 5050 3859 5018 3859 4736 3859 
L 3187 3853 
C 3200 4058 3206 4134 3213 4294 
C 3245 4941 3245 4966 3270 5107 
L 2656 5120 
C 2675 5005 2675 4928 2675 4781 
C 2675 4518 2662 4160 2637 3846 
L 1466 3846 
z
M 4614 5082 
C 4877 4787 5082 4467 5280 4070 
L 5658 4282 
C 5434 4698 5286 4915 4986 5274 
L 4614 5082 
z
M 5357 5427 
C 5638 5094 5830 4806 6016 4435 
L 6387 4646 
C 6157 5069 6016 5267 5715 5619 
L 5357 5427 
z
" transform="scale(0.015625)"/>
     <path id="HiraginoSans-W4-30a6" d="M 3462 4122 
L 3462 4678 
C 3462 4877 3475 5037 3501 5165 
L 2854 5165 
C 2880 5011 2886 4909 2886 4672 
L 2886 4122 
L 1555 4122 
C 1267 4122 1133 4128 941 4147 
C 954 3987 960 3827 960 3603 
L 960 2784 
C 960 2554 954 2381 934 2227 
L 1555 2227 
C 1542 2362 1536 2554 1536 2771 
L 1536 3622 
L 4928 3622 
C 4800 2349 4333 1504 3430 902 
C 3008 621 2637 461 2029 307 
C 2227 90 2278 13 2381 -224 
C 4205 390 5190 1472 5466 3187 
C 5555 3770 5555 3770 5613 3878 
L 5318 4166 
C 5197 4122 5158 4122 4755 4122 
L 3462 4122 
z
" transform="scale(0.015625)"/>
     <path id="HiraginoSans-W4-30b9" d="M 5830 378 
C 5094 1139 4512 1658 3706 2259 
C 4122 2810 4410 3302 4736 4038 
C 4800 4192 4851 4275 4922 4358 
L 4608 4678 
C 4486 4634 4416 4627 4154 4621 
L 1939 4595 
C 1882 4595 1824 4595 1798 4595 
C 1517 4595 1389 4602 1190 4634 
L 1210 4026 
C 1440 4058 1600 4070 1946 4077 
C 4045 4109 4045 4109 4122 4115 
C 4115 4090 4109 4083 4102 4064 
C 4083 4032 4083 4026 4064 3981 
C 3763 3245 3245 2483 2643 1882 
C 1997 1229 1350 794 525 448 
C 717 256 774 173 896 -58 
C 1370 179 1702 384 2144 704 
C 2605 1043 2938 1350 3360 1830 
C 4109 1248 4883 499 5376 -122 
L 5830 378 
z
" transform="scale(0.015625)"/>
     <path id="HiraginoSans-W4-5206" d="M 2458 2598 
C 2413 2054 2323 1722 2112 1331 
C 1811 762 1274 301 518 -32 
C 685 -198 755 -294 851 -467 
C 2003 115 2630 870 2880 1952 
C 2925 2163 2944 2272 2970 2598 
L 4390 2598 
C 4390 1715 4333 954 4243 538 
C 4173 205 4128 166 3853 166 
C 3622 166 3328 198 2982 269 
C 3059 51 3085 -70 3110 -269 
C 3488 -301 3706 -314 3898 -314 
C 4326 -314 4499 -243 4614 -26 
C 4781 288 4890 1299 4902 2618 
C 4902 2925 4902 2963 4922 3085 
C 4736 3059 4544 3053 4250 3053 
L 2067 3053 
C 1824 3053 1619 3066 1440 3085 
L 1440 2560 
C 1619 2586 1824 2598 2067 2598 
L 2458 2598 
z
M 2189 5299 
C 2157 5114 2080 4922 1926 4634 
C 1517 3885 973 3296 192 2771 
C 358 2624 467 2496 557 2342 
C 1446 3002 2099 3795 2573 4774 
C 2656 4954 2694 5018 2752 5101 
L 2189 5299 
z
M 3629 5082 
C 3667 5018 3718 4922 3770 4819 
C 4294 3763 4909 3034 5882 2317 
C 6003 2528 6099 2656 6234 2790 
C 5389 3341 4838 3923 4384 4742 
C 4243 4986 4186 5114 4134 5286 
L 3629 5082 
z
" transform="scale(0.015625)"/>
     <path id="HiraginoSans-W4-5e03" d="M 3213 2304 
L 3213 218 
C 3213 -109 3200 -352 3168 -525 
L 3750 -525 
C 3718 -358 3706 -115 3706 218 
L 3706 2304 
L 5050 2304 
L 5050 755 
C 5050 589 4979 544 4730 544 
C 4557 544 4339 570 4064 614 
C 4154 422 4186 314 4211 115 
C 4480 90 4550 90 4730 90 
C 5363 90 5542 211 5542 659 
L 5542 2240 
C 5542 2458 5549 2611 5568 2771 
C 5370 2746 5197 2739 4966 2739 
L 3706 2739 
L 3706 2842 
C 3706 3194 3712 3366 3744 3539 
L 3174 3539 
C 3206 3360 3213 3181 3213 2842 
L 3213 2739 
L 2003 2739 
C 2285 3104 2541 3526 2726 3904 
L 5318 3904 
C 5658 3904 5869 3891 6054 3866 
L 6054 4397 
C 5882 4371 5670 4358 5318 4358 
L 2918 4358 
C 2995 4563 3078 4800 3123 4954 
C 3181 5139 3194 5178 3245 5280 
L 2669 5363 
C 2637 5056 2560 4755 2406 4358 
L 1088 4358 
C 717 4358 512 4371 333 4397 
L 333 3866 
C 550 3891 768 3904 1088 3904 
L 2208 3904 
C 1747 2989 1094 2278 224 1734 
C 339 1613 448 1453 525 1293 
C 1018 1677 1197 1830 1504 2157 
L 1504 659 
C 1504 365 1491 166 1466 -32 
L 2029 -32 
C 2003 141 1997 314 1997 659 
L 1997 2304 
L 3213 2304 
z
" transform="scale(0.015625)"/>
     <path id="HiraginoSans-W4-30d1" d="M 1920 4698 
C 1914 3981 1722 3040 1440 2304 
C 1133 1498 813 986 294 480 
C 518 352 582 301 794 83 
C 1709 1088 2195 2266 2470 4128 
C 2515 4448 2528 4499 2554 4582 
L 1920 4698 
z
M 3776 4582 
C 3808 4480 3827 4384 3859 4147 
C 3981 3322 4218 2483 4512 1798 
C 4826 1088 5152 557 5587 70 
C 5773 288 5850 352 6074 499 
C 5402 1171 4941 2022 4621 3174 
C 4467 3738 4352 4352 4339 4698 
L 3776 4582 
z
M 5581 5158 
C 5178 5158 4851 4832 4851 4429 
C 4851 4026 5178 3699 5581 3699 
C 5984 3699 6310 4026 6310 4429 
C 6310 4832 5984 5158 5581 5158 
z
M 5581 4877 
C 5824 4877 6029 4672 6029 4429 
C 6029 4186 5824 3981 5581 3981 
C 5338 3981 5133 4186 5133 4429 
C 5133 4672 5338 4877 5581 4877 
z
" transform="scale(0.015625)"/>
     <path id="HiraginoSans-W4-30e9" d="M 1395 4314 
C 1619 4339 1786 4346 2125 4346 
L 4218 4346 
C 4570 4346 4736 4339 4947 4314 
L 4947 4890 
C 4717 4851 4582 4845 4211 4845 
L 2131 4845 
C 1728 4845 1619 4851 1395 4890 
L 1395 4314 
z
M 845 2816 
C 1062 2842 1229 2848 1651 2848 
L 4883 2848 
C 4589 2074 4314 1632 3840 1216 
C 3354 774 2803 499 1984 282 
C 2176 58 2227 -19 2323 -243 
C 3027 6 3443 211 3891 531 
C 4595 1043 5088 1722 5434 2675 
C 5523 2925 5549 2982 5613 3078 
L 5338 3398 
C 5203 3354 5114 3347 4832 3347 
L 1658 3347 
C 1261 3347 1094 3354 845 3392 
L 845 2816 
z
" transform="scale(0.015625)"/>
     <path id="HiraginoSans-W4-30e1" d="M 4397 5018 
C 4365 4832 4326 4717 4173 4339 
C 3955 3802 3725 3341 3437 2880 
C 2426 3597 2426 3597 1792 3974 
L 1408 3571 
C 1952 3270 2547 2874 3123 2419 
C 2419 1485 1626 832 595 326 
C 794 160 858 83 992 -141 
C 1632 218 2029 493 2477 890 
C 2893 1261 3258 1651 3552 2054 
C 4166 1530 4582 1114 4915 678 
L 5350 1146 
C 4826 1702 4454 2054 3891 2522 
C 4192 2970 4429 3437 4819 4378 
C 4915 4602 4947 4666 5024 4787 
L 4397 5018 
z
" transform="scale(0.015625)"/>
     <path id="HiraginoSans-W4-30fc" d="M 531 2131 
C 755 2157 915 2163 1421 2163 
L 5005 2163 
C 5446 2163 5632 2157 5875 2131 
L 5875 2765 
C 5651 2733 5523 2726 5011 2726 
L 1414 2726 
C 973 2726 736 2739 531 2765 
L 531 2131 
z
" transform="scale(0.015625)"/>
     <path id="HiraginoSans-W4-30bf" d="M 2650 5299 
C 2592 5069 2470 4787 2272 4422 
C 1862 3693 1344 3110 646 2598 
C 864 2470 941 2413 1094 2234 
C 1728 2746 2176 3245 2611 3930 
L 4774 3955 
C 4563 3309 4288 2746 3942 2208 
C 3424 2630 3098 2854 2560 3162 
L 2208 2771 
C 2707 2496 3149 2176 3610 1766 
C 3290 1376 3008 1120 2522 787 
C 2099 506 1760 326 1216 109 
C 1395 -51 1459 -128 1594 -365 
C 2938 262 3802 973 4448 1984 
C 4736 2438 5069 3130 5299 3750 
C 5402 4045 5414 4064 5485 4173 
L 5158 4499 
C 5043 4454 4922 4435 4736 4435 
C 2944 4416 2944 4416 2848 4397 
C 2899 4486 2963 4595 3034 4736 
C 3174 5030 3174 5030 3245 5146 
L 2650 5299 
z
" transform="scale(0.015625)"/>
     <path id="HiraginoSans-W4-306f" d="M 2381 3270 
C 2394 3277 2400 3277 2406 3277 
C 2419 3277 2438 3277 2470 3270 
C 2483 3270 2522 3270 2586 3264 
C 2605 3264 2675 3258 2778 3251 
C 3008 3232 3245 3226 3501 3226 
C 3738 3226 3898 3232 4205 3245 
C 4237 2208 4250 1805 4269 1664 
C 4102 1734 3859 1779 3603 1779 
C 2874 1779 2355 1382 2355 826 
C 2355 243 2829 -122 3590 -122 
C 4141 -122 4557 77 4710 416 
C 4762 531 4787 672 4787 858 
C 4787 909 4787 934 4781 992 
C 4813 973 4813 966 4838 954 
C 4890 922 4902 915 4909 909 
C 5370 627 5376 621 5574 454 
C 5658 384 5702 339 5766 269 
L 5997 813 
C 5920 851 5901 864 5830 922 
C 5434 1210 5229 1331 4781 1536 
C 4717 2618 4717 2694 4710 3283 
C 5101 3328 5382 3373 5722 3450 
C 5773 3462 5786 3462 5824 3469 
L 5798 3981 
C 5613 3898 5184 3808 4710 3750 
C 4710 3910 4710 4026 4710 4109 
C 4710 4589 4723 4883 4749 5043 
L 4179 5043 
C 4186 4979 4192 4883 4192 4768 
C 4198 4326 4198 4326 4198 3712 
C 3987 3706 3840 3699 3590 3699 
C 2995 3699 2707 3725 2387 3795 
L 2381 3270 
z
M 4282 1190 
C 4282 1184 4282 1043 4282 1005 
C 4282 787 4243 646 4173 557 
C 4058 429 3827 346 3565 346 
C 3149 346 2867 538 2867 826 
C 2867 1126 3168 1318 3629 1318 
C 3866 1318 4026 1286 4282 1190 
z
M 1331 845 
C 1331 922 1331 934 1331 998 
C 1331 1101 1331 1101 1325 1158 
C 1318 1453 1312 1766 1312 1914 
C 1312 2963 1536 4352 1811 4973 
L 1203 5056 
C 1203 4966 1190 4883 1133 4627 
C 890 3501 813 2867 813 2003 
C 813 1331 864 762 992 58 
C 1024 -122 1024 -134 1024 -179 
L 1581 -134 
C 1568 -58 1568 -26 1568 6 
C 1568 397 1843 1267 2144 1862 
L 1741 2042 
C 1722 1984 1715 1965 1683 1888 
C 1510 1440 1466 1306 1350 838 
L 1331 845 
z
" transform="scale(0.015625)"/>
     <path id="HiraginoSans-W4-3060" d="M 621 3526 
C 672 3533 730 3533 781 3533 
C 954 3520 1126 3520 1178 3520 
L 1709 3526 
C 1459 2221 992 838 525 13 
L 1088 -218 
C 1434 602 1613 1101 1818 1779 
C 1997 2368 2163 3066 2253 3552 
C 2586 3571 3008 3629 3322 3693 
C 3456 3725 3456 3725 3507 3731 
L 3482 4256 
C 3168 4154 2829 4090 2342 4045 
C 2374 4205 2387 4282 2426 4499 
C 2502 4954 2502 4954 2541 5101 
L 1939 5165 
L 1939 5082 
C 1939 4883 1888 4512 1798 4013 
C 1626 4006 1549 4000 1446 4000 
C 1094 4000 838 4019 627 4058 
L 621 3526 
z
M 4179 4864 
C 4442 4570 4646 4250 4845 3853 
L 5222 4064 
C 4998 4480 4851 4698 4550 5056 
L 4179 4864 
z
M 5523 3264 
L 4845 3277 
C 4256 3277 3859 3232 3091 3066 
L 3142 2554 
C 3744 2707 4173 2765 4762 2765 
C 5043 2765 5222 2752 5530 2720 
L 5523 3264 
z
M 3142 1888 
C 2803 1440 2701 1216 2701 915 
C 2701 269 3264 -70 4333 -70 
C 4678 -70 5011 -38 5485 38 
L 5779 83 
L 5728 653 
C 5363 518 4781 429 4307 429 
C 3616 429 3232 621 3232 973 
C 3232 1082 3264 1216 3315 1318 
C 3360 1414 3398 1466 3584 1690 
L 3142 1888 
z
M 4922 5210 
C 5203 4877 5395 4589 5581 4218 
L 5952 4429 
C 5722 4851 5581 5050 5280 5402 
L 4922 5210 
z
" transform="scale(0.015625)"/>
     <path id="HiraginoSans-W4-3051" d="M 2419 3162 
C 2458 3162 2490 3162 2509 3162 
C 2534 3162 2573 3162 2624 3155 
C 2925 3136 3194 3130 3379 3130 
C 3667 3130 4064 3149 4314 3168 
C 4320 2995 4320 2810 4320 2662 
C 4320 1702 4205 1229 3885 826 
C 3648 525 3354 307 2906 96 
C 3110 -58 3174 -122 3334 -320 
C 4058 90 4416 467 4621 1030 
C 4787 1478 4845 1914 4845 2758 
C 4845 3072 4845 3072 4838 3219 
C 5120 3258 5248 3283 5517 3347 
C 5722 3392 5747 3398 5862 3418 
L 5830 3962 
C 5594 3853 5293 3770 4826 3699 
C 4806 4237 4800 4576 4794 4717 
C 4787 4838 4787 4870 4787 4909 
C 4787 4973 4787 5018 4800 5120 
L 4218 5114 
C 4250 4915 4256 4819 4301 3648 
C 3968 3616 3782 3610 3514 3610 
C 3021 3610 2675 3635 2419 3699 
L 2419 3162 
z
M 1216 5037 
C 1216 4896 1210 4838 1165 4589 
C 966 3366 915 2880 915 2138 
C 915 1446 992 819 1152 186 
C 1184 64 1190 38 1203 -38 
L 1728 -6 
C 1728 218 1779 442 1914 819 
C 2042 1190 2208 1587 2400 1965 
L 1990 2157 
C 1683 1472 1613 1274 1504 832 
C 1498 947 1485 1126 1478 1242 
C 1446 1587 1434 1888 1434 2163 
C 1434 3059 1613 4326 1824 4960 
L 1216 5037 
z
" transform="scale(0.015625)"/>
     <path id="HiraginoSans-W4-3a" d="M 1165 3520 
L 442 3520 
L 442 2797 
L 1165 2797 
L 1165 3520 
z
M 1165 0 
L 1165 723 
L 442 723 
L 442 0 
L 1165 0 
z
" transform="scale(0.015625)"/>
     <path id="HiraginoSans-W4-4f4d" d="M 3667 4141 
L 2707 4141 
C 2381 4141 2202 4147 2016 4179 
L 2016 3661 
C 2163 3680 2374 3693 2720 3693 
L 5280 3693 
C 5555 3693 5754 3680 5965 3661 
L 5965 4179 
C 5779 4154 5581 4141 5280 4141 
L 4154 4141 
L 4154 4806 
C 4154 5024 4166 5152 4192 5293 
L 3622 5293 
C 3654 5139 3667 4992 3667 4794 
L 3667 4141 
z
M 2560 301 
C 2234 301 2035 314 1856 339 
L 1856 -198 
C 2061 -166 2278 -154 2573 -154 
L 5440 -154 
C 5728 -154 5965 -166 6157 -198 
L 6157 339 
C 5971 314 5773 301 5453 301 
L 4531 301 
C 4787 954 5050 1734 5229 2406 
C 5376 2957 5376 2957 5453 3206 
L 4883 3360 
C 4800 2618 4435 1306 4038 301 
L 2560 301 
z
M 992 294 
C 992 -45 979 -243 947 -467 
L 1510 -467 
C 1485 -224 1472 -6 1472 282 
L 1472 3718 
C 1696 4192 1786 4416 1971 4915 
C 2022 5069 2022 5075 2093 5261 
L 1562 5414 
C 1530 5197 1440 4864 1318 4550 
C 1037 3827 640 3187 141 2650 
C 250 2509 358 2310 410 2170 
C 672 2477 800 2662 1018 3027 
C 998 2758 992 2522 992 2253 
L 992 294 
z
M 3533 781 
C 3309 1856 3149 2426 2829 3296 
L 2342 3130 
C 2656 2330 2835 1670 3027 634 
L 3533 781 
z
" transform="scale(0.015625)"/>
     <path id="HiraginoSans-W4-7f6e" d="M 3123 3917 
C 3085 3731 3085 3731 3046 3571 
L 1037 3571 
C 730 3571 557 3578 358 3610 
L 358 3149 
C 570 3181 742 3187 1037 3187 
L 2931 3187 
C 2893 3066 2874 3008 2816 2861 
L 2432 2861 
C 2144 2861 1984 2867 1805 2874 
C 1818 2720 1824 2496 1824 2202 
L 1824 1107 
C 1824 832 1818 659 1805 499 
C 2003 512 2195 518 2470 518 
L 4723 518 
C 4998 518 5190 512 5395 499 
C 5376 621 5370 768 5370 1107 
L 5370 2202 
C 5370 2502 5376 2714 5389 2880 
C 5248 2867 5037 2861 4755 2861 
L 3283 2861 
C 3354 3046 3354 3046 3398 3187 
L 5299 3187 
C 5594 3187 5773 3174 5978 3149 
L 5978 3610 
C 5779 3578 5606 3571 5299 3571 
L 3507 3571 
C 3552 3744 3558 3776 3590 3917 
L 5088 3917 
C 5440 3917 5619 3910 5773 3898 
C 5754 4038 5747 4147 5747 4358 
L 5747 4672 
C 5747 4883 5754 5005 5773 5152 
C 5632 5139 5363 5126 5056 5126 
L 1376 5126 
C 1069 5126 858 5133 659 5152 
C 678 5005 685 4870 685 4672 
L 685 4358 
C 685 4166 678 4051 659 3898 
C 806 3910 1011 3917 1344 3917 
L 3123 3917 
z
M 2221 4282 
L 1146 4282 
L 1146 4749 
L 2221 4749 
L 2221 4282 
z
M 3750 4282 
L 2643 4282 
L 2643 4749 
L 3750 4749 
L 3750 4282 
z
M 4173 4282 
L 4173 4749 
L 5286 4749 
L 5286 4282 
L 4173 4282 
z
M 2272 2522 
L 4915 2522 
L 4915 2195 
L 2272 2195 
L 2272 2522 
z
M 2272 1869 
L 4915 1869 
L 4915 1542 
L 2272 1542 
L 2272 1869 
z
M 2272 1216 
L 4915 1216 
L 4915 864 
L 2272 864 
L 2272 1216 
z
M 1197 179 
L 1197 2253 
C 1197 2490 1203 2630 1229 2803 
L 685 2803 
C 710 2630 723 2477 723 2253 
L 723 96 
C 723 -166 710 -314 685 -493 
L 1197 -493 
L 1197 -218 
L 5376 -218 
C 5677 -218 5862 -230 6054 -256 
L 6054 218 
C 5856 186 5690 179 5376 179 
L 1197 179 
z
" transform="scale(0.015625)"/>
    </defs>
    <use xlink:href="#HiraginoSans-W4-a7"/>
    <use xlink:href="#HiraginoSans-W4-34" x="65.899994"/>
    <use xlink:href="#HiraginoSans-W4-2e" x="133.399979"/>
    <use xlink:href="#HiraginoSans-W4-31" x="158.399963"/>
    <use xlink:href="#HiraginoSans-W4-20" x="225.699951"/>
    <use xlink:href="#HiraginoSans-W4-30ac" x="258.999939"/>
    <use xlink:href="#HiraginoSans-W4-30a6" x="358.999924"/>
    <use xlink:href="#HiraginoSans-W4-30b9" x="458.999908"/>
    <use xlink:href="#HiraginoSans-W4-5206" x="558.999893"/>
    <use xlink:href="#HiraginoSans-W4-5e03" x="658.999878"/>
    <use xlink:href="#HiraginoSans-W4-306e" x="758.999863"/>
    <use xlink:href="#HiraginoSans-W4-30d1" x="858.999847"/>
    <use xlink:href="#HiraginoSans-W4-30e9" x="958.999832"/>
    <use xlink:href="#HiraginoSans-W4-30e1" x="1058.999817"/>
    <use xlink:href="#HiraginoSans-W4-30fc" x="1158.999802"/>
    <use xlink:href="#HiraginoSans-W4-30bf" x="1258.999786"/>
    <use xlink:href="#HiraginoSans-W4-306f" x="1358.999771"/>
    <use xlink:href="#HiraginoSans-W4-32" x="1458.999756"/>
    <use xlink:href="#HiraginoSans-W4-3064" x="1526.299744"/>
    <use xlink:href="#HiraginoSans-W4-3060" x="1626.299728"/>
    <use xlink:href="#HiraginoSans-W4-3051" x="1726.299713"/>
    <use xlink:href="#HiraginoSans-W4-3a" x="1826.299698"/>
    <use xlink:href="#HiraginoSans-W4-20" x="1851.299683"/>
    <use xlink:href="#HiraginoSans-W4-3bc" x="1884.59967"/>
    <use xlink:href="#HiraginoSans-W4-3d" x="1984.599655"/>
    <use xlink:href="#HiraginoSans-W4-5c71" x="2050.999649"/>
    <use xlink:href="#HiraginoSans-W4-306e" x="2150.999634"/>
    <use xlink:href="#HiraginoSans-W4-4f4d" x="2250.999619"/>
    <use xlink:href="#HiraginoSans-W4-7f6e" x="2350.999603"/>
    <use xlink:href="#HiraginoSans-W4-2c" x="2450.999588"/>
    <use xlink:href="#HiraginoSans-W4-20" x="2475.999573"/>
    <use xlink:href="#HiraginoSans-W4-3c3" x="2509.299561"/>
    <use xlink:href="#HiraginoSans-W4-3d" x="2609.299545"/>
    <use xlink:href="#HiraginoSans-W4-5c71" x="2675.699539"/>
    <use xlink:href="#HiraginoSans-W4-306e" x="2775.699524"/>
    <use xlink:href="#HiraginoSans-W4-5e45" x="2875.699509"/>
   </g>
  </g>
 </g>
 <defs>
  <clipPath id="pfe2e86ce43">
   <rect x="46.512969" y="53.5965" width="281.3875" height="185.0275"/>
  </clipPath>
  <clipPath id="p66520d584f">
   <rect x="378.860469" y="53.5965" width="281.3875" height="185.0275"/>
  </clipPath>
 </defs>
</svg>
